<?xml version="1.0" standalone="no"?><!DOCTYPE svg PUBLIC "-//W3C//DTD SVG 1.1//EN" "http://www.w3.org/Graphics/SVG/1.1/DTD/svg11.dtd"><svg t="1660619226660" class="icon" viewBox="0 0 1024 1024" version="1.1" xmlns="http://www.w3.org/2000/svg" p-id="7838" width="18" height="18" xmlns:xlink="http://www.w3.org/1999/xlink"><defs><style type="text/css">@font-face { font-family: feedback-iconfont; src: url("//at.alicdn.com/t/font_1031158_u69w8yhxdu.woff2?t=1630033759944") format("woff2"), url("//at.alicdn.com/t/font_1031158_u69w8yhxdu.woff?t=1630033759944") format("woff"), url("//at.alicdn.com/t/font_1031158_u69w8yhxdu.ttf?t=1630033759944") format("truetype"); }
</style></defs><path d="M904 875.9H120c-30.9 0-56-25.1-56-56V204.1c0-30.9 25.1-56 56-56h231.6c12.8 0 25.2 4.4 35.2 12.4L509.9 260H904c30.9 0 56 25.1 56 56v503.8c0 31-25.1 56.1-56 56.1z m0-56v28-28zM351.6 204.1H120v615.8h784l0.1-503.8H510c-12.8 0-25.3-4.4-35.3-12.5l-123.1-99.5z" p-id="7839" fill="#707070"></path></svg>