<?xml version="1.0" standalone="no"?><!DOCTYPE svg PUBLIC "-//W3C//DTD SVG 1.1//EN" "http://www.w3.org/Graphics/SVG/1.1/DTD/svg11.dtd"><svg t="1678671858139" class="icon" viewBox="0 0 1024 1024" version="1.1" xmlns="http://www.w3.org/2000/svg" p-id="2075" xmlns:xlink="http://www.w3.org/1999/xlink" width="200" height="200"><path d="M855.23 176.34H688.29C675.15 413.08 479 601 239 601a451.29 451.29 0 0 1-102-11.6v23a60 60 0 0 0 60 60h658.23a60.18 60.18 0 0 0 60-60V236.34a60.18 60.18 0 0 0-60-60z" fill="#C9F4EB" p-id="2076"></path><path d="M512 915a25 25 0 0 1-25-25V707a25 25 0 0 1 50 0v183a25 25 0 0 1-25 25z" fill="#10A38B" p-id="2077"></path><path d="M310.25 915a25 25 0 0 1-18.08-42.27l174.83-183a25 25 0 1 1 36.16 34.54l-174.82 183a24.93 24.93 0 0 1-18.09 7.73zM713.75 915a24.93 24.93 0 0 1-18.08-7.73l-174.82-183A25 25 0 0 1 557 689.73l174.82 183A25 25 0 0 1 713.75 915z" fill="#10A38B" p-id="2078"></path><path d="M804.09 702H225.9a125.14 125.14 0 0 1-125-125V280.93a125.14 125.14 0 0 1 125-125h578.19a125.14 125.14 0 0 1 125 125V577a125.14 125.14 0 0 1-125 125zM225.9 205.93a75.09 75.09 0 0 0-75 75V577a75.09 75.09 0 0 0 75 75h578.19a75.08 75.08 0 0 0 75-75V280.93a75.08 75.08 0 0 0-75-75z" fill="#10A38B" p-id="2079"></path><path d="M318.45 561.17A25 25 0 0 1 301.33 518l137.2-129a25 25 0 0 1 34.24 0l75.61 71.07 146-137.27a25 25 0 1 1 34.24 36.43L565.5 512.59a25 25 0 0 1-34.24 0l-75.61-71.06-120.08 112.86a25 25 0 0 1-17.12 6.78z" fill="#FFA143" p-id="2080"></path></svg>