<?xml version="1.0" standalone="no"?><!DOCTYPE svg PUBLIC "-//W3C//DTD SVG 1.1//EN" "http://www.w3.org/Graphics/SVG/1.1/DTD/svg11.dtd"><svg class="icon" width="256px" height="256.00px" viewBox="0 0 1024 1024" version="1.1" xmlns="http://www.w3.org/2000/svg"><path d="M856.746667 252.017778h-163.271111a28.444444 28.444444 0 0 1-28.444445-28.444445V59.733333L853.333333 250.311111z" fill="#CECECE" /><path d="M861.297778 267.946667v682.666666a25.031111 25.031111 0 0 1-23.324445 15.928889H186.026667a25.031111 25.031111 0 0 1-23.324445-15.928889V88.177778c0-20.48 10.808889-31.288889 23.324445-31.288889h471.608889a13.084444 13.084444 0 0 1 8.533333 2.844444v163.84a28.444444 28.444444 0 0 0 28.444444 28.444445h164.408889a39.822222 39.822222 0 0 1 2.275556 15.928889z" fill="#E5E7E6" /><path d="M837.404444 967.111111H186.595556a23.893333 23.893333 0 0 1-23.893334-23.893333v-252.586667h698.595556v252.586667a23.893333 23.893333 0 0 1-23.893334 23.893333z" fill="#359105" /><path d="M332.8 754.346667v163.84h-26.737778v-73.386667H234.951111v73.386667h-27.306667v-163.84h27.306667v72.248889h71.111111v-72.248889z m156.444444 0v18.204444h-48.924444v145.635556h-26.737778v-145.635556h-48.924444v-18.204444z m156.444445 0h26.737778v163.84h-26.737778v-113.777778l-36.977778 91.022222h-23.324444l-36.977778-91.022222v113.777778h-27.306667v-163.84h27.306667l48.355555 113.777777 48.924445-113.777777z m95.004444 0v143.928889h75.662223v19.911111h-102.968889v-163.84z" fill="#FFFFFF" /><path d="M468.764444 562.062222h-4.551111a11.377778 11.377778 0 0 1-6.257777-14.791111l87.04-232.106667a10.808889 10.808889 0 0 1 14.222222-6.257777 10.808889 10.808889 0 0 1 6.826666 14.222222L479.004444 554.666667a10.808889 10.808889 0 0 1-10.24 7.395555zM438.613333 512a11.377778 11.377778 0 0 1-7.964444 0L361.813333 443.164444a11.377778 11.377778 0 0 1-3.413333-7.964444 9.671111 9.671111 0 0 1 3.413333-7.964444l68.266667-68.266667a11.946667 11.946667 0 0 1 16.497778 0 12.515556 12.515556 0 0 1 0 16.497778L385.706667 435.2l60.871111 56.888889a10.808889 10.808889 0 0 1 0 15.928889 11.377778 11.377778 0 0 1-7.964445 3.982222zM585.386667 512a11.377778 11.377778 0 0 1-7.964445 0 10.808889 10.808889 0 0 1 0-15.928889l60.871111-56.888889-60.302222-63.715555a12.515556 12.515556 0 0 1 0-16.497778 11.946667 11.946667 0 0 1 16.497778 0l68.266667 68.266667a9.671111 9.671111 0 0 1 3.413333 7.964444 11.377778 11.377778 0 0 1-3.413333 7.964444L593.351111 512a11.377778 11.377778 0 0 1-7.964444 0z" fill="#359105" /></svg>