<?xml version="1.0" standalone="no"?><!DOCTYPE svg PUBLIC "-//W3C//DTD SVG 1.1//EN" "http://www.w3.org/Graphics/SVG/1.1/DTD/svg11.dtd"><svg height="338" legacy-metrics="false" node-id="1" sillyvg="true" template-height="338" template-width="394" version="1.1" viewBox="0 0 394 338" width="394" xmlns="http://www.w3.org/2000/svg" xmlns:xlink="http://www.w3.org/1999/xlink"><defs node-id="59"><linearGradient gradientUnits="objectBoundingBox" id="linearGradient-1" node-id="7" x1="0.5" x2="0.5" y1="0" y2="1"><stop offset="0" stop-color="#59d0fc" stop-opacity="0"></stop><stop offset="1" stop-color="#4b79ff"></stop></linearGradient><linearGradient gradientUnits="objectBoundingBox" id="linearGradient-2" node-id="10" x1="0.5" x2="0.5" y1="0" y2="1"><stop offset="0" stop-color="#59d0fc" stop-opacity="0.6065887"></stop><stop offset="1" stop-color="#4b79ff"></stop></linearGradient><linearGradient gradientUnits="objectBoundingBox" id="linearGradient-3" node-id="13" x1="0.49999997" x2="0.49999997" y1="0" y2="0.99999994"><stop offset="0" stop-color="#8ec1f6"></stop><stop offset="1" stop-color="#5c9ced"></stop></linearGradient><linearGradient gradientUnits="objectBoundingBox" id="linearGradient-4" node-id="16" x1="0.5" x2="0.5" y1="0" y2="1"><stop offset="0" stop-color="#59d0fc"></stop><stop offset="1" stop-color="#4b79ff"></stop></linearGradient><linearGradient gradientUnits="objectBoundingBox" id="linearGradient-5" node-id="19" x1="0.5" x2="0.5" y1="0" y2="1"><stop offset="0" stop-color="#59d0fc"></stop><stop offset="1" stop-color="#4b79ff"></stop></linearGradient><linearGradient gradientUnits="objectBoundingBox" id="linearGradient-6" node-id="22" x1="0.5" x2="0.5" y1="0" y2="1"><stop offset="0" stop-color="#59d0fc"></stop><stop offset="1" stop-color="#4b79ff"></stop></linearGradient><linearGradient gradientUnits="objectBoundingBox" id="linearGradient-7" node-id="25" x1="0" x2="0.88657767" y1="0" y2="1"><stop offset="0" stop-color="#59d0fc"></stop><stop offset="1" stop-color="#4b79ff"></stop></linearGradient><linearGradient gradientUnits="objectBoundingBox" id="linearGradient-8" node-id="28" x1="0.5" x2="0.5" y1="0" y2="1"><stop offset="0" stop-color="#59d0fc"></stop><stop offset="1" stop-color="#4b79ff"></stop></linearGradient><linearGradient gradientUnits="objectBoundingBox" id="linearGradient-9" node-id="31" x1="0.5" x2="0.5" y1="0" y2="1"><stop offset="0" stop-color="#59d0fc"></stop><stop offset="1" stop-color="#4b79ff"></stop></linearGradient></defs><g node-id="61"><g node-id="62"><g node-id="63"><path d="M 108.00 0.00 L 394.00 0.00 L 394.00 265.19 L 251.00 337.00 L 108.00 265.19 Z" fill="url(#linearGradient-1)" fill-opacity="0.37220982" fill-rule="evenodd" group-id="1,2,3" id="矩形" node-id="37" stroke-linecap="butt" stroke-opacity="0.37220982" stroke-width="1" target-height="337" target-width="286" target-x="108" target-y="0"></path></g><path d="M 108.00 265.74 L 251.00 337.00 L 394.00 265.74 L 251.00 181.00 L 108.00 265.74 Z" fill="none" group-id="1,2" id="路径-27复制-7" node-id="38" stroke="url(#linearGradient-2)" stroke-dasharray="6 6" stroke-linecap="butt" stroke-width="1" target-height="156" target-width="286" target-x="108" target-y="181"></path><path d="M 369.13 237.85 L 369.13 256.15 L 251.00 313.90 L 132.87 256.15 L 132.87 237.85 L 369.13 237.85 Z" fill="url(#linearGradient-3)" fill-rule="evenodd" group-id="1,2" id="矩形复制-47" node-id="39" stroke-linecap="butt" stroke-width="0.99999994" target-height="76.051636" target-width="236.2511" target-x="132.87445" target-y="237.84631"></path><path d="M 251.33 180.45 L 369.23 238.35 L 251.67 295.55 L 133.77 237.65 L 251.33 180.45 Z" fill="#336dbb" fill-rule="evenodd" group-id="1,2" id="矩形复制-48" node-id="40" stroke-linecap="butt" stroke-width="0.99999994" target-height="115.1051" target-width="235.46655" target-x="133.76672" target-y="180.44745"></path><path d="M 203.00 84.00 L 299.00 84.00 L 299.00 200.00 L 203.00 200.00 Z" fill="url(#linearGradient-4)" fill-opacity="0.24221075" fill-rule="evenodd" group-id="1,2,4" id="矩形复制-12" node-id="41" stroke-linecap="butt" stroke-opacity="0.24221075" stroke-width="1" target-height="116" target-width="96" target-x="203" target-y="84"></path><path d="M 194.00 101.00 L 308.00 101.00 L 308.00 238.00 L 194.00 238.00 Z" fill="url(#linearGradient-5)" fill-rule="evenodd" group-id="1,2" id="矩形" node-id="42" stroke-linecap="butt" stroke-width="1" target-height="137" target-width="114" target-x="194" target-y="101"></path><path d="M 241.00 145.00 L 261.00 145.00 L 262.51 145.18 L 263.58 145.67 L 264.33 146.43 L 264.82 147.53 L 265.00 149.09 L 265.00 186.91 L 264.82 188.47 L 264.33 189.57 L 263.58 190.33 L 262.51 190.82 L 261.00 191.00 L 241.00 191.00 L 239.49 190.82 L 238.42 190.33 L 237.67 189.57 L 237.18 188.47 L 237.00 186.91 L 237.00 149.09 L 237.18 147.53 L 237.67 146.43 L 238.42 145.67 L 239.49 145.18 L 241.00 145.00 Z" fill="#b6e8fd" fill-rule="nonzero" group-id="1,2,5" id="路径" node-id="44" stroke-linecap="butt" stroke-width="1" target-height="46" target-width="28" target-x="237" target-y="145"></path><path d="M 242.00 152.00 L 260.47 152.00 L 260.47 178.00 L 242.00 178.00 Z" fill="#53aafd" fill-rule="nonzero" group-id="1,2,5" id="路径" node-id="45" stroke-linecap="butt" stroke-width="1" target-height="26" target-width="18.469574" target-x="242" target-y="152"></path><path d="M 249.00 184.00 L 249.10 184.79 L 249.40 185.50 L 249.87 186.11 L 250.50 186.60 L 251.23 186.90 L 252.00 187.00 L 252.77 186.90 L 253.50 186.60 L 254.13 186.11 L 254.60 185.50 L 254.90 184.79 L 255.00 184.00 L 254.90 183.21 L 254.60 182.50 L 254.13 181.89 L 253.50 181.40 L 252.77 181.10 L 252.00 181.00 L 251.23 181.10 L 250.50 181.40 L 249.87 181.89 L 249.40 182.50 L 249.10 183.21 L 249.00 184.00 L 249.00 184.00 Z" fill="#53aafd" fill-rule="nonzero" group-id="1,2,5" id="路径" node-id="46" stroke-linecap="butt" stroke-width="1" target-height="6" target-width="6" target-x="249" target-y="181"></path><path d="M 165.00 116.50 L 164.65 120.24 L 163.72 123.67 L 162.20 126.85 L 160.16 129.72 L 157.72 132.16 L 154.85 134.20 L 151.67 135.72 L 148.24 136.65 L 144.50 137.00 L 140.76 136.65 L 137.33 135.72 L 134.15 134.20 L 131.28 132.16 L 128.84 129.72 L 126.80 126.85 L 125.28 123.67 L 124.35 120.24 L 124.00 116.50 L 124.35 112.76 L 125.28 109.33 L 126.80 106.15 L 128.84 103.28 L 131.28 100.84 L 134.15 98.80 L 137.33 97.28 L 140.76 96.35 L 144.50 96.00 L 148.24 96.35 L 151.67 97.28 L 154.85 98.80 L 157.72 100.84 L 160.16 103.28 L 162.20 106.15 L 163.72 109.33 L 164.65 112.76 L 165.00 116.50 Z" fill="#37e5e6" fill-opacity="0.15335445" fill-rule="evenodd" group-id="1,2" id="椭圆形复制-7" node-id="47" stroke="#18c3e8" stroke-linecap="butt" stroke-width="1" target-height="41" target-width="41" target-x="124" target-y="96"></path><path d="M 149.00 116.50 L 148.83 117.72 L 148.39 118.77 L 147.68 119.68 L 146.77 120.39 L 145.72 120.83 L 144.50 121.00 L 143.28 120.83 L 142.23 120.39 L 141.32 119.68 L 140.61 118.77 L 140.17 117.72 L 140.00 116.50 L 140.17 115.28 L 140.61 114.23 L 141.32 113.32 L 142.23 112.61 L 143.28 112.17 L 144.50 112.00 L 145.72 112.17 L 146.77 112.61 L 147.68 113.32 L 148.39 114.23 L 148.83 115.28 L 149.00 116.50 Z" fill="#51eaed" fill-rule="evenodd" group-id="1,2" id="椭圆形复制-8" node-id="48" stroke-linecap="butt" stroke-width="1" target-height="9" target-width="9" target-x="140" target-y="112"></path><path d="M 124.00 116.00 L 41.00 116.00 L 41.00 200.00" fill="none" group-id="1,2" id="路径-5复制-2" node-id="49" stroke="url(#linearGradient-6)" stroke-dasharray="7 7" stroke-linecap="butt" stroke-width="1" target-height="84" target-width="83" target-x="41" target-y="116"></path><path d="M 8.00 215.00 L 74.00 215.00 L 74.00 281.00 L 8.00 281.00 Z" fill="url(#linearGradient-7)" fill-opacity="0.7020089" fill-rule="evenodd" group-id="1,2,6" id="矩形" node-id="50" stroke-linecap="butt" stroke-opacity="0.7020089" stroke-width="1" target-height="66" target-width="66" target-x="8" target-y="215"></path><path d="M 46.00 213.50 L 45.81 214.71 L 45.33 215.76 L 44.54 216.68 L 43.53 217.38 L 42.37 217.82 L 41.00 218.00 L 39.63 217.82 L 38.47 217.38 L 37.46 216.68 L 36.67 215.76 L 36.19 214.71 L 36.00 213.50 L 36.19 212.29 L 36.67 211.24 L 37.46 210.32 L 38.47 209.62 L 39.63 209.18 L 41.00 209.00 L 42.37 209.18 L 43.53 209.62 L 44.54 210.32 L 45.33 211.24 L 45.81 212.29 L 46.00 213.50 Z" fill="#51eaed" fill-rule="evenodd" group-id="1,2" id="椭圆形复制-9" node-id="51" stroke-linecap="butt" stroke-width="1" target-height="9" target-width="10" target-x="36" target-y="209"></path><path d="M 61.00 245.72 L 60.70 248.83 L 59.88 251.70 L 58.55 254.37 L 56.76 256.78 L 54.60 258.87 L 52.02 260.65 L 49.20 262.00 L 46.11 262.92 L 42.70 263.38 L 40.73 265.35 L 38.77 266.60 L 36.74 267.43 L 35.18 267.81 L 33.49 268.00 L 33.49 268.00 L 32.83 267.82 L 32.35 267.32 L 32.35 267.32 L 32.15 266.64 L 32.28 265.94 L 33.16 263.62 L 33.52 261.87 L 30.95 260.60 L 28.71 259.09 L 26.78 257.35 L 25.13 255.36 L 23.78 253.15 L 22.82 250.82 L 22.22 248.35 L 22.00 245.72 L 22.33 242.50 L 23.22 239.54 L 24.67 236.78 L 26.59 234.31 L 28.91 232.20 L 31.66 230.42 L 34.67 229.12 L 37.93 228.30 L 41.50 228.00 L 45.07 228.30 L 48.33 229.12 L 51.34 230.42 L 54.09 232.20 L 56.41 234.31 L 58.33 236.78 L 59.78 239.54 L 60.67 242.50 L 61.00 245.72 L 61.00 245.72 Z M 41.98 260.29 L 44.80 259.98 L 47.39 259.27 L 49.78 258.18 L 51.97 256.72 L 53.81 255.02 L 55.34 253.04 L 56.49 250.84 L 57.20 248.49 L 57.46 245.97 L 57.19 243.37 L 56.46 240.97 L 55.27 238.74 L 53.70 236.74 L 51.80 235.04 L 49.55 233.60 L 47.09 232.54 L 44.42 231.88 L 41.50 231.64 L 38.58 231.88 L 35.91 232.54 L 33.45 233.60 L 31.20 235.03 L 29.30 236.74 L 27.73 238.74 L 26.54 240.97 L 25.82 243.36 L 25.55 245.97 L 25.87 248.82 L 26.75 251.45 L 28.22 253.91 L 30.14 256.04 L 32.50 257.79 L 35.36 259.19 L 35.37 259.20 L 35.49 259.27 L 35.49 259.27 L 36.09 259.90 L 36.40 260.82 L 36.44 261.95 L 35.94 264.36 L 37.12 263.95 L 38.49 263.25 L 39.77 262.27 L 41.00 260.85 L 41.04 260.80 L 41.04 260.80 L 41.29 260.57 L 41.42 260.46 L 41.42 260.46 L 41.70 260.36 L 41.88 260.31 L 41.98 260.29 L 41.98 260.29 Z M 48.59 240.73 L 48.59 240.73 L 49.28 240.87 L 49.84 241.26 L 50.22 241.83 L 50.36 242.55 L 50.22 243.26 L 49.84 243.83 L 49.28 244.22 L 48.59 244.36 L 34.41 244.36 L 34.41 244.36 L 33.72 244.22 L 33.16 243.83 L 32.78 243.26 L 32.64 242.55 L 32.78 241.83 L 33.16 241.26 L 33.72 240.87 L 34.41 240.73 L 48.59 240.73 L 48.59 240.73 Z M 34.41 248.00 L 41.50 248.00 L 41.50 248.00 L 42.19 248.14 L 42.75 248.53 L 43.13 249.10 L 43.27 249.82 L 43.13 250.53 L 42.75 251.10 L 42.19 251.49 L 41.50 251.64 L 34.41 251.64 L 34.41 251.64 L 33.71 251.49 L 33.15 251.10 L 32.78 250.53 L 32.63 249.82 L 32.78 249.10 L 33.15 248.53 L 33.71 248.14 L 34.41 248.00 L 34.41 248.00 Z" fill="#b6e8fd" fill-rule="nonzero" group-id="1,2,7" id="形状" node-id="53" stroke-linecap="butt" stroke-width="1" target-height="40" target-width="39" target-x="22" target-y="228"></path><path d="M 68.00 208.00 L 80.00 208.00 L 80.00 219.00" fill="none" group-id="1,2" id="路径-6" node-id="54" stroke="url(#linearGradient-8)" stroke-linecap="butt" stroke-width="2" target-height="11" target-width="12" target-x="68" target-y="208"></path><path d="M 68.00 286.00 L 80.00 286.00 L 80.00 275.00" fill="none" group-id="1,2" id="路径-6复制-2" node-id="55" stroke="url(#linearGradient-8)" stroke-linecap="butt" stroke-width="2" target-height="11" target-width="12" target-x="68" target-y="275"></path><path d="M 12.00 208.00 L 1.00 208.00 L 1.00 219.00" fill="none" group-id="1,2" id="路径-6复制" node-id="56" stroke="url(#linearGradient-9)" stroke-linecap="butt" stroke-width="2" target-height="11" target-width="11" target-x="1" target-y="208"></path><path d="M 12.00 286.00 L 1.00 286.00 L 1.00 275.00" fill="none" group-id="1,2" id="路径-6复制-3" node-id="57" stroke="url(#linearGradient-9)" stroke-linecap="butt" stroke-width="2" target-height="11" target-width="11" target-x="1" target-y="275"></path></g></g></svg>