<?xml version="1.0" standalone="no"?><!DOCTYPE svg PUBLIC "-//W3C//DTD SVG 1.1//EN" "http://www.w3.org/Graphics/SVG/1.1/DTD/svg11.dtd"><svg height="282" legacy-metrics="false" node-id="1" sillyvg="true" template-height="282" template-width="371" version="1.1" viewBox="0 0 371 282" width="371" xmlns="http://www.w3.org/2000/svg" xmlns:xlink="http://www.w3.org/1999/xlink"><defs node-id="52"><linearGradient gradientUnits="objectBoundingBox" id="linearGradient-1" node-id="7" x1="0.5" x2="0.5" y1="0" y2="1"><stop offset="0" stop-color="#59d0fc"></stop><stop offset="1" stop-color="#4b79ff"></stop></linearGradient><linearGradient gradientUnits="objectBoundingBox" id="linearGradient-2" node-id="10" x1="0.5" x2="0.5" y1="0" y2="1"><stop offset="0" stop-color="#59d0fc"></stop><stop offset="1" stop-color="#4b79ff"></stop></linearGradient><linearGradient gradientUnits="objectBoundingBox" id="linearGradient-3" node-id="13" x1="0.5" x2="0.5" y1="0" y2="1"><stop offset="0" stop-color="#59d0fc"></stop><stop offset="1" stop-color="#4b79ff"></stop></linearGradient><linearGradient gradientUnits="objectBoundingBox" id="linearGradient-4" node-id="16" x1="0.5" x2="0.5" y1="0" y2="1"><stop offset="0" stop-color="#59d0fc"></stop><stop offset="1" stop-color="#4b79ff" stop-opacity="0"></stop></linearGradient><linearGradient gradientUnits="objectBoundingBox" id="linearGradient-5" node-id="19" x1="0" x2="0.5" y1="0.15387806" y2="0.61303854"><stop offset="0" stop-color="#59d0fc"></stop><stop offset="1" stop-color="#4b79ff"></stop></linearGradient><linearGradient gradientUnits="objectBoundingBox" id="linearGradient-6" node-id="22" x1="0.14696611" x2="0.5" y1="0.22824872" y2="0.7717513"><stop offset="0" stop-color="#59d0fc"></stop><stop offset="1" stop-color="#4b79ff"></stop></linearGradient><linearGradient gradientUnits="objectBoundingBox" id="linearGradient-7" node-id="25" x1="0.5" x2="0.5" y1="0" y2="1"><stop offset="0" stop-color="#59d0fc"></stop><stop offset="1" stop-color="#4b79ff"></stop></linearGradient><linearGradient gradientUnits="objectBoundingBox" id="linearGradient-8" node-id="28" x1="0.5" x2="0.5" y1="0" y2="1"><stop offset="0" stop-color="#59d0fc"></stop><stop offset="1" stop-color="#4b79ff"></stop></linearGradient></defs><g node-id="54"><g node-id="55"><path d="M 41.00 199.09 L 186.00 281.16 L 331.00 199.09 L 191.79 116.16 Z" fill="url(#linearGradient-1)" fill-opacity="0.13" fill-rule="evenodd" group-id="1,2" id="路径-36复制-2" node-id="37" stroke-linecap="butt" stroke-width="1" target-height="165" target-width="290" target-x="41" target-y="116.157166"></path><path d="M 5.00 152.20 L 186.50 255.16 L 368.00 152.20 L 193.75 48.16 Z" fill="url(#linearGradient-2)" fill-opacity="0.17" fill-rule="evenodd" group-id="1,2" id="路径-36复制" node-id="38" stroke="url(#linearGradient-2)" stroke-linecap="butt" stroke-width="2" target-height="207" target-width="363" target-x="5" target-y="48.157166"></path><path d="M 1.00 120.22 L 186.00 225.16 L 371.00 120.22 L 193.39 14.16 L 1.00 120.22 Z" fill="none" group-id="1,2" id="路径-36" node-id="39" stroke="url(#linearGradient-3)" stroke-dasharray="3 3" stroke-linecap="butt" stroke-width="2" target-height="211" target-width="370" target-x="1" target-y="14.157166"></path><path d="M 100.00 51.16 L 100.00 203.37 L 270.07 200.98 L 270.07 51.16 L 222.29 79.52 L 198.04 93.48 L 187.90 98.91 L 184.88 100.20 L 183.46 100.09 L 179.83 98.78 L 172.24 95.04 L 158.39 87.26 L 135.44 73.43 L 100.00 51.16 Z" fill="url(#linearGradient-4)" fill-rule="evenodd" group-id="1,2" id="路径-37复制" node-id="40" stroke-linecap="butt" stroke-width="1" target-height="152.21747" target-width="170.06943" target-x="100" target-y="51.157166"></path><path d="M 269.83 52.28 L 270.29 50.96 L 270.22 49.63 L 269.65 48.42 L 268.62 47.48 L 200.60 6.76 L 197.14 5.00 L 193.55 3.74 L 189.83 2.98 L 186.07 2.71 L 182.31 2.95 L 178.59 3.68 L 174.99 4.91 L 171.51 6.65 L 101.56 47.79 L 100.85 48.34 L 100.31 49.05 L 99.86 50.37 L 99.95 51.70 L 100.52 52.90 L 101.57 53.83 L 176.78 97.78 L 179.13 98.88 L 181.53 99.54 L 184.03 99.77 L 186.54 99.56 L 188.95 98.92 L 191.31 97.84 L 268.56 53.52 L 269.27 52.98 L 269.83 52.28 Z" fill="url(#linearGradient-5)" fill-rule="evenodd" group-id="1,2" id="矩形复制" node-id="41" stroke="url(#linearGradient-6)" stroke-linecap="butt" stroke-width="1" target-height="97.05214" target-width="170.43274" target-x="99.85827" target-y="2.713234"></path><path d="M 169.87 65.00 L 162.78 60.07 L 158.44 56.63 L 156.05 54.29 L 154.96 52.76 L 154.22 50.89 L 154.00 49.21 L 154.23 47.65 L 154.91 46.27 L 156.12 45.06 L 158.01 44.00 L 159.77 43.62 L 162.27 43.61 L 164.92 43.89 L 167.72 44.36 L 172.71 45.42 L 175.59 45.96 L 176.81 45.66 L 177.85 44.91 L 178.58 43.90 L 178.82 42.98 L 178.83 41.12 L 179.00 39.67 L 179.47 37.78 L 180.28 35.85 L 181.67 33.67 L 183.55 31.64 L 186.37 29.50 L 188.52 28.33 L 190.46 27.57 L 192.23 27.17 L 194.88 27.01 L 197.13 27.34 L 199.20 28.02 L 200.82 28.86 L 202.22 29.83 L 203.07 30.58 L 203.94 31.79 L 204.69 33.72 L 205.00 35.89 L 204.72 38.33 L 204.16 39.90 L 203.16 41.44 L 201.65 42.98 L 198.98 44.92 L 196.43 46.42 L 193.98 47.53 L 190.22 48.68 L 186.88 49.16 L 185.82 49.86 L 185.34 50.43 L 185.16 51.10 L 185.24 52.12 L 185.67 53.57 L 186.30 54.80 L 187.72 56.80 L 188.26 57.64 L 188.43 58.24 L 188.27 58.82 L 187.83 59.41 L 187.22 59.87 L 186.53 60.10 L 185.85 60.05 L 185.24 59.59 L 184.16 57.64 L 183.46 56.44 L 182.49 55.20 L 181.25 54.16 L 179.50 53.34 L 177.51 52.95 L 175.68 52.96 L 173.97 53.34 L 172.34 54.03 L 170.98 54.91 L 169.87 55.97 L 169.21 57.12 L 168.89 58.84 L 169.03 61.37 L 169.87 65.00 Z" fill="#b6e8fd" fill-rule="evenodd" group-id="1,2" id="路径-37" node-id="42" stroke-linecap="butt" stroke-width="1" target-height="37.98558" target-width="50.99414" target-x="154.00357" target-y="27.01442"></path><path d="M 173.00 59.42 L 174.29 63.29 L 174.87 66.07 L 174.94 68.01 L 174.65 69.35 L 177.00 71.00 L 184.36 68.17 L 190.74 66.14 L 196.23 64.82 L 200.95 64.09 L 205.00 63.87 L 203.28 63.41 L 201.41 63.06 L 198.51 62.71 L 195.30 62.59 L 191.25 62.78 L 186.99 63.38 L 182.06 64.60 L 182.05 63.43 L 181.65 60.90 L 181.13 59.56 L 180.31 58.43 L 178.81 57.33 L 177.64 57.01 L 176.47 57.10 L 175.32 57.44 L 173.97 58.19 L 173.00 59.42 Z" fill="#b6e8fd" fill-rule="evenodd" group-id="1,2" id="路径-38" node-id="43" stroke-linecap="butt" stroke-width="1" target-height="13.9876175" target-width="32" target-x="173" target-y="57.012383"></path><path d="M 189.00 208.00 L 213.14 222.42 L 212.31 209.30 Z" fill="url(#linearGradient-7)" fill-rule="evenodd" group-id="1,2" id="路径-39" node-id="44" stroke-linecap="butt" stroke-width="1" target-height="14.422867" target-width="24.143677" target-x="189" target-y="208"></path><path d="M 324.00 5.50 L 323.83 6.72 L 323.39 7.77 L 322.68 8.68 L 321.77 9.39 L 320.72 9.83 L 319.50 10.00 L 318.28 9.83 L 317.23 9.39 L 316.32 8.68 L 315.61 7.77 L 315.17 6.72 L 315.00 5.50 L 315.17 4.28 L 315.61 3.23 L 316.32 2.32 L 317.23 1.61 L 318.28 1.17 L 319.50 1.00 L 320.72 1.17 L 321.77 1.61 L 322.68 2.32 L 323.39 3.23 L 323.83 4.28 L 324.00 5.50 Z" fill="none" group-id="1,2" id="椭圆形" node-id="45" stroke="url(#linearGradient-8)" stroke-linecap="butt" stroke-width="1" target-height="9" target-width="9" target-x="315" target-y="1"></path><path d="M 22.00 197.50 L 21.83 198.72 L 21.39 199.77 L 20.68 200.68 L 19.77 201.39 L 18.72 201.83 L 17.50 202.00 L 16.28 201.83 L 15.23 201.39 L 14.32 200.68 L 13.61 199.77 L 13.17 198.72 L 13.00 197.50 L 13.17 196.28 L 13.61 195.23 L 14.32 194.32 L 15.23 193.61 L 16.28 193.17 L 17.50 193.00 L 18.72 193.17 L 19.77 193.61 L 20.68 194.32 L 21.39 195.23 L 21.83 196.28 L 22.00 197.50 Z" fill="none" group-id="1,2" id="椭圆形复制" node-id="46" stroke="url(#linearGradient-8)" stroke-linecap="butt" stroke-width="1" target-height="9" target-width="9" target-x="13" target-y="193"></path><path d="M 76.00 45.50 L 75.83 46.72 L 75.39 47.77 L 74.68 48.68 L 73.77 49.39 L 72.72 49.83 L 71.50 50.00 L 70.28 49.83 L 69.23 49.39 L 68.32 48.68 L 67.61 47.77 L 67.17 46.72 L 67.00 45.50 L 67.17 44.28 L 67.61 43.23 L 68.32 42.32 L 69.23 41.61 L 70.28 41.17 L 71.50 41.00 L 72.72 41.17 L 73.77 41.61 L 74.68 42.32 L 75.39 43.23 L 75.83 44.28 L 76.00 45.50 Z" fill="none" group-id="1,2" id="椭圆形复制-2" node-id="47" stroke="url(#linearGradient-8)" stroke-linecap="butt" stroke-width="1" target-height="9" target-width="9" target-x="67" target-y="41"></path><path d="M 319.50 10.00 L 319.50 60.10" fill="none" group-id="1,2" id="直线" node-id="48" stroke-linecap="butt" stroke-width="1" target-height="50.10363" target-width="0" target-x="319.5" target-y="10"></path><path d="M 17.50 202.00 L 17.50 252.10" fill="none" group-id="1,2" id="直线复制" node-id="49" stroke-linecap="butt" stroke-width="1" target-height="50.103638" target-width="0" target-x="17.5" target-y="202"></path><path d="M 71.50 50.00 L 71.50 100.10" fill="none" group-id="1,2" id="直线复制-2" node-id="50" stroke-linecap="butt" stroke-width="1" target-height="50.103638" target-width="0" target-x="71.5" target-y="50"></path></g></g></svg>