<?xml version="1.0" standalone="no"?><!DOCTYPE svg PUBLIC "-//W3C//DTD SVG 1.1//EN" "http://www.w3.org/Graphics/SVG/1.1/DTD/svg11.dtd"><svg height="298" legacy-metrics="false" node-id="1" sillyvg="true" template-height="298" template-width="241" version="1.1" viewBox="0 0 241 298" width="241" xmlns="http://www.w3.org/2000/svg" xmlns:xlink="http://www.w3.org/1999/xlink"><defs node-id="50"><linearGradient gradientUnits="objectBoundingBox" id="linearGradient-1" node-id="7" x1="-0.13428177" x2="0.9121842" y1="0.3901108" y2="0.6473321"><stop offset="0" stop-color="#59d0fc"></stop><stop offset="1" stop-color="#4b79ff"></stop></linearGradient><linearGradient gradientUnits="objectBoundingBox" id="linearGradient-2" node-id="10" x1="0.06733401" x2="0.5" y1="0.10743261" y2="0.6558229"><stop offset="0" stop-color="#3470af"></stop><stop offset="1" stop-color="#3965ca"></stop></linearGradient><linearGradient gradientUnits="objectBoundingBox" id="linearGradient-3" node-id="13" x1="1" x2="0.5" y1="0.15909086" y2="0.65071124"><stop offset="0" stop-color="#59d0fc"></stop><stop offset="1" stop-color="#4b79ff"></stop></linearGradient><linearGradient gradientUnits="objectBoundingBox" id="linearGradient-4" node-id="16" x1="0.5" x2="0.5" y1="0" y2="1"><stop offset="0" stop-color="#ffffff"></stop><stop offset="1" stop-color="#4b79ff"></stop></linearGradient><linearGradient gradientUnits="objectBoundingBox" id="linearGradient-5" node-id="19" x1="0.2991044" x2="0.5" y1="-0.37943196" y2="1"><stop offset="0" stop-color="#59d0fc"></stop><stop offset="1" stop-color="#4b79ff"></stop></linearGradient><linearGradient gradientUnits="objectBoundingBox" id="linearGradient-6" node-id="22" x1="0.5" x2="0.5" y1="0" y2="1"><stop offset="0" stop-color="#97dbf4"></stop><stop offset="1" stop-color="#537fff"></stop></linearGradient><linearGradient gradientUnits="objectBoundingBox" id="linearGradient-7" node-id="25" x1="0.03630372" x2="0.5" y1="0.08224487" y2="0.9177551"><stop offset="0" stop-color="#dee7ff"></stop><stop offset="1" stop-color="#c5d4ff"></stop></linearGradient><linearGradient gradientUnits="objectBoundingBox" id="linearGradient-8" node-id="28" x1="0.5" x2="0.5" y1="0" y2="1"><stop offset="0" stop-color="#59d0fc"></stop><stop offset="1" stop-color="#4b79ff"></stop></linearGradient></defs><g node-id="52"><g node-id="53"><g node-id="54"><path d="M 35.34 198.00 L 241.00 250.25 L 241.00 264.45 L 240.72 266.53 L 239.94 268.43 L 238.69 270.07 L 237.03 271.36 L 201.06 292.35 L 196.98 294.41 L 192.79 295.94 L 188.48 296.96 L 184.07 297.47 L 179.67 297.47 L 175.27 296.95 L 170.95 295.92 L 166.77 294.38 L 162.69 292.31 L 38.06 219.25 L 36.28 217.82 L 35.00 216.01 L 34.26 213.92 L 34.14 211.64 L 35.34 198.00 L 35.34 198.00 Z" fill="url(#linearGradient-1)" fill-opacity="0.36458334" fill-rule="evenodd" group-id="1,2,3" id="矩形复制-6" node-id="34" stroke-linecap="butt" stroke-opacity="0.36458334" stroke-width="1" target-height="99.47104" target-width="206.86356" target-x="34.13644" target-y="198"></path></g><path d="M 91.03 168.14 L 234.68 242.02 L 236.46 243.26 L 237.77 244.84 L 238.64 246.69 L 239.01 248.71 L 238.86 250.76 L 238.14 252.80 L 236.93 254.53 L 235.32 255.89 L 213.11 270.01 L 208.14 272.84 L 203.07 275.14 L 197.86 276.95 L 192.51 278.25 L 187.05 279.07 L 181.60 279.38 L 176.15 279.19 L 170.68 278.50 L 165.29 277.32 L 160.05 275.64 L 154.92 273.45 L 149.89 270.74 L 40.86 204.88 L 39.18 203.52 L 37.97 201.85 L 37.23 199.95 L 37.00 197.91 L 37.29 195.88 L 38.15 193.89 L 39.48 192.23 L 41.21 190.98 L 83.59 168.21 L 85.41 167.50 L 87.30 167.26 L 89.20 167.47 L 91.03 168.14 Z" fill="url(#linearGradient-2)" fill-rule="evenodd" group-id="1,2" id="矩形" node-id="35" stroke-linecap="butt" stroke-width="1" target-height="112.12155" target-width="202.01837" target-x="36.995316" target-y="167.25693"></path><path d="M 88.89 184.14 L 213.39 247.85 L 214.01 248.35 L 214.38 249.02 L 214.47 249.78 L 214.25 250.55 L 213.50 251.35 L 193.06 263.57 L 190.02 265.04 L 186.88 265.93 L 183.62 266.26 L 180.35 266.03 L 177.20 265.24 L 174.10 263.88 L 63.46 202.53 L 62.37 201.70 L 61.58 200.71 L 61.08 199.54 L 60.88 198.27 L 61.02 197.01 L 61.51 195.73 L 62.38 194.59 L 63.54 193.74 L 81.49 184.20 L 83.30 183.50 L 85.19 183.26 L 87.07 183.47 L 88.89 184.14 Z" fill="url(#linearGradient-3)" fill-opacity="0.3068964" fill-rule="evenodd" group-id="1,2,4" id="矩形复制-9" node-id="36" stroke-linecap="butt" stroke-opacity="0.3068964" stroke-width="1" target-height="82.99982" target-width="153.58803" target-x="60.881443" target-y="183.25885"></path><path d="M 104.05 12.47 L 181.07 57.33 L 183.52 58.99 L 185.65 60.88 L 187.50 63.00 L 189.07 65.38 L 190.33 67.94 L 191.24 70.60 L 191.80 73.39 L 192.00 76.34 L 192.00 234.78 L 191.82 236.99 L 191.33 239.06 L 190.54 241.01 L 189.46 242.82 L 188.14 244.43 L 186.58 245.84 L 184.82 247.01 L 182.88 247.89 L 180.75 248.50 L 173.29 250.00 L 173.29 250.00 L 95.55 200.73 L 93.04 198.93 L 90.81 196.92 L 88.82 194.67 L 87.10 192.22 L 85.66 189.62 L 84.52 186.85 L 83.68 183.97 L 83.18 181.00 L 83.00 177.92 L 83.00 24.57 L 83.24 22.01 L 83.88 19.67 L 84.91 17.50 L 86.30 15.54 L 87.97 13.87 L 89.93 12.48 L 92.10 11.44 L 94.44 10.81 L 97.00 10.57 L 99.47 10.79 L 101.80 11.42 L 104.05 12.47 Z" fill="url(#linearGradient-4)" fill-opacity="0.3268229" fill-rule="evenodd" group-id="1,2,5" id="矩形复制-11" node-id="37" stroke-linecap="butt" stroke-opacity="0.3268229" stroke-width="1" target-height="239.43124" target-width="109" target-x="83" target-y="10.568762"></path><path d="M 98.06 14.49 L 175.10 59.48 L 177.53 61.15 L 179.66 63.03 L 181.51 65.15 L 183.08 67.53 L 184.34 70.09 L 185.24 72.75 L 185.80 75.54 L 186.00 78.48 L 186.00 233.25 L 185.76 235.81 L 185.12 238.15 L 184.09 240.32 L 182.70 242.28 L 181.03 243.95 L 179.07 245.34 L 176.90 246.38 L 174.56 247.01 L 172.00 247.25 L 169.58 247.04 L 167.28 246.43 L 165.08 245.42 L 90.65 203.07 L 87.94 201.30 L 85.52 199.28 L 83.36 197.00 L 81.48 194.49 L 79.92 191.81 L 78.66 188.93 L 77.75 185.93 L 77.20 182.83 L 77.00 179.60 L 77.00 26.58 L 77.24 24.03 L 77.88 21.68 L 78.91 19.52 L 80.30 17.55 L 81.97 15.88 L 83.93 14.49 L 86.10 13.46 L 88.44 12.82 L 91.00 12.58 L 93.47 12.80 L 95.81 13.44 L 98.06 14.49 Z" fill="url(#linearGradient-5)" fill-rule="evenodd" group-id="1,2" id="矩形" node-id="38" stroke-linecap="butt" stroke-width="1" target-height="234.67041" target-width="109" target-x="77" target-y="12.581442"></path><path d="M 96.68 39.08 L 169.43 83.33 L 172.52 85.60 L 175.09 88.27 L 177.18 91.34 L 178.72 94.73 L 179.66 98.31 L 180.00 102.13 L 180.00 233.10 L 179.81 234.46 L 179.32 235.62 L 178.54 236.64 L 177.52 237.42 L 176.36 237.91 L 175.00 238.10 L 173.70 237.93 L 172.49 237.43 L 99.94 195.35 L 96.58 193.12 L 93.57 190.58 L 90.89 187.72 L 88.56 184.57 L 86.62 181.20 L 85.06 177.60 L 83.93 173.85 L 83.24 169.97 L 83.00 165.94 L 83.00 46.77 L 83.33 44.36 L 84.23 42.22 L 85.64 40.40 L 87.46 38.99 L 89.59 38.09 L 92.00 37.77 L 93.64 37.92 L 95.19 38.35 L 96.68 39.08 Z" fill="url(#linearGradient-6)" fill-rule="evenodd" group-id="1,2" id="矩形复制-10" node-id="39" stroke-linecap="butt" stroke-width="1" target-height="200.336" target-width="97" target-x="83" target-y="37.76623"></path><path d="M 117.76 36.50 L 146.75 53.89 L 147.30 54.40 L 147.60 55.05 L 147.64 55.76 L 147.39 56.47 L 146.88 57.02 L 146.23 57.32 L 145.52 57.36 L 144.81 57.11 L 115.82 39.71 L 115.27 39.21 L 114.97 38.56 L 114.93 37.85 L 115.18 37.14 L 115.18 37.14 L 115.69 36.58 L 116.34 36.28 L 117.05 36.24 L 117.76 36.50 Z" fill="#aabcff" fill-rule="evenodd" group-id="1,2" id="矩形" node-id="40" stroke-linecap="butt" stroke-width="1" target-height="21.11631" target-width="32.70662" target-x="114.93187" target-y="36.24443"></path><path d="M 17.96 1.45 L 120.22 59.07 L 123.35 61.09 L 126.15 63.41 L 128.64 66.02 L 130.82 68.91 L 132.62 72.01 L 134.07 75.32 L 135.13 78.78 L 135.77 82.35 L 136.00 86.07 L 136.00 106.73 L 135.71 108.87 L 134.91 110.76 L 133.66 112.38 L 132.04 113.63 L 130.14 114.44 L 128.00 114.73 L 125.93 114.45 L 124.00 113.65 L 117.38 109.83 L 117.38 109.83 L 117.38 118.00 L 109.75 105.41 L 25.67 56.81 L 21.71 54.13 L 18.23 51.07 L 15.21 47.59 L 12.67 43.74 L 10.67 39.66 L 9.20 35.29 L 8.30 30.77 L 8.01 26.15 L 8.33 21.38 L 10.55 5.13 L 10.93 3.81 L 11.57 2.72 L 12.49 1.83 L 13.60 1.18 L 14.82 0.86 L 16.19 0.85 L 17.10 1.07 L 17.96 1.45 Z" fill="url(#linearGradient-7)" fill-opacity="0.17582776" fill-rule="evenodd" group-id="1,2,6" id="矩形复制-13" node-id="41" stroke-linecap="butt" stroke-opacity="0.17582776" stroke-width="1" target-height="117.14519" target-width="127.99436" target-x="8.005641" target-y="0.8548124"></path><path d="M 47.96 91.45 L 150.22 149.07 L 153.35 151.09 L 156.15 153.41 L 158.64 156.02 L 160.82 158.91 L 162.62 162.01 L 164.07 165.32 L 165.13 168.78 L 165.77 172.35 L 166.00 176.07 L 166.00 196.73 L 165.71 198.87 L 164.91 200.76 L 163.66 202.38 L 162.04 203.63 L 160.14 204.44 L 158.00 204.73 L 155.93 204.45 L 154.00 203.65 L 147.38 199.83 L 147.38 199.83 L 147.38 208.00 L 139.75 195.41 L 55.67 146.81 L 51.71 144.13 L 48.23 141.07 L 45.21 137.59 L 42.67 133.74 L 40.67 129.66 L 39.20 125.29 L 38.30 120.77 L 38.01 116.15 L 38.33 111.38 L 40.55 95.13 L 40.93 93.81 L 41.57 92.72 L 42.49 91.83 L 43.60 91.18 L 44.82 90.86 L 46.19 90.85 L 47.10 91.07 L 47.96 91.45 Z" fill="url(#linearGradient-7)" fill-opacity="0.17582776" fill-rule="evenodd" group-id="1,2,7" id="矩形复制-14" node-id="42" stroke-linecap="butt" stroke-opacity="0.17582776" stroke-width="1" target-height="117.14519" target-width="127.994354" target-x="38.005646" target-y="90.85481"></path><path d="M 9.96 6.45 L 112.22 64.07 L 115.35 66.09 L 118.15 68.41 L 120.64 71.02 L 122.82 73.91 L 124.62 77.01 L 126.07 80.32 L 127.13 83.78 L 127.77 87.35 L 128.00 91.07 L 128.00 111.73 L 127.71 113.87 L 126.91 115.76 L 125.66 117.38 L 124.04 118.63 L 122.14 119.44 L 120.00 119.73 L 117.93 119.45 L 116.00 118.65 L 109.38 114.83 L 109.38 114.83 L 109.38 123.00 L 101.75 110.41 L 17.67 61.81 L 13.71 59.13 L 10.23 56.07 L 7.21 52.59 L 4.67 48.74 L 2.67 44.66 L 1.20 40.29 L 0.30 35.77 L 0.01 31.15 L 0.33 26.38 L 2.55 10.13 L 2.93 8.81 L 3.57 7.72 L 4.49 6.83 L 5.60 6.18 L 6.82 5.86 L 8.19 5.85 L 9.10 6.07 L 9.96 6.45 Z" fill="url(#linearGradient-8)" fill-opacity="0.8077334" fill-rule="evenodd" group-id="1,2,8" id="矩形" node-id="43" stroke-linecap="butt" stroke-opacity="0.8077334" stroke-width="1" target-height="117.14519" target-width="127.99436" target-x="0.0056411773" target-y="5.854812"></path><path d="M 40.96 94.45 L 143.22 152.07 L 146.35 154.09 L 149.15 156.41 L 151.64 159.02 L 153.82 161.91 L 155.62 165.01 L 157.07 168.32 L 158.13 171.78 L 158.77 175.35 L 159.00 179.07 L 159.00 199.73 L 158.71 201.87 L 157.91 203.76 L 156.66 205.38 L 155.04 206.63 L 153.14 207.44 L 151.00 207.73 L 148.93 207.45 L 147.00 206.65 L 140.38 202.83 L 140.38 202.83 L 140.38 211.00 L 132.75 198.41 L 48.67 149.81 L 44.71 147.13 L 41.23 144.07 L 38.21 140.59 L 35.67 136.74 L 33.67 132.66 L 32.20 128.29 L 31.30 123.77 L 31.01 119.15 L 31.33 114.38 L 33.55 98.13 L 33.93 96.81 L 34.57 95.72 L 35.49 94.83 L 36.60 94.18 L 37.82 93.86 L 39.19 93.85 L 40.10 94.07 L 40.96 94.45 Z" fill="#b6e8fd" fill-opacity="0.6706427" fill-rule="evenodd" group-id="1,2,9" id="矩形复制-12" node-id="44" stroke-linecap="butt" stroke-opacity="0.6706427" stroke-width="1" target-height="117.14519" target-width="127.994354" target-x="31.005642" target-y="93.85481"></path><path d="M 26.54 39.51 L 86.46 72.47" fill-opacity="0.51976377" fill-rule="nonzero" group-id="1,2,10" id="直线-3" node-id="45" stroke="#ffffff" stroke-linecap="round" stroke-opacity="0.51976377" stroke-width="3" target-height="32.96021" target-width="59.929825" target-x="26.535088" target-y="39.50854"></path><path d="M 57.00 126.00 L 103.93 151.03 L 117.00 158.00" fill-opacity="0.51976377" fill-rule="nonzero" group-id="1,2,11" id="直线-3复制-2" node-id="46" stroke="#ffffff" stroke-linecap="round" stroke-opacity="0.51976377" stroke-width="3" target-height="32" target-width="60" target-x="57" target-y="126"></path><path d="M 26.54 49.49 L 86.46 81.48" fill-opacity="0.51976377" fill-rule="nonzero" group-id="1,2,12" id="直线-3复制" node-id="47" stroke="#ffffff" stroke-linecap="round" stroke-opacity="0.51976377" stroke-width="3" target-height="31.990791" target-width="59.929825" target-x="26.535088" target-y="49.493584"></path><path d="M 96.00 156.00 L 118.00 168.00" fill-opacity="0.51976377" fill-rule="nonzero" group-id="1,2,13" id="直线-3复制-3" node-id="48" stroke="#ffffff" stroke-linecap="round" stroke-opacity="0.51976377" stroke-width="3" target-height="12" target-width="22" target-x="96" target-y="156"></path></g></g></svg>