<?xml version="1.0" standalone="no"?><!DOCTYPE svg PUBLIC "-//W3C//DTD SVG 1.1//EN" "http://www.w3.org/Graphics/SVG/1.1/DTD/svg11.dtd"><svg height="301" legacy-metrics="false" node-id="1" sillyvg="true" template-height="301" template-width="319" version="1.1" viewBox="0 0 319 301" width="319" xmlns="http://www.w3.org/2000/svg" xmlns:xlink="http://www.w3.org/1999/xlink"><defs node-id="63"><linearGradient gradientUnits="objectBoundingBox" id="linearGradient-1" node-id="7" x1="0.5" x2="0.5" y1="0" y2="1"><stop offset="0" stop-color="#59d0fc"></stop><stop offset="1" stop-color="#4b79ff"></stop></linearGradient><linearGradient gradientUnits="objectBoundingBox" id="linearGradient-3" node-id="13" x1="0.5" x2="0.5" y1="0" y2="1"><stop offset="0" stop-color="#59d0fc"></stop><stop offset="1" stop-color="#4b79ff"></stop></linearGradient><linearGradient gradientUnits="objectBoundingBox" id="linearGradient-4" node-id="16" x1="0.5" x2="0.5" y1="0" y2="1"><stop offset="0" stop-color="#59d0fc"></stop><stop offset="1" stop-color="#4b79ff"></stop></linearGradient><linearGradient gradientUnits="objectBoundingBox" id="linearGradient-5" node-id="19" x1="0.5" x2="0.5" y1="0" y2="1"><stop offset="0" stop-color="#59d0fc"></stop><stop offset="1" stop-color="#4b79ff"></stop></linearGradient><linearGradient gradientUnits="objectBoundingBox" id="linearGradient-6" node-id="22" x1="0.5" x2="0.5" y1="0" y2="1"><stop offset="0" stop-color="#59d0fc"></stop><stop offset="1" stop-color="#4b79ff"></stop></linearGradient><linearGradient gradientUnits="objectBoundingBox" id="linearGradient-7" node-id="25" x1="0.5" x2="0.5" y1="0" y2="1"><stop offset="0" stop-color="#59d0fc"></stop><stop offset="1" stop-color="#4b79ff"></stop></linearGradient><linearGradient gradientUnits="objectBoundingBox" id="linearGradient-8" node-id="28" x1="0" x2="0.88657767" y1="0" y2="1"><stop offset="0" stop-color="#59d0fc"></stop><stop offset="1" stop-color="#4b79ff"></stop></linearGradient><linearGradient gradientUnits="objectBoundingBox" id="linearGradient-9" node-id="31" x1="0.5" x2="0.5" y1="0" y2="1"><stop offset="0" stop-color="#59d0fc"></stop><stop offset="1" stop-color="#4b79ff"></stop></linearGradient></defs><g node-id="65"><g node-id="66"><g node-id="67"><path d="M 312.00 5.50 L 311.83 6.72 L 311.39 7.77 L 310.68 8.68 L 309.77 9.39 L 308.72 9.83 L 307.50 10.00 L 306.28 9.83 L 305.23 9.39 L 304.32 8.68 L 303.61 7.77 L 303.17 6.72 L 303.00 5.50 L 303.17 4.28 L 303.61 3.23 L 304.32 2.32 L 305.23 1.61 L 306.28 1.17 L 307.50 1.00 L 308.72 1.17 L 309.77 1.61 L 310.68 2.32 L 311.39 3.23 L 311.83 4.28 L 312.00 5.50 Z" fill="none" group-id="1,2,3" id="椭圆形复制-4" node-id="38" stroke="url(#linearGradient-1)" stroke-linecap="butt" stroke-width="1" target-height="9" target-width="9" target-x="303" target-y="1"></path><path d="M 108.00 245.50 L 107.83 246.72 L 107.39 247.77 L 106.68 248.68 L 105.77 249.39 L 104.72 249.83 L 103.50 250.00 L 102.28 249.83 L 101.23 249.39 L 100.32 248.68 L 99.61 247.77 L 99.17 246.72 L 99.00 245.50 L 99.17 244.28 L 99.61 243.23 L 100.32 242.32 L 101.23 241.61 L 102.28 241.17 L 103.50 241.00 L 104.72 241.17 L 105.77 241.61 L 106.68 242.32 L 107.39 243.23 L 107.83 244.28 L 108.00 245.50 Z" fill="none" group-id="1,2,3" id="椭圆形复制-5" node-id="39" stroke="url(#linearGradient-1)" stroke-linecap="butt" stroke-width="1" target-height="9" target-width="9" target-x="99" target-y="241"></path><path d="M 307.50 10.00 L 307.50 60.10" fill="none" group-id="1,2,3" id="直线复制-3" node-id="40" stroke-linecap="butt" stroke-width="1" target-height="50.10363" target-width="0" target-x="307.5" target-y="10"></path><path d="M 103.50 250.00 L 103.50 300.10" fill="none" group-id="1,2,3" id="直线复制-4" node-id="41" stroke-linecap="butt" stroke-width="1" target-height="50.103638" target-width="0" target-x="103.5" target-y="250"></path><path d="M 317.00 195.00 L 316.76 198.94 L 316.09 202.78 L 315.00 206.55 L 313.46 210.27 L 311.47 213.96 L 308.56 218.23 L 305.05 222.40 L 300.91 226.46 L 296.07 230.44 L 291.03 233.95 L 285.46 237.29 L 279.33 240.45 L 272.58 243.42 L 265.80 245.96 L 258.59 248.24 L 250.93 250.23 L 242.79 251.94 L 234.69 253.25 L 226.29 254.20 L 217.56 254.79 L 208.50 255.00 L 199.44 254.79 L 190.71 254.20 L 182.31 253.25 L 174.21 251.94 L 166.07 250.23 L 158.41 248.24 L 151.20 245.96 L 144.42 243.42 L 137.67 240.45 L 131.54 237.29 L 125.97 233.95 L 120.93 230.44 L 116.09 226.46 L 111.95 222.40 L 108.44 218.23 L 105.53 213.96 L 103.54 210.27 L 102.00 206.55 L 100.91 202.78 L 100.24 198.94 L 100.00 195.00 L 100.24 191.06 L 100.91 187.22 L 102.00 183.45 L 103.54 179.73 L 105.53 176.04 L 108.44 171.77 L 111.95 167.60 L 116.09 163.54 L 120.93 159.56 L 125.97 156.05 L 131.54 152.71 L 137.67 149.55 L 144.42 146.58 L 151.20 144.04 L 158.41 141.76 L 166.07 139.77 L 174.21 138.06 L 182.31 136.75 L 190.71 135.80 L 199.44 135.21 L 208.50 135.00 L 217.56 135.21 L 226.29 135.80 L 234.69 136.75 L 242.79 138.06 L 250.93 139.77 L 258.59 141.76 L 265.80 144.04 L 272.58 146.58 L 279.33 149.55 L 285.46 152.71 L 291.03 156.05 L 296.07 159.56 L 300.91 163.54 L 305.05 167.60 L 308.56 171.77 L 311.47 176.04 L 313.46 179.73 L 315.00 183.45 L 316.09 187.22 L 316.76 191.06 L 317.00 195.00 Z" fill="url(#linearGradient-3)" fill-opacity="0.09" fill-rule="evenodd" group-id="1,2,3" id="椭圆形" node-id="42" stroke="url(#linearGradient-3)" stroke-linecap="butt" stroke-width="3" target-height="120" target-width="217" target-x="100" target-y="135"></path><g node-id="69"><path d="M 303.00 195.00 L 302.68 199.25 L 301.78 203.38 L 300.29 207.43 L 298.18 211.44 L 295.65 215.14 L 292.60 218.74 L 288.99 222.27 L 284.77 225.71 L 280.38 228.76 L 275.53 231.65 L 270.19 234.39 L 264.31 236.97 L 256.36 239.85 L 247.73 242.32 L 238.37 244.35 L 228.90 245.79 L 218.96 246.68 L 208.50 247.00 L 198.04 246.68 L 188.10 245.79 L 178.63 244.35 L 169.27 242.32 L 160.64 239.85 L 152.69 236.97 L 146.81 234.39 L 141.47 231.65 L 136.62 228.76 L 132.23 225.71 L 128.01 222.27 L 124.40 218.74 L 121.35 215.14 L 118.82 211.44 L 116.71 207.43 L 115.22 203.38 L 114.32 199.25 L 114.00 195.00 L 114.32 190.75 L 115.22 186.62 L 116.71 182.57 L 118.82 178.56 L 121.35 174.86 L 124.40 171.26 L 128.01 167.73 L 132.23 164.29 L 136.62 161.24 L 141.47 158.35 L 146.81 155.61 L 152.69 153.03 L 160.64 150.15 L 169.27 147.68 L 178.63 145.65 L 188.10 144.21 L 198.04 143.32 L 208.50 143.00 L 218.96 143.32 L 228.91 144.21 L 238.37 145.65 L 247.73 147.68 L 256.36 150.15 L 264.31 153.03 L 270.19 155.61 L 275.53 158.35 L 280.38 161.24 L 284.77 164.29 L 288.99 167.73 L 292.60 171.26 L 295.65 174.86 L 298.18 178.56 L 300.29 182.57 L 301.78 186.62 L 302.68 190.75 L 303.00 195.00 Z" fill="url(#linearGradient-4)" fill-opacity="0.33405414" fill-rule="evenodd" group-id="1,2,3,5" id="椭圆形复制-3" node-id="43" stroke-linecap="butt" stroke-opacity="0.33405414" stroke-width="1" target-height="104" target-width="189" target-x="114" target-y="143"></path></g><g node-id="70"><path d="M 150.00 50.00 L 268.00 50.00 L 269.36 50.19 L 270.52 50.68 L 271.54 51.46 L 272.32 52.48 L 272.81 53.64 L 273.00 55.00 L 273.00 190.00 L 272.81 191.36 L 272.32 192.52 L 271.54 193.54 L 270.52 194.32 L 269.36 194.81 L 268.00 195.00 L 150.00 195.00 L 148.64 194.81 L 147.48 194.32 L 146.46 193.54 L 145.68 192.52 L 145.19 191.36 L 145.00 190.00 L 145.00 55.00 L 145.19 53.64 L 145.68 52.48 L 146.46 51.46 L 147.48 50.68 L 148.64 50.19 L 150.00 50.00 Z" fill="url(#linearGradient-5)" fill-opacity="0.9776088" fill-rule="evenodd" group-id="1,2,3,6" id="矩形" node-id="44" stroke-linecap="butt" stroke-opacity="0.9776088" stroke-width="1" target-height="145" target-width="128" target-x="145" target-y="50"></path></g><g node-id="71"><path d="M 157.00 76.00 L 260.00 76.00 L 261.36 76.19 L 262.52 76.68 L 263.54 77.46 L 264.32 78.48 L 264.81 79.64 L 265.00 81.00 L 265.00 199.00 L 264.81 200.36 L 264.32 201.52 L 263.54 202.54 L 262.52 203.32 L 261.36 203.81 L 260.00 204.00 L 157.00 204.00 L 155.64 203.81 L 154.48 203.32 L 153.46 202.54 L 152.68 201.52 L 152.19 200.36 L 152.00 199.00 L 152.00 81.00 L 152.19 79.64 L 152.68 78.48 L 153.46 77.46 L 154.48 76.68 L 155.64 76.19 L 157.00 76.00 Z" fill="url(#linearGradient-6)" fill-opacity="0.32486978" fill-rule="evenodd" group-id="1,2,3,7" id="矩形复制-2" node-id="45" stroke-linecap="butt" stroke-opacity="0.32486978" stroke-width="1" target-height="128" target-width="113" target-x="152" target-y="76"></path></g><g node-id="72"><path d="M 164.00 100.00 L 254.00 100.00 L 255.36 100.19 L 256.52 100.68 L 257.54 101.46 L 258.32 102.48 L 258.81 103.64 L 259.00 105.00 L 259.00 208.00 L 258.81 209.36 L 258.32 210.52 L 257.54 211.54 L 256.52 212.32 L 255.36 212.81 L 254.00 213.00 L 164.00 213.00 L 162.64 212.81 L 161.48 212.32 L 160.46 211.54 L 159.68 210.52 L 159.19 209.36 L 159.00 208.00 L 159.00 105.00 L 159.19 103.64 L 159.68 102.48 L 160.46 101.46 L 161.48 100.68 L 162.64 100.19 L 164.00 100.00 Z" fill="url(#linearGradient-7)" fill-opacity="0.27269346" fill-rule="evenodd" group-id="1,2,3,8" id="矩形复制-3" node-id="46" stroke-linecap="butt" stroke-opacity="0.27269346" stroke-width="1" target-height="113" target-width="100" target-x="159" target-y="100"></path></g><g node-id="73"><g node-id="76"><path d="M 7.00 141.00 L 65.00 141.00 L 65.00 199.00 L 7.00 199.00 Z" fill="url(#linearGradient-8)" fill-opacity="0.7020089" fill-rule="evenodd" group-id="1,2,3,9,12" id="矩形" node-id="48" stroke-linecap="butt" stroke-opacity="0.7020089" stroke-width="1" target-height="58" target-width="58" target-x="7" target-y="141"></path></g><path d="M 60.00 135.00 L 70.00 135.00 L 70.00 145.00" fill="none" group-id="1,2,3,9" id="路径-6" node-id="49" stroke="url(#linearGradient-1)" stroke-linecap="butt" stroke-width="2" target-height="10" target-width="10" target-x="60" target-y="135"></path><path d="M 60.00 204.00 L 70.00 204.00 L 70.00 194.00" fill="none" group-id="1,2,3,9" id="路径-6复制-2" node-id="50" stroke="url(#linearGradient-1)" stroke-linecap="butt" stroke-width="2" target-height="10" target-width="10" target-x="60" target-y="194"></path><path d="M 11.00 135.00 L 1.00 135.00 L 1.00 145.00" fill="none" group-id="1,2,3,9" id="路径-6复制" node-id="51" stroke="url(#linearGradient-1)" stroke-linecap="butt" stroke-width="2" target-height="10" target-width="10" target-x="1" target-y="135"></path><path d="M 11.00 204.00 L 1.00 204.00 L 1.00 194.00" fill="none" group-id="1,2,3,9" id="路径-6复制-3" node-id="52" stroke="url(#linearGradient-1)" stroke-linecap="butt" stroke-width="2" target-height="10" target-width="10" target-x="1" target-y="194"></path><path d="M 40.00 140.00 L 39.68 141.57 L 38.83 142.83 L 37.57 143.68 L 36.00 144.00 L 34.43 143.68 L 33.17 142.83 L 32.32 141.57 L 32.00 140.00 L 32.32 138.43 L 33.17 137.17 L 34.43 136.32 L 36.00 136.00 L 37.57 136.32 L 38.83 137.17 L 39.68 138.43 L 40.00 140.00 Z" fill="#51eaed" fill-rule="evenodd" group-id="1,2,3,9" id="椭圆形复制-9" node-id="53" stroke-linecap="butt" stroke-width="1" target-height="8" target-width="8" target-x="32" target-y="136"></path></g><path d="M 123.64 78.00 L 35.50 78.00 L 35.50 136.00" fill="none" group-id="1,2,3" id="路径-5" node-id="54" stroke="url(#linearGradient-9)" stroke-dasharray="7 7" stroke-linecap="butt" stroke-width="1" target-height="58" target-width="88.14237" target-x="35.5" target-y="78"></path><path d="M 35.50 156.00 L 32.66 156.26 L 30.07 156.97 L 27.67 158.11 L 25.49 159.65 L 23.65 161.49 L 22.11 163.67 L 20.97 166.07 L 20.26 168.66 L 20.00 171.50 L 20.26 174.34 L 20.97 176.93 L 22.11 179.33 L 23.65 181.51 L 25.49 183.35 L 27.67 184.89 L 30.07 186.03 L 32.66 186.74 L 35.50 187.00 L 38.34 186.74 L 40.93 186.03 L 43.33 184.89 L 45.51 183.35 L 47.35 181.51 L 48.89 179.33 L 50.03 176.93 L 50.74 174.34 L 51.00 171.50 L 50.74 168.66 L 50.03 166.07 L 48.89 163.67 L 47.35 161.49 L 45.51 159.65 L 43.33 158.11 L 40.93 156.97 L 38.34 156.26 L 35.50 156.00 Z M 43.56 168.90 L 36.08 176.47 L 35.49 176.87 L 34.85 177.00 L 34.21 176.87 L 33.62 176.47 L 29.53 172.33 L 29.13 171.73 L 29.00 171.09 L 29.13 170.44 L 29.53 169.84 L 30.12 169.44 L 30.75 169.31 L 31.39 169.44 L 31.98 169.84 L 34.91 172.80 L 41.11 166.53 L 41.70 166.13 L 42.33 166.00 L 42.97 166.13 L 43.56 166.53 L 43.89 166.99 L 44.00 167.63 L 43.89 168.29 L 43.56 168.90 L 43.56 168.90 Z" fill="#b6e8fd" fill-rule="nonzero" group-id="1,2,3,10" id="形状" node-id="56" stroke-linecap="butt" stroke-width="1" target-height="31" target-width="31" target-x="20" target-y="155.99995"></path></g><g node-id="68"><g node-id="75"><path d="M 206.09 147.87 L 206.09 147.87 L 206.36 149.21 L 207.07 150.29 L 208.13 151.01 L 209.44 151.29 L 210.75 151.02 L 211.81 150.29 L 212.52 149.22 L 212.79 147.88 L 212.52 146.54 L 211.81 145.46 L 210.75 144.73 L 209.44 144.46 L 208.57 144.58 L 207.76 144.92 L 207.76 144.92 L 207.06 145.47 L 206.54 146.17 L 206.21 146.98 L 206.09 147.87 L 206.09 147.87 Z" fill="#b6e8fd" fill-rule="nonzero" group-id="1,2,4,11" id="路径" node-id="59" stroke-linecap="butt" stroke-width="1" target-height="6.825989" target-width="6.696518" target-x="206.0913" target-y="144.46106"></path><path d="M 220.81 103.55 L 198.06 103.55 L 198.06 103.55 L 197.02 103.77 L 196.17 104.35 L 195.60 105.20 L 195.39 106.27 L 195.39 139.01 L 195.39 139.01 L 195.60 140.08 L 196.17 140.93 L 197.02 141.52 L 198.06 141.74 L 220.81 141.74 L 220.81 141.74 L 221.86 141.52 L 222.70 140.93 L 223.27 140.08 L 223.49 139.01 L 223.49 106.27 L 223.49 106.27 L 223.27 105.20 L 222.70 104.35 L 221.86 103.77 L 220.81 103.55 L 220.81 103.55 Z" fill="#b6e8fd" fill-rule="nonzero" group-id="1,2,4,11" id="形状" node-id="60" stroke-linecap="butt" stroke-width="1" target-height="38.188858" target-width="28.098969" target-x="195.38765" target-y="103.54637"></path><path d="M 225.22 94.00 L 193.65 94.00 L 191.64 94.30 L 189.83 95.12 L 188.29 96.40 L 187.08 98.06 L 186.30 99.99 L 186.02 102.18 L 186.02 149.51 L 186.29 151.70 L 187.05 153.63 L 188.24 155.29 L 189.77 156.57 L 191.58 157.39 L 193.65 157.69 L 210.51 157.69 L 216.13 161.92 L 218.67 158.92 L 216.13 156.88 L 211.71 153.60 L 193.65 153.60 L 192.23 153.29 L 191.09 152.43 L 190.33 151.16 L 190.04 149.51 L 190.04 102.18 L 190.33 100.54 L 191.09 99.27 L 192.23 98.41 L 193.65 98.09 L 225.09 98.09 L 226.50 98.41 L 227.65 99.27 L 228.41 100.54 L 228.70 102.18 L 228.70 149.51 L 228.41 151.16 L 227.65 152.42 L 226.50 153.29 L 225.09 153.60 L 220.67 153.60 L 220.67 157.69 L 225.22 157.69 L 227.24 157.40 L 229.05 156.57 L 230.59 155.30 L 231.80 153.63 L 232.57 151.70 L 232.85 149.51 L 232.85 102.18 L 232.57 99.99 L 231.80 98.06 L 230.59 96.40 L 229.05 95.12 L 227.24 94.30 L 225.22 94.00 L 225.22 94.00 Z" fill="#b6e8fd" fill-rule="nonzero" group-id="1,2,4,11" id="路径" node-id="61" stroke-linecap="butt" stroke-width="1" target-height="67.92018" target-width="46.829483" target-x="186.02156" target-y="94"></path></g></g></g></g></svg>