<?xml version="1.0" standalone="no"?><!DOCTYPE svg PUBLIC "-//W3C//DTD SVG 1.1//EN" "http://www.w3.org/Graphics/SVG/1.1/DTD/svg11.dtd"><svg height="316" legacy-metrics="false" node-id="1" sillyvg="true" template-height="316" template-width="379" version="1.1" viewBox="0 0 379 316" width="379" xmlns="http://www.w3.org/2000/svg" xmlns:xlink="http://www.w3.org/1999/xlink"><defs node-id="63"><linearGradient gradientUnits="objectBoundingBox" id="linearGradient-1" node-id="7" x1="1" x2="1" y1="0" y2="0.89206564"><stop offset="0" stop-color="#3297f9" stop-opacity="0"></stop><stop offset="1" stop-color="#4b79ff"></stop></linearGradient><linearGradient gradientUnits="objectBoundingBox" id="linearGradient-2" node-id="10" x1="0" x2="1" y1="0.31793752" y2="0.57435375"><stop offset="0" stop-color="#59cbfd"></stop><stop offset="1" stop-color="#4b79ff"></stop></linearGradient><linearGradient gradientUnits="objectBoundingBox" id="linearGradient-3" node-id="13" x1="0.98952997" x2="1" y1="0.49550617" y2="0.55275923"><stop offset="0" stop-color="#59cbfd"></stop><stop offset="1" stop-color="#4b79ff"></stop></linearGradient><linearGradient gradientUnits="objectBoundingBox" id="linearGradient-4" node-id="16" x1="0.98952997" x2="1" y1="0.49567205" y2="0.5508117"><stop offset="0" stop-color="#59cbfd"></stop><stop offset="1" stop-color="#4b79ff"></stop></linearGradient><linearGradient gradientUnits="objectBoundingBox" id="linearGradient-5" node-id="19" x1="0.056631945" x2="0.9433681" y1="-0.46001115" y2="0.89206564"><stop offset="0" stop-color="#3297f9"></stop><stop offset="1" stop-color="#4b79ff"></stop></linearGradient><linearGradient gradientUnits="objectBoundingBox" id="linearGradient-6" node-id="22" x1="0.06528488" x2="0.9347151" y1="-0.46001115" y2="0.89206564"><stop offset="0" stop-color="#3297f9"></stop><stop offset="1" stop-color="#4b79ff"></stop></linearGradient><linearGradient gradientUnits="objectBoundingBox" id="linearGradient-7" node-id="25" x1="0.07819884" x2="0.92180115" y1="-0.46001115" y2="0.89206564"><stop offset="0" stop-color="#5feffc"></stop><stop offset="1" stop-color="#4b79ff"></stop></linearGradient><linearGradient gradientUnits="objectBoundingBox" id="linearGradient-8" node-id="28" x1="0" x2="0.88657767" y1="0" y2="1"><stop offset="0" stop-color="#59d0fc"></stop><stop offset="1" stop-color="#4b79ff"></stop></linearGradient><linearGradient gradientUnits="objectBoundingBox" id="linearGradient-9" node-id="31" x1="0.5" x2="0.5" y1="0" y2="1"><stop offset="0" stop-color="#59d0fc"></stop><stop offset="1" stop-color="#4b79ff"></stop></linearGradient><linearGradient gradientUnits="objectBoundingBox" id="linearGradient-10" node-id="34" x1="0.5" x2="0.5" y1="0" y2="1"><stop offset="0" stop-color="#59d0fc"></stop><stop offset="1" stop-color="#4b79ff"></stop></linearGradient></defs><g node-id="65"><g node-id="66"><g node-id="67"><path d="M 19.00 0.00 L 267.00 0.00 L 267.00 236.25 L 265.29 241.12 L 263.13 245.70 L 260.49 250.04 L 257.37 254.14 L 253.72 258.04 L 249.52 261.72 L 244.71 265.21 L 239.25 268.48 L 233.06 271.54 L 226.07 274.36 L 218.22 276.93 L 209.42 279.21 L 199.58 281.17 L 188.62 282.77 L 176.44 283.98 L 162.94 284.74 L 148.01 285.00 L 132.61 284.72 L 118.55 283.91 L 105.75 282.63 L 94.11 280.91 L 83.55 278.79 L 73.99 276.32 L 65.35 273.52 L 57.56 270.42 L 50.56 267.05 L 44.27 263.41 L 38.65 259.52 L 33.65 255.38 L 29.21 251.00 L 25.31 246.36 L 21.91 241.45 L 19.00 236.25 L 19.00 0.00 Z" fill="url(#linearGradient-1)" fill-opacity="0.26453218" fill-rule="evenodd" group-id="1,2,3" id="矩形" node-id="40" stroke-linecap="butt" stroke-opacity="0.26453218" stroke-width="1" target-height="285" target-width="248" target-x="19" target-y="0"></path></g><path d="M 267.00 231.00 L 266.73 234.50 L 265.98 237.92 L 264.75 241.31 L 263.00 244.68 L 260.68 248.07 L 257.42 251.84 L 253.45 255.57 L 248.70 259.25 L 243.08 262.89 L 237.38 266.02 L 231.04 269.03 L 224.01 271.88 L 216.23 274.58 L 208.53 276.86 L 200.30 278.90 L 191.54 280.70 L 182.19 282.25 L 172.95 283.42 L 163.35 284.28 L 153.37 284.81 L 143.00 285.00 L 132.63 284.81 L 122.65 284.28 L 113.05 283.42 L 103.81 282.25 L 94.46 280.70 L 85.70 278.90 L 77.47 276.86 L 69.77 274.58 L 61.99 271.88 L 54.96 269.03 L 48.62 266.02 L 42.92 262.89 L 37.30 259.25 L 32.55 255.57 L 28.58 251.84 L 25.32 248.07 L 23.00 244.68 L 21.25 241.31 L 20.02 237.92 L 19.27 234.50 L 19.00 231.00 L 19.27 227.50 L 20.02 224.08 L 21.25 220.69 L 23.00 217.32 L 25.32 213.93 L 28.58 210.16 L 32.55 206.43 L 37.30 202.75 L 42.92 199.11 L 48.62 195.98 L 54.96 192.97 L 61.99 190.12 L 69.77 187.42 L 77.47 185.14 L 85.70 183.10 L 94.46 181.30 L 103.81 179.75 L 113.05 178.58 L 122.65 177.72 L 132.63 177.19 L 143.00 177.00 L 153.37 177.19 L 163.35 177.72 L 172.95 178.58 L 182.19 179.75 L 191.54 181.30 L 200.30 183.10 L 208.53 185.14 L 216.23 187.42 L 224.01 190.12 L 231.04 192.97 L 237.38 195.98 L 243.08 199.11 L 248.70 202.75 L 253.45 206.43 L 257.42 210.16 L 260.68 213.93 L 263.00 217.32 L 264.75 220.69 L 265.98 224.08 L 266.73 227.50 L 267.00 231.00 Z" fill="none" group-id="1,2" id="椭圆形" node-id="41" stroke="url(#linearGradient-2)" stroke-linecap="butt" stroke-width="4" target-height="108" target-width="248" target-x="19" target-y="177"></path><path d="M 145.50 300.00 L 156.53 299.77 L 167.01 299.15 L 176.95 298.14 L 186.86 296.70 L 195.95 294.97 L 204.26 292.96 L 212.49 290.49 L 219.63 287.85 L 225.80 285.06 L 230.37 282.57 L 234.19 280.06 L 237.35 277.55 L 239.93 275.04 L 242.21 272.13 L 243.76 269.27 L 244.68 266.41 L 245.00 263.50 L 244.68 260.59 L 243.76 257.73 L 242.21 254.87 L 239.93 251.96 L 237.35 249.45 L 234.19 246.94 L 230.37 244.43 L 225.80 241.94 L 219.63 239.15 L 212.49 236.51 L 204.26 234.04 L 195.95 232.03 L 186.86 230.30 L 176.95 228.86 L 167.01 227.85 L 156.53 227.23 L 145.50 227.00 L 134.47 227.23 L 123.99 227.85 L 114.05 228.86 L 104.14 230.30 L 95.05 232.03 L 86.74 234.04 L 78.51 236.51 L 71.37 239.15 L 65.20 241.94 L 60.63 244.43 L 56.81 246.94 L 53.65 249.45 L 51.07 251.96 L 48.79 254.87 L 47.24 257.73 L 46.32 260.59 L 46.00 263.50 L 46.32 266.41 L 47.24 269.27 L 48.79 272.13 L 51.07 275.04 L 53.65 277.55 L 56.81 280.06 L 60.63 282.57 L 65.20 285.06 L 71.37 287.85 L 78.51 290.49 L 86.74 292.96 L 95.05 294.97 L 104.14 296.70 L 114.05 298.14 L 123.99 299.15 L 134.47 299.77 L 145.50 300.00 Z" fill="none" group-id="1,2" id="椭圆形复制-4" node-id="42" stroke="url(#linearGradient-3)" stroke-dasharray="5 5" stroke-linecap="butt" stroke-width="1" target-height="73" target-width="199" target-x="46" target-y="227"></path><path d="M 148.00 315.00 L 156.32 314.83 L 164.21 314.37 L 171.71 313.62 L 179.18 312.56 L 186.03 311.28 L 192.29 309.79 L 198.50 307.96 L 203.88 306.01 L 208.53 303.95 L 212.99 301.48 L 216.49 299.01 L 219.18 296.53 L 220.90 294.38 L 222.07 292.26 L 222.76 290.15 L 223.00 288.00 L 222.76 285.85 L 222.07 283.74 L 220.90 281.62 L 219.18 279.47 L 216.49 276.99 L 212.99 274.52 L 208.53 272.05 L 203.88 269.99 L 198.50 268.04 L 192.29 266.21 L 186.03 264.72 L 179.18 263.44 L 171.71 262.38 L 164.21 261.63 L 156.32 261.17 L 148.00 261.00 L 139.68 261.17 L 131.79 261.63 L 124.29 262.38 L 116.82 263.44 L 109.97 264.72 L 103.71 266.21 L 97.50 268.04 L 92.12 269.99 L 87.47 272.05 L 83.01 274.52 L 79.51 276.99 L 76.82 279.47 L 75.10 281.62 L 73.93 283.74 L 73.24 285.85 L 73.00 288.00 L 73.24 290.15 L 73.93 292.26 L 75.10 294.38 L 76.82 296.53 L 79.51 299.01 L 83.01 301.48 L 87.47 303.95 L 92.12 306.01 L 97.50 307.96 L 103.71 309.79 L 109.97 311.28 L 116.82 312.56 L 124.29 313.62 L 131.79 314.37 L 139.68 314.83 L 148.00 315.00 Z" fill-opacity="0.13418433" fill-rule="nonzero" group-id="1,2,4" id="椭圆形复制-5" node-id="43" stroke="url(#linearGradient-4)" stroke-dasharray="5 5" stroke-linecap="butt" stroke-opacity="0.13418433" stroke-width="1" target-height="54" target-width="150" target-x="73" target-y="261"></path><path d="M 86.00 25.00 L 199.00 25.00 L 199.00 145.00 L 86.00 145.00 Z" fill="url(#linearGradient-5)" fill-opacity="0.14587983" fill-rule="evenodd" group-id="1,2,5" id="矩形" node-id="44" stroke-linecap="butt" stroke-opacity="0.14587983" stroke-width="1" target-height="120" target-width="113" target-x="86" target-y="25"></path><path d="M 73.00 36.00 L 211.00 36.00 L 211.00 184.00 L 73.00 184.00 Z" fill="url(#linearGradient-6)" fill-opacity="0.29906064" fill-rule="evenodd" group-id="1,2,6" id="矩形复制-11" node-id="45" stroke-linecap="butt" stroke-opacity="0.29906064" stroke-width="1" target-height="148" target-width="138" target-x="73" target-y="36"></path><path d="M 58.00 52.00 L 227.00 52.00 L 227.00 236.00 L 58.00 236.00 Z" fill="url(#linearGradient-7)" fill-opacity="0.84886533" fill-rule="evenodd" group-id="1,2,7" id="矩形复制-12" node-id="46" stroke-linecap="butt" stroke-opacity="0.84886533" stroke-width="1" target-height="184" target-width="169" target-x="58" target-y="52"></path><path d="M 142.50 101.00 L 138.19 101.23 L 134.08 101.85 L 130.13 102.86 L 126.34 104.26 L 122.69 106.03 L 119.28 108.09 L 116.11 110.46 L 113.15 113.15 L 110.46 116.11 L 108.09 119.28 L 106.03 122.69 L 104.26 126.34 L 102.86 130.13 L 101.85 134.08 L 101.23 138.19 L 101.00 142.50 L 101.23 146.81 L 101.85 150.92 L 102.86 154.87 L 104.26 158.66 L 106.03 162.31 L 108.09 165.72 L 110.46 168.89 L 113.15 171.85 L 116.11 174.54 L 119.28 176.91 L 122.69 178.97 L 126.34 180.74 L 130.13 182.14 L 134.08 183.15 L 138.19 183.77 L 142.50 184.00 L 146.81 183.77 L 150.92 183.15 L 154.87 182.14 L 158.66 180.74 L 162.31 178.97 L 165.72 176.91 L 168.89 174.54 L 171.85 171.85 L 174.54 168.89 L 176.91 165.72 L 178.97 162.31 L 180.74 158.66 L 182.14 154.87 L 183.15 150.92 L 183.77 146.81 L 184.00 142.50 L 183.77 138.19 L 183.15 134.08 L 182.14 130.13 L 180.74 126.34 L 178.97 122.69 L 176.91 119.28 L 174.54 116.11 L 171.85 113.15 L 168.89 110.46 L 165.72 108.09 L 162.31 106.03 L 158.66 104.26 L 154.87 102.86 L 150.92 101.85 L 146.81 101.23 L 142.50 101.00 Z M 124.34 145.77 L 118.64 145.77 L 118.64 132.80 L 124.34 132.80 L 124.34 145.77 Z M 144.57 165.17 L 143.86 166.07 L 142.61 166.67 L 141.15 167.00 L 139.82 167.13 L 138.40 167.14 L 135.66 163.09 L 133.84 159.58 L 132.52 156.19 L 131.84 153.85 L 131.40 151.58 L 137.21 151.58 L 137.91 154.11 L 139.04 156.36 L 140.44 158.39 L 141.72 159.92 L 143.38 161.80 L 144.37 163.25 L 144.64 164.20 L 144.57 165.17 L 144.57 165.17 Z M 158.17 157.65 L 156.73 156.24 L 154.96 154.92 L 151.79 153.08 L 147.99 151.42 L 142.43 149.70 L 138.47 148.85 L 133.61 148.16 L 127.72 147.69 L 127.72 131.09 L 129.87 130.91 L 135.40 130.04 L 138.88 129.20 L 142.89 127.93 L 146.89 126.27 L 150.93 124.06 L 153.48 122.31 L 155.87 120.26 L 158.11 117.91 L 159.04 117.88 L 159.95 118.06 L 161.21 118.66 L 162.40 119.68 L 163.75 121.60 L 164.81 124.06 L 165.76 128.01 L 166.28 132.59 L 166.36 139.23 L 166.37 140.93 L 166.08 145.06 L 165.68 147.55 L 164.98 150.18 L 163.95 152.68 L 162.52 154.86 L 161.32 156.07 L 159.88 156.99 L 158.17 157.65 L 158.17 157.65 Z" fill="#b6e8fd" fill-rule="nonzero" group-id="1,2,8" id="形状" node-id="48" stroke-linecap="butt" stroke-width="1" target-height="83" target-width="83" target-x="101" target-y="101"></path><path d="M 245.00 206.00 L 244.69 209.29 L 243.87 212.30 L 242.54 215.08 L 240.75 217.61 L 238.61 219.75 L 236.08 221.54 L 233.30 222.87 L 230.29 223.69 L 227.00 224.00 L 223.71 223.69 L 220.70 222.87 L 217.92 221.54 L 215.39 219.75 L 213.25 217.61 L 211.46 215.08 L 210.13 212.30 L 209.31 209.29 L 209.00 206.00 L 209.31 202.71 L 210.13 199.70 L 211.46 196.92 L 213.25 194.39 L 215.39 192.25 L 217.92 190.46 L 220.70 189.13 L 223.71 188.31 L 227.00 188.00 L 230.29 188.31 L 233.30 189.13 L 236.08 190.46 L 238.61 192.25 L 240.75 194.39 L 242.54 196.92 L 243.87 199.70 L 244.69 202.71 L 245.00 206.00 Z" fill="#37e5e6" fill-opacity="0.15335445" fill-rule="evenodd" group-id="1,2" id="椭圆形" node-id="49" stroke="#18c3e8" stroke-linecap="butt" stroke-width="1" target-height="36" target-width="36" target-x="209" target-y="188"></path><path d="M 37.00 128.00 L 36.69 131.29 L 35.87 134.30 L 34.54 137.08 L 32.75 139.61 L 30.61 141.75 L 28.08 143.54 L 25.30 144.87 L 22.29 145.69 L 19.00 146.00 L 15.71 145.69 L 12.70 144.87 L 9.92 143.54 L 7.39 141.75 L 5.25 139.61 L 3.46 137.08 L 2.13 134.30 L 1.31 131.29 L 1.00 128.00 L 1.31 124.71 L 2.13 121.70 L 3.46 118.92 L 5.25 116.39 L 7.39 114.25 L 9.92 112.46 L 12.70 111.13 L 15.71 110.31 L 19.00 110.00 L 22.29 110.31 L 25.30 111.13 L 28.08 112.46 L 30.61 114.25 L 32.75 116.39 L 34.54 118.92 L 35.87 121.70 L 36.69 124.71 L 37.00 128.00 Z" fill="#37e5e6" fill-opacity="0.15335445" fill-rule="evenodd" group-id="1,2" id="椭圆形复制-7" node-id="50" stroke="#18c3e8" stroke-linecap="butt" stroke-width="1" target-height="36" target-width="36" target-x="1" target-y="110"></path><path d="M 231.00 206.00 L 230.68 207.57 L 229.83 208.83 L 228.57 209.68 L 227.00 210.00 L 225.43 209.68 L 224.17 208.83 L 223.32 207.57 L 223.00 206.00 L 223.32 204.43 L 224.17 203.17 L 225.43 202.32 L 227.00 202.00 L 228.57 202.32 L 229.83 203.17 L 230.68 204.43 L 231.00 206.00 Z" fill="#51eaed" fill-rule="evenodd" group-id="1,2" id="椭圆形复制-6" node-id="51" stroke-linecap="butt" stroke-width="1" target-height="8" target-width="8" target-x="223" target-y="202"></path><path d="M 23.00 128.00 L 22.68 129.57 L 21.83 130.83 L 20.57 131.68 L 19.00 132.00 L 17.43 131.68 L 16.17 130.83 L 15.32 129.57 L 15.00 128.00 L 15.32 126.43 L 16.17 125.17 L 17.43 124.32 L 19.00 124.00 L 20.57 124.32 L 21.83 125.17 L 22.68 126.43 L 23.00 128.00 Z" fill="#51eaed" fill-rule="evenodd" group-id="1,2" id="椭圆形复制-8" node-id="52" stroke-linecap="butt" stroke-width="1" target-height="8" target-width="8" target-x="15" target-y="124"></path><path d="M 315.00 101.00 L 373.00 101.00 L 373.00 159.00 L 315.00 159.00 Z" fill="url(#linearGradient-8)" fill-opacity="0.7020089" fill-rule="evenodd" group-id="1,2,9" id="矩形" node-id="53" stroke-linecap="butt" stroke-opacity="0.7020089" stroke-width="1" target-height="58" target-width="58" target-x="315" target-y="101"></path><path d="M 348.00 159.00 L 347.68 160.57 L 346.83 161.83 L 345.57 162.68 L 344.00 163.00 L 342.43 162.68 L 341.17 161.83 L 340.32 160.57 L 340.00 159.00 L 340.32 157.43 L 341.17 156.17 L 342.43 155.32 L 344.00 155.00 L 345.57 155.32 L 346.83 156.17 L 347.68 157.43 L 348.00 159.00 Z" fill="#51eaed" fill-rule="evenodd" group-id="1,2" id="椭圆形复制-9" node-id="54" stroke-linecap="butt" stroke-width="1" target-height="8" target-width="8" target-x="340" target-y="155"></path><path d="M 233.00 206.00 L 344.00 206.00 L 344.00 162.00" fill="none" group-id="1,2" id="路径-5" node-id="55" stroke="url(#linearGradient-9)" stroke-dasharray="7 7" stroke-linecap="butt" stroke-width="1" target-height="44" target-width="111" target-x="233" target-y="162"></path><path d="M 362.00 128.50 L 361.73 131.23 L 361.00 133.74 L 359.80 136.08 L 358.20 138.18 L 356.26 140.01 L 353.95 141.57 L 351.41 142.75 L 348.64 143.55 L 345.58 143.96 L 343.81 145.68 L 342.05 146.78 L 340.23 147.50 L 338.83 147.84 L 337.31 148.00 L 337.31 148.00 L 336.72 147.84 L 336.29 147.41 L 336.29 147.41 L 336.11 146.81 L 336.23 146.20 L 337.01 144.17 L 337.34 142.63 L 334.32 141.10 L 331.83 139.21 L 329.81 136.94 L 328.27 134.33 L 327.34 131.54 L 327.00 128.50 L 327.29 125.69 L 328.09 123.10 L 329.39 120.69 L 331.11 118.53 L 333.20 116.68 L 335.67 115.12 L 338.37 113.98 L 341.30 113.27 L 344.50 113.00 L 347.70 113.27 L 350.63 113.98 L 353.33 115.12 L 355.80 116.68 L 357.89 118.53 L 359.61 120.69 L 360.91 123.10 L 361.71 125.69 L 362.00 128.50 L 362.00 128.50 Z M 344.93 141.25 L 347.47 140.98 L 349.79 140.36 L 351.93 139.41 L 353.90 138.13 L 355.55 136.64 L 356.92 134.91 L 357.96 132.98 L 358.59 130.93 L 358.82 128.72 L 358.58 126.45 L 357.93 124.35 L 356.86 122.40 L 355.45 120.65 L 353.75 119.16 L 351.72 117.90 L 349.52 116.97 L 347.12 116.40 L 344.50 116.18 L 341.88 116.40 L 339.48 116.97 L 337.28 117.90 L 335.25 119.16 L 333.55 120.65 L 332.14 122.40 L 331.07 124.35 L 330.42 126.45 L 330.18 128.72 L 330.47 131.22 L 331.27 133.52 L 332.58 135.67 L 334.30 137.53 L 336.42 139.07 L 338.99 140.29 L 339.00 140.30 L 339.11 140.36 L 339.11 140.36 L 339.65 140.91 L 339.92 141.72 L 339.96 142.71 L 339.51 144.82 L 340.57 144.46 L 341.80 143.84 L 342.95 142.98 L 344.05 141.74 L 344.09 141.70 L 344.09 141.70 L 344.31 141.50 L 344.43 141.40 L 344.43 141.40 L 344.68 141.31 L 344.84 141.27 L 344.93 141.25 L 344.93 141.25 Z M 350.86 124.14 L 350.86 124.14 L 351.49 124.26 L 351.99 124.60 L 352.33 125.10 L 352.45 125.73 L 352.33 126.35 L 351.99 126.85 L 351.49 127.19 L 350.86 127.32 L 338.14 127.32 L 338.14 127.32 L 337.51 127.19 L 337.01 126.85 L 336.67 126.35 L 336.55 125.73 L 336.67 125.10 L 337.01 124.60 L 337.51 124.26 L 338.14 124.14 L 350.86 124.14 L 350.86 124.14 Z M 338.14 130.50 L 344.50 130.50 L 344.50 130.50 L 345.12 130.63 L 345.63 130.97 L 345.96 131.47 L 346.09 132.09 L 345.96 132.72 L 345.63 133.22 L 345.12 133.56 L 344.50 133.68 L 338.13 133.68 L 338.13 133.68 L 337.51 133.56 L 337.01 133.22 L 336.67 132.72 L 336.54 132.09 L 336.67 131.47 L 337.01 130.97 L 337.51 130.63 L 338.13 130.50 L 338.14 130.50 Z" fill="#b6e8fd" fill-rule="nonzero" group-id="1,2,10" id="形状" node-id="57" stroke-linecap="butt" stroke-width="1" target-height="35" target-width="35" target-x="327" target-y="113"></path><path d="M 368.00 95.00 L 378.00 95.00 L 378.00 105.00" fill="none" group-id="1,2" id="路径-6" node-id="58" stroke="url(#linearGradient-10)" stroke-linecap="butt" stroke-width="2" target-height="10" target-width="10" target-x="368" target-y="95"></path><path d="M 368.00 164.00 L 378.00 164.00 L 378.00 154.00" fill="none" group-id="1,2" id="路径-6复制-2" node-id="59" stroke="url(#linearGradient-10)" stroke-linecap="butt" stroke-width="2" target-height="10" target-width="10" target-x="368" target-y="154"></path><path d="M 319.00 95.00 L 309.00 95.00 L 309.00 105.00" fill="none" group-id="1,2" id="路径-6复制" node-id="60" stroke="url(#linearGradient-10)" stroke-linecap="butt" stroke-width="2" target-height="10" target-width="10" target-x="309" target-y="95"></path><path d="M 319.00 164.00 L 309.00 164.00 L 309.00 154.00" fill="none" group-id="1,2" id="路径-6复制-3" node-id="61" stroke="url(#linearGradient-10)" stroke-linecap="butt" stroke-width="2" target-height="10" target-width="10" target-x="309" target-y="154"></path></g></g></svg>