<?xml version="1.0" encoding="UTF-8"?>
<svg width="282px" height="304px" viewBox="0 0 282 304" version="1.1" xmlns="http://www.w3.org/2000/svg" xmlns:xlink="http://www.w3.org/1999/xlink">
    <!-- Generator: Sketch 63.1 (92452) - https://sketch.com -->
    <title>短信公众号</title>
    <desc>Created with Sketch.</desc>
    <defs>
        <linearGradient x1="50%" y1="0%" x2="50%" y2="100%" id="linearGradient-1">
            <stop stop-color="#59D0FC" offset="0%"></stop>
            <stop stop-color="#4B79FF" offset="100%"></stop>
        </linearGradient>
        <linearGradient x1="14.379319%" y1="0%" x2="50%" y2="100%" id="linearGradient-2">
            <stop stop-color="#59D0FC" offset="0%"></stop>
            <stop stop-color="#4B79FF" offset="100%"></stop>
        </linearGradient>
        <linearGradient x1="50%" y1="0%" x2="50%" y2="100%" id="linearGradient-3">
            <stop stop-color="#59D0FC" offset="0%"></stop>
            <stop stop-color="#4B79FF" offset="100%"></stop>
        </linearGradient>
        <linearGradient x1="14.379319%" y1="0.701745685%" x2="50%" y2="99.2982543%" id="linearGradient-4">
            <stop stop-color="#59D0FC" offset="0%"></stop>
            <stop stop-color="#4B79FF" offset="100%"></stop>
        </linearGradient>
        <linearGradient x1="50%" y1="0%" x2="50%" y2="100%" id="linearGradient-5">
            <stop stop-color="#59D0FC" offset="0%"></stop>
            <stop stop-color="#4B79FF" offset="100%"></stop>
        </linearGradient>
        <linearGradient x1="50%" y1="0%" x2="50%" y2="100%" id="linearGradient-6">
            <stop stop-color="#59D0FC" offset="0%"></stop>
            <stop stop-color="#4B79FF" offset="100%"></stop>
        </linearGradient>
        <linearGradient x1="50%" y1="0%" x2="50%" y2="100%" id="linearGradient-7">
            <stop stop-color="#59D0FC" offset="0%"></stop>
            <stop stop-color="#4B79FF" offset="100%"></stop>
        </linearGradient>
        <linearGradient x1="50%" y1="0%" x2="50%" y2="100%" id="linearGradient-8">
            <stop stop-color="#59D0FC" offset="0%"></stop>
            <stop stop-color="#4B79FF" offset="100%"></stop>
        </linearGradient>
        <linearGradient x1="50%" y1="0%" x2="50%" y2="100%" id="linearGradient-9">
            <stop stop-color="#59D0FC" offset="0%"></stop>
            <stop stop-color="#4B79FF" offset="100%"></stop>
        </linearGradient>
        <linearGradient x1="50%" y1="0%" x2="50%" y2="100%" id="linearGradient-10">
            <stop stop-color="#59D0FC" offset="0%"></stop>
            <stop stop-color="#4B79FF" offset="100%"></stop>
        </linearGradient>
        <linearGradient x1="50%" y1="0%" x2="50%" y2="121.010131%" id="linearGradient-11">
            <stop stop-color="#59D0FC" offset="0%"></stop>
            <stop stop-color="#4B79FF" offset="100%"></stop>
        </linearGradient>
        <linearGradient x1="82.9548478%" y1="54.4866847%" x2="33.4416162%" y2="34.1758769%" id="linearGradient-12">
            <stop stop-color="#59D0FC" offset="0%"></stop>
            <stop stop-color="#4B79FF" offset="100%"></stop>
        </linearGradient>
        <linearGradient x1="50%" y1="0%" x2="50%" y2="100%" id="linearGradient-13">
            <stop stop-color="#59D0FC" offset="0%"></stop>
            <stop stop-color="#4B79FF" offset="100%"></stop>
        </linearGradient>
    </defs>
    <g id="中昱购买官网" stroke="none" stroke-width="1" fill="none" fill-rule="evenodd">
        <g id="画板" transform="translate(-1726.000000, -854.000000)">
            <g id="短信公众号" transform="translate(1718.000000, 855.000000)">
                <polygon id="多边形复制-2" stroke="url(#linearGradient-2)" fill-opacity="0.1" fill="url(#linearGradient-1)" opacity="0.778111049" points="227.5 126 288.554791 161.25 288.554791 231.75 227.5 267 166.445209 231.75 166.445209 161.25"></polygon>
                <polygon id="多边形复制-3" stroke="url(#linearGradient-4)" fill-opacity="0.1" fill="url(#linearGradient-3)" opacity="0.778111049" points="151 161 212.487804 196.25 212.487804 266.75 151 302 89.5121963 266.75 89.5121963 196.25"></polygon>
                <polygon id="多边形复制-4" stroke="url(#linearGradient-2)" fill-opacity="0.1" fill="url(#linearGradient-1)" opacity="0.778111049" points="70.5 126 131.554791 161.25 131.554791 231.75 70.5 267 9.44520903 231.75 9.44520903 161.25"></polygon>
                <polygon id="多边形复制-5" stroke="url(#linearGradient-2)" fill-opacity="0.1" fill="url(#linearGradient-1)" opacity="0.778111049" points="70.5 46 131.554791 81.25 131.554791 151.75 70.5 187 9.44520903 151.75 9.44520903 81.25"></polygon>
                <path d="M166,161 L227,196.333333 L227,267" id="路径-55复制-2" stroke="url(#linearGradient-5)" stroke-width="2" opacity="0.272693452" stroke-linecap="round" stroke-linejoin="round" stroke-dasharray="8"></path>
                <path d="M90,196 L151,231.333333 L151,302" id="路径-55复制-3" stroke="url(#linearGradient-5)" stroke-width="2" opacity="0.272693452" stroke-linecap="round" stroke-linejoin="round" stroke-dasharray="8"></path>
                <path d="M9,161 L71,196.333333 L71,267" id="路径-55复制-4" stroke="url(#linearGradient-6)" stroke-width="2" opacity="0.272693452" stroke-linecap="round" stroke-linejoin="round" stroke-dasharray="8"></path>
                <path d="M9,82 L71,117 L71,187" id="路径-55复制-5" stroke="url(#linearGradient-7)" stroke-width="2" opacity="0.272693452" stroke-linecap="round" stroke-linejoin="round" stroke-dasharray="8"></path>
                <line x1="227" y1="196" x2="288" y2="161" id="路径-56复制-2" stroke="url(#linearGradient-8)" stroke-width="2" opacity="0.272693452" stroke-linecap="round" stroke-linejoin="round" stroke-dasharray="8"></line>
                <line x1="151" y1="231" x2="212" y2="196" id="路径-56复制-3" stroke="url(#linearGradient-8)" stroke-width="2" opacity="0.272693452" stroke-linecap="round" stroke-linejoin="round" stroke-dasharray="8"></line>
                <line x1="71" y1="196" x2="132" y2="161" id="路径-56复制-4" stroke="url(#linearGradient-8)" stroke-width="2" opacity="0.272693452" stroke-linecap="round" stroke-linejoin="round" stroke-dasharray="8"></line>
                <line x1="71" y1="117" x2="132" y2="82" id="路径-56复制-5" stroke="url(#linearGradient-8)" stroke-width="2" opacity="0.272693452" stroke-linecap="round" stroke-linejoin="round" stroke-dasharray="8"></line>
                <polygon id="多边形" stroke="url(#linearGradient-4)" fill-opacity="0.1" fill="url(#linearGradient-3)" opacity="0.778111049" points="151 0 212.487804 35.25 212.487804 105.75 151 141 89.5121963 105.75 89.5121963 35.25"></polygon>
                <polygon id="多边形复制" stroke="url(#linearGradient-2)" fill-opacity="0.1" fill="url(#linearGradient-1)" opacity="0.778111049" points="227.5 46 288.554791 81.25 288.554791 151.75 227.5 187 166.445209 151.75 166.445209 81.25"></polygon>
                <path d="M90,35 L151,70.3333333 L151,141" id="路径-55" stroke="url(#linearGradient-5)" stroke-width="2" opacity="0.272693452" stroke-linecap="round" stroke-linejoin="round" stroke-dasharray="8"></path>
                <path d="M166,82 L227,117 L227,187" id="路径-55复制" stroke="url(#linearGradient-9)" stroke-width="2" opacity="0.272693452" stroke-linecap="round" stroke-linejoin="round" stroke-dasharray="8"></path>
                <line x1="151" y1="71" x2="212" y2="35" id="路径-56" stroke="url(#linearGradient-10)" stroke-width="2" opacity="0.272693452" stroke-linecap="round" stroke-linejoin="round" stroke-dasharray="8"></line>
                <line x1="227" y1="117" x2="288" y2="82" id="路径-56复制" stroke="url(#linearGradient-8)" stroke-width="2" opacity="0.272693452" stroke-linecap="round" stroke-linejoin="round" stroke-dasharray="8"></line>
                <polygon id="多边形复制-6" fill="url(#linearGradient-3)" points="151 82 212.487804 117.25 212.487804 187.75 151 223 89.5121963 187.75 89.5121963 117.25"></polygon>
                <polygon id="多边形复制-8" fill="url(#linearGradient-11)" points="151 82 212 117 151 152 90 117"></polygon>
                <polygon id="多边形复制-7" fill="url(#linearGradient-12)" points="212 117 212 187.666667 151 223 151 152.333333"></polygon>
                <polygon id="矩形" fill="url(#linearGradient-13)" points="138 135 164 135 164 146.906792 170.125966 147.937369 170.125966 161.608529 164 163.248511 164 178 138 178 138 163.140735 132 161.608529 132 147.720824 138 145.560834"></polygon>
                <g id="公众号" transform="translate(131.000000, 132.000000)" fill="#B6E8FD" fill-rule="nonzero">
                    <g id="编组">
                        <path d="M34.6007301,13.9476443 L34.6007301,2.93660626 C34.6007301,1.31422304 33.2965528,0.000257606264 31.6881877,0.000257606264 L8.38576271,0.000257606264 C6.77707953,0.000257606264 5.47290222,1.31416521 5.47290222,2.93660626 L5.47290222,13.9476443 L0.039577575,13.9476443 L0.039577575,32.2993043 L5.47295437,32.2993043 L5.47295437,44.0446253 C5.47295437,45.6660937 6.77713168,46.9807584 8.38581486,46.9807584 L31.6882399,46.9807584 C33.2969804,46.9807584 34.6007823,45.6660412 34.6007823,44.0446253 L34.6007823,32.2993043 L39.9814342,32.2993043 L39.9814342,13.9476443 L34.6007301,13.9476443 Z M36.6302634,17.5773376 L36.6302634,21.5752817 L27.781502,21.5752817 L27.781502,17.5773376 L36.6302634,17.5773376 L36.6302634,17.5773376 Z M31.6882277,3.67038456 L31.6882277,13.9473499 L8.38607562,13.9473499 L8.38554196,3.67038456 L31.6882277,3.67038456 L31.6882277,3.67038456 Z M21.2311343,21.3711313 L22.8270091,21.3711313 C22.8349074,21.9634575 22.8111592,22.5277466 22.7556047,23.0639515 C23.3351145,25.2490624 24.4030884,26.7097846 25.9592605,27.4461179 C25.3954952,28.1103635 24.9786451,28.6186996 24.7086634,28.9708578 C23.5574352,28.2183847 22.7158446,27.1019717 22.1838342,25.6212351 C21.596267,27.1739543 20.6039124,28.3504053 19.2065043,29.1509194 C18.769698,28.5586037 18.3926634,28.0904017 18.075078,27.7462555 C20.266473,26.617735 21.3184939,24.4927147 21.2311301,21.3711313 L21.2311343,21.3711313 Z M25.0065085,22.57175 C22.8945763,21.5392588 21.2192334,20.2906623 19.9806988,18.8259026 C19.2978722,19.6823645 18.3332151,20.530704 17.0866754,21.3711944 L18.337163,21.3711944 C18.3291046,22.2036096 18.2657048,22.9799666 18.1466441,23.700323 C18.6309465,24.0285444 19.2978722,24.4767378 20.1474159,25.0450015 L19.135103,26.4737121 L19.135104,26.473713 C18.6852688,26.065876 18.2286946,25.6656547 17.765576,25.2732205 C17.2573116,26.8259396 16.4197768,28.0465622 15.2526477,28.9349779 C15.2207878,28.8788129 14.8119989,28.366709 14.0259619,27.3982408 C15.7727051,26.2296389 16.6737481,24.3007148 16.7294665,21.6114053 C16.1973465,21.9556587 15.6178941,22.2957705 14.990619,22.6318993 C14.6729272,22.0796073 14.3474951,21.5594372 14.014061,21.0711681 C16.5468433,19.990636 18.2895864,18.6900714 19.2423791,17.1692534 L21.2787963,17.1692534 L20.981117,17.5414277 C22.0847416,18.9661585 23.7520219,20.0787022 25.9831249,20.8790533 C25.9038221,21.0070925 25.5781783,21.5713254 25.0065668,22.5718051 L25.0065085,22.57175 Z M13.7162347,21.8873848 C13.1365111,22.4717409 12.6839635,22.9479603 12.3585346,23.3160954 C10.9532308,22.0035337 9.73438853,20.2626831 8.70227379,18.093549 L10.2623937,17.3491983 C11.1595411,19.182151 12.3109257,20.6948413 13.7162347,21.8873795 L13.7162347,21.8873848 Z M5.24854237,17.4692166 L6.88017731,18.1655368 C6.00672229,20.158484 4.75218253,21.9154166 3.11675619,23.4361084 C2.84666754,23.0840006 2.44977836,22.6197226 1.92582529,22.0434416 C3.37067536,20.754874 4.47824772,19.2301289 5.24854237,17.4692166 L5.24854237,17.4692166 Z M4.78996245,28.3405268 C4.38901851,28.3845336 3.97804068,28.4585058 3.55735228,28.5627128 L2.81896897,26.9418857 C3.3548751,26.62975 4.06844485,25.8133127 4.9596678,24.4927336 C5.85083859,23.1720494 6.52667171,22.0595057 6.98733403,21.1550554 L8.74993116,21.947447 C7.40012673,24.0525055 6.29655958,25.5892478 5.43906284,26.5577159 C6.99518279,26.5216713 8.48987379,26.4715855 9.92298462,26.4075656 C9.46248344,25.74332 8.95624668,25.0489502 8.40459609,24.3246139 L9.82185293,23.4241434 C11.0682832,24.9449561 12.1878138,26.4536666 13.1803771,27.9503801 L11.6201997,29.0429628 L11.6202003,29.0429628 C11.4174702,28.6972752 11.2090087,28.3550385 10.9949018,28.0163914 L4.78994741,28.3405242 L4.78996245,28.3405268 Z M20.0369507,45.5126655 C19.2327682,45.5126655 18.5799338,44.8553069 18.5799338,44.0446253 C18.5799338,43.2336755 19.2327682,42.5762643 20.0369507,42.5762643 C20.8411854,42.5762643 21.4935922,43.2336755 21.4935922,44.0446253 C21.4935922,44.8553595 20.8415035,45.5126655 20.0369507,45.5126655 Z M31.6881693,41.108224 L8.3857382,41.108224 L8.38600501,32.299299 L31.6881693,32.299299 L31.6881693,41.108224 L31.6881693,41.108224 Z M38.0950993,23.7242699 L29.8954644,23.7242699 L29.7821669,24.4806702 L36.6778123,24.4806702 L36.439637,27.0860001 C36.380133,27.6982724 36.15674,28.14738 35.7697231,28.4335858 C35.3826013,28.7196833 34.8823958,28.8667134 34.269212,28.8748369 C33.65571,28.8828529 32.5213476,28.8868877 30.865963,28.8868877 C30.7548537,28.3586476 30.6079885,27.7903209 30.4253674,27.1820862 C31.5805434,27.2741347 32.4797716,27.320078 33.1228954,27.320078 C33.6350023,27.320078 33.9961366,27.2930714 34.2067181,27.2389509 C34.4171432,27.1849914 34.5640083,27.0910066 34.6474201,26.9568884 C34.7307254,26.8229315 34.7922039,26.4777097 34.8319087,25.9214374 L27.8409309,25.9214374 L28.1922973,23.7243293 L26.2689074,23.7243293 L26.2689074,22.2596274 L38.0950993,22.2596274 L38.0950993,23.7242767 L38.0950993,23.7242699 Z" id="形状"></path>
                        <polygon id="路径" points="29.4963755 19.0059799 34.9153064 19.0059799 34.9153064 20.14655 29.4963755 20.14655"></polygon>
                    </g>
                </g>
            </g>
        </g>
    </g>
</svg>