<?xml version="1.0" standalone="no"?><!DOCTYPE svg PUBLIC "-//W3C//DTD SVG 1.1//EN" "http://www.w3.org/Graphics/SVG/1.1/DTD/svg11.dtd"><svg height="334" legacy-metrics="false" node-id="1" sillyvg="true" template-height="334" template-width="335" version="1.1" viewBox="0 0 335 334" width="335" xmlns="http://www.w3.org/2000/svg" xmlns:xlink="http://www.w3.org/1999/xlink"><defs node-id="44"><linearGradient gradientUnits="objectBoundingBox" id="linearGradient-1" node-id="7" x1="0.5" x2="0.5" y1="0" y2="1"><stop offset="0" stop-color="#59d0fc"></stop><stop offset="1" stop-color="#4b79ff"></stop></linearGradient><linearGradient gradientUnits="objectBoundingBox" id="linearGradient-2" node-id="10" x1="0.5" x2="0.5" y1="0" y2="1"><stop offset="0" stop-color="#59d0fc" stop-opacity="0"></stop><stop offset="1" stop-color="#4b79ff"></stop></linearGradient><linearGradient gradientUnits="objectBoundingBox" id="linearGradient-3" node-id="13" x1="0.5" x2="0.5" y1="0" y2="1"><stop offset="0" stop-color="#59d0fc" stop-opacity="0.21749344"></stop><stop offset="1" stop-color="#4b79ff"></stop></linearGradient><linearGradient gradientUnits="objectBoundingBox" id="linearGradient-4" node-id="16" x1="0.5" x2="0.5" y1="0" y2="1"><stop offset="0" stop-color="#59d0fc"></stop><stop offset="1" stop-color="#4b79ff"></stop></linearGradient><linearGradient gradientUnits="objectBoundingBox" id="linearGradient-5" node-id="19" x1="0" x2="1" y1="0.5" y2="0.5"><stop offset="0" stop-color="#59d0fc" stop-opacity="0.21749344"></stop><stop offset="1" stop-color="#4b79ff"></stop></linearGradient><linearGradient gradientUnits="objectBoundingBox" id="linearGradient-6" node-id="22" x1="0.5" x2="0.5" y1="0" y2="1"><stop offset="0" stop-color="#59d0fc"></stop><stop offset="1" stop-color="#4b79ff"></stop></linearGradient><linearGradient gradientUnits="objectBoundingBox" id="linearGradient-7" node-id="25" x1="0.5" x2="0.5" y1="0" y2="1"><stop offset="0" stop-color="#4ebae5"></stop><stop offset="1" stop-color="#4370eb"></stop></linearGradient></defs><g node-id="46"><g node-id="47"><g node-id="48"><path d="M 1.00 240.92 L 156.59 333.00 L 316.00 240.92 L 158.50 147.00 Z" fill="url(#linearGradient-1)" fill-opacity="0.053869046" fill-rule="evenodd" group-id="1,2,3" id="路径-27复制-9" node-id="31" stroke="url(#linearGradient-1)" stroke-linecap="butt" stroke-opacity="0.53869045" stroke-width="1" target-height="186.00002" target-width="315" target-x="1" target-y="146.99959"></path></g><g node-id="49"><path d="M 1.00 240.88 L 156.59 333.00 L 316.00 240.88 L 316.00 0.00 L 1.00 0.00 Z" fill="url(#linearGradient-2)" fill-opacity="0.1720866" fill-rule="evenodd" group-id="1,2,4" id="路径-27复制-10" node-id="32" stroke-linecap="butt" stroke-opacity="0.17740886" stroke-width="1" target-height="332.9996" target-width="315" target-x="1" target-y="0"></path></g><path d="M 334.00 43.00 L 333.69 46.29 L 332.87 49.30 L 331.54 52.08 L 329.75 54.61 L 327.61 56.75 L 325.08 58.54 L 322.30 59.87 L 319.29 60.69 L 316.00 61.00 L 312.71 60.69 L 309.70 59.87 L 306.92 58.54 L 304.39 56.75 L 302.25 54.61 L 300.46 52.08 L 299.13 49.30 L 298.31 46.29 L 298.00 43.00 L 298.31 39.71 L 299.13 36.70 L 300.46 33.91 L 302.25 31.39 L 304.39 29.25 L 306.92 27.46 L 309.70 26.13 L 312.71 25.31 L 316.00 25.00 L 319.29 25.31 L 322.30 26.13 L 325.08 27.46 L 327.61 29.25 L 329.75 31.39 L 331.54 33.91 L 332.87 36.70 L 333.69 39.71 L 334.00 43.00 Z" fill="#37e5e6" fill-opacity="0.15335445" fill-rule="evenodd" group-id="1,2" id="椭圆形复制-7" node-id="33" stroke="#18c3e8" stroke-linecap="butt" stroke-width="1" target-height="36" target-width="36" target-x="298" target-y="24.999594"></path><path d="M 98.00 290.00 L 97.69 293.29 L 96.87 296.30 L 95.54 299.08 L 93.75 301.61 L 91.61 303.75 L 89.08 305.54 L 86.30 306.87 L 83.29 307.69 L 80.00 308.00 L 76.71 307.69 L 73.70 306.87 L 70.92 305.54 L 68.39 303.75 L 66.25 301.61 L 64.46 299.08 L 63.13 296.30 L 62.31 293.29 L 62.00 290.00 L 62.31 286.71 L 63.13 283.70 L 64.46 280.91 L 66.25 278.39 L 68.39 276.25 L 70.92 274.46 L 73.70 273.13 L 76.71 272.31 L 80.00 272.00 L 83.29 272.31 L 86.30 273.13 L 89.08 274.46 L 91.61 276.25 L 93.75 278.39 L 95.54 280.91 L 96.87 283.70 L 97.69 286.71 L 98.00 290.00 Z" fill="#37e5e6" fill-opacity="0.15335445" fill-rule="evenodd" group-id="1,2" id="椭圆形复制-9" node-id="34" stroke="#18c3e8" stroke-linecap="butt" stroke-width="1" target-height="36" target-width="36" target-x="62" target-y="271.9996"></path><path d="M 320.00 43.00 L 319.68 44.57 L 318.83 45.83 L 317.57 46.68 L 316.00 47.00 L 314.43 46.68 L 313.17 45.83 L 312.32 44.57 L 312.00 43.00 L 312.32 41.43 L 313.17 40.17 L 314.43 39.32 L 316.00 39.00 L 317.57 39.32 L 318.83 40.17 L 319.68 41.43 L 320.00 43.00 Z" fill="#51eaed" fill-rule="evenodd" group-id="1,2" id="椭圆形复制-8" node-id="35" stroke-linecap="butt" stroke-width="1" target-height="8" target-width="8" target-x="312" target-y="38.99959"></path><path d="M 84.00 290.00 L 83.68 291.57 L 82.83 292.83 L 81.57 293.68 L 80.00 294.00 L 78.43 293.68 L 77.17 292.83 L 76.32 291.57 L 76.00 290.00 L 76.32 288.43 L 77.17 287.17 L 78.43 286.32 L 80.00 286.00 L 81.57 286.32 L 82.83 287.17 L 83.68 288.43 L 84.00 290.00 Z" fill="#51eaed" fill-rule="evenodd" group-id="1,2" id="椭圆形复制-14" node-id="36" stroke-linecap="butt" stroke-width="1" target-height="8" target-width="8" target-x="76" target-y="285.9996"></path><path d="M 157.50 37.00 L 274.85 104.75 L 274.85 240.25 L 157.50 308.00 L 40.15 240.25 L 40.15 104.75 L 157.50 37.00 Z" fill="url(#linearGradient-3)" fill-opacity="0.46" fill-rule="evenodd" group-id="1,2" id="多边形" node-id="37" stroke="url(#linearGradient-4)" stroke-dasharray="5 5" stroke-linecap="butt" stroke-width="1" target-height="271" target-width="234.69287" target-x="40.153557" target-y="36.99959"></path><path d="M 158.00 170.00 L 275.00 240.54 L 158.00 308.00 L 41.00 240.54 L 158.00 170.00 Z" fill="url(#linearGradient-5)" fill-opacity="0.46" fill-rule="evenodd" group-id="1,2" id="多边形复制" node-id="38" stroke-linecap="butt" stroke-width="1" target-height="138.00002" target-width="234" target-x="41" target-y="169.99959"></path><path d="M 264.00 98.00 L 275.00 104.34 L 275.00 119.00 M 41.00 119.00 L 41.00 104.96 L 55.00 97.00 M 144.00 45.40 L 158.00 37.00 L 158.00 37.00 L 173.00 46.00" fill="none" group-id="1,2" id="形状" node-id="39" stroke="url(#linearGradient-6)" stroke-linecap="butt" stroke-width="3" target-height="82" target-width="234" target-x="41" target-y="36.99959"></path><path d="M 158.00 87.00 L 232.48 130.00 L 232.48 216.00 L 158.00 259.00 L 83.52 216.00 L 83.52 130.00 L 158.00 87.00 Z" fill="url(#linearGradient-7)" fill-rule="evenodd" group-id="1,2" id="多边形复制-3" node-id="40" stroke-linecap="butt" stroke-width="1" target-height="172" target-width="148.95636" target-x="83.52181" target-y="86.999596"></path><path d="M 180.90 185.39 L 181.70 186.06 L 182.00 187.07 L 182.00 196.18 L 181.86 196.88 L 181.47 197.45 L 180.91 197.84 L 180.22 198.00 L 178.08 198.00 L 172.78 198.00 L 165.92 198.00 L 159.06 198.00 L 153.79 197.99 L 151.68 197.99 L 149.88 197.68 L 148.06 197.07 L 146.20 196.12 L 143.60 194.31 L 141.12 192.07 L 138.90 189.57 L 137.04 187.00 L 135.52 184.35 L 134.55 182.05 L 134.01 179.47 L 134.12 177.79 L 134.68 176.40 L 135.38 175.55 L 136.71 174.71 L 138.18 174.43 L 139.48 174.64 L 140.80 175.20 L 142.16 176.16 L 144.07 177.92 L 146.09 180.07 L 149.00 183.09 L 150.52 184.36 L 151.81 185.10 L 154.97 186.14 L 157.77 186.73 L 160.46 187.04 L 162.52 187.12 L 161.10 185.20 L 160.31 183.86 L 160.11 182.81 L 160.25 181.76 L 160.76 180.66 L 161.46 179.85 L 162.29 179.30 L 163.24 179.00 L 164.26 179.01 L 167.48 180.02 L 172.54 181.96 L 177.61 184.02 L 180.90 185.39 L 180.90 185.39 Z M 157.83 147.00 L 160.65 147.21 L 163.29 147.76 L 165.78 148.64 L 168.13 149.86 L 171.00 151.94 L 173.43 154.44 L 175.47 157.38 L 176.98 160.63 L 177.91 164.13 L 178.26 167.95 L 177.97 171.48 L 177.13 174.78 L 175.80 177.87 L 174.03 180.67 L 168.18 178.41 L 164.36 177.22 L 163.54 177.15 L 162.26 177.32 L 161.06 177.81 L 160.00 178.59 L 159.11 179.64 L 158.50 180.83 L 158.19 182.07 L 158.18 183.33 L 158.48 184.54 L 158.73 185.06 L 155.74 184.50 L 152.28 183.40 L 151.21 182.76 L 149.82 181.55 L 147.20 178.81 L 144.98 176.46 L 142.81 174.51 L 141.26 173.48 L 139.67 172.85 L 138.00 172.61 L 137.93 172.61 L 137.55 170.33 L 137.41 167.95 L 137.75 164.13 L 138.69 160.62 L 140.20 157.38 L 142.24 154.44 L 144.67 151.94 L 147.53 149.86 L 149.89 148.64 L 152.37 147.76 L 155.01 147.21 L 157.83 147.00 L 157.83 147.00 Z M 164.05 161.66 L 161.18 161.66 L 165.40 157.48 L 165.80 156.87 L 165.95 156.20 L 165.83 155.51 L 165.45 154.90 L 164.86 154.49 L 164.20 154.34 L 163.54 154.46 L 162.94 154.85 L 158.70 159.04 L 154.63 154.88 L 154.04 154.47 L 153.37 154.34 L 152.71 154.47 L 152.12 154.88 L 151.73 155.49 L 151.60 156.17 L 151.73 156.85 L 152.12 157.46 L 156.23 161.66 L 153.39 161.66 L 152.70 161.81 L 152.14 162.19 L 151.76 162.77 L 151.62 163.48 L 151.76 164.20 L 152.14 164.77 L 152.70 165.16 L 153.39 165.30 L 156.94 165.30 L 156.94 167.13 L 153.39 167.13 L 152.70 167.27 L 152.14 167.66 L 151.76 168.23 L 151.62 168.95 L 151.76 169.66 L 152.14 170.23 L 152.70 170.62 L 153.39 170.77 L 156.94 170.77 L 156.94 174.42 L 157.09 175.14 L 157.46 175.71 L 158.02 176.10 L 158.72 176.24 L 159.42 176.10 L 159.98 175.71 L 160.35 175.14 L 160.50 174.42 L 160.50 170.77 L 164.05 170.77 L 164.75 170.62 L 165.31 170.23 L 165.69 169.66 L 165.83 168.95 L 165.69 168.23 L 165.31 167.66 L 164.75 167.27 L 164.05 167.13 L 160.50 167.13 L 160.50 165.30 L 164.05 165.30 L 164.75 165.16 L 165.31 164.77 L 165.69 164.20 L 165.83 163.48 L 165.69 162.77 L 165.31 162.19 L 164.75 161.81 L 164.05 161.66 L 164.05 161.66 L 164.05 161.66 Z" fill="#b6e8fd" fill-rule="nonzero" group-id="1,2,5" id="形状" node-id="42" stroke-linecap="butt" stroke-width="1" target-height="50.999954" target-width="47.987244" target-x="134.01276" target-y="146.99959"></path></g></g></svg>