<?xml version="1.0" standalone="no"?><!DOCTYPE svg PUBLIC "-//W3C//DTD SVG 1.1//EN" "http://www.w3.org/Graphics/SVG/1.1/DTD/svg11.dtd"><svg height="313" legacy-metrics="false" node-id="1" sillyvg="true" template-height="313" template-width="341" version="1.1" viewBox="0 0 341 313" width="341" xmlns="http://www.w3.org/2000/svg" xmlns:xlink="http://www.w3.org/1999/xlink"><defs node-id="41"><linearGradient gradientUnits="objectBoundingBox" id="linearGradient-1" node-id="7" x1="0.5" x2="0.5" y1="0" y2="1"><stop offset="0" stop-color="#59d0fc"></stop><stop offset="1" stop-color="#4b79ff"></stop></linearGradient><linearGradient gradientUnits="objectBoundingBox" id="linearGradient-2" node-id="10" x1="0.5" x2="0.5" y1="0.004539696" y2="1"><stop offset="0" stop-color="#59d0fc" stop-opacity="0"></stop><stop offset="1" stop-color="#4b79ff"></stop></linearGradient><linearGradient gradientUnits="objectBoundingBox" id="linearGradient-3" node-id="13" x1="0.5" x2="0.5" y1="0" y2="1"><stop offset="0" stop-color="#59d0fc"></stop><stop offset="1" stop-color="#4b79ff"></stop></linearGradient></defs><g node-id="43"><g node-id="44"><path d="M 185.76 139.89 L 193.85 136.16 L 201.89 133.03 L 209.89 130.50 L 217.88 128.55 L 225.87 127.15 L 233.88 126.30 L 241.92 126.00 L 250.01 126.25 L 258.17 127.05 L 266.42 128.41 L 274.78 130.36 L 283.27 132.90 L 291.90 136.07 L 300.69 139.89 L 304.76 142.75 L 308.60 145.93 L 312.23 149.47 L 315.54 153.29 L 318.46 157.38 L 321.00 161.76 L 323.07 166.37 L 324.61 171.21 L 325.62 176.32 L 325.97 180.19 L 325.95 184.19 L 325.53 188.35 L 324.70 192.68 L 323.51 196.84 L 321.83 201.16 L 319.63 205.67 L 316.85 210.39 L 313.83 214.75 L 310.17 219.29 L 305.81 224.03 L 300.69 228.98 L 302.23 231.20 L 303.66 233.64 L 305.46 237.34 L 307.02 241.48 L 308.32 246.57 L 308.84 250.12 L 308.99 253.95 L 308.74 258.11 L 308.03 262.20 L 306.69 266.52 L 304.66 271.13 L 302.82 274.35 L 300.48 277.70 L 297.56 281.19 L 294.01 284.83 L 290.35 288.06 L 285.98 291.40 L 280.80 294.85 L 274.72 298.41 L 267.46 302.03 L 260.35 305.01 L 253.39 307.38 L 246.55 309.19 L 239.52 310.56 L 232.66 311.47 L 225.96 311.94 L 219.41 311.98 L 210.65 311.46 L 202.28 310.40 L 194.27 308.81 L 186.36 306.73 L 178.98 304.36 L 172.10 301.72 L 165.34 298.73 L 159.28 295.73 L 153.89 292.74 L 146.29 287.99 L 140.60 283.90 L 130.35 276.30 L 113.01 264.08 L 85.99 245.60 L 46.27 219.00 L 42.01 213.88 L 38.63 208.99 L 36.02 204.31 L 34.11 199.82 L 32.84 195.47 L 32.15 191.23 L 32.02 187.08 L 32.44 182.96 L 33.41 178.85 L 34.96 174.71 L 37.14 170.51 L 40.01 166.22 L 43.65 161.83 L 48.14 157.32 L 53.59 152.67 L 60.11 147.88 L 66.76 143.68 L 73.66 140.02 L 80.84 136.88 L 88.31 134.27 L 96.10 132.18 L 104.24 130.61 L 112.75 129.59 L 121.68 129.13 L 131.05 129.26 L 140.89 130.00 L 151.25 131.39 L 162.15 133.47 L 173.64 136.29 L 185.76 139.89 Z" fill="url(#linearGradient-1)" fill-opacity="0.11" fill-rule="evenodd" group-id="1,2" id="路径-28" node-id="25" stroke="url(#linearGradient-1)" stroke-linecap="butt" stroke-width="1" target-height="185.97607" target-width="293.95322" target-x="32.01896" target-y="126.00067"></path><g node-id="45"><path d="M 326.00 12.00 L 325.52 119.24 L 325.63 165.41 L 325.94 179.76 L 325.93 184.66 L 325.30 189.79 L 324.02 195.19 L 322.69 199.08 L 320.93 203.13 L 318.71 207.33 L 315.97 211.72 L 313.03 215.78 L 309.54 220.01 L 305.45 224.40 L 300.69 228.98 L 302.23 231.20 L 303.66 233.64 L 305.46 237.34 L 307.02 241.48 L 308.32 246.57 L 308.84 250.12 L 308.99 253.95 L 308.74 258.11 L 308.03 262.20 L 306.69 266.52 L 304.66 271.13 L 302.82 274.35 L 300.48 277.70 L 297.56 281.19 L 294.01 284.83 L 290.35 288.06 L 285.98 291.40 L 280.80 294.85 L 274.72 298.41 L 267.46 302.03 L 260.35 305.01 L 253.39 307.38 L 246.55 309.19 L 239.52 310.56 L 232.66 311.47 L 225.96 311.94 L 219.41 311.98 L 210.65 311.46 L 202.28 310.40 L 194.27 308.81 L 186.36 306.73 L 178.98 304.36 L 172.10 301.72 L 165.34 298.73 L 159.28 295.73 L 153.89 292.74 L 146.29 287.99 L 140.60 283.90 L 130.35 276.30 L 113.01 264.08 L 85.99 245.60 L 46.27 219.00 L 41.22 210.58 L 37.52 203.45 L 34.97 197.44 L 33.36 192.40 L 32.53 188.19 L 32.34 184.66 L 32.67 181.71 L 33.14 177.36 L 33.58 165.24 L 33.75 139.20 L 33.34 91.36 L 32.00 12.00 L 326.00 12.00 Z" fill="url(#linearGradient-2)" fill-opacity="0.34095982" fill-rule="evenodd" group-id="1,2,3" id="路径-28复制-3" node-id="26" stroke-linecap="butt" stroke-opacity="0.34095982" stroke-width="1" target-height="299.97675" target-width="294" target-x="32" target-y="12"></path></g><path d="M 187.98 155.19 L 194.80 152.11 L 201.58 149.69 L 208.33 147.89 L 215.07 146.69 L 221.83 146.09 L 228.64 146.06 L 235.52 146.63 L 242.49 147.80 L 249.58 149.60 L 256.81 152.05 L 264.21 155.19 L 267.44 157.48 L 270.43 160.08 L 273.21 163.01 L 275.65 166.21 L 277.67 169.64 L 279.29 173.34 L 280.40 177.20 L 280.94 181.29 L 280.88 185.65 L 280.43 188.84 L 279.55 192.19 L 278.22 195.70 L 276.38 199.41 L 274.28 202.81 L 271.60 206.37 L 268.27 210.13 L 264.21 214.10 L 265.55 216.08 L 266.73 218.24 L 268.10 221.46 L 268.84 223.78 L 269.38 226.41 L 269.70 229.39 L 269.67 232.37 L 269.17 235.56 L 268.17 239.03 L 266.69 242.30 L 264.45 245.78 L 261.32 249.52 L 258.76 251.99 L 255.57 254.56 L 251.68 257.23 L 246.99 260.01 L 240.59 263.11 L 234.37 265.47 L 228.31 267.14 L 222.11 268.28 L 216.12 268.89 L 210.30 268.98 L 204.49 268.64 L 198.94 267.94 L 193.63 266.89 L 188.38 265.51 L 183.49 263.95 L 178.92 262.20 L 172.37 259.23 L 166.84 256.26 L 161.80 253.12 L 158.03 250.42 L 148.00 243.09 L 128.62 229.70 L 95.46 207.50 L 92.07 203.35 L 89.54 199.43 L 87.74 195.72 L 86.61 192.16 L 86.06 188.71 L 86.08 185.34 L 86.64 182.00 L 87.78 178.64 L 89.54 175.22 L 92.00 171.72 L 95.25 168.10 L 99.42 164.36 L 104.65 160.47 L 109.80 157.26 L 115.19 154.54 L 120.84 152.29 L 126.76 150.51 L 132.99 149.20 L 139.56 148.38 L 146.49 148.06 L 153.83 148.27 L 161.61 149.05 L 169.87 150.43 L 178.65 152.46 L 187.98 155.19 Z" fill="url(#linearGradient-3)" fill-opacity="0.4" fill-rule="evenodd" group-id="1,2" id="路径-28复制-2" node-id="27" stroke="url(#linearGradient-3)" stroke-linecap="butt" stroke-width="1" target-height="122.92209" target-width="194.87485" target-x="86.061775" target-y="146.0625"></path><path d="M 187.98 119.19 L 194.80 116.11 L 201.58 113.69 L 208.33 111.89 L 215.07 110.69 L 221.83 110.08 L 228.64 110.06 L 235.52 110.63 L 242.49 111.80 L 249.58 113.60 L 256.81 116.05 L 264.21 119.19 L 267.44 121.48 L 270.43 124.08 L 273.21 127.01 L 275.65 130.21 L 277.67 133.64 L 279.29 137.34 L 280.40 141.20 L 280.94 145.29 L 280.88 149.65 L 280.43 152.84 L 279.55 156.19 L 278.22 159.70 L 276.38 163.41 L 274.28 166.81 L 271.60 170.37 L 268.27 174.13 L 264.21 178.10 L 265.55 180.08 L 266.73 182.24 L 268.10 185.46 L 268.84 187.78 L 269.38 190.41 L 269.70 193.39 L 269.67 196.37 L 269.17 199.56 L 268.17 203.03 L 266.69 206.30 L 264.45 209.78 L 261.32 213.52 L 258.76 215.99 L 255.57 218.56 L 251.68 221.23 L 246.99 224.01 L 240.59 227.11 L 234.37 229.47 L 228.31 231.14 L 222.11 232.28 L 216.12 232.89 L 210.30 232.98 L 204.49 232.64 L 198.94 231.94 L 193.63 230.89 L 188.38 229.51 L 183.49 227.95 L 178.92 226.20 L 172.37 223.23 L 166.84 220.26 L 161.80 217.12 L 158.03 214.42 L 148.00 207.09 L 128.62 193.70 L 95.46 171.50 L 92.07 167.35 L 89.54 163.43 L 87.74 159.72 L 86.61 156.16 L 86.06 152.71 L 86.08 149.34 L 86.64 146.00 L 87.78 142.64 L 89.54 139.22 L 92.00 135.72 L 95.25 132.10 L 99.42 128.36 L 104.65 124.47 L 109.80 121.26 L 115.19 118.54 L 120.84 116.29 L 126.76 114.51 L 132.99 113.20 L 139.56 112.38 L 146.49 112.06 L 153.83 112.27 L 161.61 113.05 L 169.87 114.43 L 178.65 116.46 L 187.98 119.19 Z" fill="url(#linearGradient-3)" fill-opacity="0.79" fill-rule="evenodd" group-id="1,2" id="路径-28复制-4" node-id="28" stroke-linecap="butt" stroke-width="1" target-height="122.9221" target-width="194.87485" target-x="86.061775" target-y="110.06249"></path><path d="M 187.98 70.19 L 194.80 67.11 L 201.58 64.69 L 208.33 62.89 L 215.07 61.69 L 221.83 61.08 L 228.64 61.06 L 235.52 61.63 L 242.49 62.80 L 249.58 64.60 L 256.81 67.05 L 264.21 70.19 L 267.44 72.48 L 270.43 75.08 L 273.21 78.01 L 275.65 81.21 L 277.67 84.64 L 279.29 88.34 L 280.40 92.20 L 280.94 96.29 L 280.88 100.65 L 280.43 103.84 L 279.55 107.19 L 278.22 110.70 L 276.38 114.41 L 274.28 117.81 L 271.60 121.37 L 268.27 125.13 L 264.21 129.10 L 265.55 131.08 L 266.73 133.24 L 268.10 136.46 L 268.84 138.78 L 269.38 141.41 L 269.70 144.39 L 269.67 147.37 L 269.17 150.56 L 268.17 154.03 L 266.69 157.30 L 264.45 160.78 L 261.32 164.52 L 258.76 166.99 L 255.57 169.56 L 251.68 172.23 L 246.99 175.01 L 240.59 178.11 L 234.37 180.47 L 228.31 182.14 L 222.11 183.28 L 216.12 183.89 L 210.30 183.98 L 204.49 183.64 L 198.94 182.94 L 193.63 181.89 L 188.38 180.51 L 183.49 178.95 L 178.92 177.20 L 172.37 174.23 L 166.84 171.26 L 161.80 168.12 L 158.03 165.42 L 148.00 158.09 L 128.62 144.70 L 95.46 122.50 L 92.07 118.35 L 89.54 114.43 L 87.74 110.72 L 86.61 107.16 L 86.06 103.71 L 86.08 100.34 L 86.64 97.00 L 87.78 93.64 L 89.54 90.22 L 92.00 86.72 L 95.25 83.10 L 99.42 79.36 L 104.65 75.47 L 109.80 72.26 L 115.19 69.54 L 120.84 67.29 L 126.76 65.51 L 132.99 64.20 L 139.56 63.38 L 146.49 63.06 L 153.83 63.27 L 161.61 64.05 L 169.87 65.43 L 178.65 67.46 L 187.98 70.19 Z" fill="url(#linearGradient-3)" fill-rule="evenodd" group-id="1,2" id="路径-28复制" node-id="29" stroke-linecap="butt" stroke-width="1" target-height="122.92212" target-width="194.87483" target-x="86.06178" target-y="61.062496"></path><path d="M 177.44 130.92 L 211.20 105.60 L 211.73 105.00 L 211.98 104.28 L 211.94 103.52 L 211.60 102.80 L 210.89 102.21 L 210.00 102.00 L 173.25 102.00 L 172.47 102.16 L 171.84 102.59 L 171.41 103.22 L 171.25 104.00 L 171.26 104.23 L 174.25 129.55 L 174.51 130.31 L 175.00 130.89 L 175.68 131.24 L 176.48 131.30 L 177.44 130.92 Z" fill="#b6e8fd" fill-rule="evenodd" group-id="1,2" id="路径-31" node-id="30" stroke-linecap="butt" stroke-width="1" target-height="29.302383" target-width="40.729187" target-x="171.25018" target-y="102"></path><path d="M 28.00 146.50 L 27.77 148.96 L 27.16 151.22 L 26.16 153.31 L 24.82 155.21 L 23.21 156.82 L 21.31 158.16 L 19.22 159.16 L 16.96 159.77 L 14.50 160.00 L 12.04 159.77 L 9.78 159.16 L 7.69 158.16 L 5.79 156.82 L 4.18 155.21 L 2.84 153.31 L 1.84 151.22 L 1.23 148.96 L 1.00 146.50 L 1.23 144.04 L 1.84 141.78 L 2.84 139.69 L 4.18 137.79 L 5.79 136.18 L 7.69 134.84 L 9.78 133.84 L 12.04 133.23 L 14.50 133.00 L 16.96 133.23 L 19.22 133.84 L 21.31 134.84 L 23.21 136.18 L 24.82 137.79 L 26.16 139.69 L 27.16 141.78 L 27.77 144.04 L 28.00 146.50 Z" fill="#37e5e6" fill-opacity="0.15335445" fill-rule="evenodd" group-id="1,2" id="椭圆形复制-7" node-id="31" stroke="#18c3e8" stroke-linecap="butt" stroke-width="1" target-height="27" target-width="27" target-x="1" target-y="133"></path><path d="M 302.00 14.50 L 301.77 16.96 L 301.16 19.22 L 300.16 21.31 L 298.82 23.21 L 297.21 24.82 L 295.31 26.16 L 293.22 27.16 L 290.96 27.77 L 288.50 28.00 L 286.04 27.77 L 283.78 27.16 L 281.69 26.16 L 279.79 24.82 L 278.18 23.21 L 276.84 21.31 L 275.84 19.22 L 275.23 16.96 L 275.00 14.50 L 275.23 12.04 L 275.84 9.78 L 276.84 7.69 L 278.18 5.79 L 279.79 4.18 L 281.69 2.84 L 283.78 1.84 L 286.04 1.23 L 288.50 1.00 L 290.96 1.23 L 293.22 1.84 L 295.31 2.84 L 297.21 4.18 L 298.82 5.79 L 300.16 7.69 L 301.16 9.78 L 301.77 12.04 L 302.00 14.50 Z" fill="#37e5e6" fill-opacity="0.030722236" fill-rule="evenodd" group-id="1,2,4" id="椭圆形复制-9" node-id="32" stroke="#18c3e8" stroke-linecap="butt" stroke-opacity="0.20033482" stroke-width="1" target-height="27" target-width="27" target-x="275" target-y="1"></path><path d="M 340.00 249.00 L 339.75 250.88 L 339.04 252.53 L 337.95 253.95 L 336.53 255.04 L 334.88 255.75 L 333.00 256.00 L 331.12 255.75 L 329.47 255.04 L 328.05 253.95 L 326.96 252.53 L 326.25 250.88 L 326.00 249.00 L 326.25 247.12 L 326.96 245.47 L 328.05 244.05 L 329.47 242.96 L 331.12 242.25 L 333.00 242.00 L 334.88 242.25 L 336.53 242.96 L 337.95 244.05 L 339.04 245.47 L 339.75 247.12 L 340.00 249.00 Z" fill="#37e5e6" fill-opacity="0.040378205" fill-rule="evenodd" group-id="1,2,5" id="椭圆形复制-15" node-id="33" stroke="#18c3e8" stroke-linecap="butt" stroke-opacity="0.26329985" stroke-width="1" target-height="14" target-width="14" target-x="326" target-y="242"></path><path d="M 17.00 146.50 L 16.80 147.48 L 16.27 148.27 L 15.48 148.80 L 14.50 149.00 L 13.52 148.80 L 12.73 148.27 L 12.20 147.48 L 12.00 146.50 L 12.20 145.52 L 12.73 144.73 L 13.52 144.20 L 14.50 144.00 L 15.48 144.20 L 16.27 144.73 L 16.80 145.52 L 17.00 146.50 Z" fill="#51eaed" fill-rule="evenodd" group-id="1,2" id="椭圆形复制-8" node-id="34" stroke-linecap="butt" stroke-width="1" target-height="5" target-width="5" target-x="12" target-y="144"></path><path d="M 291.00 14.50 L 290.80 15.48 L 290.27 16.27 L 289.48 16.80 L 288.50 17.00 L 287.52 16.80 L 286.73 16.27 L 286.20 15.48 L 286.00 14.50 L 286.20 13.52 L 286.73 12.73 L 287.52 12.20 L 288.50 12.00 L 289.48 12.20 L 290.27 12.73 L 290.80 13.52 L 291.00 14.50 Z" fill="#51eaed" fill-opacity="0.20033482" fill-rule="evenodd" group-id="1,2,6" id="椭圆形复制-14" node-id="35" stroke-linecap="butt" stroke-opacity="0.20033482" stroke-width="1" target-height="5" target-width="5" target-x="286" target-y="12"></path><path d="M 334.00 249.00 L 333.71 249.71 L 333.00 250.00 L 332.29 249.71 L 332.00 249.00 L 332.29 248.29 L 333.00 248.00 L 333.71 248.29 L 334.00 249.00 Z" fill="#51eaed" fill-opacity="0.26329985" fill-rule="evenodd" group-id="1,2,7" id="椭圆形复制-16" node-id="36" stroke-linecap="butt" stroke-opacity="0.26329985" stroke-width="1" target-height="2" target-width="2" target-x="332" target-y="248"></path><path d="M 14.50 160.00 L 14.50 258.00" fill="none" group-id="1,2" id="路径-5复制-2" node-id="37" stroke-linecap="butt" stroke-width="1" target-height="98" target-width="0" target-x="14.5" target-y="160"></path><path d="M 288.50 28.00 L 288.50 126.00" fill-opacity="0.20033482" fill-rule="nonzero" group-id="1,2,8" id="路径-5复制-3" node-id="38" stroke-linecap="butt" stroke-opacity="0.20033482" stroke-width="1" target-height="98" target-width="0" target-x="288.5" target-y="28"></path><path d="M 333.25 256.00 L 333.25 305.00" fill-opacity="0.26329985" fill-rule="nonzero" group-id="1,2,9" id="路径-5复制-4" node-id="39" stroke-linecap="butt" stroke-opacity="0.26329985" stroke-width="1" target-height="49" target-width="0" target-x="333.25" target-y="256"></path></g></g></svg>