<?xml version="1.0" standalone="no"?><!DOCTYPE svg PUBLIC "-//W3C//DTD SVG 1.1//EN" "http://www.w3.org/Graphics/SVG/1.1/DTD/svg11.dtd"><svg height="294" legacy-metrics="false" node-id="1" sillyvg="true" template-height="294" template-width="323" version="1.1" viewBox="0 0 323 294" width="323" xmlns="http://www.w3.org/2000/svg" xmlns:xlink="http://www.w3.org/1999/xlink"><defs node-id="40"><linearGradient gradientUnits="objectBoundingBox" id="linearGradient-1" node-id="7" x1="0.5" x2="0.5" y1="0" y2="1"><stop offset="0" stop-color="#59d0fc"></stop><stop offset="1" stop-color="#4b79ff"></stop></linearGradient><linearGradient gradientUnits="objectBoundingBox" id="linearGradient-2" node-id="10" x1="0.5" x2="0.5" y1="0" y2="1"><stop offset="0" stop-color="#59d0fc"></stop><stop offset="1" stop-color="#4b79ff"></stop></linearGradient><linearGradient gradientUnits="objectBoundingBox" id="linearGradient-3" node-id="13" x1="0.5" x2="0.5" y1="0" y2="1"><stop offset="0" stop-color="#59d0fc"></stop><stop offset="1" stop-color="#4b79ff"></stop></linearGradient><linearGradient gradientUnits="objectBoundingBox" id="linearGradient-4" node-id="16" x1="0.5" x2="0.5" y1="0" y2="1"><stop offset="0" stop-color="#59d0fc"></stop><stop offset="1" stop-color="#4b79ff"></stop></linearGradient><linearGradient gradientUnits="objectBoundingBox" id="linearGradient-5" node-id="19" x1="0.5" x2="0.5" y1="0" y2="1"><stop offset="0" stop-color="#59d0fc"></stop><stop offset="1" stop-color="#4b79ff"></stop></linearGradient><linearGradient gradientUnits="objectBoundingBox" id="linearGradient-6" node-id="22" x1="0.5" x2="0.5" y1="0" y2="1"><stop offset="0" stop-color="#59d0fc"></stop><stop offset="1" stop-color="#4b79ff"></stop></linearGradient></defs><g node-id="42"><g node-id="43"><path d="M 161.50 230.00 L 172.65 229.79 L 183.47 229.22 L 193.97 228.28 L 204.17 227.00 L 214.42 225.32 L 224.21 223.35 L 233.57 221.08 L 242.51 218.53 L 251.47 215.57 L 259.84 212.39 L 267.68 208.99 L 274.99 205.40 L 282.24 201.35 L 288.81 197.16 L 294.74 192.84 L 300.09 188.40 L 305.18 183.48 L 309.54 178.51 L 313.22 173.46 L 316.27 168.33 L 318.33 163.96 L 319.92 159.56 L 321.06 155.11 L 321.75 150.60 L 322.00 146.00 L 321.75 141.40 L 321.06 136.89 L 319.92 132.44 L 318.33 128.04 L 316.27 123.67 L 313.22 118.54 L 309.54 113.49 L 305.18 108.52 L 300.09 103.60 L 294.74 99.16 L 288.81 94.84 L 282.24 90.65 L 274.99 86.60 L 267.68 83.01 L 259.84 79.61 L 251.47 76.43 L 242.51 73.47 L 233.57 70.92 L 224.21 68.65 L 214.42 66.68 L 204.17 65.00 L 193.97 63.72 L 183.47 62.78 L 172.65 62.21 L 161.50 62.00 L 150.35 62.21 L 139.53 62.78 L 129.03 63.72 L 118.83 65.00 L 108.58 66.68 L 98.79 68.65 L 89.43 70.92 L 80.49 73.47 L 71.53 76.43 L 63.16 79.61 L 55.32 83.01 L 48.01 86.60 L 40.76 90.65 L 34.19 94.84 L 28.26 99.16 L 22.91 103.60 L 17.82 108.52 L 13.46 113.49 L 9.78 118.54 L 6.73 123.67 L 4.67 128.04 L 3.08 132.44 L 1.94 136.89 L 1.25 141.40 L 1.00 146.00 L 1.25 150.60 L 1.94 155.11 L 3.08 159.56 L 4.67 163.96 L 6.73 168.33 L 9.78 173.46 L 13.46 178.51 L 17.82 183.48 L 22.91 188.40 L 28.26 192.84 L 34.19 197.16 L 40.76 201.35 L 48.01 205.40 L 55.32 208.99 L 63.16 212.39 L 71.53 215.57 L 80.49 218.53 L 89.43 221.08 L 98.79 223.35 L 108.58 225.32 L 118.83 227.00 L 129.03 228.28 L 139.53 229.22 L 150.35 229.79 L 161.50 230.00 Z" fill="none" group-id="1,2" id="椭圆形" node-id="28" stroke="url(#linearGradient-1)" stroke-dasharray="8 8" stroke-linecap="butt" stroke-width="2" target-height="168" target-width="321" target-x="1" target-y="62"></path><g node-id="44"><path d="M 161.50 221.00 L 175.47 220.68 L 188.89 219.79 L 201.77 218.34 L 214.59 216.29 L 226.64 213.78 L 237.96 210.83 L 246.43 208.20 L 254.35 205.37 L 261.74 202.36 L 268.63 199.18 L 275.49 195.58 L 281.69 191.86 L 287.29 188.03 L 292.32 184.10 L 297.14 179.72 L 301.26 175.30 L 304.73 170.84 L 307.59 166.31 L 309.54 162.41 L 311.05 158.51 L 312.12 154.57 L 312.77 150.57 L 313.00 146.50 L 312.77 142.43 L 312.12 138.43 L 311.05 134.49 L 309.54 130.59 L 307.59 126.69 L 304.73 122.16 L 301.26 117.70 L 297.14 113.28 L 292.32 108.90 L 287.29 104.97 L 281.69 101.14 L 275.49 97.42 L 268.63 93.82 L 261.74 90.64 L 254.35 87.63 L 246.43 84.80 L 237.96 82.17 L 226.64 79.22 L 214.59 76.71 L 201.77 74.66 L 188.89 73.21 L 175.47 72.32 L 161.50 72.00 L 147.53 72.32 L 134.11 73.21 L 121.23 74.66 L 108.41 76.71 L 96.36 79.22 L 85.04 82.17 L 76.57 84.80 L 68.65 87.63 L 61.26 90.64 L 54.37 93.82 L 47.51 97.42 L 41.31 101.14 L 35.71 104.97 L 30.68 108.90 L 25.86 113.28 L 21.74 117.70 L 18.27 122.16 L 15.41 126.69 L 13.46 130.59 L 11.95 134.49 L 10.88 138.43 L 10.23 142.43 L 10.00 146.50 L 10.23 150.57 L 10.88 154.57 L 11.95 158.51 L 13.46 162.41 L 15.41 166.31 L 18.27 170.84 L 21.74 175.30 L 25.86 179.72 L 30.68 184.10 L 35.71 188.03 L 41.31 191.86 L 47.51 195.58 L 54.37 199.18 L 61.26 202.36 L 68.65 205.37 L 76.57 208.20 L 85.04 210.83 L 96.36 213.78 L 108.41 216.29 L 121.23 218.34 L 134.11 219.79 L 147.53 220.68 L 161.50 221.00 Z" fill="url(#linearGradient-2)" fill-opacity="0.12276786" fill-rule="evenodd" group-id="1,2,3" id="椭圆形复制-12" node-id="29" stroke-linecap="butt" stroke-opacity="0.12276786" stroke-width="1" target-height="149" target-width="303" target-x="10" target-y="72"></path></g><path d="M 184.00 145.50 L 183.77 148.87 L 183.14 152.04 L 182.11 155.04 L 180.71 157.88 L 179.00 160.47 L 176.97 162.82 L 174.66 164.90 L 172.12 166.65 L 169.34 168.07 L 166.40 169.12 L 163.30 169.77 L 160.00 170.00 L 156.70 169.77 L 153.60 169.12 L 150.66 168.07 L 147.88 166.65 L 145.34 164.90 L 143.03 162.82 L 141.00 160.47 L 139.29 157.88 L 137.89 155.04 L 136.86 152.04 L 136.23 148.87 L 136.00 145.50 L 136.23 142.13 L 136.86 138.96 L 137.89 135.96 L 139.29 133.12 L 141.00 130.53 L 143.03 128.18 L 145.34 126.10 L 147.88 124.35 L 150.66 122.93 L 153.60 121.88 L 156.70 121.23 L 160.00 121.00 L 163.30 121.23 L 166.40 121.88 L 169.34 122.93 L 172.12 124.35 L 174.66 126.10 L 176.97 128.18 L 179.00 130.53 L 180.71 133.12 L 182.11 135.96 L 183.14 138.96 L 183.77 142.13 L 184.00 145.50 Z" fill="url(#linearGradient-3)" fill-rule="evenodd" group-id="1,2" id="椭圆形" node-id="30" stroke-linecap="butt" stroke-width="1" target-height="49" target-width="48" target-x="136" target-y="121"></path><path d="M 89.42 187.94 L 95.01 197.57 L 100.77 206.74 L 106.69 215.45 L 112.77 223.72 L 119.23 231.85 L 125.73 239.44 L 132.27 246.50 L 138.85 253.06 L 145.81 259.44 L 152.68 265.20 L 159.48 270.38 L 166.20 275.02 L 173.29 279.37 L 180.17 283.06 L 186.86 286.14 L 193.37 288.64 L 200.18 290.69 L 206.68 292.07 L 212.92 292.82 L 218.92 292.98 L 223.78 292.66 L 228.43 291.90 L 232.91 290.73 L 237.22 289.13 L 241.40 287.10 L 245.34 284.64 L 248.98 281.84 L 252.35 278.68 L 255.46 275.15 L 258.31 271.22 L 261.36 266.05 L 264.02 260.38 L 266.29 254.15 L 268.15 247.31 L 269.48 240.48 L 270.41 233.19 L 270.91 225.42 L 270.97 217.12 L 270.59 208.98 L 269.78 200.49 L 268.52 191.63 L 266.78 182.36 L 264.69 173.32 L 262.15 164.05 L 259.14 154.54 L 255.64 144.77 L 251.83 135.25 L 247.56 125.63 L 242.81 115.90 L 237.58 106.06 L 231.99 96.43 L 226.23 87.26 L 220.31 78.55 L 214.23 70.28 L 207.77 62.15 L 201.27 54.56 L 194.73 47.50 L 188.15 40.94 L 181.19 34.56 L 174.32 28.80 L 167.52 23.62 L 160.80 18.98 L 153.71 14.63 L 146.83 10.94 L 140.14 7.86 L 133.63 5.36 L 126.82 3.31 L 120.32 1.93 L 114.08 1.18 L 108.08 1.02 L 103.22 1.34 L 98.57 2.10 L 94.09 3.27 L 89.78 4.87 L 85.60 6.90 L 81.66 9.36 L 78.02 12.16 L 74.65 15.32 L 71.54 18.85 L 68.69 22.78 L 65.64 27.95 L 62.98 33.62 L 60.71 39.85 L 58.85 46.69 L 57.52 53.52 L 56.59 60.81 L 56.09 68.58 L 56.03 76.88 L 56.41 85.02 L 57.22 93.51 L 58.48 102.37 L 60.22 111.64 L 62.31 120.68 L 64.85 129.95 L 67.86 139.46 L 71.36 149.23 L 75.17 158.75 L 79.44 168.37 L 84.19 178.10 L 89.42 187.94 Z" fill="url(#linearGradient-4)" fill-opacity="0.05" fill-rule="evenodd" group-id="1,2" id="椭圆形复制-10" node-id="31" stroke="url(#linearGradient-4)" stroke-dasharray="8 8" stroke-linecap="butt" stroke-width="2" target-height="291.96365" target-width="214.9317" target-x="56.03414" target-y="1.0181909"></path><path d="M 236.58 187.94 L 230.99 197.57 L 225.23 206.74 L 219.31 215.45 L 213.23 223.72 L 206.77 231.85 L 200.27 239.44 L 193.73 246.50 L 187.15 253.06 L 180.19 259.44 L 173.32 265.20 L 166.52 270.38 L 159.80 275.02 L 152.71 279.37 L 145.83 283.06 L 139.14 286.14 L 132.63 288.64 L 125.82 290.69 L 119.32 292.07 L 113.08 292.82 L 107.08 292.98 L 102.22 292.66 L 97.57 291.90 L 93.09 290.73 L 88.78 289.13 L 84.60 287.10 L 80.66 284.64 L 77.02 281.84 L 73.65 278.68 L 70.54 275.15 L 67.69 271.22 L 64.64 266.05 L 61.98 260.38 L 59.71 254.15 L 57.85 247.31 L 56.52 240.48 L 55.59 233.19 L 55.09 225.42 L 55.03 217.12 L 55.41 208.98 L 56.22 200.49 L 57.48 191.63 L 59.22 182.36 L 61.31 173.32 L 63.85 164.05 L 66.86 154.54 L 70.36 144.77 L 74.17 135.25 L 78.44 125.63 L 83.19 115.90 L 88.42 106.06 L 94.01 96.43 L 99.77 87.26 L 105.69 78.55 L 111.77 70.28 L 118.23 62.15 L 124.73 54.56 L 131.27 47.50 L 137.85 40.94 L 144.81 34.56 L 151.68 28.80 L 158.48 23.62 L 165.20 18.98 L 172.29 14.63 L 179.17 10.94 L 185.86 7.86 L 192.37 5.36 L 199.18 3.31 L 205.68 1.93 L 211.92 1.18 L 217.92 1.02 L 222.78 1.34 L 227.43 2.10 L 231.91 3.27 L 236.22 4.87 L 240.40 6.90 L 244.34 9.36 L 247.98 12.16 L 251.35 15.32 L 254.46 18.85 L 257.31 22.78 L 260.36 27.95 L 263.02 33.62 L 265.29 39.85 L 267.15 46.69 L 268.48 53.52 L 269.41 60.81 L 269.91 68.58 L 269.97 76.88 L 269.59 85.02 L 268.78 93.51 L 267.52 102.37 L 265.78 111.64 L 263.69 120.68 L 261.15 129.95 L 258.14 139.46 L 254.64 149.23 L 250.83 158.75 L 246.56 168.37 L 241.81 178.10 L 236.58 187.94 Z" fill="url(#linearGradient-4)" fill-opacity="0.05" fill-rule="evenodd" group-id="1,2" id="椭圆形复制-11" node-id="32" stroke="url(#linearGradient-4)" stroke-dasharray="8 8" stroke-linecap="butt" stroke-width="2" target-height="291.96365" target-width="214.9317" target-x="55.03414" target-y="1.0181909"></path><path d="M 15.00 39.00 L 86.00 39.00 L 87.36 39.19 L 88.52 39.68 L 89.54 40.46 L 90.32 41.48 L 90.81 42.64 L 91.00 44.00 L 91.00 97.41 L 90.81 98.77 L 90.32 99.93 L 89.54 100.94 L 88.52 101.73 L 87.36 102.22 L 86.00 102.41 L 63.30 102.41 L 63.30 102.41 L 63.30 115.00 L 41.23 102.41 L 15.00 102.41 L 13.64 102.22 L 12.48 101.73 L 11.46 100.94 L 10.68 99.93 L 10.19 98.77 L 10.00 97.41 L 10.00 44.00 L 10.19 42.64 L 10.68 41.48 L 11.46 40.46 L 12.48 39.68 L 13.64 39.19 L 15.00 39.00 Z" fill="url(#linearGradient-5)" fill-rule="evenodd" group-id="1,2" id="矩形" node-id="33" stroke-linecap="butt" stroke-width="1" target-height="76" target-width="81" target-x="10" target-y="39"></path><path d="M 301.00 89.00 L 207.00 89.00 L 205.64 89.19 L 204.48 89.68 L 203.46 90.46 L 202.68 91.48 L 202.19 92.64 L 202.00 94.00 L 202.00 165.76 L 202.19 167.12 L 202.68 168.29 L 203.46 169.30 L 204.48 170.09 L 205.64 170.57 L 207.00 170.76 L 237.56 170.76 L 237.56 170.76 L 237.56 187.00 L 265.90 170.76 L 301.00 170.76 L 302.36 170.57 L 303.52 170.09 L 304.54 169.30 L 305.32 168.29 L 305.81 167.12 L 306.00 165.76 L 306.00 94.00 L 305.81 92.64 L 305.32 91.48 L 304.54 90.46 L 303.52 89.68 L 302.36 89.19 L 301.00 89.00 Z" fill="url(#linearGradient-6)" fill-rule="evenodd" group-id="1,2" id="矩形复制-6" node-id="34" stroke-linecap="butt" stroke-width="1" target-height="98" target-width="104" target-x="202" target-y="89"></path><path d="M 50.69 80.45 L 52.81 80.16 L 54.69 79.37 L 56.29 78.13 L 57.53 76.52 L 58.33 74.65 L 58.61 72.52 L 58.61 59.38 L 58.33 57.26 L 57.53 55.38 L 56.29 53.77 L 54.69 52.54 L 52.81 51.74 L 50.69 51.45 L 48.56 51.74 L 46.69 52.54 L 45.08 53.77 L 43.84 55.38 L 43.05 57.26 L 42.76 59.38 L 42.76 72.52 L 43.08 74.65 L 43.89 76.52 L 45.12 78.13 L 46.71 79.37 L 48.57 80.16 L 50.69 80.45 Z M 62.99 66.79 L 62.40 66.91 L 61.90 67.25 L 61.56 67.75 L 61.43 68.35 L 61.43 72.63 L 61.25 74.59 L 60.76 76.39 L 59.97 78.05 L 58.90 79.56 L 57.62 80.84 L 56.11 81.90 L 54.45 82.70 L 52.65 83.19 L 50.69 83.37 L 48.72 83.19 L 46.92 82.70 L 45.26 81.90 L 43.75 80.84 L 42.47 79.56 L 41.41 78.05 L 40.62 76.39 L 40.13 74.59 L 39.94 72.63 L 39.94 67.93 L 39.82 67.33 L 39.48 66.84 L 38.98 66.50 L 38.38 66.37 L 37.78 66.50 L 37.29 66.84 L 36.94 67.33 L 36.82 67.93 L 36.82 72.63 L 37.02 74.97 L 37.58 77.15 L 38.48 79.18 L 39.69 81.06 L 41.15 82.68 L 42.87 84.08 L 44.79 85.18 L 46.86 85.95 L 49.12 86.39 L 49.12 89.73 L 43.91 89.73 L 43.31 89.86 L 42.81 90.20 L 42.47 90.70 L 42.34 91.29 L 42.47 91.89 L 42.81 92.39 L 43.31 92.73 L 43.91 92.86 L 57.47 92.86 L 58.06 92.73 L 58.56 92.39 L 58.90 91.89 L 59.03 91.29 L 58.90 90.70 L 58.56 90.20 L 58.06 89.86 L 57.47 89.73 L 52.25 89.73 L 52.25 86.39 L 54.51 85.95 L 56.58 85.18 L 58.50 84.08 L 60.22 82.68 L 61.68 81.06 L 62.90 79.18 L 63.80 77.15 L 64.35 74.97 L 64.56 72.63 L 64.56 68.35 L 64.43 67.70 L 64.09 67.22 L 63.59 66.90 L 62.99 66.79 L 62.99 66.79 Z" fill="#b6e8fd" fill-rule="nonzero" group-id="1,2,4" id="形状" node-id="36" stroke-linecap="butt" stroke-width="1" target-height="41.405678" target-width="27.742847" target-x="36.815723" target-y="51.453636"></path><path d="M 273.39 110.06 L 272.07 110.08 L 268.28 109.88 L 265.21 109.44 L 262.76 108.82 L 259.40 107.55 L 257.38 106.46 L 255.63 105.16 L 254.50 104.00 L 253.36 105.16 L 251.62 106.46 L 249.63 107.55 L 246.27 108.82 L 243.82 109.44 L 240.75 109.88 L 236.92 110.08 L 235.60 110.06 L 234.00 110.00 L 234.00 132.11 L 234.12 134.34 L 234.60 136.88 L 235.55 139.41 L 237.27 142.20 L 238.72 143.92 L 240.70 145.73 L 243.28 147.66 L 246.03 149.31 L 249.54 151.03 L 253.94 152.80 L 254.50 153.00 L 255.06 152.80 L 259.46 151.03 L 262.97 149.31 L 265.72 147.66 L 268.30 145.73 L 270.28 143.92 L 271.73 142.20 L 273.45 139.41 L 274.40 136.88 L 274.88 134.34 L 275.00 132.11 L 275.00 110.00 L 273.39 110.06 M 252.74 137.83 L 242.44 128.76 L 245.17 126.55 L 250.65 130.57 L 251.94 129.30 L 255.34 126.23 L 260.11 122.47 L 262.79 120.68 L 265.51 119.16 L 266.55 120.33 L 265.05 121.66 L 261.41 125.33 L 259.23 127.83 L 256.88 130.88 L 254.69 134.18 L 252.74 137.83" fill="#b6e8fd" fill-rule="nonzero" group-id="1,2,5" id="形状" node-id="38" stroke-linecap="butt" stroke-width="1" target-height="49" target-width="41" target-x="234" target-y="104"></path></g></g></svg>