<?xml version="1.0" standalone="no"?><!DOCTYPE svg PUBLIC "-//W3C//DTD SVG 1.1//EN" "http://www.w3.org/Graphics/SVG/1.1/DTD/svg11.dtd"><svg height="325" legacy-metrics="false" node-id="1" sillyvg="true" template-height="325" template-width="301" version="1.1" viewBox="0 0 301 325" width="301" xmlns="http://www.w3.org/2000/svg" xmlns:xlink="http://www.w3.org/1999/xlink"><defs node-id="56"><linearGradient gradientUnits="objectBoundingBox" id="linearGradient-1" node-id="7" x1="0.5" x2="0.5" y1="0" y2="1"><stop offset="0" stop-color="#59d0fc" stop-opacity="0"></stop><stop offset="1" stop-color="#4b79ff"></stop></linearGradient><linearGradient gradientUnits="objectBoundingBox" id="linearGradient-2" node-id="10" x1="0.5" x2="0.5" y1="0" y2="1"><stop offset="0" stop-color="#59d0fc"></stop><stop offset="1" stop-color="#4b79ff"></stop></linearGradient><linearGradient gradientUnits="objectBoundingBox" id="linearGradient-3" node-id="13" x1="0" x2="0.88657767" y1="0" y2="1"><stop offset="0" stop-color="#59d0fc"></stop><stop offset="1" stop-color="#4b79ff"></stop></linearGradient><linearGradient gradientUnits="objectBoundingBox" id="linearGradient-4" node-id="16" x1="0.5" x2="0.5" y1="0" y2="1"><stop offset="0" stop-color="#59d0fc"></stop><stop offset="1" stop-color="#4b79ff"></stop></linearGradient><linearGradient gradientUnits="objectBoundingBox" id="linearGradient-5" node-id="19" x1="0.5" x2="0.5" y1="0" y2="1"><stop offset="0" stop-color="#59d0fc"></stop><stop offset="1" stop-color="#4b79ff"></stop></linearGradient><linearGradient gradientUnits="objectBoundingBox" id="linearGradient-6" node-id="22" x1="0.5" x2="0.5" y1="0" y2="1"><stop offset="0" stop-color="#59d0fc"></stop><stop offset="1" stop-color="#4b79ff"></stop></linearGradient><linearGradient gradientUnits="objectBoundingBox" id="linearGradient-7" node-id="25" x1="0.5" x2="0.5" y1="0" y2="1"><stop offset="0" stop-color="#59d0fc"></stop><stop offset="1" stop-color="#4b79ff"></stop></linearGradient><linearGradient gradientUnits="objectBoundingBox" id="linearGradient-8" node-id="28" x1="0.5" x2="0.5" y1="0" y2="1"><stop offset="0" stop-color="#59d0fc"></stop><stop offset="1" stop-color="#4b79ff"></stop></linearGradient><linearGradient gradientUnits="objectBoundingBox" id="linearGradient-9" node-id="31" x1="0.5" x2="0.5" y1="0" y2="1"><stop offset="0" stop-color="#59d0fc"></stop><stop offset="1" stop-color="#4b79ff"></stop></linearGradient></defs><g node-id="58"><g node-id="59"><g node-id="60"><path d="M 65.41 295.23 L 182.82 324.98 L 300.09 295.23 L 254.77 255.98 L 109.08 255.98 Z" fill="url(#linearGradient-1)" fill-opacity="0.19010417" fill-rule="evenodd" group-id="1,2,3" id="路径-54复制" node-id="37" stroke-linecap="butt" stroke-opacity="0.19010417" stroke-width="1" target-height="69.000015" target-width="234.67947" target-x="65.41409" target-y="255.97517"></path></g><path d="M 169.16 93.00 L 35.50 93.00 L 35.50 151.00" fill="none" group-id="1,2" id="路径-5" node-id="38" stroke="url(#linearGradient-2)" stroke-dasharray="7 7" stroke-linecap="butt" stroke-width="1" target-height="58" target-width="133.66095" target-x="35.5" target-y="93"></path><path d="M 7.00 156.00 L 65.00 156.00 L 65.00 214.00 L 7.00 214.00 Z" fill="url(#linearGradient-3)" fill-opacity="0.7020089" fill-rule="evenodd" group-id="1,2,4,8" id="矩形" node-id="40" stroke-linecap="butt" stroke-opacity="0.7020089" stroke-width="1" target-height="58" target-width="58" target-x="7" target-y="156"></path><path d="M 60.00 150.00 L 70.00 150.00 L 70.00 160.00" fill="none" group-id="1,2,4" id="路径-6" node-id="41" stroke="url(#linearGradient-4)" stroke-linecap="butt" stroke-width="2" target-height="10" target-width="10" target-x="60" target-y="150"></path><path d="M 60.00 219.00 L 70.00 219.00 L 70.00 209.00" fill="none" group-id="1,2,4" id="路径-6复制-2" node-id="42" stroke="url(#linearGradient-4)" stroke-linecap="butt" stroke-width="2" target-height="10" target-width="10" target-x="60" target-y="209"></path><path d="M 11.00 150.00 L 1.00 150.00 L 1.00 160.00" fill="none" group-id="1,2,4" id="路径-6复制" node-id="43" stroke="url(#linearGradient-4)" stroke-linecap="butt" stroke-width="2" target-height="10" target-width="10" target-x="1" target-y="150"></path><path d="M 11.00 219.00 L 1.00 219.00 L 1.00 209.00" fill="none" group-id="1,2,4" id="路径-6复制-3" node-id="44" stroke="url(#linearGradient-4)" stroke-linecap="butt" stroke-width="2" target-height="10" target-width="10" target-x="1" target-y="209"></path><path d="M 40.00 155.00 L 39.68 156.57 L 38.83 157.83 L 37.57 158.68 L 36.00 159.00 L 34.43 158.68 L 33.17 157.83 L 32.32 156.57 L 32.00 155.00 L 32.32 153.43 L 33.17 152.17 L 34.43 151.32 L 36.00 151.00 L 37.57 151.32 L 38.83 152.17 L 39.68 153.43 L 40.00 155.00 Z" fill="#51eaed" fill-rule="evenodd" group-id="1,2,4" id="椭圆形复制-9" node-id="45" stroke-linecap="butt" stroke-width="1" target-height="8" target-width="8" target-x="32" target-y="151"></path><path d="M 68.00 251.55 L 182.62 281.79 L 297.66 251.55 L 182.62 72.50 Z" fill="url(#linearGradient-5)" fill-opacity="0.3" fill-rule="evenodd" group-id="1,2" id="路径-44" node-id="46" stroke="url(#linearGradient-5)" stroke-linecap="butt" stroke-width="3" target-height="209.28378" target-width="229.66193" target-x="68" target-y="72.50247"></path><path d="M 183.09 72.50 L 182.83 281.79" fill="none" group-id="1,2" id="直线-2" node-id="47" stroke="url(#linearGradient-6)" stroke-linecap="square" stroke-width="3" target-height="209.28378" target-width="0.25413513" target-x="182.83096" target-y="72.50247"></path><path d="M 73.38 249.61 L 120.95 205.86 L 243.58 205.86 L 292.27 249.61" fill="none" group-id="1,2" id="路径-52" node-id="48" stroke="url(#linearGradient-7)" stroke-dasharray="3 3" stroke-linecap="butt" stroke-width="1" target-height="43.748123" target-width="218.89221" target-x="73.37797" target-y="205.8609"></path><path d="M 123.99 197.19 L 182.83 72.50 L 244.33 197.19" fill="none" group-id="1,2" id="路径-53" node-id="49" stroke="url(#linearGradient-8)" stroke-dasharray="3 3" stroke-linecap="butt" stroke-width="1" target-height="124.68518" target-width="120.34082" target-x="123.99028" target-y="72.50247"></path><path d="M 92.52 245.95 L 182.82 269.65 L 273.63 245.95 L 240.23 214.67 L 123.99 214.67 Z" fill="url(#linearGradient-9)" fill-opacity="0.34193638" fill-rule="evenodd" group-id="1,2,5" id="路径-54" node-id="50" stroke-linecap="butt" stroke-opacity="0.34193638" stroke-width="1" target-height="54.97519" target-width="181.11685" target-x="92.515564" target-y="214.6723"></path><path d="M 201.00 0.00 L 164.00 33.55 L 176.37 33.55 L 164.00 59.00 L 201.00 25.45 L 188.63 25.45 Z" fill="#b6e8fd" fill-rule="nonzero" group-id="1,2,6" id="路径" node-id="52" stroke-linecap="butt" stroke-width="1" target-height="59" target-width="37" target-x="164" target-y="0"></path><path d="M 21.00 193.05 L 21.00 177.35 L 21.12 177.03 L 21.72 175.65 L 22.56 174.74 L 23.68 174.18 L 25.18 174.00 L 46.98 174.00 L 48.59 174.29 L 49.82 175.06 L 50.64 176.24 L 50.96 177.82 L 50.96 192.46 L 50.77 193.69 L 50.33 194.68 L 49.65 195.50 L 48.31 196.32 L 46.73 196.56 L 41.97 196.53 L 41.32 196.63 L 40.80 197.01 L 36.61 201.53 L 36.00 202.00 L 35.40 201.57 L 30.96 196.99 L 30.49 196.69 L 29.96 196.56 L 24.91 196.54 L 23.50 196.29 L 22.41 195.49 L 21.00 193.05 L 21.00 193.05 Z M 37.87 185.64 L 37.72 184.87 L 37.32 184.25 L 36.72 183.83 L 35.99 183.67 L 35.27 183.83 L 34.67 184.26 L 34.26 184.88 L 34.11 185.64 L 34.26 186.40 L 34.67 187.02 L 35.26 187.44 L 36.00 187.59 L 36.73 187.44 L 37.32 187.02 L 37.72 186.41 L 37.87 185.64 L 37.87 185.64 Z M 43.52 187.59 L 44.24 187.43 L 44.83 187.00 L 45.24 186.38 L 45.38 185.63 L 45.23 184.88 L 44.81 184.26 L 44.21 183.83 L 43.50 183.67 L 42.76 183.83 L 42.16 184.26 L 41.75 184.90 L 41.61 185.68 L 41.77 186.43 L 42.18 187.04 L 42.79 187.45 L 43.52 187.59 L 43.52 187.59 Z M 30.39 185.64 L 30.24 184.89 L 29.84 184.27 L 29.24 183.84 L 28.52 183.67 L 27.80 183.82 L 27.20 184.23 L 26.78 184.85 L 26.62 185.60 L 26.76 186.38 L 27.16 187.01 L 27.77 187.44 L 28.51 187.59 L 29.24 187.43 L 29.83 187.01 L 30.24 186.40 L 30.39 185.64 L 30.39 185.64 Z" fill="#b6e8fd" fill-rule="nonzero" group-id="1,2,7" id="形状" node-id="54" stroke-linecap="butt" stroke-width="1" target-height="27.999115" target-width="29.961533" target-x="21" target-y="174.00058"></path></g></g></svg>