<?xml version="1.0" standalone="no"?><!DOCTYPE svg PUBLIC "-//W3C//DTD SVG 1.1//EN" "http://www.w3.org/Graphics/SVG/1.1/DTD/svg11.dtd"><svg height="322" legacy-metrics="false" node-id="1" sillyvg="true" template-height="322" template-width="314" version="1.1" viewBox="0 0 314 322" width="314" xmlns="http://www.w3.org/2000/svg" xmlns:xlink="http://www.w3.org/1999/xlink"><defs node-id="61"><linearGradient gradientUnits="objectBoundingBox" id="linearGradient-1" node-id="7" x1="-0.69755554" x2="0.87226903" y1="0.3638171" y2="0.58517706"><stop offset="0" stop-color="#59d0fc"></stop><stop offset="0.37530524" stop-color="#59cffc"></stop><stop offset="1" stop-color="#4b79ff"></stop></linearGradient><linearGradient gradientUnits="objectBoundingBox" id="linearGradient-2" node-id="11" x1="0.5" x2="0.5" y1="0" y2="1"><stop offset="0" stop-color="#1f5589"></stop><stop offset="1" stop-color="#2c55af"></stop></linearGradient><linearGradient gradientUnits="objectBoundingBox" id="linearGradient-3" node-id="14" x1="0.5" x2="0.5" y1="0" y2="1"><stop offset="0" stop-color="#59d0fc"></stop><stop offset="1" stop-color="#4b79ff"></stop></linearGradient><linearGradient gradientUnits="objectBoundingBox" id="linearGradient-4" node-id="17" x1="0.5" x2="0.5" y1="0" y2="1"><stop offset="0" stop-color="#59d0fc"></stop><stop offset="1" stop-color="#4b79ff"></stop></linearGradient><linearGradient gradientUnits="objectBoundingBox" id="linearGradient-6" node-id="23" x1="0.23894581" x2="0.73796266" y1="-0.05512896" y2="0.78509545"><stop offset="0" stop-color="#babefb"></stop><stop offset="1" stop-color="#8fb8fa"></stop></linearGradient><linearGradient gradientUnits="objectBoundingBox" id="linearGradient-7" node-id="26" x1="0.2822" x2="0.7178" y1="-0.46001115" y2="0.89206564"><stop offset="0" stop-color="#d3dbf9"></stop><stop offset="1" stop-color="#95c1fa"></stop></linearGradient><linearGradient gradientUnits="objectBoundingBox" id="linearGradient-8" node-id="29" x1="0.14084342" x2="0.5" y1="-0.1216023" y2="1"><stop offset="0" stop-color="#59d0fc"></stop><stop offset="1" stop-color="#4b79ff"></stop></linearGradient><filter height="1.1" id="filter-10" node-id="33" width="1.196" x="-0.049" y="-0.063"><feOffset color-interpolation-filters="linearRGB" dx="3" dy="-1" in="SourceAlpha" result="shadowOffsetOuter1"></feOffset><feColorMatrix color-interpolation-filters="linearRGB" in="shadowOffsetOuter1" result="result2" type="matrix" values="0 0 0 0 1 0 0 0 0 1 0 0 0 0 1 0 0 0 0.309030813 0"></feColorMatrix></filter><linearGradient gradientUnits="objectBoundingBox" id="linearGradient-11" node-id="36" x1="0.5" x2="0.5" y1="0" y2="1"><stop offset="0" stop-color="#59d0fc" stop-opacity="0"></stop><stop offset="1" stop-color="#4b79ff"></stop></linearGradient></defs><g node-id="151"><g node-id="152"><g node-id="153"><path d="M 0.00 203.59 L 0.00 232.34 L 154.50 321.59 L 309.00 232.34 L 309.00 203.59 Z" fill="url(#linearGradient-1)" fill-opacity="0.46419272" fill-rule="evenodd" group-id="1,2,3" id="路径-71" node-id="42" stroke-linecap="butt" stroke-opacity="0.46419272" stroke-width="1" target-height="118.000015" target-width="309" target-x="0" target-y="203.5931"></path></g><path d="M 0.00 204.06 L 154.50 291.59 L 309.00 204.06 L 160.67 115.59 Z" fill="url(#linearGradient-2)" fill-rule="evenodd" group-id="1,2" id="路径-36复制" node-id="43" stroke-linecap="butt" stroke-width="1" target-height="176" target-width="309" target-x="0" target-y="115.5931"></path><path d="M 61.00 203.87 L 155.00 256.59 L 249.00 203.87 L 158.75 150.59 Z" fill="url(#linearGradient-3)" fill-opacity="0.4" fill-rule="evenodd" group-id="1,2" id="路径-36复制-2" node-id="44" stroke-linecap="butt" stroke-width="1" target-height="106.000015" target-width="188" target-x="61" target-y="150.5931"></path><path d="M 266.00 155.09 L 265.83 156.32 L 265.39 157.36 L 264.68 158.28 L 263.77 158.98 L 262.72 159.42 L 261.50 159.59 L 260.28 159.42 L 259.23 158.98 L 258.32 158.28 L 257.61 157.36 L 257.17 156.32 L 257.00 155.09 L 257.17 153.87 L 257.61 152.82 L 258.32 151.91 L 259.23 151.20 L 260.28 150.77 L 261.50 150.59 L 262.72 150.77 L 263.77 151.20 L 264.68 151.91 L 265.39 152.82 L 265.83 153.87 L 266.00 155.09 Z" fill="none" group-id="1,2" id="椭圆形" node-id="45" stroke="url(#linearGradient-4)" stroke-linecap="butt" stroke-width="1" target-height="9" target-width="9" target-x="257" target-y="150.5931"></path><path d="M 49.00 261.09 L 48.83 262.32 L 48.39 263.36 L 47.68 264.28 L 46.77 264.98 L 45.72 265.42 L 44.50 265.59 L 43.28 265.42 L 42.23 264.98 L 41.32 264.28 L 40.61 263.36 L 40.17 262.32 L 40.00 261.09 L 40.17 259.87 L 40.61 258.82 L 41.32 257.91 L 42.23 257.20 L 43.28 256.77 L 44.50 256.59 L 45.72 256.77 L 46.77 257.20 L 47.68 257.91 L 48.39 258.82 L 48.83 259.87 L 49.00 261.09 Z" fill="none" group-id="1,2" id="椭圆形复制" node-id="46" stroke="url(#linearGradient-4)" stroke-linecap="butt" stroke-width="1" target-height="9" target-width="9" target-x="40" target-y="256.5931"></path><path d="M 40.00 120.09 L 39.83 121.32 L 39.39 122.36 L 38.68 123.28 L 37.77 123.98 L 36.72 124.42 L 35.50 124.59 L 34.28 124.42 L 33.23 123.98 L 32.32 123.28 L 31.61 122.36 L 31.17 121.32 L 31.00 120.09 L 31.17 118.87 L 31.61 117.82 L 32.32 116.91 L 33.23 116.20 L 34.28 115.77 L 35.50 115.59 L 36.72 115.77 L 37.77 116.20 L 38.68 116.91 L 39.39 117.82 L 39.83 118.87 L 40.00 120.09 Z" fill="none" group-id="1,2" id="椭圆形复制-2" node-id="47" stroke="url(#linearGradient-4)" stroke-linecap="butt" stroke-width="1" target-height="9" target-width="9" target-x="31" target-y="115.5931"></path><path d="M 261.50 159.59 L 261.50 209.70" fill="none" group-id="1,2" id="直线" node-id="48" stroke-linecap="butt" stroke-width="1" target-height="50.103638" target-width="0" target-x="261.5" target-y="159.5931"></path><path d="M 44.50 265.59 L 44.50 315.70" fill="none" group-id="1,2" id="直线复制" node-id="49" stroke-linecap="butt" stroke-width="1" target-height="50.103607" target-width="0" target-x="44.5" target-y="265.5931"></path><path d="M 35.50 124.59 L 35.50 174.70" fill="none" group-id="1,2" id="直线复制-2" node-id="50" stroke-linecap="butt" stroke-width="1" target-height="50.10363" target-width="0" target-x="35.5" target-y="124.5931"></path><path d="M 127.00 54.62 L 135.15 47.59 L 182.98 51.11 L 233.87 105.73 L 235.21 119.19 L 235.89 131.22 L 235.96 141.92 L 235.50 151.43 L 234.57 159.83 L 233.23 167.25 L 231.51 173.77 L 229.47 179.49 L 227.13 184.48 L 224.51 188.82 L 221.63 192.59 L 218.48 195.82 L 215.05 198.57 L 211.33 200.86 L 207.27 202.71 L 202.85 204.12 L 198.01 205.07 L 192.70 205.55 L 186.87 205.50 L 180.43 204.87 L 127.00 54.62 Z" fill="url(#linearGradient-6)" fill-opacity="0.22667876" fill-rule="evenodd" group-id="1,2,4" id="路径-73备份" node-id="51" stroke-linecap="butt" stroke-opacity="0.22667876" stroke-width="1" target-height="157.95395" target-width="108.96178" target-x="127" target-y="47.593098"></path><path d="M 175.47 59.28 L 223.94 112.35 L 224.80 126.30 L 224.99 138.60 L 224.59 149.41 L 223.67 158.86 L 222.30 167.09 L 220.55 174.22 L 218.45 180.38 L 216.05 185.67 L 213.38 190.19 L 210.45 194.03 L 207.27 197.25 L 203.82 199.91 L 200.09 202.05 L 196.03 203.70 L 191.59 204.85 L 186.73 205.48 L 181.38 205.55 L 175.47 205.01 L 172.19 202.04 L 168.81 198.62 L 163.87 193.06 L 158.77 186.60 L 152.83 178.01 L 149.07 171.87 L 145.25 164.84 L 141.37 156.80 L 137.94 148.62 L 134.75 139.50 L 131.81 129.38 L 130.02 121.79 L 128.52 113.66 L 127.32 104.97 L 126.45 95.67 L 126.03 86.55 L 126.06 76.86 L 126.58 66.55 L 127.61 55.59 L 175.47 59.28 Z" fill="url(#linearGradient-7)" fill-rule="evenodd" group-id="1,2" id="路径-72备份" node-id="52" stroke-linecap="butt" stroke-width="1" target-height="149.95934" target-width="98.956856" target-x="126.031136" target-y="55.593098"></path><path d="M 106.00 69.41 L 114.15 62.38 L 161.98 65.89 L 212.87 120.51 L 214.21 133.98 L 214.89 146.00 L 214.96 156.71 L 214.50 166.21 L 213.57 174.62 L 212.23 182.04 L 210.51 188.56 L 208.47 194.27 L 206.13 199.26 L 203.51 203.61 L 200.63 207.37 L 197.48 210.61 L 194.05 213.35 L 190.33 215.64 L 186.27 217.49 L 181.85 218.90 L 177.01 219.86 L 171.70 220.33 L 165.87 220.28 L 159.43 219.66 L 106.00 69.41 Z" fill="url(#linearGradient-6)" fill-rule="evenodd" group-id="1,2" id="路径-73" node-id="53" stroke-linecap="butt" stroke-width="1" target-height="157.95395" target-width="108.96178" target-x="106" target-y="62.379814"></path><path d="M 154.47 74.07 L 202.94 127.13 L 203.80 141.08 L 203.99 153.39 L 203.59 164.19 L 202.67 173.64 L 201.30 181.87 L 199.55 189.01 L 197.45 195.17 L 195.05 200.46 L 192.38 204.98 L 189.45 208.81 L 186.27 212.03 L 182.82 214.70 L 179.09 216.84 L 175.03 218.49 L 170.59 219.64 L 165.73 220.27 L 160.38 220.34 L 154.47 219.80 L 151.19 216.82 L 147.81 213.41 L 142.87 207.85 L 137.77 201.39 L 131.83 192.79 L 128.07 186.66 L 124.25 179.62 L 120.37 171.59 L 116.94 163.40 L 113.75 154.29 L 110.81 144.17 L 109.02 136.58 L 107.52 128.45 L 106.32 119.76 L 105.45 110.46 L 105.03 101.34 L 105.06 91.65 L 105.58 81.34 L 106.61 70.38 L 154.47 74.07 Z" fill="url(#linearGradient-8)" fill-rule="evenodd" group-id="1,2" id="路径-72" node-id="54" stroke-linecap="butt" stroke-width="1" target-height="149.95932" target-width="98.956856" target-x="105.031136" target-y="70.379814"></path><path d="M 169.60 137.33 L 158.10 143.58 L 166.28 153.19 L 139.47 165.52 L 146.71 148.26 L 139.00 139.19 L 155.73 125.59" fill="#000000" fill-rule="nonzero" filter="url(#filter-10)" group-id="1,2,5,7,8" node-id="146" stroke-linecap="butt" stroke-width="1" target-height="39.92199" target-width="30.60411" target-x="139" target-y="125.5931"></path><path d="M 169.60 137.33 L 158.10 143.58 L 166.28 153.19 L 139.47 165.52 L 146.71 148.26 L 139.00 139.19 L 155.73 125.59" fill="#ffffff" fill-rule="nonzero" group-id="1,2,5,7" node-id="149" stroke-linecap="butt" stroke-width="1" target-height="39.92199" target-width="30.60411" target-x="139" target-y="125.5931"></path><path d="M 1.00 234.06 L 155.50 321.59 L 310.00 234.06 L 314.00 -0.00 L 1.00 -0.00 Z" fill="url(#linearGradient-11)" fill-opacity="0.20535715" fill-rule="evenodd" group-id="1,2,6" id="路径-36复制备份" node-id="59" stroke-linecap="butt" stroke-opacity="0.20535715" stroke-width="1" target-height="321.5931" target-width="313" target-x="1" target-y="-0.00000000001"></path></g></g></svg>