<?xml version="1.0" standalone="no"?><!DOCTYPE svg PUBLIC "-//W3C//DTD SVG 1.1//EN" "http://www.w3.org/Graphics/SVG/1.1/DTD/svg11.dtd"><svg height="342" legacy-metrics="false" node-id="1" sillyvg="true" template-height="342" template-width="376" version="1.1" viewBox="0 0 376 342" width="376" xmlns="http://www.w3.org/2000/svg" xmlns:xlink="http://www.w3.org/1999/xlink"><defs node-id="40"><linearGradient gradientUnits="objectBoundingBox" id="linearGradient-1" node-id="7" x1="0.5" x2="0.5" y1="0" y2="1"><stop offset="0" stop-color="#59d0fc"></stop><stop offset="1" stop-color="#4b79ff"></stop></linearGradient><linearGradient gradientUnits="objectBoundingBox" id="linearGradient-2" node-id="10" x1="0.5" x2="0.5" y1="0" y2="1"><stop offset="0" stop-color="#59d0fc"></stop><stop offset="1" stop-color="#4b79ff"></stop></linearGradient><linearGradient gradientUnits="objectBoundingBox" id="linearGradient-4" node-id="16" x1="0.24469759" x2="1.211851" y1="0.82032865" y2="0.2937788"><stop offset="0" stop-color="#59d0fc" stop-opacity="0"></stop><stop offset="1" stop-color="#4b79ff"></stop></linearGradient><linearGradient gradientUnits="objectBoundingBox" id="linearGradient-5" node-id="19" x1="0.5" x2="0.5" y1="0" y2="1"><stop offset="0" stop-color="#24b0e4"></stop><stop offset="1" stop-color="#1043da"></stop></linearGradient></defs><g node-id="42"><g node-id="43"><g node-id="44"><path d="M 190.81 20.00 L 316.75 96.98 L 316.75 254.83 L 190.81 178.47 L 190.81 20.00 Z" fill="url(#linearGradient-1)" fill-opacity="0.1327195" fill-rule="evenodd" group-id="1,2,3" id="路径-45复制" node-id="25" stroke="url(#linearGradient-1)" stroke-dasharray="10 10" stroke-linecap="butt" stroke-opacity="0.33179873" stroke-width="3" target-height="234.8252" target-width="125.93504" target-x="190.81163" target-y="20"></path></g><path d="M 375.00 76.50 L 374.83 77.72 L 374.39 78.77 L 373.68 79.68 L 372.77 80.39 L 371.72 80.83 L 370.50 81.00 L 369.28 80.83 L 368.23 80.39 L 367.32 79.68 L 366.61 78.77 L 366.17 77.72 L 366.00 76.50 L 366.17 75.28 L 366.61 74.23 L 367.32 73.32 L 368.23 72.61 L 369.28 72.17 L 370.50 72.00 L 371.72 72.17 L 372.77 72.61 L 373.68 73.32 L 374.39 74.23 L 374.83 75.28 L 375.00 76.50 Z" fill="none" group-id="1,2" id="椭圆形复制-5" node-id="26" stroke="url(#linearGradient-2)" stroke-linecap="butt" stroke-width="1" target-height="9" target-width="9" target-x="366" target-y="72"></path><path d="M 110.00 188.50 L 109.83 189.72 L 109.39 190.77 L 108.68 191.68 L 107.77 192.39 L 106.72 192.83 L 105.50 193.00 L 104.28 192.83 L 103.23 192.39 L 102.32 191.68 L 101.61 190.77 L 101.17 189.72 L 101.00 188.50 L 101.17 187.28 L 101.61 186.23 L 102.32 185.32 L 103.23 184.61 L 104.28 184.17 L 105.50 184.00 L 106.72 184.17 L 107.77 184.61 L 108.68 185.32 L 109.39 186.23 L 109.83 187.28 L 110.00 188.50 Z" fill="none" group-id="1,2" id="椭圆形复制-6" node-id="27" stroke="url(#linearGradient-2)" stroke-linecap="butt" stroke-width="1" target-height="9" target-width="9" target-x="101" target-y="184"></path><path d="M 370.50 81.00 L 370.50 131.10" fill="none" group-id="1,2" id="直线复制-4" node-id="28" stroke-linecap="butt" stroke-width="1" target-height="50.103638" target-width="0" target-x="370.5" target-y="81"></path><path d="M 105.50 193.00 L 105.50 243.10" fill="none" group-id="1,2" id="直线复制-5" node-id="29" stroke-linecap="butt" stroke-width="1" target-height="50.103638" target-width="0" target-x="105.5" target-y="193"></path><path d="M 220.81 2.00 L 346.75 78.98 L 346.75 236.83 L 220.81 160.47 L 220.81 2.00 Z" fill-opacity="0.33179873" fill-rule="nonzero" group-id="1,2,4" id="路径-45复制-2" node-id="30" stroke="url(#linearGradient-1)" stroke-dasharray="10 10" stroke-linecap="butt" stroke-opacity="0.33179873" stroke-width="3" target-height="234.8252" target-width="125.93504" target-x="220.81163" target-y="2"></path><path d="M 222.00 2.00 L 347.94 78.98 L 347.94 236.83 L 105.50 347.00 L 0.00 106.05 L 222.00 2.00 Z" fill="url(#linearGradient-4)" fill-opacity="0.15926339" fill-rule="evenodd" group-id="1,2,5" id="路径-45复制-3" node-id="31" stroke-linecap="butt" stroke-opacity="0.33179873" stroke-width="1" target-height="345" target-width="347.93503" target-x="0" target-y="2"></path><path d="M 253.94 280.21 L 284.62 264.28 L 281.83 105.69 L 158.36 32.26 L 128.00 45.39 Z" fill="url(#linearGradient-5)" fill-rule="evenodd" group-id="1,2" id="路径-46" node-id="32" stroke-linecap="butt" stroke-width="1" target-height="247.95697" target-width="156.61575" target-x="128" target-y="32.25522"></path><path d="M 128.00 45.39 L 253.94 122.37 L 253.94 280.21 L 128.00 203.86 Z" fill="url(#linearGradient-1)" fill-rule="evenodd" group-id="1,2" id="路径-45" node-id="33" stroke-linecap="butt" stroke-width="1" target-height="234.8252" target-width="125.93503" target-x="128" target-y="45.387"></path><path d="M 185.78 197.45 L 180.23 191.82 L 175.25 185.96 L 170.82 179.86 L 166.92 173.52 L 163.53 166.91 L 160.64 160.02 L 158.26 152.83 L 156.37 145.30 L 155.00 137.41 L 154.69 134.78 L 154.07 128.46 L 153.61 120.82 L 153.58 117.09 L 153.76 114.21 L 154.09 112.39 L 154.53 111.43 L 155.00 111.00 L 156.08 110.80 L 157.27 110.90 L 158.62 111.34 L 160.63 112.35 L 162.94 113.77 L 167.82 116.72 L 170.52 118.02 L 173.60 119.21 L 176.79 120.09 L 179.95 120.51 L 182.05 120.47 L 183.98 120.11 L 185.78 119.41 L 186.79 119.19 L 187.88 119.44 L 189.15 120.30 L 190.90 122.12 L 192.92 124.85 L 196.95 131.05 L 199.05 134.21 L 201.07 136.92 L 202.55 138.56 L 203.90 139.70 L 205.15 140.42 L 207.68 141.60 L 210.38 143.14 L 212.99 144.91 L 215.41 146.91 L 217.56 149.11 L 219.22 151.38 L 220.07 153.01 L 220.59 154.62 L 220.81 156.23 L 220.91 163.56 L 220.81 175.44 L 220.11 181.24 L 219.02 186.05 L 217.59 190.00 L 215.88 193.23 L 213.91 195.83 L 211.67 197.90 L 209.15 199.49 L 206.31 200.62 L 201.81 201.65 L 197.86 201.98 L 194.35 201.69 L 191.21 200.83 L 188.37 199.43 L 185.78 197.45 Z" fill="#b6e8fd" fill-rule="evenodd" group-id="1,2" id="路径-47" node-id="34" stroke-linecap="butt" stroke-width="1" target-height="91.18314" target-width="67.32405" target-x="153.58116" target-y="110.79742"></path><path d="M 183.46 170.76 L 185.99 174.56 L 188.08 176.91 L 189.80 178.20 L 191.26 178.74 L 192.55 178.72 L 193.78 178.17 L 194.62 177.33 L 195.11 176.29 L 195.26 175.00 L 194.96 172.95 L 194.13 170.64 L 192.94 168.41 L 191.53 166.38 L 189.97 164.62 L 188.62 163.52 L 186.76 162.83 L 185.80 162.28 L 185.06 160.93 L 184.44 158.70 L 183.67 153.74 L 183.67 153.74 L 183.87 153.00 L 184.53 152.63 L 184.91 152.65 L 185.80 152.74 L 186.56 152.51 L 187.24 151.96 L 187.87 151.05 L 188.43 149.72 L 188.73 148.20 L 188.70 146.26 L 188.27 144.21 L 187.24 141.72 L 185.78 139.44 L 184.34 137.95 L 182.75 136.87 L 181.35 136.33 L 179.99 136.16 L 178.99 136.30 L 178.07 136.91 L 176.78 138.64 L 176.10 140.05 L 175.53 141.94 L 175.12 144.41 L 175.02 146.89 L 175.31 149.89 L 176.06 153.50 L 177.74 158.92 L 179.54 163.55 L 181.45 167.46 L 183.46 170.76 Z" fill="#52a3fe" fill-rule="evenodd" group-id="1,2" id="路径-48" node-id="35" stroke-linecap="butt" stroke-width="1" target-height="42.584793" target-width="20.234955" target-x="175.0227" target-y="136.15799"></path><path d="M 191.75 157.52 L 192.76 159.16 L 193.07 160.68 L 192.78 162.21" fill="none" group-id="1,2" id="路径-49" node-id="36" stroke="#52a3fe" stroke-linecap="round" stroke-width="2" target-height="4.6880035" target-width="1.3235168" target-x="191.7503" target-y="157.51945"></path><path d="M 195.14 156.38 L 196.02 157.83 L 196.53 159.64 L 196.61 161.93 L 196.16 164.83 L 196.11 165.32" fill="none" group-id="1,2" id="路径-50" node-id="37" stroke="#52a3fe" stroke-linecap="round" stroke-width="2" target-height="8.933411" target-width="1.463562" target-x="195.14186" target-y="156.38269"></path><path d="M 197.13 153.33 L 198.46 154.59 L 199.45 156.25 L 200.10 158.43 L 200.33 161.26 L 200.10 164.54 L 199.51 166.78 L 198.74 168.72 L 198.55 169.19" fill="none" group-id="1,2" id="路径-51" node-id="38" stroke="#52a3fe" stroke-linecap="round" stroke-width="2" target-height="15.864014" target-width="3.2014465" target-x="197.13274" target-y="153.32997"></path></g></g></svg>