<?xml version="1.0" standalone="no"?><!DOCTYPE svg PUBLIC "-//W3C//DTD SVG 1.1//EN" "http://www.w3.org/Graphics/SVG/1.1/DTD/svg11.dtd"><svg t="1679278746044" class="icon" viewBox="0 0 1024 1024" version="1.1" xmlns="http://www.w3.org/2000/svg" p-id="3249" xmlns:xlink="http://www.w3.org/1999/xlink" width="200" height="200"><path d="M181.12 167.04c-1.92 0-3.84-0.64-5.12-1.92-3.2-3.2-3.2-7.68 0-10.88l1.28-1.28c3.2-3.2 7.68-3.2 10.88 0s3.2 7.68 0 10.88l-1.28 1.28c-1.92 1.28-3.84 1.92-5.76 1.92zM197.12 151.04c-1.92 0-3.84-0.64-5.12-1.92-3.2-3.2-3.2-7.68 0-10.88l2.56-2.56c3.2-3.2 7.68-3.2 10.88 0s3.2 7.68 0 10.88l-2.56 2.56c-1.92 1.28-3.84 1.92-5.76 1.92z m17.92-17.28c-1.92 0-3.84-0.64-5.12-1.92-3.2-3.2-3.2-7.68 0-10.88l2.56-2.56c3.2-3.2 7.68-3.2 10.88 0s3.2 7.68 0 10.88l-2.56 2.56c-1.92 1.28-3.84 1.92-5.76 1.92zM232.32 115.84c-1.92 0-3.84-0.64-5.12-1.92-3.2-3.2-3.2-7.68 0-10.88l1.28-1.28c3.2-3.2 7.68-3.2 10.88 0s3.2 7.68 0 10.88l-1.28 1.28c-1.92 1.28-3.84 1.92-5.76 1.92zM218.24 167.04c-1.92 0-3.84-0.64-5.12-1.92-3.2-3.2-3.2-7.68 0-10.88l1.28-1.28c3.2-3.2 7.68-3.2 10.88 0s3.2 7.68 0 10.88l-1.28 1.28c-1.92 1.28-3.84 1.92-5.76 1.92zM234.24 151.04c-1.92 0-3.84-0.64-5.12-1.92-3.2-3.2-3.2-7.68 0-10.88l2.56-2.56c3.2-3.2 7.68-3.2 10.88 0s3.2 7.68 0 10.88l-2.56 2.56c-1.92 1.28-3.84 1.92-5.76 1.92z m17.28-17.28c-1.92 0-3.84-0.64-5.12-1.92-3.2-3.2-3.2-7.68 0-10.88l2.56-2.56c3.2-3.2 7.68-3.2 10.88 0s3.2 7.68 0 10.88l-2.56 2.56c-1.92 1.28-3.84 1.92-5.76 1.92zM268.8 115.84c-1.92 0-3.84-0.64-5.12-1.92-3.2-3.2-3.2-7.68 0-10.88l1.28-1.28c3.2-3.2 7.68-3.2 10.88 0s3.2 7.68 0 10.88l-1.28 1.28c-1.92 1.28-3.84 1.92-5.76 1.92zM254.72 167.04c-1.92 0-3.84-0.64-5.12-1.92-3.2-3.2-3.2-7.68 0-10.88l1.28-1.28c3.2-3.2 7.68-3.2 10.88 0s3.2 7.68 0 10.88l-1.28 1.28c-1.92 1.28-3.84 1.92-5.76 1.92zM271.36 151.04c-1.92 0-3.84-0.64-5.12-1.92-3.2-3.2-3.2-7.68 0-10.88l2.56-2.56c3.2-3.2 7.68-3.2 10.88 0s3.2 7.68 0 10.88l-2.56 2.56c-1.92 1.28-3.84 1.92-5.76 1.92z m17.28-17.28c-1.92 0-3.84-0.64-5.12-1.92-3.2-3.2-3.2-7.68 0-10.88l2.56-2.56c3.2-3.2 7.68-3.2 10.88 0s3.2 7.68 0 10.88l-2.56 2.56c-1.92 1.28-3.84 1.92-5.76 1.92zM305.92 115.84c-1.92 0-3.84-0.64-5.12-1.92-3.2-3.2-3.2-7.68 0-10.88l1.28-1.28c3.2-3.2 7.68-3.2 10.88 0s3.2 7.68 0 10.88l-1.28 1.28c-1.92 1.28-3.84 1.92-5.76 1.92zM291.84 167.04c-1.92 0-3.84-0.64-5.12-1.92-3.2-3.2-3.2-7.68 0-10.88l1.28-1.28c3.2-3.2 7.68-3.2 10.88 0s3.2 7.68 0 10.88l-1.28 1.28c-1.92 1.28-3.84 1.92-5.76 1.92zM307.84 151.04c-1.92 0-3.84-0.64-5.12-1.92-3.2-3.2-3.2-7.68 0-10.88l2.56-2.56c3.2-3.2 7.68-3.2 10.88 0s3.2 7.68 0 10.88l-2.56 2.56c-1.92 1.28-3.84 1.92-5.76 1.92z m17.28-17.28c-1.92 0-3.84-0.64-5.12-1.92-3.2-3.2-3.2-7.68 0-10.88l2.56-2.56c3.2-3.2 7.68-3.2 10.88 0s3.2 7.68 0 10.88l-2.56 2.56c-1.92 1.28-3.84 1.92-5.76 1.92zM343.04 115.84c-1.92 0-3.84-0.64-5.12-1.92-3.2-3.2-3.2-7.68 0-10.88l1.28-1.28c3.2-3.2 7.68-3.2 10.88 0s3.2 7.68 0 10.88l-1.28 1.28c-1.92 1.28-3.84 1.92-5.76 1.92zM328.96 167.04c-1.92 0-3.84-0.64-5.12-1.92-3.2-3.2-3.2-7.68 0-10.88l1.28-1.28c3.2-3.2 7.68-3.2 10.88 0s3.2 7.68 0 10.88l-1.28 1.28c-1.92 1.28-3.84 1.92-5.76 1.92zM344.96 151.04c-1.92 0-3.84-0.64-5.12-1.92-3.2-3.2-3.2-7.68 0-10.88l2.56-2.56c3.2-3.2 7.68-3.2 10.88 0s3.2 7.68 0 10.88l-2.56 2.56c-1.92 1.28-3.84 1.92-5.76 1.92z m17.28-17.28c-1.92 0-3.84-0.64-5.12-1.92-3.2-3.2-3.2-7.68 0-10.88l2.56-2.56c3.2-3.2 7.68-3.2 10.88 0s3.2 7.68 0 10.88l-2.56 2.56c-1.92 1.28-3.84 1.92-5.76 1.92zM379.52 115.84c-1.92 0-3.84-0.64-5.12-1.92-3.2-3.2-3.2-7.68 0-10.88l1.28-1.28c3.2-3.2 7.68-3.2 10.88 0s3.2 7.68 0 10.88l-1.28 1.28c-1.92 1.28-3.84 1.92-5.76 1.92zM365.44 167.04c-1.92 0-3.84-0.64-5.12-1.92-3.2-3.2-3.2-7.68 0-10.88l1.28-1.28c3.2-3.2 7.68-3.2 10.88 0s3.2 7.68 0 10.88l-1.28 1.28c-1.92 1.28-3.84 1.92-5.76 1.92zM381.44 151.04c-1.92 0-3.84-0.64-5.12-1.92-3.2-3.2-3.2-7.68 0-10.88l2.56-2.56c3.2-3.2 7.68-3.2 10.88 0s3.2 7.68 0 10.88l-2.56 2.56c-1.92 1.28-3.84 1.92-5.76 1.92z m17.92-17.28c-1.92 0-3.84-0.64-5.12-1.92-3.2-3.2-3.2-7.68 0-10.88l2.56-2.56c3.2-3.2 7.68-3.2 10.88 0s3.2 7.68 0 10.88l-2.56 2.56c-1.92 1.28-3.84 1.92-5.76 1.92zM416.64 115.84c-1.92 0-3.84-0.64-5.12-1.92-3.2-3.2-3.2-7.68 0-10.88l1.28-1.28c3.2-3.2 7.68-3.2 10.88 0s3.2 7.68 0 10.88l-1.28 1.28c-1.92 1.28-3.84 1.92-5.76 1.92zM402.56 167.04c-1.92 0-3.84-0.64-5.12-1.92-3.2-3.2-3.2-7.68 0-10.88l1.28-1.28c3.2-3.2 7.68-3.2 10.88 0s3.2 7.68 0 10.88l-1.28 1.28c-1.92 1.28-3.84 1.92-5.76 1.92zM418.56 151.04c-1.92 0-3.84-0.64-5.12-1.92-3.2-3.2-3.2-7.68 0-10.88l2.56-2.56c3.2-3.2 7.68-3.2 10.88 0s3.2 7.68 0 10.88l-2.56 2.56c-1.92 1.28-3.84 1.92-5.76 1.92z m17.28-17.28c-1.92 0-3.84-0.64-5.12-1.92-3.2-3.2-3.2-7.68 0-10.88l2.56-2.56c3.2-3.2 7.68-3.2 10.88 0s3.2 7.68 0 10.88l-2.56 2.56c-1.92 1.28-3.84 1.92-5.76 1.92zM453.12 115.84c-1.92 0-3.84-0.64-5.12-1.92-3.2-3.2-3.2-7.68 0-10.88l1.28-1.28c3.2-3.2 7.68-3.2 10.88 0s3.2 7.68 0 10.88l-1.28 1.28c-1.92 1.28-3.84 1.92-5.76 1.92zM439.04 167.04c-1.92 0-3.84-0.64-5.12-1.92-3.2-3.2-3.2-7.68 0-10.88l1.28-1.28c3.2-3.2 7.68-3.2 10.88 0s3.2 7.68 0 10.88l-1.28 1.28c-1.92 1.28-3.84 1.92-5.76 1.92zM455.04 151.04c-1.92 0-3.84-0.64-5.12-1.92-3.2-3.2-3.2-7.68 0-10.88l2.56-2.56c3.2-3.2 7.68-3.2 10.88 0s3.2 7.68 0 10.88l-2.56 2.56c-1.28 1.28-3.2 1.92-5.76 1.92z m17.92-17.28c-1.92 0-3.84-0.64-5.12-1.92-3.2-3.2-3.2-7.68 0-10.88l2.56-2.56c3.2-3.2 7.68-3.2 10.88 0s3.2 7.68 0 10.88l-2.56 2.56c-1.92 1.28-3.84 1.92-5.76 1.92zM490.24 115.84c-1.92 0-3.84-0.64-5.12-1.92-3.2-3.2-3.2-7.68 0-10.88l1.28-1.28c3.2-3.2 7.68-3.2 10.88 0s3.2 7.68 0 10.88l-1.28 1.28c-1.92 1.28-3.84 1.92-5.76 1.92zM476.16 167.04c-1.92 0-3.84-0.64-5.12-1.92-3.2-3.2-3.2-7.68 0-10.88l1.28-1.28c3.2-3.2 7.68-3.2 10.88 0s3.2 7.68 0 10.88l-1.28 1.28c-1.92 1.28-3.84 1.92-5.76 1.92zM492.16 151.04c-1.92 0-3.84-0.64-5.12-1.92-3.2-3.2-3.2-7.68 0-10.88l2.56-2.56c3.2-3.2 7.68-3.2 10.88 0s3.2 7.68 0 10.88l-2.56 2.56c-1.92 1.28-3.84 1.92-5.76 1.92z m17.28-17.28c-1.92 0-3.84-0.64-5.12-1.92-3.2-3.2-3.2-7.68 0-10.88l2.56-2.56c3.2-3.2 7.68-3.2 10.88 0s3.2 7.68 0 10.88l-2.56 2.56c-1.92 1.28-3.84 1.92-5.76 1.92zM527.36 115.84c-1.92 0-3.84-0.64-5.12-1.92-3.2-3.2-3.2-7.68 0-10.88l1.28-1.28c3.2-3.2 7.68-3.2 10.88 0s3.2 7.68 0 10.88l-1.28 1.28c-1.92 1.28-3.84 1.92-5.76 1.92zM513.28 167.04c-1.92 0-3.84-0.64-5.12-1.92-3.2-3.2-3.2-7.68 0-10.88l1.28-1.28c3.2-3.2 7.68-3.2 10.88 0s3.2 7.68 0 10.88l-1.92 1.28c-1.28 1.28-3.2 1.92-5.12 1.92zM529.28 151.04c-1.92 0-3.84-0.64-5.12-1.92-3.2-3.2-3.2-7.68 0-10.88l2.56-2.56c3.2-3.2 7.68-3.2 10.88 0s3.2 7.68 0 10.88l-2.56 2.56c-1.92 1.28-3.84 1.92-5.76 1.92z m17.28-17.28c-1.92 0-3.84-0.64-5.12-1.92-3.2-3.2-3.2-7.68 0-10.88l2.56-2.56c3.2-3.2 7.68-3.2 10.88 0s3.2 7.68 0 10.88l-2.56 2.56c-1.92 1.28-3.84 1.92-5.76 1.92zM563.84 115.84c-1.92 0-3.84-0.64-5.12-1.92-3.2-3.2-3.2-7.68 0-10.88l1.28-1.28c3.2-3.2 7.68-3.2 10.88 0s3.2 7.68 0 10.88l-1.28 1.28c-1.92 1.28-3.84 1.92-5.76 1.92zM549.76 167.04c-1.92 0-3.84-0.64-5.12-1.92-3.2-3.2-3.2-7.68 0-10.88l1.28-1.28c3.2-3.2 7.68-3.2 10.88 0s3.2 7.68 0 10.88l-1.28 1.28c-1.92 1.28-3.84 1.92-5.76 1.92zM565.76 151.04c-1.92 0-3.84-0.64-5.12-1.92-3.2-3.2-3.2-7.68 0-10.88l2.56-2.56c3.2-3.2 7.68-3.2 10.88 0s3.2 7.68 0 10.88l-2.56 2.56c-1.92 1.28-3.84 1.92-5.76 1.92z m17.92-17.28c-1.92 0-3.84-0.64-5.12-1.92-3.2-3.2-3.2-7.68 0-10.88l2.56-2.56c3.2-3.2 7.68-3.2 10.88 0s3.2 7.68 0 10.88l-3.2 1.92c-1.28 1.92-3.2 2.56-5.12 2.56zM600.96 115.84c-1.92 0-3.84-0.64-5.12-1.92-3.2-3.2-3.2-7.68 0-10.88l1.28-1.28c3.2-3.2 7.68-3.2 10.88 0s3.2 7.68 0 10.88l-1.28 1.28c-1.92 1.28-3.84 1.92-5.76 1.92zM586.88 167.04c-1.92 0-3.84-0.64-5.12-1.92-3.2-3.2-3.2-7.68 0-10.88l1.28-1.28c3.2-3.2 7.68-3.2 10.88 0s3.2 7.68 0 10.88l-1.28 1.28c-1.92 1.28-3.84 1.92-5.76 1.92zM602.88 151.04c-1.92 0-3.84-0.64-5.12-1.92-3.2-3.2-3.2-7.68 0-10.88l2.56-2.56c3.2-3.2 7.68-3.2 10.88 0s3.2 7.68 0 10.88l-3.2 2.56c-1.28 1.28-3.2 1.92-5.12 1.92z m17.28-17.28c-1.92 0-3.84-0.64-5.12-1.92-3.2-3.2-3.2-7.68 0-10.88l2.56-2.56c3.2-3.2 7.68-3.2 10.88 0s3.2 7.68 0 10.88l-2.56 2.56c-1.92 1.28-3.84 1.92-5.76 1.92zM637.44 115.84c-1.92 0-3.84-0.64-5.12-1.92-3.2-3.2-3.2-7.68 0-10.88l1.28-0.64c3.2-3.2 7.68-3.2 10.88 0s3.2 7.68 0 10.88l-1.28 1.28c-1.92 0.64-3.84 1.28-5.76 1.28zM623.36 167.04c-1.92 0-3.84-0.64-5.12-1.92-3.2-3.2-3.2-7.68 0-10.88l1.28-1.28c3.2-3.2 7.68-3.2 10.88 0s3.2 7.68 0 10.88l-1.28 1.28c-1.92 1.28-3.84 1.92-5.76 1.92zM639.36 151.04c-1.92 0-3.84-0.64-5.12-1.92-3.2-3.2-3.2-7.68 0-10.88l2.56-2.56c3.2-3.2 7.68-3.2 10.88 0s3.2 7.68 0 10.88l-2.56 2.56c-1.28 1.28-3.84 1.92-5.76 1.92z m17.92-17.28c-1.92 0-3.84-0.64-5.12-1.92-3.2-3.2-3.2-7.68 0-10.88l2.56-2.56c3.2-3.2 7.68-3.2 10.88 0s3.2 7.68 0 10.88l-2.56 2.56c-1.92 1.28-3.84 1.92-5.76 1.92zM674.56 115.84c-1.92 0-3.84-0.64-5.12-1.92-3.2-3.2-3.2-7.68 0-10.88l1.28-1.28c3.2-3.2 7.68-3.2 10.88 0s3.2 7.68 0 10.88l-1.28 1.28c-1.92 1.28-3.84 1.92-5.76 1.92zM660.48 167.04c-1.92 0-3.84-0.64-5.12-1.92-3.2-3.2-3.2-7.68 0-10.88l1.28-1.28c3.2-3.2 7.68-3.2 10.88 0s3.2 7.68 0 10.88l-1.28 1.28c-1.92 1.28-3.84 1.92-5.76 1.92zM676.48 151.04c-1.92 0-3.84-0.64-5.12-1.92-3.2-3.2-3.2-7.68 0-10.88l2.56-2.56c3.2-3.2 7.68-3.2 10.88 0s3.2 7.68 0 10.88l-2.56 2.56c-1.92 1.28-3.84 1.92-5.76 1.92z m17.28-17.28c-1.92 0-3.84-0.64-5.12-1.92-3.2-3.2-3.2-7.68 0-10.88l2.56-2.56c3.2-3.2 7.68-3.2 10.88 0s3.2 7.68 0 10.88l-2.56 2.56c-1.92 1.28-3.84 1.92-5.76 1.92zM711.68 115.84c-1.92 0-3.84-0.64-5.12-1.92-3.2-3.2-3.2-7.68 0-10.88l1.28-1.28c3.2-3.2 7.68-3.2 10.88 0s3.2 7.68 0 10.88l-1.28 1.28c-1.92 1.28-3.84 1.92-5.76 1.92zM697.6 167.04c-1.92 0-3.84-0.64-5.12-1.92-3.2-3.2-3.2-7.68 0-10.88l1.28-1.28c3.2-3.2 7.68-3.2 10.88 0s3.2 7.68 0 10.88l-1.28 1.28c-1.92 1.28-3.84 1.92-5.76 1.92zM713.6 151.04c-1.92 0-3.84-0.64-5.12-1.92-3.2-3.2-3.2-7.68 0-10.88l2.56-2.56c3.2-3.2 7.68-3.2 10.88 0s3.2 7.68 0 10.88l-2.56 2.56c-1.92 1.28-3.84 1.92-5.76 1.92z m17.28-17.28c-1.92 0-3.84-0.64-5.12-1.92-3.2-3.2-3.2-7.68 0-10.88l2.56-2.56c3.2-3.2 7.68-3.2 10.88 0s3.2 7.68 0 10.88l-2.56 2.56c-1.92 1.28-3.84 1.92-5.76 1.92zM748.16 115.84c-1.92 0-3.84-0.64-5.12-1.92-3.2-3.2-3.2-7.68 0-10.88l1.28-1.28c3.2-3.2 7.68-3.2 10.88 0s3.2 7.68 0 10.88l-1.28 1.28c-1.92 1.28-3.84 1.92-5.76 1.92z" fill="#1296db" p-id="3250"></path><path d="M734.08 167.04c-1.92 0-3.84-0.64-5.12-1.92-3.2-3.2-3.2-7.68 0-10.88l1.28-1.28c3.2-3.2 7.68-3.2 10.88 0s3.2 7.68 0 10.88l-1.28 1.28c-1.92 1.28-3.84 1.92-5.76 1.92zM750.08 151.04c-1.92 0-3.84-0.64-5.12-1.92-3.2-3.2-3.2-7.68 0-10.88l2.56-2.56c3.2-3.2 7.68-3.2 10.88 0s3.2 7.68 0 10.88l-2.56 2.56c-1.92 1.28-3.84 1.92-5.76 1.92z m17.28-17.28c-1.92 0-3.84-0.64-5.12-1.92-3.2-3.2-3.2-7.68 0-10.88l2.56-2.56c3.2-3.2 7.68-3.2 10.88 0s3.2 7.68 0 10.88l-2.56 2.56c-1.28 1.28-3.84 1.92-5.76 1.92zM785.28 115.84c-1.92 0-3.84-0.64-5.12-1.92-3.2-3.2-3.2-7.68 0-10.88l0.64-0.64c3.2-3.2 7.68-3.2 10.88 0s3.2 7.68 0 10.88l-1.28 1.28c-1.28 0.64-3.2 1.28-5.12 1.28z" fill="#1296db" p-id="3251"></path><path d="M771.2 167.04c-1.92 0-3.84-0.64-5.12-1.92-3.2-3.2-3.2-7.68 0-10.88l1.28-1.28c3.2-3.2 7.68-3.2 10.88 0s3.2 7.68 0 10.88l-1.28 1.28c-1.92 1.28-3.84 1.92-5.76 1.92zM787.2 151.04c-1.92 0-3.84-0.64-5.12-1.92-3.2-3.2-3.2-7.68 0-10.88l2.56-2.56c3.2-3.2 7.68-3.2 10.88 0s3.2 7.68 0 10.88l-2.56 2.56c-1.92 1.28-3.84 1.92-5.76 1.92z m17.28-17.28c-1.92 0-3.84-0.64-5.12-1.92-3.2-3.2-3.2-7.68 0-10.88l2.56-2.56c3.2-3.2 7.68-3.2 10.88 0s3.2 7.68 0 10.88l-2.56 2.56c-1.92 1.28-3.84 1.92-5.76 1.92zM821.76 115.84c-1.92 0-3.84-0.64-5.12-1.92-3.2-3.2-3.2-7.68 0-10.88l1.28-1.28c3.2-3.2 7.68-3.2 10.88 0s3.2 7.68 0 10.88l-1.28 1.28c-1.92 1.28-3.84 1.92-5.76 1.92z" fill="#1296db" p-id="3252"></path><path d="M807.68 167.04c-1.92 0-3.84-0.64-5.12-1.92-3.2-3.2-3.2-7.68 0-10.88l1.28-1.28c3.2-3.2 7.68-3.2 10.88 0s3.2 7.68 0 10.88l-1.28 1.28c-1.92 1.28-3.84 1.92-5.76 1.92zM823.68 151.04c-1.92 0-3.84-0.64-5.12-1.92-3.2-3.2-3.2-7.68 0-10.88l2.56-2.56c3.2-3.2 7.68-3.2 10.88 0s3.2 7.68 0 10.88l-2.56 2.56c-1.92 1.28-3.84 1.92-5.76 1.92z m17.92-17.28c-1.92 0-3.84-0.64-5.12-1.92-3.2-3.2-3.2-7.68 0-10.88l2.56-2.56c3.2-3.2 7.68-3.2 10.88 0s3.2 7.68 0 10.88l-2.56 2.56c-1.92 1.28-3.84 1.92-5.76 1.92zM858.88 115.84c-1.92 0-3.84-0.64-5.12-1.92-3.2-3.2-3.2-7.68 0-10.88l1.28-1.28c3.2-3.2 7.68-3.2 10.88 0s3.2 7.68 0 10.88l-1.28 1.28c-1.92 1.28-3.84 1.92-5.76 1.92z" fill="#1296db" p-id="3253"></path><path d="M908.16 214.4c-1.92 0-3.84-0.64-5.12-1.92-3.2-3.2-3.2-7.68 0-10.88l1.28-1.28c3.2-3.2 7.68-3.2 10.88 0s3.2 7.68 0 10.88l-1.28 1.28c-1.92 1.28-3.84 1.92-5.76 1.92zM924.16 198.4c-1.92 0-3.84-0.64-5.12-1.92-3.2-3.2-3.2-7.68 0-10.88l2.56-2.56c3.2-3.2 7.68-3.2 10.88 0s3.2 7.68 0 10.88l-2.56 2.56c-1.92 1.28-3.84 1.92-5.76 1.92z m17.28-17.28c-1.92 0-3.84-0.64-5.12-1.92-3.2-3.2-3.2-7.68 0-10.88l2.56-2.56c3.2-3.2 7.68-3.2 10.88 0s3.2 7.68 0 10.88l-2.56 2.56c-1.92 0.64-3.84 1.92-5.76 1.92zM958.72 163.2c-1.92 0-3.84-0.64-5.12-1.92-3.2-3.2-3.2-7.68 0-10.88l1.28-1.28c3.2-3.2 7.68-3.2 10.88 0s3.2 7.68 0 10.88l-1.28 1.28c-1.28 1.28-3.2 1.92-5.76 1.92z" fill="#1296db" p-id="3254"></path><path d="M908.16 250.88c-1.92 0-3.84-0.64-5.12-1.92-3.2-3.2-3.2-7.68 0-10.88l1.28-1.28c3.2-3.2 7.68-3.2 10.88 0s3.2 7.68 0 10.88l-1.28 1.28c-1.92 1.28-3.84 1.92-5.76 1.92zM924.16 234.88c-1.92 0-3.84-0.64-5.12-1.92-3.2-3.2-3.2-7.68 0-10.88l2.56-2.56c3.2-3.2 7.68-3.2 10.88 0s3.2 7.68 0 10.88l-2.56 2.56c-1.92 1.28-3.84 1.92-5.76 1.92z m17.28-17.28c-1.92 0-3.84-0.64-5.12-1.92-3.2-3.2-3.2-7.68 0-10.88l2.56-2.56c3.2-3.2 7.68-3.2 10.88 0s3.2 7.68 0 10.88l-2.56 2.56c-1.92 1.28-3.84 1.92-5.76 1.92zM958.72 200.32c-1.92 0-3.84-0.64-5.12-1.92-3.2-3.2-3.2-7.68 0-10.88l1.28-1.28c3.2-3.2 7.68-3.2 10.88 0s3.2 7.68 0 10.88l-1.28 1.28c-1.28 1.28-3.2 1.92-5.76 1.92z" fill="#1296db" p-id="3255"></path><path d="M844.8 167.04c-1.92 0-3.84-0.64-5.12-1.92-3.2-3.2-3.2-7.68 0-10.88l1.28-1.28c3.2-3.2 7.68-3.2 10.88 0s3.2 7.68 0 10.88l-1.28 1.28c-1.92 1.28-3.84 1.92-5.76 1.92zM860.8 151.04c-1.92 0-3.84-0.64-5.12-1.92-3.2-3.2-3.2-7.68 0-10.88l2.56-2.56c3.2-3.2 7.68-3.2 10.88 0s3.2 7.68 0 10.88l-2.56 2.56c-1.92 1.28-3.84 1.92-5.76 1.92z m17.28-17.28c-1.92 0-3.84-0.64-5.12-1.92-3.2-3.2-3.2-7.68 0-10.88l2.56-2.56c3.2-3.2 7.68-3.2 10.88 0s3.2 7.68 0 10.88l-2.56 2.56c-1.92 1.28-3.84 1.92-5.76 1.92zM895.36 115.84c-1.92 0-3.84-0.64-5.12-1.92-3.2-3.2-3.2-7.68 0-10.88l1.28-1.28c3.2-3.2 7.68-3.2 10.88 0s3.2 7.68 0 10.88l-1.28 1.28c-1.28 1.28-3.2 1.92-5.76 1.92z" fill="#1296db" p-id="3256"></path><path d="M881.28 167.04c-1.92 0-3.84-0.64-5.12-1.92-3.2-3.2-3.2-7.68 0-10.88l1.28-1.28c3.2-3.2 7.68-3.2 10.88 0s3.2 7.68 0 10.88l-1.28 1.28c-1.28 1.28-3.2 1.92-5.76 1.92zM897.92 151.04c-1.92 0-3.84-0.64-5.12-1.92-3.2-3.2-3.2-7.68 0-10.88l2.56-2.56c3.2-3.2 7.68-3.2 10.88 0s3.2 7.68 0 10.88l-2.56 2.56c-1.92 1.28-3.84 1.92-5.76 1.92z m17.28-17.28c-1.92 0-3.84-0.64-5.12-1.92-3.2-3.2-3.2-7.68 0-10.88l2.56-2.56c3.2-3.2 7.68-3.2 10.88 0s3.2 7.68 0 10.88l-2.56 2.56c-1.92 1.28-3.84 1.92-5.76 1.92zM932.48 116.48c-1.92 0-3.84-0.64-5.12-1.92-3.2-3.2-3.2-7.68 0-10.88l0.64-1.28c3.2-3.2 7.68-3.2 10.88 0s3.2 7.68 0 10.88l-1.28 1.28c-1.28 0.64-3.2 1.92-5.12 1.92z" fill="#1296db" p-id="3257"></path><path d="M904.32 181.12c-1.92 0-3.84-0.64-5.12-1.92-3.2-3.2-3.2-7.68 0-10.88l1.28-1.28c3.2-3.2 7.68-3.2 10.88 0s3.2 7.68 0 10.88l-1.28 1.28c-1.92 1.28-3.84 1.92-5.76 1.92zM920.32 165.12c-1.92 0-3.84-0.64-5.12-1.92-3.2-3.2-3.2-7.68 0-10.88l2.56-2.56c3.2-3.2 7.68-3.2 10.88 0s3.2 7.68 0 10.88l-2.56 2.56c-1.92 1.28-3.84 1.92-5.76 1.92z m17.92-17.28c-1.92 0-3.84-0.64-5.12-1.92-3.2-3.2-3.2-7.68 0-10.88l2.56-2.56c3.2-3.2 7.68-3.2 10.88 0s3.2 7.68 0 10.88l-2.56 2.56c-1.92 0.64-3.84 1.92-5.76 1.92zM955.52 129.92c-1.92 0-3.84-0.64-5.12-1.92-3.2-3.2-3.2-7.68 0-10.88l1.28-1.28c3.2-3.2 7.68-3.2 10.88 0s3.2 7.68 0 10.88l-1.28 1.28c-1.92 1.28-3.84 1.92-5.76 1.92z" fill="#1296db" p-id="3258"></path><path d="M908.16 288c-1.92 0-3.84-0.64-5.12-1.92-3.2-3.2-3.2-7.68 0-10.88l1.28-1.28c3.2-3.2 7.68-3.2 10.88 0s3.2 7.68 0 10.88l-1.28 1.28c-1.92 1.28-3.84 1.92-5.76 1.92zM924.16 272c-1.92 0-3.84-0.64-5.12-1.92-3.2-3.2-3.2-7.68 0-10.88l2.56-2.56c3.2-3.2 7.68-3.2 10.88 0s3.2 7.68 0 10.88l-2.56 2.56c-1.92 1.28-3.84 1.92-5.76 1.92z m17.28-17.28c-1.92 0-3.84-0.64-5.12-1.92-3.2-3.2-3.2-7.68 0-10.88l2.56-2.56c3.2-3.2 7.68-3.2 10.88 0s3.2 7.68 0 10.88l-2.56 2.56c-1.92 1.28-3.84 1.92-5.76 1.92zM958.72 236.8c-1.92 0-3.84-0.64-5.12-1.92-3.2-3.2-3.2-7.68 0-10.88l1.28-1.28c3.2-3.2 7.68-3.2 10.88 0s3.2 7.68 0 10.88l-1.28 1.28c-1.28 1.28-3.2 1.92-5.76 1.92z" fill="#1296db" p-id="3259"></path><path d="M908.16 325.12c-1.92 0-3.84-0.64-5.12-1.92-3.2-3.2-3.2-7.68 0-10.88l1.28-1.28c3.2-3.2 7.68-3.2 10.88 0s3.2 7.68 0 10.88l-1.28 1.28c-1.92 1.28-3.84 1.92-5.76 1.92zM924.16 309.12c-1.92 0-3.84-0.64-5.12-1.92-3.2-3.2-3.2-7.68 0-10.88l2.56-2.56c3.2-3.2 7.68-3.2 10.88 0s3.2 7.68 0 10.88l-2.56 2.56c-1.92 0.64-3.84 1.92-5.76 1.92z m17.28-17.92c-1.92 0-3.84-0.64-5.12-1.92-3.2-3.2-3.2-7.68 0-10.88l2.56-2.56c3.2-3.2 7.68-3.2 10.88 0s3.2 7.68 0 10.88l-2.56 2.56c-1.92 1.28-3.84 1.92-5.76 1.92zM958.72 273.92c-1.92 0-3.84-0.64-5.12-1.92-3.2-3.2-3.2-7.68 0-10.88l1.28-1.28c3.2-3.2 7.68-3.2 10.88 0s3.2 7.68 0 10.88l-1.28 1.28c-1.28 1.28-3.2 1.92-5.76 1.92z" fill="#1296db" p-id="3260"></path><path d="M908.16 361.6c-1.92 0-3.84-0.64-5.12-1.92-3.2-3.2-3.2-7.68 0-10.88l1.28-1.28c3.2-3.2 7.68-3.2 10.88 0s3.2 7.68 0 10.88l-1.28 1.28c-1.92 1.28-3.84 1.92-5.76 1.92zM924.16 345.6c-1.92 0-3.84-0.64-5.12-1.92-3.2-3.2-3.2-7.68 0-10.88l2.56-2.56c3.2-3.2 7.68-3.2 10.88 0s3.2 7.68 0 10.88l-2.56 2.56c-1.92 1.28-3.84 1.92-5.76 1.92z m17.28-17.28c-1.92 0-3.84-0.64-5.12-1.92-3.2-3.2-3.2-7.68 0-10.88l2.56-2.56c3.2-3.2 7.68-3.2 10.88 0s3.2 7.68 0 10.88l-2.56 2.56c-1.92 1.28-3.84 1.92-5.76 1.92zM958.72 311.04c-1.92 0-3.84-0.64-5.12-1.92-3.2-3.2-3.2-7.68 0-10.88l1.28-1.28c3.2-3.2 7.68-3.2 10.88 0s3.2 7.68 0 10.88l-1.28 1.28c-1.28 1.28-3.2 1.92-5.76 1.92z" fill="#1296db" p-id="3261"></path><path d="M617.6 376.32c-1.92 0-3.84-0.64-5.12-1.92-3.2-3.2-3.2-7.68 0-10.88l1.28-1.28c3.2-3.2 7.68-3.2 10.88 0s3.2 7.68 0 10.88l-1.28 1.28c-1.92 0.64-3.84 1.92-5.76 1.92zM633.6 360.32c-1.92 0-3.84-0.64-5.12-1.92-3.2-3.2-3.2-7.68 0-10.88l2.56-2.56c3.2-3.2 7.68-3.2 10.88 0s3.2 7.68 0 10.88l-2.56 2.56c-1.92 0.64-3.84 1.92-5.76 1.92z m17.28-17.92c-1.92 0-3.84-0.64-5.12-1.92-3.2-3.2-3.2-7.68 0-10.88l2.56-2.56c3.2-3.2 7.68-3.2 10.88 0s3.2 7.68 0 10.88l-2.56 2.56c-1.92 1.28-3.84 1.92-5.76 1.92zM668.16 325.12c-1.92 0-3.84-0.64-5.12-1.92-3.2-3.2-3.2-7.68 0-10.88l1.28-1.28c3.2-3.2 7.68-3.2 10.88 0s3.2 7.68 0 10.88l-1.28 1.28c-1.92 1.28-3.84 1.92-5.76 1.92z" fill="#1296db" p-id="3262"></path><path d="M617.6 412.8c-1.92 0-3.84-0.64-5.12-1.92-3.2-3.2-3.2-7.68 0-10.88l1.28-1.28c3.2-3.2 7.68-3.2 10.88 0s3.2 7.68 0 10.88l-1.28 1.28c-1.92 1.28-3.84 1.92-5.76 1.92zM633.6 396.8c-1.92 0-3.84-0.64-5.12-1.92-3.2-3.2-3.2-7.68 0-10.88l2.56-2.56c3.2-3.2 7.68-3.2 10.88 0s3.2 7.68 0 10.88l-2.56 2.56c-1.92 1.28-3.84 1.92-5.76 1.92z m17.28-17.28c-1.92 0-3.84-0.64-5.12-1.92-3.2-3.2-3.2-7.68 0-10.88l2.56-2.56c3.2-3.2 7.68-3.2 10.88 0s3.2 7.68 0 10.88l-2.56 2.56c-1.92 1.28-3.84 1.92-5.76 1.92zM668.16 362.24c-1.92 0-3.84-0.64-5.12-1.92-3.2-3.2-3.2-7.68 0-10.88l1.28-1.28c3.2-3.2 7.68-3.2 10.88 0s3.2 7.68 0 10.88l-1.28 1.28c-1.92 0.64-3.84 1.92-5.76 1.92z" fill="#1296db" p-id="3263"></path><path d="M617.6 449.92c-1.92 0-3.84-0.64-5.12-1.92-3.2-3.2-3.2-7.68 0-10.88l1.28-1.28c3.2-3.2 7.68-3.2 10.88 0s3.2 7.68 0 10.88l-1.28 1.28c-1.92 1.28-3.84 1.92-5.76 1.92zM633.6 433.92c-1.92 0-3.84-0.64-5.12-1.92-3.2-3.2-3.2-7.68 0-10.88l2.56-2.56c3.2-3.2 7.68-3.2 10.88 0s3.2 7.68 0 10.88l-2.56 2.56c-1.92 1.28-3.84 1.92-5.76 1.92z m17.28-17.92c-1.92 0-3.84-0.64-5.12-1.92-3.2-3.2-3.2-7.68 0-10.88l2.56-2.56c3.2-3.2 7.68-3.2 10.88 0s3.2 7.68 0 10.88l-2.56 2.56c-1.92 1.28-3.84 1.92-5.76 1.92zM668.16 398.72c-1.92 0-3.84-0.64-5.12-1.92-3.2-3.2-3.2-7.68 0-10.88l1.28-1.28c3.2-3.2 7.68-3.2 10.88 0s3.2 7.68 0 10.88l-1.28 1.28c-1.92 1.28-3.84 1.92-5.76 1.92z" fill="#1296db" p-id="3264"></path><path d="M617.6 486.4c-1.92 0-3.84-0.64-5.12-1.92-3.2-3.2-3.2-7.68 0-10.88l1.28-1.28c3.2-3.2 7.68-3.2 10.88 0s3.2 7.68 0 10.88l-1.28 1.28c-1.92 1.28-3.84 1.92-5.76 1.92zM633.6 470.4c-1.92 0-3.84-0.64-5.12-1.92-3.2-3.2-3.2-7.68 0-10.88l2.56-2.56c3.2-3.2 7.68-3.2 10.88 0s3.2 7.68 0 10.88l-2.56 2.56c-1.92 1.28-3.84 1.92-5.76 1.92z m17.28-17.28c-1.92 0-3.84-0.64-5.12-1.92-3.2-3.2-3.2-7.68 0-10.88l2.56-2.56c3.2-3.2 7.68-3.2 10.88 0s3.2 7.68 0 10.88l-2.56 2.56c-1.92 1.28-3.84 1.92-5.76 1.92zM668.16 435.84c-1.92 0-3.84-0.64-5.12-1.92-3.2-3.2-3.2-7.68 0-10.88l1.28-1.28c3.2-3.2 7.68-3.2 10.88 0s3.2 7.68 0 10.88l-1.28 1.28c-1.92 1.28-3.84 1.92-5.76 1.92z" fill="#1296db" p-id="3265"></path><path d="M617.6 523.52c-1.92 0-3.84-0.64-5.12-1.92-3.2-3.2-3.2-7.68 0-10.88l1.28-1.28c3.2-3.2 7.68-3.2 10.88 0s3.2 7.68 0 10.88l-1.28 1.28c-1.92 1.28-3.84 1.92-5.76 1.92zM633.6 507.52c-1.92 0-3.84-0.64-5.12-1.92-3.2-3.2-3.2-7.68 0-10.88l2.56-2.56c3.2-3.2 7.68-3.2 10.88 0s3.2 7.68 0 10.88l-2.56 2.56c-1.92 1.28-3.84 1.92-5.76 1.92z m17.28-17.28c-1.92 0-3.84-0.64-5.12-1.92-3.2-3.2-3.2-7.68 0-10.88l2.56-2.56c3.2-3.2 7.68-3.2 10.88 0s3.2 7.68 0 10.88l-2.56 2.56c-1.92 0.64-3.84 1.92-5.76 1.92zM668.16 472.32c-1.92 0-3.84-0.64-5.12-1.92-3.2-3.2-3.2-7.68 0-10.88l1.28-1.28c3.2-3.2 7.68-3.2 10.88 0s3.2 7.68 0 10.88l-1.28 1.28c-1.92 1.28-3.84 1.92-5.76 1.92z" fill="#1296db" p-id="3266"></path><path d="M617.6 339.2c-1.92 0-3.84-0.64-5.12-1.92-3.2-3.2-3.2-7.68 0-10.88l1.28-1.28c3.2-3.2 7.68-3.2 10.88 0s3.2 7.68 0 10.88l-1.28 1.28c-1.92 1.28-3.84 1.92-5.76 1.92zM631.68 325.12c-1.92 0-3.84-0.64-5.12-1.92-3.2-3.2-3.2-7.68 0-10.88l1.28-1.28c3.2-3.2 7.68-3.2 10.88 0s3.2 7.68 0 10.88l-1.28 1.28c-1.92 1.28-3.84 1.92-5.76 1.92z" fill="#1296db" p-id="3267"></path><path d="M617.6 597.12c-1.92 0-3.84-0.64-5.12-1.92-3.2-3.2-3.2-7.68 0-10.88l1.28-1.28c3.2-3.2 7.68-3.2 10.88 0s3.2 7.68 0 10.88l-1.92 1.28c-1.28 1.28-3.2 1.92-5.12 1.92zM633.6 581.12c-1.92 0-3.84-0.64-5.12-1.92-3.2-3.2-3.2-7.68 0-10.88l2.56-2.56c3.2-3.2 7.68-3.2 10.88 0s3.2 7.68 0 10.88l-2.56 2.56c-1.92 1.28-3.84 1.92-5.76 1.92z m17.28-17.28c-1.92 0-3.84-0.64-5.12-1.92-3.2-3.2-3.2-7.68 0-10.88l2.56-2.56c3.2-3.2 7.68-3.2 10.88 0s3.2 7.68 0 10.88l-2.56 2.56c-1.92 1.28-3.84 1.92-5.76 1.92zM668.16 546.56c-1.92 0-3.84-0.64-5.12-1.92-3.2-3.2-3.2-7.68 0-10.88l1.28-1.28c3.2-3.2 7.68-3.2 10.88 0s3.2 7.68 0 10.88l-1.28 1.28c-1.92 0.64-3.84 1.92-5.76 1.92z" fill="#1296db" p-id="3268"></path><path d="M617.6 634.24c-1.92 0-3.84-0.64-5.12-1.92-3.2-3.2-3.2-7.68 0-10.88l1.28-1.28c3.2-3.2 7.68-3.2 10.88 0s3.2 7.68 0 10.88l-1.28 1.28c-1.92 1.28-3.84 1.92-5.76 1.92zM633.6 618.24c-1.92 0-3.84-0.64-5.12-1.92-3.2-3.2-3.2-7.68 0-10.88l2.56-2.56c3.2-3.2 7.68-3.2 10.88 0s3.2 7.68 0 10.88l-2.56 2.56c-1.92 1.28-3.84 1.92-5.76 1.92z m17.28-17.92c-1.92 0-3.84-0.64-5.12-1.92-3.2-3.2-3.2-7.68 0-10.88l2.56-2.56c3.2-3.2 7.68-3.2 10.88 0s3.2 7.68 0 10.88l-2.56 2.56c-1.92 1.28-3.84 1.92-5.76 1.92zM668.16 583.04c-1.92 0-3.84-0.64-5.12-1.92-3.2-3.2-3.2-7.68 0-10.88l1.28-1.28c3.2-3.2 7.68-3.2 10.88 0s3.2 7.68 0 10.88l-1.28 1.28c-1.92 1.28-3.84 1.92-5.76 1.92z" fill="#1296db" p-id="3269"></path><path d="M617.6 670.72c-1.92 0-3.84-0.64-5.12-1.92-3.2-3.2-3.2-7.68 0-10.88l1.28-1.28c3.2-3.2 7.68-3.2 10.88 0s3.2 7.68 0 10.88l-1.28 1.28c-1.92 1.28-3.84 1.92-5.76 1.92zM633.6 654.72c-1.92 0-3.84-0.64-5.12-1.92-3.2-3.2-3.2-7.68 0-10.88l2.56-2.56c3.2-3.2 7.68-3.2 10.88 0s3.2 7.68 0 10.88l-2.56 2.56c-1.92 1.28-3.84 1.92-5.76 1.92z m17.28-17.28c-1.92 0-3.84-0.64-5.12-1.92-3.2-3.2-3.2-7.68 0-10.88l2.56-2.56c3.2-3.2 7.68-3.2 10.88 0s3.2 7.68 0 10.88l-2.56 2.56c-1.92 1.28-3.84 1.92-5.76 1.92zM668.16 620.16c-1.92 0-3.84-0.64-5.12-1.92-3.2-3.2-3.2-7.68 0-10.88l1.28-1.28c3.2-3.2 7.68-3.2 10.88 0s3.2 7.68 0 10.88l-1.28 1.28c-1.92 1.28-3.84 1.92-5.76 1.92z" fill="#1296db" p-id="3270"></path><path d="M648.96 860.8c-1.92 0-3.84-0.64-5.12-1.92-3.2-3.2-3.2-7.68 0-10.88l1.28-1.28c3.2-3.2 7.68-3.2 10.88 0s3.2 7.68 0 10.88l-1.28 1.28c-1.92 1.28-3.84 1.92-5.76 1.92zM664.96 844.8c-1.92 0-3.84-0.64-5.12-1.92-3.2-3.2-3.2-7.68 0-10.88l2.56-2.56c3.2-3.2 7.68-3.2 10.88 0s3.2 7.68 0 10.88l-2.56 2.56c-1.92 1.28-3.84 1.92-5.76 1.92z m17.28-17.28c-1.92 0-3.84-0.64-5.12-1.92-3.2-3.2-3.2-7.68 0-10.88l2.56-2.56c3.2-3.2 7.68-3.2 10.88 0s3.2 7.68 0 10.88l-2.56 2.56c-1.92 0.64-3.84 1.92-5.76 1.92zM699.52 809.6c-1.92 0-3.84-0.64-5.12-1.92-3.2-3.2-3.2-7.68 0-10.88l1.28-1.28c3.2-3.2 7.68-3.2 10.88 0s3.2 7.68 0 10.88l-1.28 1.28c-1.92 1.28-3.84 1.92-5.76 1.92z" fill="#1296db" p-id="3271"></path><path d="M617.6 707.84c-1.92 0-3.84-0.64-5.12-1.92-3.2-3.2-3.2-7.68 0-10.88l1.28-1.28c3.2-3.2 7.68-3.2 10.88 0s3.2 7.68 0 10.88l-1.28 1.28c-1.92 1.28-3.84 1.92-5.76 1.92zM633.6 691.84c-1.92 0-3.84-0.64-5.12-1.92-3.2-3.2-3.2-7.68 0-10.88l2.56-2.56c3.2-3.2 7.68-3.2 10.88 0s3.2 7.68 0 10.88l-2.56 2.56c-1.92 1.28-3.84 1.92-5.76 1.92z m17.28-17.28c-1.92 0-3.84-0.64-5.12-1.92-3.2-3.2-3.2-7.68 0-10.88l2.56-2.56c3.2-3.2 7.68-3.2 10.88 0s3.2 7.68 0 10.88l-2.56 2.56c-1.92 0.64-3.84 1.92-5.76 1.92zM668.16 656.64c-1.92 0-3.84-0.64-5.12-1.92-3.2-3.2-3.2-7.68 0-10.88l1.28-1.28c3.2-3.2 7.68-3.2 10.88 0s3.2 7.68 0 10.88l-1.28 1.28c-1.92 1.28-3.84 1.92-5.76 1.92z" fill="#1296db" p-id="3272"></path><path d="M621.44 814.08c-1.92 0-3.84-0.64-5.12-1.92-3.2-3.2-3.2-7.68 0-10.88l1.28-1.28c3.2-3.2 7.68-3.2 10.88 0s3.2 7.68 0 10.88l-1.28 1.28c-1.92 1.28-3.84 1.92-5.76 1.92zM638.08 798.08c-1.92 0-3.84-0.64-5.12-1.92-3.2-3.2-3.2-7.68 0-10.88l2.56-2.56c3.2-3.2 7.68-3.2 10.88 0s3.2 7.68 0 10.88l-2.56 2.56c-1.92 1.28-3.84 1.92-5.76 1.92z m17.28-17.28c-1.92 0-3.84-0.64-5.12-1.92-3.2-3.2-3.2-7.68 0-10.88l2.56-2.56c3.2-3.2 7.68-3.2 10.88 0s3.2 7.68 0 10.88l-2.56 2.56c-1.92 1.28-3.84 1.92-5.76 1.92zM672.64 763.52c-1.92 0-3.84-0.64-5.12-1.92-3.2-3.2-3.2-7.68 0-10.88l1.28-1.28c3.2-3.2 7.68-3.2 10.88 0s3.2 7.68 0 10.88l-1.28 1.28c-1.92 0.64-3.84 1.92-5.76 1.92z" fill="#1296db" p-id="3273"></path><path d="M617.6 744.32c-1.92 0-3.84-0.64-5.12-1.92-3.2-3.2-3.2-7.68 0-10.88l1.28-1.28c3.2-3.2 7.68-3.2 10.88 0s3.2 7.68 0 10.88l-1.28 1.28c-1.92 1.28-3.84 1.92-5.76 1.92zM633.6 728.32c-1.92 0-3.84-0.64-5.12-1.92-3.2-3.2-3.2-7.68 0-10.88l2.56-2.56c3.2-3.2 7.68-3.2 10.88 0s3.2 7.68 0 10.88l-2.56 2.56c-1.92 1.28-3.84 1.92-5.76 1.92z m17.28-17.28c-1.92 0-3.84-0.64-5.12-1.92-3.2-3.2-3.2-7.68 0-10.88l2.56-2.56c3.2-3.2 7.68-3.2 10.88 0s3.2 7.68 0 10.88l-2.56 2.56c-1.92 1.28-3.84 1.92-5.76 1.92zM668.16 693.76c-1.92 0-3.84-0.64-5.12-1.92-3.2-3.2-3.2-7.68 0-10.88l1.28-1.28c3.2-3.2 7.68-3.2 10.88 0s3.2 7.68 0 10.88l-1.28 1.28c-1.92 1.28-3.84 1.92-5.76 1.92z" fill="#1296db" p-id="3274"></path><path d="M727.68 924.16c-1.92 0-3.84-0.64-5.12-1.92-3.2-3.2-3.2-7.68 0-10.88l1.28-1.28c3.2-3.2 7.68-3.2 10.88 0s3.2 7.68 0 10.88l-1.28 1.28c-1.92 1.28-3.84 1.92-5.76 1.92zM743.68 908.16c-1.92 0-3.84-0.64-5.12-1.92-3.2-3.2-3.2-7.68 0-10.88l2.56-2.56c3.2-3.2 7.68-3.2 10.88 0s3.2 7.68 0 10.88l-2.56 2.56c-1.92 1.28-3.84 1.92-5.76 1.92z m17.28-17.28c-1.92 0-3.84-0.64-5.12-1.92-3.2-3.2-3.2-7.68 0-10.88l2.56-2.56c3.2-3.2 7.68-3.2 10.88 0s3.2 7.68 0 10.88l-2.56 2.56c-1.92 1.28-3.84 1.92-5.76 1.92zM778.88 872.96c-1.92 0-3.84-0.64-5.12-1.92-3.2-3.2-3.2-7.68 0-10.88l1.28-1.28c3.2-3.2 7.68-3.2 10.88 0s3.2 7.68 0 10.88l-1.28 1.28c-1.92 1.28-3.84 1.92-5.76 1.92z" fill="#1296db" p-id="3275"></path><path d="M694.4 888.96c-1.92 0-3.84-0.64-5.12-1.92-3.2-3.2-3.2-7.68 0-10.88l1.28-1.28c3.2-3.2 7.68-3.2 10.88 0s3.2 7.68 0 10.88l-1.28 1.28c-1.92 1.28-3.84 1.92-5.76 1.92zM710.4 872.96c-1.92 0-3.84-0.64-5.12-1.92-3.2-3.2-3.2-7.68 0-10.88l2.56-2.56c3.2-3.2 7.68-3.2 10.88 0s3.2 7.68 0 10.88l-2.56 2.56c-1.92 1.28-3.84 1.92-5.76 1.92z m17.28-17.92c-1.92 0-3.84-0.64-5.12-1.92-3.2-3.2-3.2-7.68 0-10.88l2.56-2.56c3.2-3.2 7.68-3.2 10.88 0s3.2 7.68 0 10.88l-2.56 2.56c-1.92 1.28-3.84 1.92-5.76 1.92zM745.6 837.76c-1.92 0-3.84-0.64-5.12-1.92-3.2-3.2-3.2-7.68 0-10.88l1.28-1.28c3.2-3.2 7.68-3.2 10.88 0s3.2 7.68 0 10.88l-1.28 1.28c-1.92 1.28-3.84 1.92-5.76 1.92z" fill="#1296db" p-id="3276"></path><path d="M669.44 877.44c-1.92 0-3.84-0.64-5.12-1.92-3.2-3.2-3.2-7.68 0-10.88l1.28-1.28c3.2-3.2 7.68-3.2 10.88 0s3.2 7.68 0 10.88l-1.28 1.28c-1.92 0.64-3.84 1.92-5.76 1.92zM685.44 861.44c-1.92 0-3.84-0.64-5.12-1.92-3.2-3.2-3.2-7.68 0-10.88l2.56-2.56c3.2-3.2 7.68-3.2 10.88 0s3.2 7.68 0 10.88l-2.56 2.56c-1.92 0.64-3.84 1.92-5.76 1.92z m17.28-17.92c-1.92 0-3.84-0.64-5.12-1.92-3.2-3.2-3.2-7.68 0-10.88l2.56-2.56c3.2-3.2 7.68-3.2 10.88 0s3.2 7.68 0 10.88l-2.56 2.56c-1.92 1.28-3.84 1.92-5.76 1.92zM720 826.24c-1.92 0-3.84-0.64-5.12-1.92-3.2-3.2-3.2-7.68 0-10.88l1.28-1.28c3.2-3.2 7.68-3.2 10.88 0s3.2 7.68 0 10.88l-1.28 1.28c-1.92 1.28-3.84 1.92-5.76 1.92z" fill="#1296db" p-id="3277"></path><path d="M632.96 839.68c-1.92 0-3.84-0.64-5.12-1.92-3.2-3.2-3.2-7.68 0-10.88l1.28-1.28c3.2-3.2 7.68-3.2 10.88 0s3.2 7.68 0 10.88l-1.28 1.28c-1.92 1.28-3.84 1.92-5.76 1.92zM648.96 823.68c-1.92 0-3.84-0.64-5.12-1.92-3.2-3.2-3.2-7.68 0-10.88l2.56-2.56c3.2-3.2 7.68-3.2 10.88 0s3.2 7.68 0 10.88l-2.56 2.56c-1.92 1.28-3.84 1.92-5.76 1.92z m17.28-17.28c-1.92 0-3.84-0.64-5.12-1.92-3.2-3.2-3.2-7.68 0-10.88l2.56-2.56c3.2-3.2 7.68-3.2 10.88 0s3.2 7.68 0 10.88l-2.56 2.56c-1.92 1.28-3.84 1.92-5.76 1.92zM683.52 789.12c-1.92 0-3.84-0.64-5.12-1.92-3.2-3.2-3.2-7.68 0-10.88l1.28-1.28c3.2-3.2 7.68-3.2 10.88 0s3.2 7.68 0 10.88l-1.28 1.28c-1.92 1.28-3.84 1.92-5.76 1.92z" fill="#1296db" p-id="3278"></path><path d="M617.6 560.64c-1.92 0-3.84-0.64-5.12-1.92-3.2-3.2-3.2-7.68 0-10.88l1.28-1.28c3.2-3.2 7.68-3.2 10.88 0s3.2 7.68 0 10.88l-1.28 1.28c-1.92 0.64-3.84 1.92-5.76 1.92zM633.6 544c-1.92 0-3.84-0.64-5.12-1.92-3.2-3.2-3.2-7.68 0-10.88l2.56-2.56c3.2-3.2 7.68-3.2 10.88 0s3.2 7.68 0 10.88l-2.56 2.56c-1.92 1.28-3.84 1.92-5.76 1.92z m17.28-17.28c-1.92 0-3.84-0.64-5.12-1.92-3.2-3.2-3.2-7.68 0-10.88l2.56-2.56c3.2-3.2 7.68-3.2 10.88 0s3.2 7.68 0 10.88l-2.56 2.56c-1.92 1.28-3.84 1.92-5.76 1.92zM668.16 509.44c-1.92 0-3.84-0.64-5.12-1.92-3.2-3.2-3.2-7.68 0-10.88l1.28-1.28c3.2-3.2 7.68-3.2 10.88 0s3.2 7.68 0 10.88l-1.28 1.28c-1.92 1.28-3.84 1.92-5.76 1.92z" fill="#1296db" p-id="3279"></path><path d="M617.6 781.44c-1.92 0-3.84-0.64-5.12-1.92-3.2-3.2-3.2-7.68 0-10.88l1.28-1.28c3.2-3.2 7.68-3.2 10.88 0s3.2 7.68 0 10.88l-1.28 1.28c-1.92 1.28-3.84 1.92-5.76 1.92zM633.6 765.44c-1.92 0-3.84-0.64-5.12-1.92-3.2-3.2-3.2-7.68 0-10.88l2.56-2.56c3.2-3.2 7.68-3.2 10.88 0s3.2 7.68 0 10.88l-2.56 2.56c-1.92 1.28-3.84 1.92-5.76 1.92z m17.28-17.28c-1.92 0-3.84-0.64-5.12-1.92-3.2-3.2-3.2-7.68 0-10.88l2.56-2.56c3.2-3.2 7.68-3.2 10.88 0s3.2 7.68 0 10.88l-2.56 2.56c-1.92 1.28-3.84 1.92-5.76 1.92zM668.16 730.88c-1.92 0-3.84-0.64-5.12-1.92-3.2-3.2-3.2-7.68 0-10.88l1.28-1.28c3.2-3.2 7.68-3.2 10.88 0s3.2 7.68 0 10.88l-1.28 1.28c-1.92 0.64-3.84 1.92-5.76 1.92z" fill="#1296db" p-id="3280"></path><path d="M359.68 842.24c-4.48 0-7.68-3.2-7.68-7.68s3.2-7.68 7.68-7.68c6.4 0 12.16-0.64 18.56-1.92 3.84-0.64 8.32 1.92 8.96 6.4 0.64 3.84-1.92 8.32-6.4 8.96-6.4 1.28-14.08 1.92-21.12 1.92zM779.52 904.96c-4.48 0-7.68-3.2-7.68-7.68v-55.68c-61.44-3.84-110.08-55.04-110.08-117.76V316.8c0-4.48 3.2-7.68 7.68-7.68s7.68 3.2 7.68 7.68v407.68c0 56.32 46.08 102.4 102.4 102.4 4.48 0 7.68 3.2 7.68 7.68v63.36c0 3.84-3.2 7.04-7.68 7.04zM960 341.76c-4.48 0-7.68-3.2-7.68-7.68v-198.4c0-10.88-8.96-20.48-20.48-20.48H207.36c-5.76 0-11.52 2.56-15.36 7.04-2.56 3.2-7.68 3.2-10.88 0.64s-3.2-7.68-0.64-10.88c7.04-7.68 16.64-12.16 26.24-12.16h725.12c19.84 0 35.2 16 35.2 35.2v198.4c0.64 4.48-2.56 8.32-7.04 8.32z" fill="#1296db" p-id="3281"></path><path d="M691.2 993.92H271.36c-4.48 0-7.68-3.2-7.68-7.68v-63.36c0-4.48 3.2-7.68 7.68-7.68 56.32 0 102.4-46.08 102.4-102.4V341.12c0-9.6-7.68-16.64-16.64-16.64H279.04c-63.36 0-118.4 43.52-132.48 104.96-0.64 3.2-3.84 5.76-7.68 5.76h-48c-4.48 0-7.68-3.2-7.68-7.68V224c0-19.84 16-35.2 35.2-35.2h725.12c19.84 0 35.2 16 35.2 35.2v203.52c0 4.48-3.2 7.68-7.68 7.68h-48c-3.2 0-6.4-2.56-7.68-5.76-14.72-62.08-69.12-104.96-132.48-104.96H605.44c-9.6 0-16.64 7.68-16.64 16.64V812.8c0 56.32 46.08 102.4 102.4 102.4 4.48 0 7.68 3.2 7.68 7.68v63.36c0 1.92-0.64 3.84-1.92 5.12-1.92 1.28-3.84 2.56-5.76 2.56z m-412.16-15.36h404.48v-48.64c-61.44-3.84-110.08-55.04-110.08-117.76V341.12c0-17.92 14.08-32 32-32h78.08c68.48 0 128 45.44 145.92 110.72h34.56V224c0-10.88-8.96-20.48-20.48-20.48H119.04c-10.88 0-20.48 8.96-20.48 20.48v196.48h34.56c17.92-65.92 77.44-110.72 145.92-110.72h78.08c17.92 0 32 14.08 32 32V812.8c0 62.08-48.64 113.28-110.08 117.76v48z" fill="#1296db" p-id="3282"></path><path d="M271.36 930.56c-1.92 0-3.84-0.64-5.12-1.92-3.2-3.2-3.2-7.68 0-10.88l88.32-88.32c3.2-3.2 7.68-3.2 10.88 0s3.2 7.68 0 10.88L277.12 928c-1.92 1.92-3.84 2.56-5.76 2.56zM138.88 435.2c-1.92 0-3.84-0.64-5.12-1.92-3.2-3.2-3.2-7.68 0-10.88l87.04-87.04 3.84-13.44c1.28-3.84 5.76-5.76 9.6-4.48 3.84 1.28 5.76 5.76 4.48 9.6-1.28 4.48-3.2 8.96-3.84 14.08l-1.92 3.84-88.96 87.68c-1.28 1.92-3.2 2.56-5.12 2.56zM871.68 435.2c-1.92 0-3.84-0.64-5.12-1.92-3.2-3.2-3.2-7.68 0-10.88l88.32-88.32c3.2-3.2 7.68-3.2 10.88 0s3.2 7.68 0 10.88L876.8 432.64c-1.28 1.92-3.2 2.56-5.12 2.56zM691.2 993.92c-1.92 0-3.84-0.64-5.12-1.92-3.2-3.2-3.2-7.68 0-10.88l88.32-88.32c3.2-3.2 7.68-3.2 10.88 0s3.2 7.68 0 10.88L696.96 992c-1.92 0.64-3.84 1.92-5.76 1.92zM691.2 930.56c-1.92 0-3.84-0.64-5.12-1.92-3.2-3.2-3.2-7.68 0-10.88l88.32-88.32c3.2-3.2 7.68-3.2 10.88 0s3.2 7.68 0 10.88L696.32 928c-1.28 1.92-3.2 2.56-5.12 2.56zM99.2 211.84c-1.92 0-3.84-0.64-5.12-1.92-3.2-3.2-3.2-7.68 0-10.88l87.68-87.68c3.2-3.2 7.68-3.2 10.88 0s3.2 7.68 0 10.88L104.32 209.92c-1.28 1.28-3.2 1.92-5.12 1.92z" fill="#1296db" p-id="3283"></path></svg>
