<?xml version="1.0" standalone="no"?><!DOCTYPE svg PUBLIC "-//W3C//DTD SVG 1.1//EN" "http://www.w3.org/Graphics/SVG/1.1/DTD/svg11.dtd"><svg t="1676879780268" class="icon" viewBox="0 0 1463 1024" version="1.1" xmlns="http://www.w3.org/2000/svg" p-id="1736" xmlns:xlink="http://www.w3.org/1999/xlink" width="285.7421875" height="200"><path d="M1165.036084 0H287.141913a73.474548 73.474548 0 0 0-73.052281 73.052281v877.894171a73.052281 73.052281 0 0 0 73.052281 73.052281h877.894171a72.630013 72.630013 0 0 0 73.052281-73.052281V73.052281A73.052281 73.052281 0 0 0 1165.036084 0zM287.141913 942.078835s59.961988-364.416869 179.463695-364.416869 105.144612 101.766472 195.087594 101.766472 126.680256-313.744767 247.448766-313.744767 255.894116 576.395163 255.894116 576.395164z" fill="#A6C5F6" p-id="1737"></path><path d="M146.104562 219.57911H72.630013A73.052281 73.052281 0 0 0 0 292.209123v439.580487a73.052281 73.052281 0 0 0 72.630013 72.630013h73.474549zM1316.630124 219.57911h73.896816a73.052281 73.052281 0 0 1 72.630013 72.630013v439.580487a73.052281 73.052281 0 0 1-72.630013 72.630013h-73.896816zM475.473226 219.57911a109.789555 109.789555 0 1 1-109.789555 109.789555 109.367287 109.367287 0 0 1 109.789555-109.789555z" fill="#4E8CEE" p-id="1738"></path><path d="M475.473226 459.849328a130.902931 130.902931 0 1 1 130.902931-130.480663 130.902931 130.902931 0 0 1-130.902931 130.480663z m0-219.156842a88.676179 88.676179 0 1 0 88.676179 88.676179 88.676179 88.676179 0 0 0-88.676179-88.676179z" fill="#FFFFFF" p-id="1739"></path></svg>