<?xml version="1.0" standalone="no"?><!DOCTYPE svg PUBLIC "-//W3C//DTD SVG 1.1//EN" "http://www.w3.org/Graphics/SVG/1.1/DTD/svg11.dtd"><svg class="icon" width="200px" height="200.00px" viewBox="0 0 1024 1024" version="1.1" xmlns="http://www.w3.org/2000/svg"><path d="M544 480h-64c-52.928 0-96 43.072-96 96v384a32 32 0 0 0 32 32h192a32 32 0 0 0 32-32V576c0-52.928-43.072-96-96-96M608 32h-192a32 32 0 0 0-32 32v96c0 70.592 57.408 128 128 128s128-57.408 128-128V64a32 32 0 0 0-32-32" fill="#1BB5EC" /><path d="M224 928H96v-96c0-17.632 14.368-32 32-32h64c17.632 0 32 14.368 32 32v96z m-32-192H128c-52.928 0-96 43.072-96 96v128a32 32 0 0 0 32 32h192a32 32 0 0 0 32-32v-128c0-52.928-43.072-96-96-96zM576 928h-128V576c0-17.632 14.368-32 32-32h64c17.632 0 32 14.368 32 32v352z m-32-448h-64c-52.928 0-96 43.072-96 96v384a32 32 0 0 0 32 32h192a32 32 0 0 0 32-32V576c0-52.928-43.072-96-96-96zM928 928h-128v-224c0-17.632 14.368-32 32-32h64c17.632 0 32 14.368 32 32v224z m-32-320h-64c-52.928 0-96 43.072-96 96v256a32 32 0 0 0 32 32h192a32 32 0 0 0 32-32v-256c0-52.928-43.072-96-96-96zM637.536 184.448C639.04 176.512 640 168.384 640 160V128h32c0 24.608-14.08 45.76-34.464 56.448zM512 224c-35.296 0-64-28.704-64-64V96h128v64c0 35.296-28.704 64-64 64z m-160-96h32v32c0 8.384 0.928 16.512 2.464 24.448A63.808 63.808 0 0 1 352 128z m384-32a32 32 0 0 0-32-32h-64a32 32 0 0 0-32-32h-192a32 32 0 0 0-32 32h-64a32 32 0 0 0-32 32v32c0 70.592 57.44 128 128 128a30.496 30.496 0 0 0 9.824-1.984 127.36 127.36 0 0 0 54.176 29.44V320a32 32 0 0 0 0 64h64a32 32 0 1 0 0-64V283.456a127.168 127.168 0 0 0 54.176-29.44A30.496 30.496 0 0 0 608 256c70.592 0 128-57.408 128-128V96z" fill="#364F6B" /></svg>