<?xml version="1.0" standalone="no"?><!DOCTYPE svg PUBLIC "-//W3C//DTD SVG 1.1//EN" "http://www.w3.org/Graphics/SVG/1.1/DTD/svg11.dtd"><svg t="1679996553262" class="icon" viewBox="0 0 1024 1024" version="1.1" xmlns="http://www.w3.org/2000/svg" p-id="11571" xmlns:xlink="http://www.w3.org/1999/xlink" width="200" height="200"><path d="M76.032 391.73V194.678l258.718-47.874 209.48 40.218c-14.42 2.936-29.522 8.652-42.84 19.61-16.044 13.266-25.012 30.674-32.93 46.038-6.134 11.902-11.902 23.124-19.664 29.626-8.284 6.922-19.402 9.858-37.124 9.858-8.704 0-17.934-0.682-27.738-1.416-10.592-0.786-21.5-1.626-32.562-1.626-17.042 0-30.99 1.94-43.836 6.084-14.892 4.772-26.218 12.48-33.664 22.914-14.158 19.874-10.854 43.574-8.442 60.878 0.472 3.618 1.154 8.232 1.416 12.166-2.622-2.936-5.452-7.026-6.974-11.642a266.644 266.644 0 0 1-3.304-10.906c-5.82-19.82-13.79-47.034-39.798-60.092-8.232-4.142-17.198-6.292-26.69-6.292-19.296 0-39.432 8.81-55.32 24.278-9.438 9.282-16.464 19.296-23.228 28.996-4.51 6.398-8.706 12.426-13.214 17.564-6.082 6.978-13.476 13.218-22.286 18.67zM904.62 159.65v594.516c-25.536-0.314-49.448-1.784-69.688-11.536-10.382-5.034-20.294-12.532-30.884-20.45-5.506-4.142-11.222-8.442-17.198-12.584-23.7-16.204-45.62-24.12-67.012-24.12a77.04 77.04 0 0 0-8.496 0.472c-32.72 3.408-65.596 31.934-62.292 68.9 1.73 19.82 12.846 34.188 21.76 45.724 5.192 6.712 10.592 13.634 11.064 18.09 0.156 1.73-0.682 3.672-2.57 5.82-4.562 5.138-12.9 8.862-20.346 9.018h-1.048c-13.528 0-28.158-5.506-43.732-11.378-5.558-2.046-11.116-4.142-16.726-6.084-9.806-3.302-29.154-8.862-48.66-8.862-26.166 0-41.214 10.016-49.184 18.352-12.952 13.476-15.888 29.888-14.524 45.724l-150.334-28.892-258.718 47.93V660.516c3.198 0.316 6.45 0.578 9.752 0.734 2.15 0.158 4.3 0.21 6.45 0.262 2.15 0.052 4.352 0.104 6.554 0.104 33.926 0 71.05-6.606 110.43-19.664 35.446-11.746 85.208-32.614 108.176-77.972 1.154-2.36 2.254-4.72 3.356-7.132 1.574-3.512 3.986-8.756 5.348-9.91 0.838-0.578 3.722-1.574 13.738-1.73h3.146c32.3 0 79.23 7.34 119.5 42.42 0.052 0.054 0.158 0.104 0.21 0.158 1.888 1.888 3.828 3.46 5.924 4.772 21.918 16.464 48.87 23.072 82.168 31.252 8.18 2.044 16.99 4.196 26.428 6.66 13.528 3.566 32.72 5.662 51.23 5.662 33.978 0 58.886-6.344 74.144-18.982 0.368-0.262 0.734-0.524 1.048-0.838 20.45-17.724 32.038-41.006 42.316-61.612 9.386-18.878 21.08-42.474 19.506-69.792-3.408-59.304-57.732-61.402-90.188-62.66-20.818-0.788-42.368-1.626-51.178-11.59-13.476-15.364-14.892-42.63-4.3-83.372l1.52-5.768c6.24-23.91 13.004-49.866 12.374-75.978-0.052-1.836-0.104-3.672-0.262-5.506a1.292 1.292 0 0 0 0-0.63 75.976 75.976 0 0 0-0.472-4.876c-0.052-1.048-0.21-2.096-0.368-3.146a36.848 36.848 0 0 0-0.524-3.356c0-0.21-0.052-0.472-0.104-0.682-0.106-0.944-0.316-1.834-0.472-2.778a120.26 120.26 0 0 0-2.308-9.544c-0.262-0.734-0.472-1.468-0.734-2.254a52.522 52.522 0 0 0-1.258-3.776c-0.262-0.734-0.524-1.468-0.838-2.254a72.824 72.824 0 0 0-1.73-4.248l26.532 5.086L904.62 159.65z" fill="#71CCE0" p-id="11572"></path><path d="M7.866 980.38A7.86 7.86 0 0 1 0 972.514V138.188a7.866 7.866 0 0 1 6.426-7.732l326.882-60.762a7.858 7.858 0 0 1 9.304 7.732v834.326a7.866 7.866 0 0 1-6.426 7.732L9.304 980.246a7.824 7.824 0 0 1-1.438 0.134zM15.73 144.728v818.324l311.152-57.838V86.89L15.73 144.728zM651.144 980.38a7.864 7.864 0 0 1-7.866-7.866V138.188a7.864 7.864 0 0 1 6.406-7.73l321.64-60.762a7.864 7.864 0 0 1 9.326 7.73v834.326a7.864 7.864 0 0 1-6.406 7.73l-321.64 60.762a8.03 8.03 0 0 1-1.46 0.136z m7.866-835.672v818.316l305.908-57.79V86.918L659.01 144.708z" fill="#4A555F" p-id="11573"></path><path d="M48.32 756.744l284.93-56.166 3.042 15.432L51.36 772.176zM649.614 319.712l279.688-55.134 3.042 15.434-279.688 55.132z" fill="#4A555F" p-id="11574"></path><path d="M333.076 715.98l3.296-15.384 316.398 67.79-3.296 15.384z" fill="#4A555F" p-id="11575"></path><path d="M76.032 421.62c15.784-7.708 30.256-17.776 42.054-31.304 12.532-14.368 21.446-31.776 35.026-45.096 13.634-13.266 34.818-21.918 51.806-13.318 19.506 9.804 23.176 35.236 30.098 55.948 6.868 20.712 29.364 42.212 47.612 30.36 25.222-16.412-4.824-60.458 12.584-84.894 4.772-6.658 12.532-10.644 20.346-13.16 48.922-15.784 110.534 15.206 150.018-17.724 23.752-19.822 28.734-55.896 52.54-75.612 21.918-18.09 53.222-17.408 81.59-15.784 15.836 33.874 4.09 73.462-5.296 109.696-9.438 36.234-14.734 79.126 10.016 107.23 36.704 41.634 131.194-5.348 134.864 58.466 1.154 19.924-7.97 38.802-16.832 56.63-9.648 19.35-19.664 39.276-36.024 53.486-19.768 17.146-77.276 15.202-102.586 8.57-49.67-13.014-81.4-17.444-103.904-37.094-39.714-34.676-90.138-49.762-140.476-49.028-10.434 0.158-21.604 0.944-29.73 7.446-7.97 6.344-11.222 16.676-15.784 25.746-17.514 34.606-56.106 52.646-92.968 64.862-39.536 13.108-84.002 21.604-124.954 17.146V421.62z" fill="#FFD452" p-id="11576"></path><path d="M98.516 643.234c-8.044 0-15.834-0.404-23.334-1.222a7.866 7.866 0 0 1-7.016-7.82V421.62c0-3.006 1.716-5.748 4.414-7.066 16.33-7.976 29.28-17.594 39.578-29.408 5.152-5.902 9.642-12.326 14.394-19.126 6.308-9.022 12.832-18.35 21.052-26.414 15.336-14.916 40.08-25.24 60.87-14.72 18.932 9.514 25.056 30.44 30.462 48.9 1.152 3.93 2.294 7.83 3.544 11.57 4.082 12.312 14.308 24.092 23.786 27.418 4.512 1.582 8.454 1.194 12.08-1.16 8.848-5.756 7.758-17.104 5.248-35.14-2.202-15.846-4.7-33.806 5.212-47.72 5.1-7.118 13.288-12.522 24.344-16.084 22.208-7.162 46.204-5.374 69.406-3.646 29.664 2.214 57.69 4.298 77.982-12.63 10.63-8.868 17.252-21.722 24.256-35.328 7.446-14.454 15.142-29.4 28.308-40.304 23.59-19.474 55.944-19.354 87.056-17.576a7.86 7.86 0 0 1 6.672 4.522c16.186 34.628 5.842 74.218-3.282 109.152l-1.52 5.846c-12.428 47.724-9.79 79.514 8.306 100.06 14.02 15.904 39.558 16.886 64.254 17.836 32.86 1.26 70.102 2.69 72.554 45.38 1.3 22.466-9.202 43.6-17.636 60.58-9.484 19.018-20.226 40.564-37.914 55.922-22.67 19.664-83.492 17.114-109.736 10.242-9.534-2.498-18.404-4.678-26.668-6.71-35.302-8.68-60.808-14.948-80.414-32.068-35.644-31.118-83.698-47.98-135.19-47.088-8.762 0.13-18.64 0.692-24.932 5.722-4.722 3.762-7.578 10.016-10.6 16.64a179.594 179.594 0 0 1-3.068 6.498c-19.664 38.848-62.446 57.17-97.524 68.796-37.304 12.366-73.104 18.718-104.944 18.718z m-14.62-16.232c33.504 2.364 72.938-3.604 114.616-17.42 32.208-10.676 71.366-27.252 88.428-60.948 0.968-1.928 1.88-3.936 2.796-5.942 3.488-7.646 7.44-16.312 15.106-22.408 10.15-8.122 23.136-8.984 34.508-9.156 55.574-0.712 107.196 17.296 145.764 50.968 16.73 14.606 39.444 20.188 73.824 28.642 8.342 2.048 17.288 4.248 26.898 6.766 26.428 6.928 79.32 7.084 95.444-6.902 15.31-13.3 24.882-32.494 34.134-51.054 8.004-16.102 17.078-34.364 16.022-52.666-1.562-27.102-21.808-29.196-57.458-30.566-26.704-1.024-56.968-2.186-75.454-23.156-28.726-32.616-20.452-80.916-11.726-114.412l1.526-5.868c8.444-32.32 17.16-65.682 6.074-94.256-27.41-1.38-53.142-0.71-71.274 14.258-10.676 8.844-17.318 21.734-24.348 35.384-7.414 14.402-15.086 29.29-28.164 40.204-25.198 21.016-57.756 18.588-89.228 16.238-21.702-1.618-44.136-3.292-63.41 2.932-7.784 2.506-13.294 5.956-16.376 10.256-6.268 8.8-4.398 22.21-2.428 36.408 2.54 18.276 5.422 38.992-12.254 50.494-7.778 5.052-16.724 6.022-25.86 2.814-14.086-4.942-27.866-20.276-33.51-37.292-1.306-3.908-2.504-7.996-3.712-12.118-4.942-16.88-9.612-32.82-22.454-39.276-13.8-6.994-31.856 1.286-42.788 11.926-7.158 7.02-12.986 15.354-19.152 24.178-4.782 6.842-9.73 13.912-15.428 20.45-10.754 12.328-23.908 22.492-40.12 30.972v200.55z" fill="#4A555F" p-id="11577"></path><path d="M904.62 780.384v75.874l-253.474 46.614-138.902-26.428c-2.36-12.374-1.836-24.33 6.24-32.72 16.36-17.094 51.65-9.23 70.578-2.832 23.178 7.866 45.986 19.35 70.474 18.824 24.434-0.524 50.914-19.402 48.398-43.732-2.464-24.014-30.676-39.326-32.772-63.394-1.836-20.712 18.248-38.436 38.906-40.586 20.66-2.098 40.794 7.498 57.942 19.244 17.146 11.746 32.824 25.956 51.544 34.974 25.118 12.116 52.802 13.848 81.066 14.162z" fill="#FFD452" p-id="11578"></path><path d="M651.148 910.738c-0.492 0-0.984-0.046-1.47-0.138l-138.904-26.428a7.868 7.868 0 0 1-6.258-6.252c-3.324-17.428-0.61-30.396 8.296-39.65 20.534-21.442 61.924-10.518 78.766-4.828 5.402 1.834 10.778 3.856 16.16 5.882 17.626 6.634 34.242 12.92 51.626 12.532 12.53-0.268 25.752-6.248 33.678-15.228 3.722-4.22 7.972-11.084 7.066-19.832-0.998-9.698-7.692-18.338-14.774-27.48-8.24-10.63-16.754-21.624-18.01-36.04-2.3-25.868 22.362-46.636 45.928-49.09 19.422-1.99 40.106 4.754 63.2 20.578 5.678 3.89 11.22 8.058 16.576 12.088 11.292 8.496 21.958 16.516 33.94 22.288 24.508 11.822 51.842 13.092 77.736 13.38a7.864 7.864 0 0 1 7.778 7.866v75.876a7.862 7.862 0 0 1-6.442 7.734l-253.472 46.614a7.828 7.828 0 0 1-1.42 0.128z m-131.968-40.98l131.996 25.114 245.582-45.164v-61.586c-24.548-0.554-51.846-2.868-76.616-14.812-13.376-6.442-25.162-15.31-36.566-23.888-5.218-3.928-10.62-7.988-16.008-11.682-19.898-13.628-37.094-19.484-52.702-17.906-16.222 1.69-33.316 15.764-31.866 32.066 0.856 9.816 7.614 18.542 14.774 27.78 8.126 10.49 16.534 21.338 17.988 35.504 1.178 11.408-2.596 22.426-10.922 31.856-10.866 12.308-28.158 20.18-45.134 20.544-20.314 0.378-39.26-6.664-57.506-13.536-5.218-1.964-10.43-3.928-15.67-5.704-22.484-7.596-50.69-11.38-62.364 0.824-4.352 4.516-5.996 11.278-4.986 20.59z" fill="#4A555F" p-id="11579"></path><path d="M651.144 937.688c-0.496 0-0.994-0.046-1.484-0.14l-314.936-60.48-283.476 52.566a7.864 7.864 0 0 1-9.298-7.736V172.954a7.86 7.86 0 0 1 6.432-7.732l284.934-52.836c0.972-0.18 1.956-0.176 2.918 0.008l314.92 60.478 278.222-52.558a7.864 7.864 0 0 1 9.326 7.73v748.946a7.864 7.864 0 0 1-6.406 7.73l-279.69 52.836a8.384 8.384 0 0 1-1.462 0.132z m-316.396-76.49c0.496 0 0.994 0.046 1.484 0.14l314.92 60.478 271.816-51.348V137.534L652.604 188.606a7.796 7.796 0 0 1-2.944-0.006L334.724 128.12 57.68 179.494V912.44l275.636-51.112c0.474-0.086 0.95-0.13 1.432-0.13z" fill="#4A555F" p-id="11580"></path><path d="M651.144 980.38c-0.492 0-0.988-0.046-1.484-0.14l-316.396-60.762a7.868 7.868 0 0 1-6.38-7.724V77.428c0-2.346 1.044-4.57 2.858-6.062a7.808 7.808 0 0 1 6.494-1.662l316.396 60.762a7.868 7.868 0 0 1 6.38 7.724v834.326a7.868 7.868 0 0 1-7.868 7.864z m-308.53-75.126l300.666 57.74V144.686l-300.666-57.74v818.308z" fill="#4A555F" p-id="11581"></path><path d="M48.3 307.974l284.93-56.168 3.042 15.432-284.93 56.168zM48.308 454.068l284.93-56.166 3.042 15.432-284.93 56.168zM649.632 768.484l279.688-55.134 3.042 15.432-279.688 55.134z" fill="#4A555F" p-id="11582"></path><path d="M333.12 267.226l3.3-15.382 316.396 67.822-3.298 15.382zM333.078 413.308l3.296-15.382 316.396 67.79-3.296 15.382zM184.416 146.536h15.73v748.946h-15.73zM785.746 153.914h15.73V902.86h-15.73z" fill="#4A555F" p-id="11583"></path><path d="M486.222 150.716h15.73v748.946h-15.73zM48.31 600.162l284.932-56.166 3.042 15.432-284.932 56.168z" fill="#4A555F" p-id="11584"></path><path d="M333.122 559.438l3.298-15.384 316.396 67.824-3.298 15.38z" fill="#4A555F" p-id="11585"></path><path d="M649.626 611.904l279.688-55.134 3.042 15.434-279.688 55.132zM649.62 465.808l279.688-55.134 3.042 15.434-279.688 55.132zM864.312 991.51l-3.114-15.418 15.418-3.11 3.114 15.418-15.418 3.11z m30.842-6.222l-3.114-15.418 15.418-3.11 3.114 15.418-15.418 3.11z m30.836-6.222l-3.114-15.418 15.424-3.11 3.114 15.418-15.424 3.11z m30.842-6.222l-3.114-15.418 15.418-3.114 3.114 15.418-15.418 3.114z m32.128-7.818l-6.288-14.42a42.664 42.664 0 0 0 11.152-7.108l10.406 11.792a58.264 58.264 0 0 1-15.27 9.736z m26.822-23.668l-13.518-8.044a42.654 42.654 0 0 0 4.926-12.272l15.332 3.524a58.392 58.392 0 0 1-6.74 16.792zM1024 907.172h-15.73v-15.73H1024v15.73z m0-31.462h-15.73v-15.73H1024v15.73zM102.69 85.162l-2.858-15.47 15.47-2.862 2.858 15.47-15.47 2.862z m30.934-5.722l-2.858-15.47 15.47-2.862 2.858 15.47-15.47 2.862z m30.938-5.726l-2.858-15.47 15.47-2.862 2.858 15.47-15.47 2.862z m30.934-5.722l-2.858-15.47 15.47-2.862 2.858 15.47-15.47 2.862z m30.94-5.724l-2.858-15.47 15.47-2.862 2.858 15.47-15.47 2.862z m30.934-5.724l-2.858-15.47 15.47-2.862 2.858 15.47-15.47 2.862z m30.938-5.724l-2.858-15.47 15.47-2.86 2.858 15.47-15.47 2.86z" fill="#4A555F" p-id="11586"></path></svg>