<?xml version="1.0" standalone="no"?><!DOCTYPE svg PUBLIC "-//W3C//DTD SVG 1.1//EN" "http://www.w3.org/Graphics/SVG/1.1/DTD/svg11.dtd"><svg class="icon" width="200px" height="200.00px" viewBox="0 0 1024 1024" version="1.1" xmlns="http://www.w3.org/2000/svg"><path d="M512 587.3c-13.9 0-25.2 11.3-25.2 25.2v126.2c0 13.9 11.3 25.2 25.2 25.2 13.9 0 25.2-11.3 25.2-25.2V612.5c0-13.9-11.2-25.2-25.2-25.2zM582.4 933h0.1-0.1m-0.6-100.9c-19.5 0-45.5 7.5-69.8 7.5-24.3 0-50.3-7.5-69.8-7.5-18.4 0-31.1 6.7-31.1 32.7V890H613v-25.2c-0.1-26-12.7-32.7-31.2-32.7z" fill="#29CCB6" /><path d="M595.1 234H429c-9.9 0-17.9 8-17.9 17.9v57.8c0 53.6 53.7 100.9 100.9 100.9s100.9-47.3 100.9-100.9v-57.8c0-9.9-8-17.9-17.8-17.9z" fill="#29CCB6" /><path d="M814.8 890.1h-50.5V763.9c0-96.5-39.9-194.9-110.8-252.3 70.9-57.4 110.8-155.8 110.8-252.3V133.1h50.5c27.9 0 50.5-22.6 50.5-50.5s-22.6-50.5-50.5-50.5H209.2c-27.9 0-50.5 22.6-50.5 50.5s22.6 50.5 50.5 50.5h50.5v126.2c0 96.5 39.9 194.9 110.8 252.3-70.9 57.4-110.8 155.8-110.8 252.3v126.2h-50.5c-27.9 0-50.5 22.6-50.5 50.5s22.6 50.5 50.5 50.5h605.5c27.9 0 50.5-22.6 50.5-50.5s-22.5-50.5-50.4-50.5zM360.6 259.3V133.1h302.8v126.2c0 99.2-56.6 201.9-151.4 201.9S360.6 358.5 360.6 259.3z m0 630.8V763.9c0-99.2 56.6-201.9 151.4-201.9s151.4 102.6 151.4 201.9v126.2H360.6z" fill="#4585F5" /></svg>