<?xml version="1.0" standalone="no"?><!DOCTYPE svg PUBLIC "-//W3C//DTD SVG 1.1//EN" "http://www.w3.org/Graphics/SVG/1.1/DTD/svg11.dtd"><svg t="1684909649960" class="icon" viewBox="0 0 1368 1024" version="1.1" xmlns="http://www.w3.org/2000/svg" p-id="3622" xmlns:xlink="http://www.w3.org/1999/xlink" width="267.1875" height="200"><path d="M39.238621 1018.103172h245.203862L161.844966 772.890483l-122.615173 245.212689z m343.287172-147.120551h980.850759v147.120551H382.525793V870.982621z" fill="#29C287" p-id="3623"></path><path d="M1304.523034 174.583172c0-93.184-78.468414-171.652414-171.652413-171.652413-93.175172 0-171.643586 78.477241-171.643587 171.652413H1059.310345c0-39.238621 34.330483-73.569103 73.560276-73.569103 39.238621 0 73.569103 34.33931 73.569103 73.569103 0 29.422345-14.715586 53.936552-39.238621 63.752828-14.706759 9.807448-29.422345 24.523034-29.422344 44.137931s9.807448 34.330483 29.422344 44.137931c24.523034 14.715586 39.238621 39.229793 39.238621 63.752828 0 39.238621-34.33931 73.560276-73.569103 73.560276-39.229793 0-73.560276-34.321655-73.560276-73.560276H961.235862c0 93.184 78.468414 171.652414 171.643586 171.652413 93.184 0 171.652414-78.477241 171.652414-171.652413 0-39.229793-14.715586-78.468414-39.238621-107.890759 24.523034-29.422345 39.238621-68.660966 39.238621-107.890759zM235.405241 2.930759C220.689655-1.968552 201.065931-1.968552 186.350345 12.747034L0 159.867586l58.853517 73.560276L161.836138 150.068966v411.948137h98.092138V51.976828C264.827586 32.361931 255.020138 12.747034 235.405241 2.930759z m578.692414 171.652413c0-44.137931-19.614897-88.275862-49.037241-122.615172C730.721103 17.655172 691.49131 2.939586 642.445241 2.939586c-44.137931 0-88.275862 19.614897-122.597517 49.046069C485.517241 81.390345 470.801655 125.528276 470.801655 174.583172h98.092138c0-19.623724 9.798621-39.238621 19.614897-53.945379 29.422345-29.431172 73.560276-29.431172 102.98262 0 14.715586 14.706759 19.623724 34.321655 19.623724 53.936552 0 19.623724-9.807448 39.238621-24.523034 53.954207L480.617931 483.54869c-9.816276 14.706759-14.715586 34.330483-4.908138 53.936551 9.807448 19.623724 24.523034 29.431172 44.137931 29.431173h294.249931V468.833103H622.839172l142.212414-171.643586c29.431172-34.33931 49.046069-78.477241 49.046069-122.615172z" fill="#036EFF" p-id="3624"></path></svg>