<?xml version="1.0" standalone="no"?><!DOCTYPE svg PUBLIC "-//W3C//DTD SVG 1.1//EN" "http://www.w3.org/Graphics/SVG/1.1/DTD/svg11.dtd"><svg t="1685430990531" class="icon" viewBox="0 0 1024 1024" version="1.1" xmlns="http://www.w3.org/2000/svg" p-id="4730" xmlns:xlink="http://www.w3.org/1999/xlink" width="200" height="200"><path d="M885.76 919.552H116.736C53.248 919.552 1.024 867.328 1.024 803.84V284.672c0-63.488 52.224-115.712 115.712-115.712h769.024c63.488 0 115.712 52.224 115.712 115.712v519.168c0 63.488-52.224 115.712-115.712 115.712zM116.736 226.304c-31.744 0-58.368 25.6-58.368 58.368v519.168c0 31.744 25.6 58.368 58.368 58.368h769.024c31.744 0 58.368-25.6 58.368-58.368V284.672c0-31.744-25.6-58.368-58.368-58.368H116.736z" fill="#007aff" p-id="4731"></path><path d="M432.128 740.352c-15.36 0-30.72-4.096-44.032-12.288-25.6-15.36-40.96-43.008-40.96-72.704V458.752c0-30.72 15.36-57.344 40.96-72.704s57.344-16.384 83.968-2.048L658.432 481.28c27.648 14.336 46.08 44.032 46.08 75.776 0 31.744-17.408 60.416-46.08 75.776l-185.344 98.304c-13.312 6.144-26.624 9.216-40.96 9.216z m1.024-279.552v191.488l182.272-96.256L433.152 460.8z m184.32 97.28l20.48-37.888-20.48 37.888z" fill="#007aff" p-id="4732"></path></svg>