<?xml version="1.0" standalone="no"?><!DOCTYPE svg PUBLIC "-//W3C//DTD SVG 1.1//EN" "http://www.w3.org/Graphics/SVG/1.1/DTD/svg11.dtd"><svg t="1685606025754" class="icon" viewBox="0 0 1975 1024" version="1.1" xmlns="http://www.w3.org/2000/svg" p-id="2637" xmlns:xlink="http://www.w3.org/1999/xlink" width="385.7421875" height="200"><path d="M1933.276831 981.457416H42.542584V42.542584h1890.734247v938.914832" fill="#FFFFFF" p-id="2638"></path><path d="M1933.276831 1024H42.542584a42.542584 42.542584 0 0 1-42.542584-42.542584V42.542584a42.542584 42.542584 0 0 1 42.542584-42.542584h1890.734247a42.542584 42.542584 0 0 1 42.542585 42.542584v938.914832a42.542584 42.542584 0 0 1-42.542585 42.542584zM85.085168 938.914832h1805.649079V85.085168H85.085168z" fill="#007aff" p-id="2639"></path><path d="M314.247888 266.174768h121.813599" fill="#FFFFFF" p-id="2640"></path><path d="M436.061487 308.717352h-121.813599a42.542584 42.542584 0 0 1 0-85.085168h121.813599a42.542584 42.542584 0 0 1 0 85.085168z" fill="#007aff" p-id="2641"></path><path d="M314.247888 757.825232h121.813599" fill="#FFFFFF" p-id="2642"></path><path d="M436.061487 800.367816h-121.813599a42.542584 42.542584 0 1 1 0-85.085168h121.813599a42.542584 42.542584 0 0 1 0 85.085168z" fill="#007aff" p-id="2643"></path><path d="M375.083783 301.626921v411.24498" fill="#007aff" p-id="2644"></path><path d="M375.083783 755.414486a42.542584 42.542584 0 0 1-42.542584-42.542585v-411.24498a42.542584 42.542584 0 0 1 85.085169 0v411.24498a42.542584 42.542584 0 0 1-42.542585 42.542585z" fill="#007aff" p-id="2645"></path></svg>