<?xml version="1.0" standalone="no"?><!DOCTYPE svg PUBLIC "-//W3C//DTD SVG 1.1//EN" "http://www.w3.org/Graphics/SVG/1.1/DTD/svg11.dtd"><svg t="1692869317903" class="icon" viewBox="0 0 1024 1024" version="1.1" xmlns="http://www.w3.org/2000/svg" p-id="1118" xmlns:xlink="http://www.w3.org/1999/xlink" width="200" height="200"><path d="M960 0H64A64 64 0 0 0 0 64v896a64 64 0 0 0 64 64h896a64 64 0 0 0 64-64V64a64 64 0 0 0-64-64z m-21.333 85.333v853.334H85.333V85.333h853.334z" fill="#5A8BEA" p-id="1119"></path><path d="M277.333 170.667H320q21.333 0 21.333 21.333v128q0 21.333-21.333 21.333h-42.667Q256 341.333 256 320V192q0-21.333 21.333-21.333z" fill="#EA9518" p-id="1120"></path><path d="M316.34 707.66q30.17 30.17 0 60.34L256 828.34q-30.17 30.17-60.34 0t0-60.34L256 707.66q30.17-30.17 60.34 0z" fill="#1296DB" p-id="1121"></path><path d="M277.333 170.667h469.334Q768 170.667 768 192v42.667Q768 256 746.667 256H277.333Q256 256 256 234.667V192q0-21.333 21.333-21.333zM405.333 597.333h213.334q21.333 0 21.333 21.334v42.666q0 21.334-21.333 21.334H405.333q-21.333 0-21.333-21.334v-42.666q0-21.334 21.333-21.334z" fill="#EA9518" p-id="1122"></path><path d="M213.333 768h597.334q42.666 0 42.666 42.667 0 42.666-42.666 42.666H213.333q-42.666 0-42.666-42.666 0-42.667 42.666-42.667z" fill="#1296DB" p-id="1123"></path><path d="M704 170.667h42.667Q768 170.667 768 192v128q0 21.333-21.333 21.333H704q-21.333 0-21.333-21.333V192q0-21.333 21.333-21.333zM490.667 170.667h42.666q21.334 0 21.334 21.333v469.333q0 21.334-21.334 21.334h-42.666q-21.334 0-21.334-21.334V192q0-21.333 21.334-21.333z" fill="#EA9518" p-id="1124"></path></svg>