<?xml version="1.0" standalone="no"?><!DOCTYPE svg PUBLIC "-//W3C//DTD SVG 1.1//EN" "http://www.w3.org/Graphics/SVG/1.1/DTD/svg11.dtd"><svg t="1693358314038" class="icon" viewBox="0 0 1024 1024" version="1.1" xmlns="http://www.w3.org/2000/svg" p-id="1590" xmlns:xlink="http://www.w3.org/1999/xlink" width="200" height="200"><path d="M822.67 721.43A10.84 10.84 0 0 1 811.84 711c-0.15-3.63-15.91-364.77-124.61-463.53-18.78-17.07-38.62-24.81-60.62-23.55-69.05 3.87-102.13 101.38-117.71 182.5-17.5 91.11-17.19 182.65-17.19 183.58a10.84 10.84 0 0 1-10.78 10.91h-0.06a10.84 10.84 0 0 1-10.87-10.8c-0.09-15.48-0.44-379.15 155.38-387.82 27.73-1.61 53.43 8.26 76.42 29.15 115.4 104.84 131.08 463.49 131.69 478.71a10.85 10.85 0 0 1-10.4 11.27z" fill="#0839FF" p-id="1591"></path><path d="M811.83 779.4c-84.43 0-155.76-34-155.76-74.24s71.33-74.24 155.76-74.24 155.76 34 155.76 74.24-71.33 74.24-155.76 74.24z" fill="#91AAFF" p-id="1592"></path><path d="M811.83 641.77c82.94 0 144.91 33.47 144.91 63.39s-62 63.39-144.91 63.39-144.92-33.47-144.92-63.39 62-63.39 144.92-63.39m0-21.69c-92 0-166.61 38.09-166.61 85.08s74.59 85.08 166.61 85.08 166.61-38.09 166.61-85.08-74.59-85.08-166.61-85.08z" fill="#0839FF" p-id="1593"></path><path d="M688 113.58C649.28 77 603.47 60.48 551.93 64.52 459 71.76 395.9 147 353.07 247.59a111.61 111.61 0 0 0-19.09 5.3C220.73 295 230.59 549.53 247.21 701.29 133 711 45.56 764.88 45.56 829.9c0 71.89 106.85 130.17 238.65 130.17S522.85 901.8 522.85 829.9c0-71.11-104.54-128.89-234.36-130.14 7-117.91 26.39-297.36 80-431.88a52.12 52.12 0 0 1 30.75 9.84c43.36 30.63 68 132.46 68.54 281.22C403.91 561.28 354 580.77 354 604.48c0 25.27 56.69 45.76 126.61 45.76s126.61-20.49 126.61-45.76c0-24.2-52-44-117.76-45.65C489 456.78 476.73 305.89 411.79 260a73.64 73.64 0 0 0-34.36-13.33C417 157.52 473.31 92.4 553.61 86.15c45.21-3.56 85.41 11 119.47 43.19C823.13 271.1 815.82 706 815.73 710.39a10.85 10.85 0 0 0 10.62 11.07 10.62 10.62 0 0 0 11.08-10.61c0.38-18.27 7.57-448.91-149.43-597.27z m-103.25 490.9c-7.23 8-43.12 24.07-104.11 24.07s-96.88-16.05-104.11-24.07c6.7-7.43 38.06-21.76 91.19-23.81 0 1.63 0 3.25-0.06 4.88l-0.06 4.75a10.85 10.85 0 1 0 21.69 0l0.05-4.43c0-1.75 0-3.53 0.07-5.33 55.66 1.46 88.47 16.32 95.34 23.94z m-83.6 225.42c0 58.8-99.35 108.47-216.95 108.47s-217-49.68-217-108.47c0-52.94 80.55-98.48 182.44-107 5.82 48.19 11.75 82.54 13.16 90.44 0 4.83 0 8.09 0.05 9.62a10.84 10.84 0 0 0 10.84 10.72h0.13a10.86 10.86 0 0 0 10.72-11c0-1.66-0.31-41.22 2.69-101.23 116.31 0.86 213.92 50.17 213.92 108.45zM267.19 684c-15.91-160.61-16-377.16 74.35-410.73l1.44-0.52c-49.6 130.83-68.59 295.96-75.79 411.25z" fill="#979797" p-id="1594"></path></svg>