<?xml version="1.0" standalone="no"?><!DOCTYPE svg PUBLIC "-//W3C//DTD SVG 1.1//EN" "http://www.w3.org/Graphics/SVG/1.1/DTD/svg11.dtd"><svg t="1693556990526" class="icon" viewBox="0 0 2073 1024" version="1.1" xmlns="http://www.w3.org/2000/svg" p-id="41780" xmlns:xlink="http://www.w3.org/1999/xlink" width="404.8828125" height="200"><path d="M500.513461 629.861881v-523.386657H313.632462V-0.099883h500.513461v106.575107H627.664456v523.386657zM920.321498 312.833398l-109.871244-19.97659a170.699961 170.699961 0 0 1 63.625439-97.985173 232.727273 232.727273 0 0 1 134.042918-31.762778 289.660554 289.660554 0 0 1 119.85954 19.177526 119.85954 119.85954 0 0 1 55.634803 48.543114 248.508779 248.508779 0 0 1 16.181037 108.073351l-1.298478 140.934842a487.62856 487.62856 0 0 0 5.793211 88.69606 257.997659 257.997659 0 0 0 21.6746 61.228248h-119.859539c-3.196254-7.990636-6.991806-19.97659-11.586423-35.658213a186.781116 186.781116 0 0 0-4.294966-14.183379 218.144362 218.144362 0 0 1-66.122513 45.147093 189.777604 189.777604 0 0 1-75.211861 15.082325 155.517753 155.517753 0 0 1-111.06984-38.255169 127.150995 127.150995 0 0 1-40.652361-96.686696 129.847835 129.847835 0 0 1 18.478346-68.919235 120.858369 120.858369 0 0 1 51.839251-46.345688 405.025361 405.025361 0 0 1 95.987515-28.166992 655.23215 655.23215 0 0 0 117.262582-29.964885v-12.085837a62.426844 62.426844 0 0 0-17.179867-49.941475 102.879438 102.879438 0 0 0-64.923917-14.782676 86.398751 86.398751 0 0 0-49.941475 12.685134 88.196645 88.196645 0 0 0-28.366758 45.147093z m161.610613 97.985174q-23.272727 7.690987-73.513851 18.378463a222.039797 222.039797 0 0 0-65.722981 21.075302 49.941475 49.941475 0 0 0-23.672259 42.550137 59.130706 59.130706 0 0 0 18.97776 43.848615 66.02263 66.02263 0 0 0 48.143582 18.478345 104.477565 104.477565 0 0 0 62.326961-21.474834 75.811159 75.811159 0 0 0 28.766289-39.95318 239.719079 239.719079 0 0 0 4.694499-58.831057zM1314.259852 629.861881V0h120.758486v226.834179a170.699961 170.699961 0 0 1 132.344908-63.625439 177.79165 177.79165 0 0 1 137.938354 59.92977 249.707374 249.707374 0 0 1 54.53609 173.3968 263.890753 263.890753 0 0 1-55.634803 179.78931 173.696449 173.696449 0 0 1-135.141631 63.225907 167.104175 167.104175 0 0 1-77.109637-19.97659 184.184159 184.184159 0 0 1-65.523215-57.832228v67.021459z m119.859539-238.021069a194.571986 194.571986 0 0 0 22.373781 104.877097 95.4881 95.4881 0 0 0 83.30238 48.043698 85.499805 85.499805 0 0 0 68.120172-34.060085 168.30277 168.30277 0 0 0 28.166992-107.67382 178.490831 178.490831 0 0 0-28.366758-112.867733 89.894655 89.894655 0 0 0-72.614905-34.559501 90.793601 90.793601 0 0 0-72.215372 33.760437 154.718689 154.718689 0 0 0-28.76629 102.479907z" fill="#4077ED" p-id="41781"></path><path d="M0 885.861881h2073.570035v138.138119H0z" fill="#A2BFFF" p-id="41782"></path></svg>
