<?xml version="1.0" standalone="no"?><!DOCTYPE svg PUBLIC "-//W3C//DTD SVG 1.1//EN" "http://www.w3.org/Graphics/SVG/1.1/DTD/svg11.dtd"><svg t="1694587929030" class="icon" viewBox="0 0 1024 1024" version="1.1" xmlns="http://www.w3.org/2000/svg" p-id="5108" xmlns:xlink="http://www.w3.org/1999/xlink" width="200" height="200"><path d="M692.095 184C663.52 255.494 593.655 306 512 306s-151.52-50.506-180.095-122h-98.308l-68.71 90.491 64.29 49.346a104.021 104.021 0 0 1 40.678 82.518V840h484.29V406.355a104.021 104.021 0 0 1 40.677-82.518l64.291-49.346L790.403 184h-98.308z m-71.9 0h-216.39c23.288 34.964 63.053 58 108.195 58 45.142 0 84.907-23.036 108.194-58z m-406.431-72h596.472a31.975 31.975 0 0 1 25.466 12.642l104.78 137.996c10.65 14.026 7.969 34.027-6 44.748l-95.863 73.579a32.007 32.007 0 0 0-12.516 25.39V880c0 17.673-14.318 32-31.981 32H229.878c-17.663 0-31.981-14.327-31.981-32V406.355c0-9.95-4.626-19.334-12.516-25.39l-95.863-73.579c-13.969-10.721-16.65-30.722-6-44.748l104.78-137.996A31.975 31.975 0 0 1 213.764 112z" fill="#5090F1" p-id="5109"></path></svg>