<?xml version="1.0" standalone="no"?><!DOCTYPE svg PUBLIC "-//W3C//DTD SVG 1.1//EN" "http://www.w3.org/Graphics/SVG/1.1/DTD/svg11.dtd"><svg t="1693807714061" class="icon" viewBox="0 0 1024 1024" version="1.1" xmlns="http://www.w3.org/2000/svg" p-id="13871" xmlns:xlink="http://www.w3.org/1999/xlink" width="200" height="200"><path d="M912.6912 205.380267H110.3872A109.397333 109.397333 0 0 0 1.024 314.7776v364.680533a109.397333 109.397333 0 0 0 109.397333 109.397334H912.725333a109.397333 109.397333 0 0 0 109.397334-109.397334V314.7776a109.397333 109.397333 0 0 0-109.397334-109.397333z m36.4544 455.816533c0 30.208-24.507733 54.715733-54.715733 54.715733H128.682667a54.715733 54.715733 0 0 1-54.715734-54.715733V333.0048c0-30.208 24.4736-54.715733 54.715734-54.715733h765.781333c30.208 0 54.715733 24.507733 54.715733 54.715733v328.192z" fill="#3366FF" p-id="13872"></path><path d="M850.670933 490.530133a18.2272 18.2272 0 0 0-13.858133-29.9008h-119.6032a18.2272 18.2272 0 0 0-13.858133 29.9008l59.8016 70.0416a18.2272 18.2272 0 0 0 27.716266 0l59.8016-70.0416z" fill="#32EDCC" p-id="13873"></path></svg>
