<?xml version="1.0" standalone="no"?><!DOCTYPE svg PUBLIC "-//W3C//DTD SVG 1.1//EN" "http://www.w3.org/Graphics/SVG/1.1/DTD/svg11.dtd"><svg t="1695376220028" class="icon" viewBox="0 0 1024 1024" version="1.1" xmlns="http://www.w3.org/2000/svg" p-id="1684" xmlns:xlink="http://www.w3.org/1999/xlink" width="200" height="200"><path d="M880.88 831.26H142.81c-43.71 0-79.47-35.76-79.47-79.47V270c0-43.71 35.76-79.47 79.47-79.47h738.08c43.71 0 79.47 35.76 79.47 79.47v481.78c-0.01 43.72-35.77 79.48-79.48 79.48z m15.4-129.88V320.41c0-36.2-29.61-65.81-65.81-65.81H193.22c-36.2 0-65.81 29.61-65.81 65.81v380.96c0 36.2 29.61 65.81 65.81 65.81h637.26c36.19 0.01 65.8-29.61 65.8-65.8z" fill="#1677FF" p-id="1685"></path><path d="M180.27 405.66h83.29c36.73 0 64.71 10.36 83.94 31.08 17.94 19.22 26.91 46.99 26.91 83.29 0 35.67-9.19 63.54-27.55 83.62-19.22 20.5-47.2 30.75-83.94 30.75h-82.65V405.66z m34.92 29.79V604.6h41.33c29.04 0 50.3-6.94 63.75-20.82 13.24-13.88 19.86-35.13 19.86-63.75 0-29.04-6.52-50.4-19.54-64.07-13.46-13.67-34.6-20.5-63.43-20.5h-41.97z" fill="#1677FF" p-id="1686"></path><path d="M262.92 639.4h-87.65V400.66h88.29c38.01 0 67.48 10.99 87.6 32.67 18.74 20.08 28.25 49.25 28.25 86.7 0 36.79-9.71 66.06-28.86 86.99-20.16 21.5-49.63 32.38-87.63 32.38z m-77.65-10h77.65c35.13 0 62.14-9.82 80.29-29.17 17.37-18.99 26.2-45.98 26.2-80.2 0-34.83-8.6-61.71-25.57-79.88-18.16-19.57-45.17-29.49-80.28-29.49h-78.29V629.4z m71.24-19.8h-46.33V430.45h46.97c30.08 0 52.63 7.4 67 22 13.94 14.63 20.98 37.35 20.98 67.58 0 29.81-7.15 52.42-21.24 67.2-14.4 14.85-37.06 22.37-67.38 22.37z m-36.32-10h36.33c27.51 0 47.75-6.49 60.16-19.3 12.24-12.83 18.45-33.12 18.45-60.27 0-27.58-6.11-47.97-18.16-60.62-12.36-12.56-32.51-18.95-59.81-18.95h-36.97V599.6zM535.23 482.54c10.04 10.68 15.06 26.06 15.06 46.13V634.4h-31.4v-23.39c-6.2 8.12-14.31 14.85-24.35 20.18-10.89 5.13-23.6 7.69-38.12 7.69-17.09 0-30.65-4.38-40.69-13.13-10.25-8.97-15.38-20.82-15.38-35.56 0-20.93 8.22-36.41 24.67-46.45 13.88-8.54 32.04-12.81 54.46-12.81l37.16-0.32v-4.17c0-23.07-12.49-34.6-37.48-34.6-11.75 0-20.72 2.14-26.91 6.41-7.48 4.92-11.85 12.17-13.14 21.78h-33.64c2.56-19.65 10.89-34.17 24.99-43.57 11.96-8.11 28.94-12.17 50.94-12.17 24.36-0.01 42.3 6.08 53.83 18.25z m-18.58 74.01l-34.92 0.32c-30.97 0-46.45 10.79-46.45 32.36 0 6.62 2.45 12.07 7.37 16.34 4.91 4.28 12.06 6.41 21.46 6.41 15.16 0 27.87-4.27 38.12-12.81 9.61-8.75 14.42-20.07 14.42-33.96v-8.66z" fill="#1677FF" p-id="1687"></path><path d="M456.42 643.88c-18.25 0-33.04-4.83-43.97-14.37-11.34-9.92-17.09-23.16-17.09-39.33 0-22.69 9.11-39.76 27.06-50.72 14.6-8.99 33.81-13.55 57.07-13.55l32.16-0.28c-0.27-19.65-10.61-28.81-32.48-28.81-10.66 0-18.76 1.86-24.07 5.52l-0.09 0.06c-6.26 4.12-9.83 10.09-10.93 18.27l-0.58 4.34h-43.71l0.74-5.65c2.75-21.05 11.89-36.89 27.17-47.08 12.72-8.63 30.8-13.01 53.71-13.01 25.66 0 44.99 6.67 57.45 19.82l0.01 0.02c10.89 11.59 16.41 28.26 16.41 49.56V639.4h-41.4v-15.62c-4.96 4.49-10.64 8.45-17 11.83l-0.22 0.11c-11.5 5.41-25.04 8.16-40.24 8.16z m22.75-157.05c35.11 0 42.48 21.53 42.48 39.6v9.12l-42.12 0.36c-21.42 0-38.86 4.06-51.88 12.07-15 9.16-22.29 22.96-22.29 42.19 0 13.35 4.47 23.75 13.67 31.8 9.05 7.89 21.63 11.9 37.39 11.9 13.66 0 25.74-2.41 35.88-7.16 9.3-4.96 16.9-11.27 22.61-18.74l8.97-11.76v33.18h21.4V528.68c0-18.66-4.61-33.02-13.69-42.7-10.5-11.08-27.38-16.69-50.19-16.69-20.88 0-37.07 3.81-48.13 11.31-11.61 7.75-18.81 19.04-21.91 34.43h23.59c2.13-8.96 7-15.98 14.5-20.93 7.03-4.82 17.02-7.27 29.72-7.27z m-15.06 130.14c-10.6 0-18.93-2.57-24.75-7.64-6.03-5.24-9.08-12-9.08-20.11 0-17.04 8.93-37.36 51.45-37.36l39.92-0.37v13.7c0 15.29-5.4 27.95-16.05 37.66l-0.17 0.14c-11.12 9.28-25.02 13.98-41.32 13.98z m47.54-55.38l-29.87 0.27c-37.2 0-41.5 15.61-41.5 27.36 0 5.15 1.85 9.26 5.65 12.56 3.95 3.44 10.07 5.18 18.19 5.18 14.05 0 25.44-3.79 34.84-11.58 8.55-7.82 12.7-17.7 12.7-30.19v-3.6z" fill="#1677FF" p-id="1688"></path><path d="M639.34 415.27v53.5h37.8v28.19h-37.8v96.11c0 4.28 0.96 7.58 2.88 9.93 2.13 2.14 5.13 3.2 8.97 3.2h21.78v28.19h-27.23c-14.31 0-24.67-3.73-31.08-11.21-6.2-6.83-9.29-16.87-9.29-30.11v-96.11h-30.75v-28.19h30.75v-39.4l33.97-14.1z" fill="#1677FF" p-id="1689"></path><path d="M677.98 639.4h-32.23c-15.74 0-27.46-4.34-34.83-12.91-6.99-7.75-10.54-18.99-10.54-33.42v-91.11h-30.75v-38.19h30.75v-37.74l43.96-18.25v55.99h37.8v38.19h-37.8v91.11c0 2.93 0.54 5.14 1.6 6.57 1.17 1.05 2.89 1.57 5.25 1.57h26.78v38.19z m-98.35-147.44h30.75v101.11c0 11.9 2.69 20.91 7.99 26.76l0.09 0.11c5.38 6.28 14.56 9.47 27.28 9.47h22.23V611.2H651.2c-5.21 0-9.42-1.57-12.51-4.67l-0.33-0.37c-2.66-3.25-4.01-7.66-4.01-13.1v-101.1h37.8v-18.19h-37.8v-51.01l-23.96 9.95v41.07h-30.75v18.18z" fill="#1677FF" p-id="1690"></path><path d="M836.36 491.83c13.03 16.87 19.65 39.94 19.86 69.2H730.64c1.28 16.45 5.66 28.83 13.13 37.16 7.9 8.54 18.47 12.81 31.72 12.81 11.74 0 21.35-2.77 28.83-8.33 5.34-4.05 10.36-11.21 15.06-21.46h33.96c-4.06 15.81-11.64 28.73-22.75 38.76-14.53 12.6-32.79 18.9-54.78 18.9-24.56 0-43.89-7.58-57.99-22.75-15.38-16.02-23.07-37.59-23.07-64.71 0-24.77 7.26-45.38 21.78-61.83 14.1-16.87 33.42-25.31 57.99-25.31 27.35 0.01 47.96 9.2 61.84 27.56z m-91.3 11.54c-7.26 7.69-11.85 18.37-13.78 32.04h89.38c-3.2-28.83-18.26-43.25-45.17-43.25-12.81-0.01-22.96 3.73-30.43 11.21z" fill="#1677FF" p-id="1691"></path><path d="M775.81 643.88c-25.89 0-46.64-8.19-61.65-24.34-16.17-16.85-24.4-39.79-24.4-68.12 0-25.89 7.74-47.79 22.99-65.09 15.03-17.95 35.81-27.05 61.78-27.05 28.85 0 50.99 9.93 65.8 29.52 13.64 17.68 20.67 41.97 20.89 72.2l0.04 5.04H736.18c1.64 12.6 5.44 22.28 11.31 28.82 6.92 7.49 16.1 11.16 28 11.16 10.59 0 19.29-2.47 25.85-7.34 4.61-3.5 9.16-10.08 13.49-19.54l1.34-2.92h43.61l-1.6 6.24c-4.29 16.7-12.44 30.57-24.24 41.23l-0.08 0.07c-15.38 13.35-34.91 20.12-58.05 20.12z m-1.28-174.6c-23.21 0-40.93 7.69-54.15 23.52l-0.09 0.1c-13.62 15.43-20.53 35.12-20.53 58.52 0 25.66 7.29 46.27 21.67 61.25 13.28 14.29 31.05 21.21 54.38 21.21 20.64 0 37.95-5.94 51.47-17.64 8.8-7.97 15.3-18.05 19.36-30.02h-24.1c-4.69 9.55-9.68 16.26-15.19 20.45-8.36 6.21-19.07 9.35-31.86 9.35-14.64 0-26.54-4.85-35.39-14.42-8.24-9.18-13.08-22.67-14.45-40.17l-0.42-5.39h125.88c-0.89-25.65-7.18-46.2-18.72-61.14l-0.03-0.04c-12.99-17.21-31.91-25.58-57.83-25.58z m51.72 71.12H725.53l0.8-5.7c2.06-14.66 7.14-26.35 15.09-34.77l0.1-0.1c8.41-8.41 19.84-12.68 33.97-12.68 29.33 0 46.67 16.49 50.14 47.7l0.62 5.55z m-89.01-10h77.66c-4.06-22.65-16.7-33.25-39.4-33.25-11.51 0-20.29 3.17-26.85 9.7-5.46 5.8-9.29 13.71-11.41 23.55z" fill="#1677FF" p-id="1692"></path></svg>