<?xml version="1.0" standalone="no"?><!DOCTYPE svg PUBLIC "-//W3C//DTD SVG 1.1//EN" "http://www.w3.org/Graphics/SVG/1.1/DTD/svg11.dtd"><svg t="1696647517192" class="icon" viewBox="0 0 1024 1024" version="1.1" xmlns="http://www.w3.org/2000/svg" p-id="4062" xmlns:xlink="http://www.w3.org/1999/xlink" width="200" height="200"><path d="M249.6 384v426.666667H155.733333V582.4c0-34.133333 0-51.2-2.133333-61.866667 0-6.4-6.4-12.8-10.666667-14.933333-6.4-2.133333-19.2-6.4-42.666666-6.4h-10.666667v-49.066667c44.8-8.533333 78.933333-34.133333 102.4-66.133333h57.6zM593.066667 740.266667V810.666667h-189.866667v-61.866667c55.466667-113.066667 89.6-181.333333 100.266667-206.933333 10.666667-27.733333 14.933333-44.8 14.933333-61.866667 0-12.8-2.133333-21.333333-4.266667-23.466667-2.133333-6.4-8.533333-8.533333-14.933333-8.533333-6.4 0-10.666667 2.133333-14.933333 8.533333-2.133333 6.4-4.266667 19.2-4.266667 36.266667V533.333333h-76.8v-14.933333c0-23.466667 0-42.666667 2.133333-55.466667s6.4-27.733333 14.933334-40.533333c8.533333-12.8 17.066667-23.466667 29.866666-29.866667s27.733333-8.533333 44.8-8.533333c34.133333 0 59.733333 8.533333 76.8 29.866667 17.066667 21.333333 25.6 44.8 25.6 78.933333 0 23.466667-4.266667 49.066667-14.933333 76.8s-38.4 83.2-87.466667 170.666667h98.133334zM908.8 569.6c10.666667 6.4 19.2 14.933333 25.6 23.466667 6.4 12.8 8.533333 40.533333 8.533333 85.333333 0 34.133333-2.133333 57.6-8.533333 76.8-6.4 19.2-14.933333 29.866667-27.733333 40.533333-14.933333 8.533333-32 14.933333-53.333334 14.933334-23.466667 0-42.666667-6.4-57.6-14.933334-12.8-12.8-23.466667-23.466667-27.733333-40.533333-4.266667-14.933333-6.4-42.666667-6.4-83.2V640h76.8v68.266667c0 19.2 0 29.866667 2.133333 34.133333 2.133333 6.4 4.266667 6.4 10.666667 6.4s10.666667-2.133333 10.666667-8.533333c2.133333-6.4 2.133333-21.333333 2.133333-49.066667V661.333333c0-14.933333-2.133333-27.733333-4.266667-34.133333-2.133333-6.4-6.4-12.8-10.666666-14.933333s-14.933333-2.133333-29.866667-2.133334v-61.866666c17.066667 0 29.866667 0 34.133333-2.133334 4.266667-2.133333 6.4-6.4 8.533334-12.8 2.133333-6.4 2.133333-14.933333 2.133333-29.866666v-21.333334c0-14.933333-2.133333-23.466667-4.266667-27.733333-2.133333-4.266667-6.4-6.4-10.666666-6.4s-8.533333 2.133333-10.666667 6.4c-2.133333 6.4-2.133333 14.933333-2.133333 29.866667v34.133333h-72.533334v-34.133333c0-40.533333 6.4-68.266667 19.2-78.933334 12.8-14.933333 34.133333-21.333333 64-21.333333 36.266667 0 61.866667 8.533333 74.666667 27.733333s19.2 44.8 19.2 78.933334c0 23.466667-2.133333 40.533333-6.4 49.066666-4.266667 8.533333-14.933333 21.333333-25.6 29.866667zM81.066667 213.333333h512v85.333334h-512z" fill="#4C64FE" p-id="4063"></path></svg>