<?xml version="1.0" standalone="no"?><!DOCTYPE svg PUBLIC "-//W3C//DTD SVG 1.1//EN" "http://www.w3.org/Graphics/SVG/1.1/DTD/svg11.dtd"><svg t="1696648052469" class="icon" viewBox="0 0 1024 1024" version="1.1" xmlns="http://www.w3.org/2000/svg" p-id="8048" xmlns:xlink="http://www.w3.org/1999/xlink" width="200" height="200"><path d="M853.333333 170.666667a73.142857 73.142857 0 0 1 73.142857 73.142857v536.380952a73.142857 73.142857 0 0 1-73.142857 73.142857H170.666667a73.142857 73.142857 0 0 1-73.142857-73.142857V243.809524a73.142857 73.142857 0 0 1 73.142857-73.142857h682.666666z m0 73.142857H170.666667v536.380952h682.666666V243.809524z m-487.619047 48.761905a146.285714 146.285714 0 0 1 122.709333 225.938285l-0.78019 1.219048-0.024381 170.422857A44.446476 44.446476 0 0 1 426.666667 731.428571l-42.837334-17.139809a48.761905 48.761905 0 0 0-36.230095 0L304.761905 731.428571a44.446476 44.446476 0 0 1-60.952381-41.276952v-170.422857l-0.804572-1.219048A146.285714 146.285714 0 0 1 365.714286 292.571429z m438.857143 316.952381v73.142857H560.761905v-73.142857h243.809524z m-388.608-33.231239A145.993143 145.993143 0 0 1 365.714286 585.142857a145.993143 145.993143 0 0 1-50.249143-8.850286l1.462857 0.512 0.024381 70.948572 48.761905-19.504762 48.761904 19.504762v-70.948572l1.487239-0.512zM804.571429 487.619048v73.142857H560.761905v-73.142857h243.809524z m-438.857143-121.904762a73.142857 73.142857 0 1 0 0 146.285714 73.142857 73.142857 0 0 0 0-146.285714z m341.333333 0v73.142857h-146.285714v-73.142857h146.285714z" p-id="8049" fill="#1296db"></path></svg>