<?xml version="1.0" standalone="no"?><!DOCTYPE svg PUBLIC "-//W3C//DTD SVG 1.1//EN" "http://www.w3.org/Graphics/SVG/1.1/DTD/svg11.dtd"><svg t="1697102660694" class="icon" viewBox="0 0 1024 1024" version="1.1" xmlns="http://www.w3.org/2000/svg" p-id="9751" xmlns:xlink="http://www.w3.org/1999/xlink" width="200" height="200"><path d="M1024 870.4H0V153.6h1024v716.8zM51.2 819.2h921.6V204.8H51.2v614.4z" fill="#4B6EEF" p-id="9752"></path><path d="M128 281.6h102.4v460.8H128zM460.8 281.6h102.4v281.6h-102.4zM793.6 281.6h102.4v307.2h-102.4zM307.2 460.8h102.4v256h-102.4z" fill="#409FFF" p-id="9753"></path><path d="M793.6 460.8h102.4v256h-102.4zM307.2 281.6h204.8v102.4h-204.8zM640 281.6h204.8v102.4h-204.8zM307.2 460.8h204.8v102.4h-204.8z" fill="#409FFF" p-id="9754"></path><path d="M640 460.8h204.8v102.4h-204.8zM307.2 640h256v102.4H307.2zM640 640h256v102.4H640z" fill="#409FFF" p-id="9755"></path></svg>