<?xml version="1.0" standalone="no"?><!DOCTYPE svg PUBLIC "-//W3C//DTD SVG 1.1//EN" "http://www.w3.org/Graphics/SVG/1.1/DTD/svg11.dtd"><svg t="1719302688460" class="icon" viewBox="0 0 1024 1024" version="1.1" xmlns="http://www.w3.org/2000/svg" p-id="3407" xmlns:xlink="http://www.w3.org/1999/xlink" width="260" height="260"><path d="M102.333 885.293V98.152h-37v830.067H959.34v-42.926z" fill="#819292" p-id="3408"></path><path d="M208.913 757.492h9.25v-69.875h69.952V506.578l-69.952-0.542v-70.488h-9.25v70.416l-69.951-0.542v182.195h69.951z" fill="#D73949" p-id="3409"></path><path d="M417.493 565.852h9.25V432.927h69.952V320.595l-69.952-0.337V276.6h-9.25v43.614l-69.952-0.337v113.05h69.952z" fill="#0CA294" p-id="3410"></path><path d="M621.456 820.044h9.25V636.698h72.727V367.185l-72.727-0.839V311.66h-9.25v54.579l-67.176-0.775v271.234h67.176z" fill="#35A0D6" p-id="3411"></path><path d="M830.97 852.241h9.25v-64.819h69.951V659.667l-69.951-0.382V505.422h-9.25v153.812l-69.952-0.383v128.571h69.952z" fill="#D97B24" p-id="3412"></path></svg>