<?xml version="1.0" standalone="no"?><!DOCTYPE svg PUBLIC "-//W3C//DTD SVG 1.1//EN" "http://www.w3.org/Graphics/SVG/1.1/DTD/svg11.dtd"><svg class="icon" width="256px" height="240.06px" viewBox="0 0 1092 1024" version="1.1" xmlns="http://www.w3.org/2000/svg"><path d="M169.98543 966.744109h744.838845v57.255891H169.98543zM536.625903 179.024711c-20.373065 0-36.893498-17.182103-36.893498-38.41961v-102.238852C499.732405 17.171431 516.252837 0 536.625903 0s36.893498 17.171431 36.893498 38.41961v102.313556c0 21.194818-16.520432 38.41961-36.893498 38.41961zM283.003116 282.170691c-17.641004 10.597409-40.201853 4.268846-50.393722-14.044502l-49.187773-88.578545c-10.181197-18.356036-4.14078-41.824014 13.500225-52.410751s40.212525-4.268846 50.393721 14.044502l49.198445 88.578545c10.181197 18.345364 4.14078 41.813342-13.510896 52.410751zM156.698648 475.944263c-9.455493 18.772248-31.760211 26.018614-49.796083 16.178925l-87.13781-47.512251C1.728882 434.771248-5.229336 411.591416 4.268846 392.819168s31.717522-25.965253 49.753395-16.178925l87.127137 47.512252c18.046545 9.839689 25.004763 33.030192 15.54927 51.791768zM794.282748 281.701118c17.651676 10.597409 40.212525 4.268846 50.393722-14.044502l49.187773-88.578545c10.191869-18.356036 4.14078-41.824014-13.500224-52.421423s-40.201853-4.268846-50.393722 14.044502l-49.187773 88.578545c-10.181197 18.356036-4.14078 41.824014 13.500224 52.421423zM936.125814 475.944263c9.466165 18.772248 31.760211 26.007942 49.796084 16.178925l87.13781-47.512251c18.035872-9.839689 24.994091-33.01952 15.538597-51.791769s-31.760211-25.965253-49.796083-16.178925l-87.13781 47.512252c-18.035872 9.839689-24.994091 33.030192-15.538598 51.791768zM542.399516 274.999031c-162.86713 0-294.913195 140.765182-294.913195 314.432491v377.312587h589.837063V589.431522c0-173.667309-132.046065-314.432492-294.923868-314.432491z m-73.168012 580.040062l31.728194-183.645736-73.082636-8.153495L604.041646 426.617753l-34.769747 201.019937 76.092172 11.568572z" fill="#FF5E39" /></svg>