<?xml version="1.0" standalone="no"?><!DOCTYPE svg PUBLIC "-//W3C//DTD SVG 1.1//EN" "http://www.w3.org/Graphics/SVG/1.1/DTD/svg11.dtd"><svg class="icon" width="256px" height="256.00px" viewBox="0 0 1024 1024" version="1.1" xmlns="http://www.w3.org/2000/svg"><path d="M128.8 411.728a440.322 440.322 0 0 0-127.3 263.3c-10.4 83.2 36 163.1 113.3 195.3 40 19.9 83.6 31.4 128.2 34 67.5 5.4 135.4-1.3 200.5-20.1 24.4-7 26.1-8.7 29.6-22.7 11.7-44.5 18.8-90.1 21-136 0-75-28.7-104.6-121.4-125.5-58.9-7.7-114.7-31.2-161.3-68-30-28-47-67.1-47.1-108.1-2.6-22.7-5.2-41.8-5.2-42.7-11.2 9.1-21.4 19.3-30.5 30.5h0.2z" fill="#1A2781" /><path d="M254.3 296.628c-17.4 13.9-37.5 28.7-43.6 34.9l-11.3 10.5 1.7 54c1.7 66.2 10.5 92.4 39.2 120.4 35.3 30.4 78.6 50.1 124.7 56.7 37.7 5.3 74.2 16.8 108.1 34 22.2 16.8 38.4 40.4 46.2 67.1 10 47.3 11.5 96 4.3 143.9-3.5 21.8-5.2 41-5.2 41.8 14.2-3.3 28-8.2 41-14.8l39.2-16.5 3.5-21c2.1-26.4 2.7-52.9 1.7-79.3-2.6-71.5-10.5-102.2-34.9-129-30.9-29.2-70.9-47.1-113.3-50.6-26.9-5.1-53.2-13-78.5-23.5-75.4-42.7-113.5-130.2-93.3-214.5 1.7-12.8 5.2-27 6.4-31.4 4.2-11.5-1-8-35.9 17.3z" fill="#DF2019" /><path d="M354.6 232.928l-40.1 23.6-2.6 24.4c-16.7 69.2 0.1 142.2 45.4 197.1 48 34.2 104.3 54.9 163 60.2 52.3 8.8 81.1 38.3 101.1 102.2 9.1 32.9 12.4 67.1 9.6 101.1 0 39.2 0.9 71.5 1.7 71.5s17.4-9.6 36.6-20.1l34.9-20.1 2.6-29.6c5.2-52.7-2-105.8-21-155.2-26.6-46.5-74.7-76.6-128.2-80.2-23.2-4.6-46.2-10.5-68.9-17.4-44.7-15.9-79.5-51.6-94.2-96.8-10.1-45.5-11.5-92.6-4.3-138.6 2.7-14.1 4.4-28.4 5.2-42.7-0.7-2.9-19 6.7-40.8 20.6z" fill="#DF2019" /><path d="M701.1 119.628c-50.3 3.6-99.8 13.9-147.4 30.5-13.9 33.9-22.1 69.8-24.4 106.4-12.1 67.9 17.4 136.5 75 174.4 17.9 7.5 36.6 12.8 55.8 15.7 122.9 22.7 168.3 61.9 187.4 163.9 2.3 13.6 5.5 27 9.6 40.1 33.2-32.6 63.3-68.2 89.8-106.4 44.7-57.8 71.1-127.6 75.8-200.5 2.8-23.7 0.6-47.8-6.4-70.7-26.1-87.2-104.6-140.6-229.4-152.6-28.4-3.2-57.2-3.5-85.8-0.8z" fill="#1A2781" /><path d="M458.4 180.628c-41 17.4-37.5 9.6-46.2 89.8-14.8 139.5 31.4 194.5 189.2 224.1 33 3.7 63.3 19.9 84.6 45.4 36.6 48 53.2 108.3 46.2 168.3-1.1 14.5-0.8 29.1 0.9 43.6 0.9 0 18.3-12.2 38.3-27l35.8-27 0.9-33.2c4.3-51.5-13.1-102.4-48-140.6-35.1-32.3-79.2-53-126.4-59.3-61.9-8.8-112.3-54.3-127.3-115-16.5-57.7-17.7-118.7-3.5-177 3.5-11.3-0.9-10.5-44.7 7.9h0.2z" fill="#DF2019" /></svg>