<?xml version="1.0" standalone="no"?><!DOCTYPE svg PUBLIC "-//W3C//DTD SVG 1.1//EN" "http://www.w3.org/Graphics/SVG/1.1/DTD/svg11.dtd"><svg class="icon" width="256px" height="96.06px" viewBox="0 0 2729 1024" version="1.1" xmlns="http://www.w3.org/2000/svg"><path d="M2561.87904 305.73056l-40.35072 439.05536h-50.03776l4.67968-39.35744a108.04224 108.04224 0 0 1-37.82144 34.88256c-16.93184 9.25184-36.18304 13.64992-55.7056 11.9808-38.6048 0-69.9392-12.72832-92.94336-34.82112-24.00256-23.10656-38.97856-56.38656-43.55584-96.14848-5.86752-52.09088 5.9392-106.15296 34.53952-145.23904 25.15968-34.47296 63.2832-57.37984 113.80736-57.37984 21.02272 0 45.22496 4.1984 65.536 15.29344 14.43328 7.92064 26.89536 19.31776 34.816 35.19488l13.99296-163.46624h53.0432v0.00512zM2401.0752 467.69664c-35.6352 0-61.44 17.26976-78.26432 42.496-20.41344 30.6176-27.71968 72.9088-23.4496 110.52544a84.6336 84.6336 0 0 0 25.93792 60.75392 77.53728 77.53728 0 0 0 60.2112 21.37088c33.792 0 58.7776-18.1248 75.43296-43.89376 20.58752-31.77984 28.5696-75.16672 24.50432-111.06816a86.59968 86.59968 0 0 0-26.61888-58.02496 79.70304 79.70304 0 0 0-57.7536-22.15936z m-823.12704-162.2016l-39.90016 439.296h-50.01216l4.67968-39.38816a107.99104 107.99104 0 0 1-37.888 34.78016 98.7136 98.7136 0 0 1-55.63904 11.8784c-38.63552 0-69.96992-12.76416-92.94336-34.816-24.02816-23.11168-38.97856-56.39168-43.55072-96.1536-5.87264-52.09088 5.9392-106.15296 34.5088-145.23904 25.15968-34.47296 63.31904-57.37984 113.83808-57.37984 20.992 0 45.22496 4.1984 65.50016 15.28832 14.46912 7.92064 26.9312 19.31776 34.816 35.15904l13.55264-163.4304h53.03808v0.00512z m-160.32256 162.2016c-35.6352 0-61.44 17.26976-78.26944 42.496-20.44416 30.6176-27.7504 72.9088-23.4496 110.52544a84.6592 84.6592 0 0 0 26.18368 61.06624c16.4864 15.52896 38.47168 23.20896 59.93984 21.05856 33.792 0 58.77248-18.1248 75.46368-43.89376 20.55168-31.77984 28.53376-75.16672 24.4736-111.06816a86.6048 86.6048 0 0 0-26.624-58.02496 79.67744 79.67744 0 0 0-57.71776-22.15936z m457.1136-42.94144h-53.72928l-16.89088 181.69344a335.5904 335.5904 0 0 0-1.87904 61.8496c3.21024 28.22656 12.63104 48.80896 28.43136 62.45888 15.90784 13.65504 38.2976 20.34688 67.58912 20.34688 39.41888 1.26464 76.86656-17.68448 101.37088-50.45248l-3.61472 44.1344h51.8144L2077.4912 425.984h-53.72416l-16.21504 174.41792a107.40224 107.40224 0 0 1-29.21472 69.90336c-17.2032 18.05824-40.62208 29.696-66.69312 31.05792a48.3584 48.3584 0 0 1-36.52608-9.3184 52.23424 52.23424 0 0 1-19.90144-33.10592 348.85632 348.85632 0 0 1 1.4336-48.06144l18.08896-186.12224z m-74.48064-6.07744a86.7328 86.7328 0 0 0-19.75808-0.2048c-23.11168 0-45.12768 7.60832-63.4624 20.92032-15.488 11.264-28.32896 26.55744-37.06368 44.78464l6.00576-58.19392h-50.00192l-27.99104 318.80704h53.4528l12.01664-141.45024a194.3296 194.3296 0 0 1 16.82432-72.16128 92.45696 92.45696 0 0 1 58.03008-50.44736c9.79456-2.63168 19.968-3.65056 45.76768-3.072l6.144-58.9824h0.03584zM2202.9312 425.984h-53.68832l-27.99104 318.5664h53.68832l27.99104-318.5664z m10.4448-120.25344h-53.6576l-6.144 66.90304h54.41024l5.39136-66.90304z"  /><path d="M271.83616 378.91584H200.6016c-16.52224 0-29.93664-14.4384-29.93664-32.256s13.4144-32.256 29.93664-32.256h71.23456c16.55296 0 29.93664 14.4384 29.93664 32.256s-13.37856 32.256-29.93664 32.256z m393.14944 330.68544H314.1632c-16.55296 0-29.93664-14.47424-29.93664-32.29184 0-17.8176 13.37856-32.26112 29.93664-32.26112h350.8224c38.8096 0.512 77.05088-9.36448 110.76096-28.60032 43.35104-25.6 71.85408-47.79008 71.85408-118.34368a125.81888 125.81888 0 0 0-27.92448-89.088 93.184 93.184 0 0 0-63.0784-27.30496h-394.3424c-16.52224 0-29.93664-14.4384-29.93664-32.256s13.4144-32.29184 29.93664-32.29184h393.76384c39.25504 0.68096 76.83072 16.9984 105.53856 45.83936 32.08704 36.31616 48.7424 85.2992 46.11584 135.30624 0 114.00704-64.44544 152.09984-102.98368 174.93504a273.93024 273.93024 0 0 1-139.70432 36.35712z" fill="#2AEEF8" /><path d="M731.3408 853.13024h-133.7344c-17.92 0-32.42496-13.93152-32.42496-31.1296 0-17.17248 14.50496-31.09888 32.42496-31.09888h133.7344c109.09184 0 294.23104-68.46976 295.7312-324.60288 4.43904-75.3664-31.40096-147.6608-95.06304-191.8976a244.57216 244.57216 0 0 0-139.776-41.472H387.41504c-17.92 0-32.42496-13.9264-32.42496-31.1296 0-17.16736 14.50496-31.09376 32.42496-31.09376h404.82304a309.74464 309.74464 0 0 1 177.59744 52.66944c81.13664 56.08448 127.11424 147.8656 122.0608 243.712-1.50528 265.10848-187.94496 386.04288-360.55552 386.04288z m-234.42944 0.19968h-69.3248c-17.92 0-32.42496-13.92128-32.42496-31.12448 0-17.17248 14.50496-31.09376 32.42496-31.09376h69.3248c17.92 0 32.42496 13.9264 32.42496 31.09376 0.00512 17.2032-14.50496 31.12448-32.42496 31.12448z" fill="#2AEEF8" /></svg>