<?xml version="1.0" standalone="no"?><!DOCTYPE svg PUBLIC "-//W3C//DTD SVG 1.1//EN" "http://www.w3.org/Graphics/SVG/1.1/DTD/svg11.dtd"><svg class="icon" width="256px" height="42.67px" viewBox="0 0 6144 1024" version="1.1" xmlns="http://www.w3.org/2000/svg"><path d="M2253.840213 0v4.949333c105.813333 22.869333 185.173333 122.197333 185.173334 241.322667 0 105.813333-62.634667 196.096-150.784 230.997333 88.149333 34.816 150.869333 124.928 150.869333 230.826667 0 119.210667-79.530667 218.453333-185.173333 241.408v4.864h-1018.88V0h1018.88z m996.949334 0l539.136 954.368h-259.84l-102.656-164.352h-636.842667l-93.781333 164.352h-257.706667L2988.645547 0h262.144z m1621.589333 0l-153.856 215.466667h-702.805333c-42.325333 12.8-63.402667 41.386667-63.402667 85.589333 0 44.202667 21.162667 69.12 63.402667 74.410667h702.805333c126.976 2.304 190.464 93.269333 190.464 272.64 0 179.285333-54.101333 281.429333-162.474667 306.346666H3884.98688l-112.042667-226.133333h844.544c46.336-2.901333 69.461333-29.696 69.461334-80.213333 0-50.602667-23.125333-74.666667-69.461334-72.448h-665.173333c-85.589333 0-216.490667-111.786667-216.490667-321.28 0-139.690667 72.192-224.512 216.490667-254.378667h920.064zM2130.36288 572.586667h-710.058667v159.146666h710.058667c34.133333 0 61.781333-35.669333 61.781333-79.530666 0-43.946667-27.648-79.530667-61.781333-79.530667z m983.466667-349.866667l-180.736 325.461333h366.933333L3113.829547 222.72z m-983.466667-38.058667h-710.058667V338.773333h710.058667c34.133333 0 61.781333-34.474667 61.781333-76.970666s-27.648-77.056-61.781333-77.056zM1173.349547 0l-157.610667 241.152H297.65888c-60.330667-3.584-90.538667 21.674667-90.538667 75.776v355.754667c0.512 44.544 23.978667 66.816 70.656 66.816h607.061334V609.109333H549.30688V369.749333h485.034667c64.597333-2.730667 96.938667 26.709333 96.938666 88.149334v394.752c-8.533333 67.84-40.789333 101.717333-96.938666 101.717333H207.205547C69.136213 951.466667 0.016213 899.754667 0.016213 799.914667V189.44C-1.263787 63.146667 75.109547 0 229.392213 0H1173.349547zM6144.016213 0l-83.370666 216.576h-657.493334c-86.698667 0.256-129.877333 51.797333-129.877333 154.538667l863.573333 0.170666-73.045333 216.746667h-789.162667c8.106667 86.869333 50.944 130.218667 128.512 130.218667h734.72l-79.616 236.117333H5294.096213c-157.013333 0-244.224-65.194667-261.546666-195.584V194.133333C5032.549547 65.877333 5119.67488 1.28 5294.096213 0H6144.016213z" fill="#C10013" /></svg>