<?xml version="1.0" standalone="no"?><!DOCTYPE svg PUBLIC "-//W3C//DTD SVG 1.1//EN" "http://www.w3.org/Graphics/SVG/1.1/DTD/svg11.dtd"><svg class="icon" width="256px" height="36.57px" viewBox="0 0 7168 1024" version="1.1" xmlns="http://www.w3.org/2000/svg"><path d="M2836.387871 42.652449c179.225591 0 314.86038 95.498834 407.288237 286.240587l-160.031989 63.594801c-62.784405-115.716095-145.316894-173.595468-247.256248-173.595468-177.818061 0-273.487504 180.76108-273.487504 314.68977 0 133.715428 105.351549 314.049983 267.004331 314.049984 107.782739 0 192.362546-64.234588 253.739421-192.789071h-185.11163l-39.752082-148.473175H3284.238587C3284.238587 830.656448 3078.397867 1023.65878 2824.445185 1023.65878 2570.62046 1023.65878 2388.537154 778.321893 2388.537154 533.582139c0-241.071643 173.595468-483.124292 435.310897-490.75908L2836.387871 42.652449zM447.722759 42.652449v275.748084L1023.445518 42.652449v214.02999l-575.722759 276.558481L1023.65878 806.984339V1023.65878l-576.149283-275.748084 0.213262 275.748084H234.75908v-378.028657L0 533.24092l234.588471-112.773076L234.716428 42.652449h212.963679zM1364.878374 42.652449v981.006331h-213.262246V42.652449h213.262246z m379.905365 0l370.436521 720.869044V42.652449H2303.232256v981.006331h-242.820393L1679.056315 266.364545V1023.65878H1492.835721V42.652449h251.948018z m3856.71976-8.317227c224.181273 0 349.280906 93.024992 375.256248 278.520493h-212.409197c-8.957014-80.655781-63.125625-120.877041-162.847051-120.877041-75.537488 0-136.871709 34.548484-136.87171 93.664778 0 59.073642 44.955681 89.399533 108.806398 111.834722l17.871376 5.971343 9.255582 2.815061 28.833056 8.231923 82.233922 21.582139 21.155614 5.843386 21.155615 6.184605c126.677774 38.387204 246.957681 101.384872 246.957681 280.397201 0 140.53982-91.148284 295.154948-379.094968 295.154948-241.839387 0-376.877041-98.313895-405.112963-295.36821h209.338221c25.804732 93.835388 90.977674 140.753082 195.774742 140.753082l10.44985-0.127957c1.834055 0 3.668111-0.085305 5.544818-0.17061l11.729424-0.639787 12.36921-1.151616 12.71043-1.706098c53.614129-8.487837 112.687771-34.548484 112.68777-110.555148 0-72.167944-54.723092-105.436854-129.236921-129.450183l-18.980339-5.800734-19.705432-5.544818-40.989004-10.663112-31.733422-8.018661-31.989337-8.445185a1349.096968 1349.096968 0 0 1-10.705764-2.943019l-21.326225-6.227257c-3.497501-1.066311-7.037654-2.132622-10.535155-3.284239l-20.8997-6.995001c-107.228257-37.704765-198.547151-101.214262-198.547151-254.464512 0-136.487837 83.257581-278.307231 348.854382-278.307231V34.335222z m-1602.623126 14.203265a278.98967 278.98967 0 0 1 206.907031 466.02066 281.036988 281.036988 0 0 1-174.192602 501.166278H3540.153282V48.538487h458.727091zM4763.041653 0l484.702432 1015.725425h-210.148617l-274.553815-574.101966-272.549151 574.101966h-212.579806L4763.254915 0h-0.213262zM6781.73942 47.557481v170.183272h-502.573809v627.758747H6781.73942v170.225925h-706.068644v-968.210597H6781.73942z m-2018.911029 697.794068a126.891036 126.891036 0 0 1 109.915361 190.443186 126.891036 126.891036 0 0 1-236.806398-63.466844 126.933689 126.933689 0 0 1 119.426858-126.763079l7.464179-0.213263z m-789.496835-139.174941h-227.465511v249.090303h222.133955c84.11063-9.383539 126.123292-50.799067 126.123292-124.758414 0-69.438187-37.064978-110.384538-111.322892-122.881706l-9.511496-1.450183zM6781.73942 443.670776v170.609797h-451.22026v-170.609797H6781.73942zM3933.707431 200.893036h-187.841386v249.687437h187.841386c84.025325-9.383539 125.91003-50.756415 125.91003-124.971676 0-70.888371-38.685771-112.090636-116.441186-123.47884l-9.468844-1.236921zM7016.327891 29.558147a149.283572 149.283572 0 1 1 0 298.567145 149.283572 149.283572 0 0 1 0-298.567145z m0 26.657781a122.625791 122.625791 0 1 0-0.042653 245.251583 122.625791 122.625791 0 0 0 0.042653-245.251583z m21.326224 34.633789c30.112629 4.52116 45.040986 19.748084 45.040987 46.405864 0 23.970676-9.468844 40.05065-28.406532 47.984006l-5.971342 2.132622 40.519826 70.376541h-40.519826l-31.989337-70.376541h-30.112629v70.376541h-31.221593V90.849717H7037.654115z m-10.407197 18.681773h-41.586138v54.083305h41.586138c17.316894 0 26.145951-8.231923 26.145951-24.73842 0-14.715095-6.952349-24.141286-20.686438-28.150617l-5.459513-1.194268z" fill="#C9151E" /></svg>