<?xml version="1.0" standalone="no"?><!DOCTYPE svg PUBLIC "-//W3C//DTD SVG 1.1//EN" "http://www.w3.org/Graphics/SVG/1.1/DTD/svg11.dtd"><svg class="icon" width="256px" height="163.13px" viewBox="0 0 1607 1024" version="1.1" xmlns="http://www.w3.org/2000/svg"><path d="M1543.637068 0.901058c-23.82359 0.730785-16.296505 7.673242-67.743765 20.315822-51.958811 12.788737-115.464023 8.842498-171.369073 32.300695-166.984363 70.082278-200.527393 309.48743-352.384507 395.208506-113.490904 64.089841-228.004907 69.205336-330.89943 101.50603-67.670687 21.192764-141.626125 64.674469-202.938983 117.510222-47.574101 40.997036-48.816435 77.097813-98.509812 128.545074-53.201145 54.955029-211.34301 0.876942-283.033015 85.136448 23.092805 23.385119 33.177637 29.889105 78.70554 23.823589-9.427126 17.831153-64.966783 32.885323-54.078086 59.193582 11.400245 27.623671 145.718521 46.331766 267.759608-27.331358 56.85507-34.346893 102.090659-83.821035 190.588718-95.586672 114.587082-15.346484 246.566845 9.792518 379.131236 28.939084-19.658115 58.608954-59.120503 97.559792-90.763492 144.256951-9.792518 10.596382 19.731194 11.692559 53.347302 5.407809 60.435916-14.981092 103.9907-27.039043 149.591681-53.566538 56.051206-32.666088 64.60139-116.340965 133.368255-134.464432 38.293132 58.901268 142.503067 72.85926 207.250615 25.72363-56.781991-16.077269-72.420789-136.876023-53.347302-190.077167 18.196545-50.424162 36.100777-131.029743 54.370401-197.604253 19.658115-71.543847 26.892886-161.649633 50.643397-198.115802 35.735384-54.808872 75.197772-73.663124 109.471587-104.50225 34.273815-30.985282 65.624489-61.093623 64.60139-131.833606-0.365392-22.727412-12.13103-35.44307-33.762265-34.785364z" fill="#002B64" /><path d="M1492.5552 42.848114c5.700123 19.43888 14.615699 28.354456 53.274223 31.935303-5.627044 48.962592-38.293132 75.709322-74.905458 101.359874-32.154538 22.654334-67.451452 44.358647-90.178864 79.65556-23.165883 36.100777-38.000818 159.82267-73.955438 281.936837-31.131439 105.598427-78.193991 209.954519-160.261141 255.701658-8.550184-21.631235 1.096177-61.459015-15.931112-74.540066-11.034853 31.423753-23.531276 61.532094-38.146975 89.448079-48.231807 92.078905-119.483341 160.991926-238.674368 182.038533 56.562756-76.513185 110.640843-155.584118 111.810099-287.417724-39.82778 8.550184-38.950838 102.602208-79.874796 127.74121a472.087083 472.087083 0 0 1-79.509404 1.169256c-109.763901-6.577065-222.377863-39.535466-325.053149-6.577064-69.936121 22.435098-127.156583 75.343929-186.350165 101.06756-69.570728 30.181419-122.260324 42.604763-208.931419 30.181418-10.961774-14.834935 63.432134-33.981501 58.974346-66.136038-33.908422-3.727003-53.566537 4.457788-83.09025-8.915577a43.993255 43.993255 0 0 1 14.10415-15.200327c54.005008-37.343111 207.542928-8.76942 248.539964-49.108749 25.358238-24.846689 42.020135-50.935712 59.193582-76.220871 16.734976-24.554375 33.981501-48.451043 60.289759-70.0092 10.157911-8.25787 20.681214-16.077269 31.423753-23.385118 44.870196-30.692968 100.336775-58.535875 154.926411-77.75552 74.32083-26.089023 149.66476-28.281378 228.881849-58.462797 48.962592-18.781173 102.163737-41.873978 145.572364-74.247751 10.230989-7.527085 19.950429-15.784955 29.085242-24.627453 123.86805-120.798754 148.349347-333.822569 341.715046-353.69992 23.385119-2.338512 42.531685-1.607727 59.924367-2.192355 20.096586-0.511549 37.854661-2.92314 57.147384-13.738758zM1256.950129 724.670481c2.265433 36.90464 23.750511 110.202372 42.677842 128.033525-37.123876 8.988655-100.921403-5.919358-117.290986-32.08146 8.404027-37.708504 52.178046-72.201554 74.540065-95.952065z" fill="#C49A6C" /><path d="M1506.513192 84.210543c-7.454007 15.56572-21.704313 35.735384-21.704313 75.490086-0.073078 6.869379-5.188573 11.546402-5.33473 1.023099 0.438471-38.87776 10.742539-55.685814 21.631235-77.828598 5.115495-8.988655 8.111713-5.261652 5.407808 1.242335z m-7.527085-5.919358c-8.76942 14.908013-29.962183 42.093214-33.469951 81.701758-0.584628 6.7963-6.138594 10.961774-5.33473 0.51155 3.87316-38.731603 20.754293-62.847506 33.616108-83.967192 5.84628-8.550184 8.550184-4.530867 5.188573 1.753884z m-6.7963-7.819399c-10.011754 14.10415-42.604763 46.770237-49.474142 86.01339-1.169256 6.650143-7.015536 10.450225-5.33473 0 7.088614-38.220053 35.077678-68.255315 49.693377-88.132666 6.577065-8.038635 8.915576-3.87316 5.115495 2.192354z m-6.138594-8.696341l-3.288532 3.507768c-14.615699 15.638798-48.377964 53.712694-59.705131 88.571137-2.192355 6.430908-8.477106 9.354047-5.261652-0.730785 12.350266-36.831562 46.331766-76.586264 63.578292-94.198181 7.527085-7.015536 9.280969-2.557747 4.677023 2.923139z m-174.803762 78.924775c7.527085-32.373774 32.739166-47.13563 76.220872-43.554783 10.523303 48.377964-48.231807 67.889923-76.220872 43.554783z" fill="#002B64" /></svg>