<?xml version="1.0" standalone="no"?><!DOCTYPE svg PUBLIC "-//W3C//DTD SVG 1.1//EN" "http://www.w3.org/Graphics/SVG/1.1/DTD/svg11.dtd"><svg class="icon" width="256px" height="256.00px" viewBox="0 0 1024 1024" version="1.1" xmlns="http://www.w3.org/2000/svg"><path d="M113.83207 444.178335c-9.31925-22.779819-21.399379-41.072441-27.957749-45.903469-6.558369-4.832052-19.327184-31.40936-19.327184-31.40936s0.157589 42.108027 0.246617 89.777723l-0.306992-89.777723c0 0-12.769838 26.578332-19.328207 31.40936-6.559393 4.831029-18.637476 23.12365-27.956725 45.903469-9.31925 22.778796-22.089088 80.421634-7.593955 114.244974 14.380522 33.55114 44.026726 61.995983 44.502563 62.450331 2.338255 9.360182 6.972808 35.022655 5.644557 36.262902l13.84431 0 2.200108-37.120432c5.064342-5.016247 30.605042-31.209816 43.62559-61.591777C135.921157 524.598946 123.150296 466.957131 113.83207 444.178335z" fill="#37A544" /><path d="M197.259154 515.495614c6.740518-6.740518 10.719132-10.616802 11.93175-11.628852 3.03308-2.560312 6.30152-4.549619 9.80839-5.964852 3.504824-1.416256 6.977925-2.12336 10.41521-2.12336 5.796006 0 10.785647 1.686409 14.965853 5.055133 4.178159 3.370771 6.976902 8.259104 8.392134 14.661931 6.943133-8.089235 12.8077-13.398148 17.594727-15.925714 4.78498-2.527566 9.707083-3.791349 14.763239-3.791349 4.92108 0 9.284457 1.263783 13.095249 3.791349 3.807722 2.527566 6.824429 6.65763 9.05012 12.386098 1.481747 3.911076 2.224668 10.044774 2.224668 18.403139l0 39.841404c0 5.798053 0.436952 9.777691 1.313925 11.93175 0.673335 1.484817 1.921769 2.7486 3.741207 3.791349 1.820462 1.044796 4.78498 1.568728 8.897647 1.568728l0 3.6399-45.704948 0 0-3.6399 1.920746 0c3.976568 0 7.078209-0.775666 9.302877-2.328022 1.549286-1.077541 2.661619-2.795673 3.337002-5.15644 0.26913-1.143033 0.405229-4.41352 0.405229-9.807367L292.71418 530.359137c0-7.54893-0.910743-12.873192-2.730181-15.974833-2.628874-4.314259-6.843872-6.472412-12.639878-6.472412-3.573385 0-7.163143 0.893346-10.769274 2.679016-3.607154 1.787716-7.971555 5.106298-13.094226 9.960863l-0.202615 1.111311 0.202615 4.349051 0 44.188408c0 6.337335 0.354064 10.281157 1.061169 11.830443 0.708128 1.553379 2.038426 2.849908 3.993964 3.89368 1.953492 1.044796 5.290493 1.568728 10.011005 1.568728l0 3.6399L221.730499 591.133292l0-3.6399c5.122671 0 8.645914-0.607844 10.56666-1.820462 1.920746-1.213641 3.252067-3.034103 3.993964-5.460362 0.335644-1.14508 0.505513-4.483104 0.505513-10.011005L236.796636 530.359137c0-7.54893-1.112334-12.975523-3.337002-16.278755-2.966565-4.314259-7.113001-6.471388-12.437264-6.471388-3.640923 0-7.248078 0.978281-10.819416 2.931772-5.596462 2.967588-9.909697 6.303566-12.942777 10.011005l0 49.64877c0 6.068206 0.420579 10.011005 1.263783 11.830443 0.841158 1.820462 2.089591 3.185552 3.741207 4.095271 1.650593 0.911766 5.006014 1.367137 10.061147 1.367137l0 3.6399-45.806255 0 0-3.6399c4.246721 0 7.212262-0.455371 8.897647-1.367137 1.685385-0.909719 2.965541-2.356674 3.842515-4.347005 0.874927-1.988284 1.314948-5.848195 1.314948-11.577686l0-35.392068c0-10.17678-0.302899-16.750499-0.909719-19.717064-0.472767-2.224668-1.214664-3.75758-2.224668-4.601808-1.011027-0.841158-2.394537-1.263783-4.146437-1.263783-1.889023 0-4.145413 0.505513-6.77531 1.51654l-1.51654-3.640923 27.907607-11.323906 4.348028 0L197.258131 515.495614z" fill="#462F24" /><path d="M376.136148 495.77855c14.021342 0 25.279756 5.326309 33.773198 15.975856 7.211239 9.101285 10.819416 19.550265 10.819416 31.345915 0 8.290827-1.990331 16.685008-5.965875 25.178449-3.978614 8.492418-9.455349 14.898315-16.432251 19.212574-6.976902 4.313236-14.746866 6.469342-23.306822 6.469342-13.953803 0-25.045419-5.560646-33.267685-16.685008-6.945179-9.369392-10.41521-19.884886-10.41521-31.54853 0-8.494465 2.105964-16.936741 6.320962-25.328875 4.211928-8.393157 9.757225-14.59337 16.632819-18.606777C361.170295 497.783207 368.451118 495.77855 376.136148 495.77855zM373.001761 502.350223c-3.573385 0-7.163143 1.062192-10.769274 3.185552-3.607154 2.12336-6.52153 5.848195-8.746198 11.172457-2.223644 5.326309-3.337002 12.170181-3.337002 20.526499 0 13.485129 2.680039 25.112957 8.039093 34.886555 5.359055 9.777691 12.418844 14.661931 21.183462 14.661931 6.538927 0 11.93175-2.696412 16.179494-8.088212s6.371104-14.661931 6.371104-27.807323c0-16.448624-3.538593-29.392424-10.617825-38.829354C386.516566 505.585917 380.415614 502.350223 373.001761 502.350223z" fill="#462F24" /><path d="M461.378577 515.39533c10.852162-13.07683 21.200858-19.61678 31.043017-19.61678 5.056156 0 9.404184 1.263783 13.044084 3.791349s6.537903 6.692423 8.696056 12.488429c1.481747 4.045129 2.225691 10.247388 2.225691 18.605753l0 39.537482c0 5.863545 0.470721 9.843182 1.415232 11.93175 0.740874 1.686409 1.938142 3.00238 3.589758 3.943822 1.64957 0.945535 4.702092 1.417279 9.151427 1.417279l0 3.6399-45.807279 0 0-3.6399 1.921769 0c4.313236 0 7.330966-0.660032 9.05012-1.972934 1.719154-1.314948 2.914376-3.252067 3.589758-5.814426 0.268106-1.011027 0.404206-4.179183 0.404206-9.505491l0-37.918611c0-8.425903-1.095961-14.544251-3.285836-18.35402-2.191922-3.807722-5.882987-5.713119-11.073196-5.713119-8.022721 0-16.010649 4.38282-23.964808 13.146415l0 48.839335c0 6.269797 0.370437 10.147104 1.112334 11.627828 0.942465 1.956561 2.241041 3.388167 3.89368 4.296863 1.650593 0.911766 5.006014 1.367137 10.061147 1.367137l0 3.6399L430.638459 591.133292l0-3.6399 2.023076 0c4.718465 0 7.902994-1.197268 9.55461-3.591805 1.650593-2.39249 2.477424-6.959505 2.477424-13.701047l0-34.381042c0-11.122315-0.252757-17.897625-0.75827-20.323884-0.505513-2.426259-1.282203-4.076852-2.324952-4.954849-1.045819-0.87595-2.444679-1.313925-4.196579-1.313925-1.889023 0-4.145413 0.505513-6.77531 1.51654l-1.51654-3.640923 27.907607-11.323906 4.348028 0L461.377554 515.39533z" fill="#462F24" /><path d="M562.698171 557.359071c-5.662977-2.76395-10.011005-6.623861-13.044084-11.577686-3.034103-4.954849-4.550643-10.43056-4.550643-16.433274 0-9.165754 3.453658-17.054421 10.364045-23.660886 6.910387-6.605442 15.755846-9.908674 26.544563-9.908674 8.829086 0 16.480346 2.157129 22.952758 6.470365l19.61678 0c2.898003 0 4.583388 0.084934 5.056156 0.252757 0.470721 0.169869 0.808412 0.455371 1.011027 0.859577 0.405229 0.606821 0.605797 1.686409 0.605797 3.236718 0 1.752924-0.168846 2.966565-0.505513 3.640923-0.200568 0.337691-0.555655 0.606821-1.061169 0.808412-0.50449 0.202615-2.208295 0.302899-5.106298 0.302899l-12.032034 0c3.77293 4.853541 5.661953 11.056823 5.661953 18.605753 0 8.630564-3.304256 16.010649-9.909697 22.145369-6.606465 6.133697-15.470343 9.201569-26.593681 9.201569-4.585435 0-9.271154-0.673335-14.055111-2.023076-2.966565 2.562359-4.972245 4.802376-6.01704 6.723122-1.044796 1.922792-1.566682 3.558036-1.566682 4.904707 0 1.147126 0.555655 2.258437 1.667989 3.335978 1.113357 1.081635 3.285836 1.855254 6.522554 2.328022 1.886977 0.270153 6.604418 0.503467 14.156418 0.705058 13.885242 0.337691 22.884197 0.809435 26.998911 1.417279 6.269797 0.876973 11.275811 3.203972 15.015995 6.976902 3.741207 3.774977 5.611811 8.423857 5.611811 13.95278 0 7.616468-3.573385 14.764262-10.719132 21.437242-10.516518 9.841136-24.235984 14.764262-41.155329 14.764262-13.011338 0-23.9996-2.933819-32.963763-8.798387-5.055133-3.369747-7.584746-6.875594-7.584746-10.514471 0-1.61887 0.369414-3.235694 1.113357-4.854565 1.144056-2.495844 3.5038-5.965875 7.078209-10.41521 0.470721-0.605797 3.908006-4.246721 10.313903-10.920724-3.507894-2.088568-5.985318-3.959172-7.432273-5.611811-1.450025-1.650593-2.174526-3.521197-2.174526-5.611811 0-2.356674 0.959861-5.122671 2.88163-8.290827C551.322076 567.640228 555.754015 563.155077 562.698171 557.359071zM561.686121 591.132268c-3.168156 3.437286-5.560646 6.639211-7.17747 9.605775-1.61887 2.963495-2.428306 5.693676-2.428306 8.190543 0 3.235694 1.953492 6.068206 5.864568 8.494465 6.740518 4.179183 16.482393 6.269797 29.223578 6.269797 12.133342 0 21.082154-2.142803 26.845415-6.421246 5.764284-4.281513 8.645914-8.847505 8.645914-13.701047 0-3.507894-1.719154-6.001691-5.15644-7.483438-3.507894-1.484817-10.450003-2.360767-20.830421-2.629897C581.505515 593.053014 569.842895 592.275301 561.686121 591.132268zM580.292897 500.631068c-4.989641 0-9.169847 1.989307-12.538571 5.965875-3.371794 3.977591-5.055133 10.079566-5.055133 18.301831 0 10.652618 2.291183 18.909675 6.875594 24.775266 3.505847 4.449335 7.953136 6.67298 13.348006 6.67298 5.122671 0 9.334599-1.922792 12.639878-5.764284 3.303232-3.843538 4.954849-9.874905 4.954849-18.10024 0-10.719132-2.324952-19.111267-6.976902-25.178449C590.102311 502.855736 585.684698 500.631068 580.292897 500.631068z" fill="#462F24" /><path d="M686.768931 495.77855c14.020318 0 25.278733 5.326309 33.773198 15.975856 7.212262 9.101285 10.819416 19.550265 10.819416 31.345915 0 8.290827-1.989307 16.685008-5.966898 25.178449-3.977591 8.492418-9.453303 14.898315-16.431228 19.212574-6.975878 4.313236-14.746866 6.469342-23.306822 6.469342-13.954827 0-25.045419-5.560646-33.267685-16.685008-6.945179-9.369392-10.41521-19.884886-10.41521-31.54853 0-8.494465 2.104941-16.936741 6.318916-25.328875 4.212952-8.393157 9.758248-14.59337 16.634866-18.606777C671.804101 497.783207 679.084924 495.77855 686.768931 495.77855zM683.634544 502.350223c-3.573385 0-7.163143 1.062192-10.768251 3.185552-3.608178 2.12336-6.522554 5.848195-8.747221 11.172457-2.224668 5.326309-3.337002 12.170181-3.337002 20.526499 0 13.485129 2.680039 25.112957 8.03807 34.886555 5.359055 9.777691 12.420891 14.661931 21.184485 14.661931 6.537903 0 11.93175-2.696412 16.179494-8.088212s6.370081-14.661931 6.370081-27.807323c0-16.448624-3.538593-29.392424-10.616802-38.829354C697.149349 505.585917 691.048397 502.350223 683.634544 502.350223z" fill="#462F24" /><path d="M741.271242 591.132268l0-3.741207 4.550643 0c3.976568 0 7.027044-0.623193 9.150404-1.870604 2.12336-1.245364 3.691065-2.948145 4.703115-5.106298 0.605797-1.417279 0.909719-5.661953 0.909719-12.741185l0-90.197278c0-7.009647-0.372483-11.391445-1.112334-13.144368-0.74292-1.7519-2.243087-3.28686-4.499477-4.600785-2.258437-1.314948-5.308913-1.971911-9.150404-1.971911l-4.550643 0 0-3.742231 61.377906 0c16.382109 0 29.559223 2.223644 39.537482 6.674003 12.20088 5.460362 21.452591 13.719466 27.756157 24.77322 6.30152 11.056823 9.454326 23.559579 9.454326 37.514405 0 9.641591-1.550309 18.523889-4.650927 26.643823-3.102664 8.124028-7.113001 14.8318-12.033058 20.122293-4.923126 5.29254-10.600429 9.541307-17.038048 12.741185-6.439666 3.203972-14.307867 5.682419-23.609721 7.433296-4.114714 0.809435-10.586103 1.213641-19.416212 1.213641L741.271242 591.132268zM793.548886 461.801714l0 106.983593c0 5.661953 0.270153 9.134031 0.809435 10.41521 0.537236 1.281179 1.446955 2.258437 2.730181 2.931772 1.819438 1.011027 4.450359 1.51654 7.886621 1.51654 11.256368 0 19.851117-3.841491 25.78527-11.528568 8.089235-10.381441 12.134365-26.492374 12.134365-48.332798 0-17.59575-2.764973-31.649837-8.292873-42.166355-4.381797-8.223289-10.011005-13.818727-16.885576-16.786315C812.86379 462.747249 804.805254 461.7352 793.548886 461.801714z" fill="#8A6D49" /><path d="M980.212216 518.429433c13.009292 3.032056 22.145369 6.705726 27.403117 11.021008 7.547907 6.135744 11.323906 14.090926 11.323906 23.863501 0 10.314926-4.145413 18.84316-12.437264 25.582655-10.17985 8.15882-24.974811 12.235672-44.39 12.235672l-69.670779 0 0-3.741207c6.336312 0 10.635221-0.589424 12.893658-1.769296 2.25639-1.178849 3.843538-2.711761 4.753257-4.600785 0.910743-1.886977 1.36509-6.53995 1.36509-13.954827l0-88.98466c0-7.413853-0.454348-12.084223-1.36509-14.004969-0.909719-1.921769-2.512217-3.454682-4.803399-4.601808-2.293229-1.14508-6.572696-1.718131-12.842493-1.718131l0-3.742231 65.726957 0c15.70468 0 26.828019 1.399883 33.366945 4.196579 6.53995 2.798742 11.69639 6.976902 15.47239 12.538571 3.773953 5.561669 5.66093 11.476379 5.66093 17.746176 0 6.607488-2.393513 12.487406-7.178493 17.644869C1000.704946 511.299035 992.27802 515.39533 980.212216 518.429433zM943.405939 523.585873l0 43.983747-0.102331 5.056156c0 3.641947 0.926092 6.389524 2.781346 8.242731 1.853208 1.853208 4.600785 2.780323 8.241708 2.780323 5.390777 0 10.364045-1.195222 14.913665-3.589758 4.550643-2.39249 8.039093-5.863545 10.466376-10.41521s3.640923-9.623171 3.640923-15.219633c0-6.401804-1.483794-12.149714-4.450359-17.240663-2.965541-5.088902-7.045463-8.645914-12.233626-10.666944C961.471386 524.495592 953.719842 523.518335 943.405939 523.585873zM943.405939 515.697205c9.572006 0 16.633842-1.077541 21.182438-3.235694 4.550643-2.155083 8.039093-5.189186 10.467399-9.101285 2.426259-3.90903 3.6399-8.897647 3.6399-14.96483 0-6.067182-1.197268-11.038404-3.589758-14.915711-2.393513-3.874237-5.815449-6.824429-10.262738-8.847505-4.449335-2.022053-11.596106-2.99931-21.436218-2.931772L943.406962 515.697205z" fill="#8A6D49" /></svg>