<?xml version="1.0" standalone="no"?><!DOCTYPE svg PUBLIC "-//W3C//DTD SVG 1.1//EN" "http://www.w3.org/Graphics/SVG/1.1/DTD/svg11.dtd"><svg class="icon" width="256px" height="39.60px" viewBox="0 0 6619 1024" version="1.1" xmlns="http://www.w3.org/2000/svg"><path d="M765.330286 177.261714C527.616 276.297143 261.376 312.356571 5.632 288.621714 1.901714 288.256 0 286.244571 0 282.514286V109.458286c0-4.790857 2.340571-7.021714 7.058286-6.509715 242.761143 24.612571 476.342857-9.398857 700.818285-102.034285 5.376-2.157714 8.96-0.512 10.788572 5.046857l52.370286 159.232a9.947429 9.947429 0 0 1-5.705143 12.068571z" fill="#FFA006" /><path d="M1464.246857 685.824a1644.032 1644.032 0 0 0-377.051428 29.805714c-115.2 22.710857-266.093714 76.8-370.724572 105.837715C496.018286 882.834286 259.108571 904.557714 5.741714 886.637714 1.901714 886.308571 0 884.297143 0 880.420571L0.146286 341.869714c0-5.888 2.925714-8.630857 8.704-8.192 235.885714 20.48 455.643429-3.913143 659.419428-73.252571 301.348571-102.4 600.137143-144.164571 896.329143-125.330286 5.010286 0.329143 7.497143 2.925714 7.497143 7.972572l0.146286 538.770285c0 4.571429-2.340571 6.838857-7.058286 6.802286-33.645714-0.694857-67.291429-1.645714-100.937143-2.816z" fill="#0181FE" /><path d="M1568.109714 921.124571a1432.832 1432.832 0 0 0-704.365714 101.888c-5.339429 2.230857-8.886857 0.658286-10.605714-4.900571l-52.918857-162.56a6.985143 6.985143 0 0 1 0.365714-5.156571 6.729143 6.729143 0 0 1 3.657143-3.401143 1644.470857 1644.470857 0 0 1 762.112-112.530286 6.473143 6.473143 0 0 1 5.888 6.619429l0.329143 175.908571a4.242286 4.242286 0 0 1-1.316572 3.072 3.913143 3.913143 0 0 1-1.499428 0.841143c-0.512 0.219429-1.097143 0.256-1.645715 0.219428z" fill="#07C847" /><path d="M6095.030857 262.582857c5.558857 2.56 8.704 8.667429 7.606857 14.774857a14.08 14.08 0 0 1-2.121143 5.595429l-63.634285 97.645714a12.032 12.032 0 0 1-18.505143 2.121143c-44.617143-42.24-89.892571-43.812571-135.753143-4.644571-12.544 10.569143-17.554286 27.794286-12.653714 43.593142 4.937143 15.798857 18.761143 26.953143 34.998857 28.233143 350.025143 28.781714 94.793143 565.504-252.525714 332.982857a19.126857 19.126857 0 0 1-5.266286-26.185142l64.365714-96.438858a13.348571 13.348571 0 0 1 20.955429-1.792c51.236571 52.992 195.181714 84.187429 179.017143-29.257142a26.148571 26.148571 0 0 0-14.738286-20.736l-12.580572-6.144c-108.397714-51.712-232.96-86.272-141.421714-251.611429 74.203429-134.070857 191.561143-163.364571 352.256-88.137143z m-3059.821714-11.776c7.387429 4.754286 10.313143 11.337143 8.923428 19.894857l-23.186285 146.212572a8.521143 8.521143 0 0 1-5.961143 6.765714 8.338286 8.338286 0 0 1-8.557714-2.377143c-99.693714-113.005714-258.962286-20.004571-277.211429 105.252572-22.674286 156.306286 117.650286 206.262857 231.826286 117.577142l4.425143-3.510857c13.129143-10.715429 18.395429-7.643429 15.579428 9.398857l-23.04 138.971429a23.04 23.04 0 0 1-13.714286 18.176c-276.187429 127.414857-452.096-148.333714-323.693714-395.008 63.414857-122.038857 267.629714-254.537143 414.610286-161.353143z m-736.804572-29.513143c81.700571-0.731429 154.697143 30.939429 203.300572 88.466286a249.014857 249.014857 0 0 1 50.761143 99.510857 290.742857 290.742857 0 0 1 4.827428 118.016 350.573714 350.573714 0 0 1-42.130285 118.454857 391.533714 391.533714 0 0 1-82.505143 100.937143c-66.706286 58.368-150.162286 91.684571-231.716572 92.525714-81.554286 0.731429-154.697143-31.085714-203.154285-88.466285a248.905143 248.905143 0 0 1-50.907429-99.657143 292.388571 292.388571 0 0 1-4.681143-117.869714 351.195429 351.195429 0 0 1 42.130286-118.564572A390.875429 390.875429 0 0 1 2066.651429 313.782857c66.925714-58.441143 150.308571-91.648 231.716571-92.525714z m3940.790858 425.874286c8.411429-0.365714 12.178286 3.803429 11.117714 12.361143l-3.730286 29.549714c-1.389714 11.666286 3.510857 16.310857 14.848 14.043429 80.896-16.201143 181.540571-51.931429 277.942857-43.337143 9.508571 0.950857 13.458286 6.070857 11.849143 15.579428l-16.054857 95.744c-1.645714 8.777143-6.765714 13.202286-15.689143 13.458286-63.378286 0.438857-123.611429 11.227429-183.808 22.893714l-36.169143 7.058286-28.489143 5.376c-57.161143 10.496-115.309714 18.797714-177.152 17.042286-10.532571-0.365714-14.994286-5.851429-13.458285-16.457143l24.576-154.258286a17.298286 17.298286 0 0 1 16.384-14.774857l117.833143-4.278857z m-1238.966858-403.017143c148.150857 8.228571 119.808 178.102857 38.326858 254.025143l-3.328 3.035429c-8.374857 7.058286-7.972571 12.288 1.243428 15.579428l2.267429 0.731429c130.377143 37.12 63.305143 215.04-11.227429 264.777143-84.48 56.429714-264.96 40.338286-371.675428 37.851428-10.422857-0.109714-14.774857-5.485714-12.873143-16.091428l92.452571-550.765715c1.28-8.301714 6.217143-12.726857 14.372572-12.8a3059.236571 3059.236571 0 0 1 250.441142 3.657143z m368.64-0.731428l147.712 0.841142a8.228571 8.228571 0 0 1 7.936 6.802286l46.592 242.176a8.557714 8.557714 0 0 1-1.426285 6.4 8.192 8.192 0 0 1-5.485715 3.584l-128.365714 18.468572a8.082286 8.082286 0 0 1-6.4-1.828572 8.411429 8.411429 0 0 1-2.962286-6.034286l-4.681142-77.897142a8.301714 8.301714 0 0 0-6.436572-8.045715 8.155429 8.155429 0 0 0-9.142857 4.608l-69.046857 133.851429a8.448 8.448 0 0 0 0.694857 8.777143c1.865143 2.56 5.010286 3.803429 8.082286 3.218285l224.109714-44.507428c4.315429-0.731429 8.411429 2.084571 9.362286 6.4l20.699428 101.814857a8.448 8.448 0 0 1-1.170285 6.4 8.192 8.192 0 0 1-5.376 3.584l-325.814858 62.902857a8.228571 8.228571 0 0 0-5.851428 4.608l-48.310857 97.024a8.192 8.192 0 0 1-7.021715 4.534857l-135.168 1.316572a8.265143 8.265143 0 0 1-7.021714-3.913143 8.448 8.448 0 0 1-0.365714-8.228572l297.508571-562.468571a8.192 8.192 0 0 1 7.350857-4.388571z m240.969143 458.752l19.894857 105.618285a11.227429 11.227429 0 0 1-10.971428 13.165715l-128.073143 1.353142a11.190857 11.190857 0 0 1-10.861714-9.398857l-17.444572-94.902857a11.337143 11.337143 0 0 1 5.741715-11.922286 10.971429 10.971429 0 0 1 4.315428-1.170285l125.44-11.922286a11.154286 11.154286 0 0 1 11.958857 9.142857zM4165.961143 239.030857l131.657143 1.462857c3.291429 0.036571 6.326857 1.974857 7.826285 4.973715l151.405715 316.928c1.755429 3.547429 5.522286 5.558857 9.398857 5.010285a9.069714 9.069714 0 0 0 7.497143-7.387428l52.662857-313.124572a9.033143 9.033143 0 0 1 8.996571-7.497143l124.854857 0.475429c2.633143 0 5.12 1.243429 6.838858 3.291429 1.682286 2.048 2.377143 4.754286 1.938285 7.424l-92.781714 560.164571a9.069714 9.069714 0 0 1-8.667429 7.862857l-130.486857 3.437714a8.886857 8.886857 0 0 1-8.557714-5.12l-153.746286-320.841142a8.96 8.96 0 0 0-16.859428 2.377142l-50.797715 313.709715a9.069714 9.069714 0 0 1-8.886857 7.753143l-126.866285-0.256a8.850286 8.850286 0 0 1-6.802286-3.291429 9.142857 9.142857 0 0 1-1.828572-7.424l94.281143-562.102857a9.069714 9.069714 0 0 1 8.923429-7.826286z m-1044.114286 1.206857l415.085714 0.219429a9.874286 9.874286 0 0 1 7.350858 3.584 10.24 10.24 0 0 1 2.121142 7.972571l-18.724571 107.264a9.874286 9.874286 0 0 1-9.618286 8.338286h-272.896a9.764571 9.764571 0 0 0-9.362285 8.082286l-14.628572 76.909714a10.130286 10.130286 0 0 0 2.084572 8.118857c1.828571 2.267429 4.534857 3.657143 7.387428 3.657143l259.803429 0.256a9.764571 9.764571 0 0 1 9.362285 11.776l-20.845714 107.885714a9.874286 9.874286 0 0 1-9.325714 8.082286l-263.314286 1.097143a9.764571 9.764571 0 0 0-9.362286 7.972571l-13.568 77.165715a10.130286 10.130286 0 0 0 2.157715 7.936c1.828571 2.194286 4.461714 3.510857 7.314285 3.584h269.019429c2.925714 0 5.705143 1.353143 7.533714 3.657142 1.828571 2.304 2.56 5.339429 1.974857 8.265143l-20.626285 109.275429a9.764571 9.764571 0 0 1-9.581715 8.118857l-413.915428 1.645714a9.545143 9.545143 0 0 1-7.606857-3.547428 10.130286 10.130286 0 0 1-2.230857-8.009143L3112.228571 248.539429a9.874286 9.874286 0 0 1 9.581715-8.301715z m664.466286-0.621714l141.824 0.841143c5.12 0 9.508571 3.693714 10.532571 8.813714l107.885715 556.726857a11.337143 11.337143 0 0 1-2.304 9.033143 10.715429 10.715429 0 0 1-8.192 4.022857l-131.437715 1.682286a10.825143 10.825143 0 0 1-10.752-9.618286l-11.117714-84.553143a10.971429 10.971429 0 0 0-10.788571-9.289142l-188.16-0.219429a10.752 10.752 0 0 0-9.508572 6.217143l-45.385143 90.806857a10.861714 10.861714 0 0 1-9.618285 5.961143l-129.426286 0.475428a10.715429 10.715429 0 0 1-9.435429-5.412571 11.117714 11.117714 0 0 1 0-11.008l296.045715-558.518857a10.861714 10.861714 0 0 1 9.837714-5.961143z m1116.16 342.052571a217.782857 217.782857 0 0 0-61.988572 0.256 20.187429 20.187429 0 0 0-17.92 16.274286l-0.329142 1.572572-17.188572 91.904a7.972571 7.972571 0 0 0 1.28 5.961142c1.170286 1.828571 3.035429 3.108571 5.12 3.584a217.234286 217.234286 0 0 0 47.323429 3.657143l7.094857-0.402285 7.789714-0.731429 8.777143-1.206857 3.949714-0.694857 7.460572-1.499429 7.533714-1.828571 5.485714-1.572572 6.948572-2.267428 7.314285-2.669715 4.644572-1.828571 3.218286-1.426286 4.022857-1.828571a208.091429 208.091429 0 0 0 14.811428-7.606857c17.078857-9.508571 26.806857-28.562286 24.649143-48.274286a48.676571 48.676571 0 0 0-30.829714-40.265143l-3.657143-1.243428a221.037714 221.037714 0 0 0-26.148571-6.363429l-9.325715-1.462857z m-2794.642286-93.366857l-2.450286 5.997715-0.438857 1.060571a176.64 176.64 0 0 0-10.971428 45.312v0.512c-0.292571 2.925714-0.512 5.814857-0.658286 8.704l-0.109714 2.998857-0.073143 4.754286 0.146286 5.851428 0.109714 2.048a143.579429 143.579429 0 0 0 11.227428 48.420572l3.730286 7.826286 1.206857 2.194285 2.340572 4.169143 2.194285 3.547429c2.084571 3.291429 4.315429 6.4 6.656 9.398857l2.450286 2.998857 1.097143 1.316571c1.353143 1.536 2.779429 3.108571 4.205714 4.608l4.059429 4.096 4.790857 4.315429 3.766857 3.108571 3.035429 2.340572 4.900571 3.437714 2.816 1.828572c4.937143 3.108571 10.057143 5.851429 15.36 8.192l7.168 2.925714 5.888 2.084571 6.436572 1.901715 0.694857 0.182857c14.738286 3.876571 30.537143 5.339429 46.884571 4.169143 10.605714-0.768 21.211429-2.596571 31.634286-5.485715l6.070857-1.755428 6.070857-2.011429 7.094857-2.706286 1.097143-0.402285a194.925714 194.925714 0 0 0 63.268572-42.057143l4.132571-4.132572 4.900571-5.302857 3.547429-4.096 5.376-6.619428c50.688-65.206857 54.125714-152.137143 4.534857-204.141715a122.733714 122.733714 0 0 0-50.541714-32 130.340571 130.340571 0 0 0-55.149714-6.582857 162.413714 162.413714 0 0 0-8.923429 0.877715l-6.473143 0.950857-6.838857 1.316571-7.497143 1.792a188.086857 188.086857 0 0 0-71.68 36.900572l-7.716571 6.692571-3.730286 3.437714-2.523429 2.450286a198.948571 198.948571 0 0 0-38.729142 53.138286l-0.365715 0.768a179.163429 179.163429 0 0 0-4.022857 8.667428z m4460.8-47.36c4.498286-0.073143 8.813714 1.828571 11.776 5.302857 2.925714 3.437714 4.278857 8.045714 3.584 12.580572l-16.384 88.210286c-1.536 9.398857-7.021714 14.628571-16.164571 15.945142l-154.916572 24.429715c-44.470857 7.131429-81.846857 13.165714-112.018285 18.212571l-61.915429 10.605714a342.308571 342.308571 0 0 1-96.438857 4.278858c-9.691429-1.206857-13.787429-6.582857-12.397714-16.457143l11.593142-90.477715c1.499429-11.190857 7.936-17.005714 18.944-17.627428 53.723429-1.755429 104.155429 2.742857 156.818286-11.995429a1170.358857 1170.358857 0 0 1 267.52-43.008z m-2741.321143-9.252571a8.265143 8.265143 0 0 0-6.985143 2.048l-0.731428 0.658286-0.987429 1.462857-79.36 154.514285a8.704 8.704 0 0 0 0.292572 8.594286 8.411429 8.411429 0 0 0 7.460571 4.022857l103.570286-0.219428a8.192 8.192 0 0 0 3.510857-0.731429 8.740571 8.740571 0 0 0 4.900571-9.142857l-24.795428-154.331429a8.557714 8.557714 0 0 0-5.193143-6.4l-1.682286-0.475428z m1075.785143-78.372572c-26.550857-4.864-42.130286 6.217143-46.445714 33.353143l-9.837714 61.293715c-1.645714 9.069714 1.974857 14.884571 10.898285 17.408 30.829714 8.777143 55.369143 5.558857 73.618286-9.654858l2.962286-2.633142a67.291429 67.291429 0 0 0 3.474285-3.547429c8.374857-9.033143 15.140571-21.065143 20.333715-36.096 10.898286-31.305143-7.497143-51.419429-55.003429-60.123429z m1705.472-132.022857c8.521143 0.731429 12.068571 5.229714 10.532572 13.677715l-14.774858 86.308571c-1.389714 8.338286-6.217143 13.348571-14.262857 14.774857l-285.549714 50.468572a20.333714 20.333714 0 0 0-16.603429 17.298285l-6.692571 41.069715a17.993143 17.993143 0 0 1-17.444571 15.36l-111.177143 1.645714c-12.141714 0.146286-17.188571-5.924571-15.213715-18.102857l25.965715-156.416c1.682286-9.069714 7.058286-13.824 16.164571-14.262857 147.712-3.145143 285.549714-62.537143 429.056-51.821715z" fill="#151515" /></svg>