<?xml version="1.0" standalone="no"?><!DOCTYPE svg PUBLIC "-//W3C//DTD SVG 1.1//EN" "http://www.w3.org/Graphics/SVG/1.1/DTD/svg11.dtd"><svg class="icon" width="256px" height="256.00px" viewBox="0 0 1024 1024" version="1.1" xmlns="http://www.w3.org/2000/svg"><path d="M56.32 581.71392c8.66304 0 15.6672 6.8608 15.6672 15.33952 0 8.4992-7.00416 15.33952-15.6672 15.33952a15.63648 15.63648 0 0 1-11.06944-4.43392 15.33952 15.33952 0 0 1-4.62848-10.9056c0-8.48896 7.00416-15.33952 15.68768-15.33952z m126.0544 0c8.67328 0 15.68768 6.8608 15.68768 15.33952 0 8.4992-7.0144 15.33952-15.68768 15.33952a15.63648 15.63648 0 0 1-11.0592-4.43392 15.33952 15.33952 0 0 1-4.62848-10.9056c0-8.48896 7.00416-15.33952 15.67744-15.33952z m-24.63744 12.32896v2.75456c-0.29696 0.53248-0.29696 0.80896 0 1.08544h-76.4928v-3.84h76.4928zM128.3072 426.63936l16.2304 49.31584h53.248v3.82976h-51.84512l13.45536 40.27392 6.4512-4.38272 1.11616-0.8192 34.73408-24.65792c0.84992 1.09568 1.40288 2.18112 2.24256 3.01056l-35.57376 25.46688-7.28064 5.2224 16.25088 49.31584a14.0288 14.0288 0 0 0-3.64544 1.09568l-14.57152-43.58144-1.67936-4.62848-35.0208 24.91392 41.46176 29.58336a10.78272 10.78272 0 0 0-2.24256 2.75456l-42.2912-30.13632-42.31168 30.16704a19.46624 19.46624 0 0 0-2.23232-2.7648l41.1648-29.29664-35.01056-24.94464-15.95392 47.94368c-1.1264-0.54272-2.52928-0.8192-3.65568-1.10592l14.00832-42.45504 2.51904-6.85056-7.29088-5.20192-35.84-25.47712c0.8192-1.10592 1.67936-1.91488 2.23232-3.0208l42.02496 29.85984 13.43488-40.27392h-51.8144v-3.55328h53.23776l16.2304-49.3056c1.1264 0.54272 2.51904 0.80896 3.64544 1.08544l-15.9744 48.2304 42.87488-0.29696-15.9744-48.2304c1.25952-0.19456 2.48832-0.5632 3.64544-1.08544z m84.87936 73.44128c0.83968 0.27648 1.95584 0.80896 3.35872 1.08544l-24.3712 73.4208a15.96416 15.96416 0 0 0-3.35872-1.08544l24.3712-73.4208z m-187.41248-0.27648l24.64768 73.4208c-1.39264 0.27648-2.51904 0.8192-3.64544 1.08544l-24.3712-73.4208c1.1264-0.26624 2.24256-0.8192 3.36896-1.08544z m116.54144-20.00896H96.37888l-14.01856 42.46528 36.97664 26.30656 36.97664-26.03008-13.99808-42.74176zM15.67744 462.26432c8.69376 0.02048 15.69792 6.8608 15.69792 15.33952 0 8.4992-7.00416 15.36-15.69792 15.36a15.63648 15.63648 0 0 1-11.0592-4.4544A15.33952 15.33952 0 0 1 0 477.60384a15.872 15.872 0 0 1 15.67744-15.33952z m207.3088 0c8.704 0 15.68768 6.8608 15.68768 15.36 0 8.46848-7.00416 15.32928-15.67744 15.32928a15.63648 15.63648 0 0 1-11.0592-4.44416 15.33952 15.33952 0 0 1-4.63872-10.9056c0-8.01792 6.2464-14.57152 14.26432-15.27808l1.42336-0.06144zM98.6112 417.61792c0.55296 1.08544 1.39264 1.91488 2.24256 2.73408l-63.32416 45.19936c-0.55296-1.09568-1.3824-1.90464-1.95584-3.01056l63.03744-44.92288z m41.73824-0.01024l63.03744 44.93312c-0.83968 0.8192-1.41312 1.91488-1.96608 3.01056l-63.5904-44.92288 1.25952-1.51552 1.25952-1.50528zM119.33696 389.12c8.69376 0 15.69792 6.8608 15.69792 15.33952 0 8.4992-7.02464 15.33952-15.69792 15.33952a15.63648 15.63648 0 0 1-11.0592-4.43392 15.33952 15.33952 0 0 1-4.63872-10.9056A15.6672 15.6672 0 0 1 119.33696 389.12zM300.67712 451.34848h102.16448v34.93888h-36.864v108.8h-35.8912V485.7856h-29.81888l0.4096-34.43712zM624.8448 593.83808V493.3632h56.3712s20.15232-0.75776 20.39808 19.21024c0.24576 19.968 0 82.51392 0 82.51392h-30.14656v-72.12032h-22.9376v73.3696h-24.1664l0.48128-2.49856zM808.0384 453.9392v21.9648h26.46016v-24.54528h-26.70592l0.24576 2.58048z m-0.24576 39.17824v101.7344h27.19744V494.592l-1.88416-1.90464-25.31328 0.4096z m42.35264-2.2528v103.48544h31.1296V521.728h17.69472v71.86432h27.93472v-85.25824s0-17.46944-17.53088-17.80736c-17.6128-0.4096-59.22816 0.33792-59.22816 0.33792z m-335.63648-22.528s-2.70336-16.97792-20.39808-17.46944c-17.69472-0.512-80.03584 0.49152-80.03584 0.49152v143.98464h84.70528s14.66368-1.23904 15.72864-15.7184c1.06496-14.46912 0-111.28832 0-111.28832zM492.544 551.08608c-1.72032 8.57088-5.7344 7.0656-5.7344 7.0656h-42.35264V491.6224l-0.24576-3.328h39.40352c9.0112 0 9.0112 7.82336 9.0112 7.82336s1.6384 46.32576-0.08192 54.97856z m104.93952-62.30016c-13.76256 0.82944-57.58976 0-57.58976 0s-14.00832 3.584-14.336 14.55104c-0.32768 10.98752 0 80.35328 0 80.35328s2.12992 14.39744 15.31904 15.47264c13.18912 1.00352 67.50208 0 67.50208 0v-30.6176H556.032v-17.96096l3.76832 0.74752h44.31872s6.63552 0.256 6.63552-6.73792v-42.41408s0.57344-14.2336-13.27104-13.39392z m-0.73728 26.20416v15.7184h-46.20288v-18.05312l0.24576-1.65888s30.47424-0.17408 39.07584 0c8.68352 0.08192 6.88128 3.9936 6.88128 3.9936z m195.55328 95.65184s-0.32768-95.82592 0-106.8032c0.32768-10.97728-10.15808-13.312-10.15808-13.312s-41.3696-0.16384-54.80448 0c-13.43488 0.17408-13.9264 9.82016-13.9264 9.82016s-2.4576 49.57184 0 62.54592c2.4576 12.98432 11.79648 12.81024 11.79648 12.81024h40.71424v20.55168h-51.03616l-1.6384 0.16384v30.86336s48.3328 1.15712 64.14336 0c15.72864-1.16736 14.90944-16.64 14.90944-16.64z m-25.64096-62.8736h-28.672V525.2096l28.672-0.256v22.79424z m250.2656 7.55712s5.00736-3.328 6.48192-9.89184c1.47456-6.57408-0.24576-38.43072-0.24576-38.43072s1.80224-16.47616-18.92352-17.46944c-20.72576-1.00352-50.88256 0-50.88256 0s-14.41792 4.07552-13.9264 19.712c0.49152 15.7184 0 72.86784 0 72.86784s3.03104 14.1312 14.66368 14.6432c11.71456 0.49152 68.33152 0 68.33152 0v-28.8768H969.8304l0.49152-12.63616h46.61248v0.08192z m-51.52768-16.88576v-23.12192l1.47456-0.50176h35.6352v23.62368h-37.10976z" fill="#0241CF" /></svg>