<?xml version="1.0" standalone="no"?><!DOCTYPE svg PUBLIC "-//W3C//DTD SVG 1.1//EN" "http://www.w3.org/Graphics/SVG/1.1/DTD/svg11.dtd"><svg class="icon" width="256px" height="256.00px" viewBox="0 0 1024 1024" version="1.1" xmlns="http://www.w3.org/2000/svg"><path d="M744.96 874.3936h112.9472v48.7424h-177.152v-20.8896c0-14.6432 2.56-28.0576 7.68-40.0384 5.12-11.9808 12.0832-23.4496 20.992-33.8944 9.0112-10.4448 22.7328-22.6304 41.5744-36.7616 17.3056-13.5168 29.184-25.6 36.1472-35.9424 6.9632-10.4448 10.24-21.504 10.24-33.28 0-25.3952-13.0048-37.888-39.2192-37.888-22.8352 0-44.6464 9.6256-65.6384 28.9792v-52.3264c23.3472-15.872 49.2544-23.7568 78.4384-23.7568 26.624 0 47.616 7.168 63.0784 21.504 15.4624 14.336 23.3472 33.9968 23.3472 59.1872 0 14.1312-2.1504 26.7264-6.7584 37.888-4.3008 11.264-10.9568 21.8112-19.456 31.9488-8.4992 9.9328-21.9136 21.8112-40.6528 35.84-17.92 13.5168-30.1056 23.9616-36.2496 31.3344-6.0416 7.5776-9.3184 13.7216-9.3184 19.3536z m-235.52-73.216v77.0048h33.6896c14.336 0 25.4976-3.4816 33.4848-10.4448 7.9872-6.9632 12.0832-16.6912 12.0832-29.0816 0-11.776-3.9936-20.992-12.0832-27.648-8.0896-6.5536-19.456-9.9328-34.304-9.9328l-32.8704 0.1024z m0-114.2784v69.4272h26.9312c13.0048 0 23.04-3.2768 30.6176-9.9328 7.5776-6.5536 11.1616-15.6672 11.1616-27.5456 0-21.504-14.848-32.256-44.6464-32.256l-24.064 0.3072z m-56.6272 236.032V642.2528h94.5152c28.8768 0 51.3024 5.8368 67.072 17.408 15.7696 11.5712 23.4496 27.648 23.4496 48.2304 0 15.2576-4.9152 28.672-14.6432 40.0384-9.728 11.3664-21.9136 19.3536-36.7616 23.7568v0.8192c18.5344 2.4576 33.4848 9.6256 44.9536 21.8112 11.3664 12.1856 16.9984 27.2384 16.9984 45.4656 0 25.6-8.6016 45.7728-25.8048 60.928-17.3056 15.1552-40.6528 22.6304-70.4512 22.6304h-99.328v-0.4096zM231.0144 690.9952v182.9888h30.9248c26.9312 0 48.0256-8.4992 63.488-25.3952 15.4624-17.1008 23.04-39.8336 23.04-68.7104 0-27.8528-8.0896-49.664-23.9616-65.3312-16.0768-15.6672-36.7616-23.4496-62.5664-23.4496h-30.9248v-0.1024z m-56.7296 231.936V642.2528H266.24c94.5152 0 141.6192 45.6704 141.6192 137.0112 0 43.3152-13.1072 78.336-39.7312 104.448-26.624 26.112-60.7232 39.424-102.4 39.424h-91.4432v-0.2048zM878.2848 532.2752h143.4624v-29.5936H878.2848v29.5936z m-82.944-0.1024l10.6496-29.4912h-22.528l10.6496 29.4912h1.2288z m-227.4304 0.1024h141.824v-29.5936H567.9104v29.5936z m-57.7536-29.5936H227.6352v29.5936h215.8592c38.4-0.1024 66.6624-29.5936 66.6624-29.5936zM2.8672 532.2752h198.0416v-29.5936H2.8672v29.5936z m875.4176-57.9584h143.4624v-29.5936H878.2848v29.5936z m-53.4528-29.5936h-60.416l10.5472 29.5936h39.6288l10.24-29.5936z m-256.9216 29.5936h141.824v-29.5936H567.9104v29.5936z m-23.6544-29.5936H227.6352v29.5936h306.0736c5.9392-6.144 10.5472-29.5936 10.5472-29.5936zM2.8672 474.3168h198.0416v-29.5936H2.8672v29.5936z m875.4176-56.2176h85.7088v-29.5936h-85.7088v29.5936z m-32.5632-29.4912h-100.5568l10.4448 29.696h79.872l10.24-29.696z m-221.696 29.4912h85.7088v-29.5936h-85.7088v29.5936z m-82.944-29.4912h-85.7088v29.5936h91.648c-0.1024-14.0288-5.9392-29.5936-5.9392-29.5936z m-255.7952 29.4912h85.7088v-29.5936h-85.7088v29.5936z m-226.4064 0h85.7088v-29.5936H58.88v29.5936z m819.4048-57.7536h85.7088V330.752h-85.7088v29.5936z m-13.312-29.4912H725.8112l10.5472 29.7984h118.3744l10.24-29.7984z m-240.9472 29.4912h85.7088V330.752h-85.7088v29.5936z m-338.7392 0.3072h243.9168c-5.8368-14.1312-23.6544-29.5936-23.6544-29.5936H285.2864v29.5936z m-226.4064-0.3072h85.7088V330.752H58.88v29.5936z m735.232-62.0544l-7.2704-25.088h-162.816v29.5936h85.7088V285.696l5.9392 17.1008h158.3104l5.7344-17.1008v17.1008H965.632v-29.5936H802.6112l-8.4992 25.088z m-508.8256 4.4032h220.2624s17.8176-15.6672 23.6544-29.5936H285.2864v29.5936z m-226.4064 0h85.7088v-29.5936H58.88v29.5936z m752.9472-57.6512H965.632v-29.5936H821.9648l-10.1376 29.5936z m-187.8016-29.4912v29.5936H776.192l-10.0352-29.5936H624.0256z m-168.6528 29.4912h85.7088s5.8368-15.6672 5.8368-29.5936h-91.648v29.5936h0.1024z m-170.0864 0h85.7088v-29.5936h-85.7088v29.5936z m-226.4064 0h85.7088v-29.5936H58.88v29.5936z m961.1264-56.0128v-29.696H839.8848l-8.8064 29.696h188.928z m-453.7344 0h190.5664l-8.6016-29.696H566.272v29.696z m-338.6368 0h316.416s-2.9696-23.4496-10.24-29.5936h-306.176v29.5936z m-226.2016-0.1024h198.0416v-29.5936H1.4336v29.5936zM1020.0064 101.376H860.3648l-10.0352 29.7984h169.7792V101.376zM566.272 101.376v29.7984h171.3152L727.552 101.376H566.272z m-338.6368 0v29.5936h282.4192S480.5632 101.376 443.4944 101.376H227.6352zM1.4336 130.9696h198.0416V101.376H1.4336v29.5936z" fill="#999999" /></svg>