<?xml version="1.0" standalone="no"?><!DOCTYPE svg PUBLIC "-//W3C//DTD SVG 1.1//EN" "http://www.w3.org/Graphics/SVG/1.1/DTD/svg11.dtd"><svg class="icon" width="256px" height="55.66px" viewBox="0 0 4710 1024" version="1.1" xmlns="http://www.w3.org/2000/svg"><path d="M122.88 210.670933v557.806934c0 47.445333 38.434133 85.879467 85.879467 85.879466h206.711466a58.641067 58.641067 0 0 0 58.504534-58.504533V612.488533a27.306667 27.306667 0 0 0-27.306667-27.306666h-161.792a27.306667 27.306667 0 0 1-27.374933-27.306667v-62.395733a27.306667 27.306667 0 0 1 27.306666-27.306667h273.066667a27.306667 27.306667 0 0 1 27.306667 27.306667v267.195733A202.888533 202.888533 0 0 1 382.293333 965.563733H202.888533A202.888533 202.888533 0 0 1 0 762.6752V232.106667A202.888533 202.888533 0 0 1 202.888533 29.218133h354.986667a27.306667 27.306667 0 0 1 27.306667 27.306667v62.395733a27.306667 27.306667 0 0 1-27.306667 27.306667h-382.293333a63.624533 63.624533 0 0 0-52.701867 64.443733" fill="#308ED3" /><path d="M1251.805867 35.089067h62.395733a27.306667 27.306667 0 0 1 27.306667 27.306666V944.128a27.306667 27.306667 0 0 1-27.306667 27.306667h-62.395733a27.306667 27.306667 0 0 1-27.306667-27.306667V62.464a27.306667 27.306667 0 0 1 27.306667-27.306667M3258.231467 386.2528v557.806933a27.306667 27.306667 0 0 1-27.306667 27.374934h-62.395733a27.306667 27.306667 0 0 1-27.306667-27.306667V398.404267a25.941333 25.941333 0 0 0-9.147733-20.411734 90.112 90.112 0 0 0-55.227734-21.0944c-74.410667-5.3248-182.545067 23.210667-258.730666 37.205334a27.170133 27.170133 0 0 0-22.186667 26.760533v523.127467a27.306667 27.306667 0 0 1-27.306667 27.374933h-62.395733a27.306667 27.306667 0 0 1-27.306667-27.306667V296.482133a27.306667 27.306667 0 0 1 27.306667-27.306666h62.395733c15.018667 0 27.306667 12.219733 27.306667 27.306666v4.573867c0 19.6608 20.206933 33.109333 38.229333 24.9856a523.605333 523.605333 0 0 1 178.312534-45.2608c46.830933-5.802667 152.1664-17.544533 222.344533 46.8992 17.6128 23.3472 23.415467 35.089067 23.415467 58.504533M1872.008533 737.348267c0 87.790933-105.335467 117.009067-175.581866 117.009066h-52.701867c-99.464533 0-122.88-35.089067-122.88-128.682666V491.52c0-111.138133 40.96-117.009067 122.88-117.009067h58.5728c81.92 0 169.710933 29.2864 169.710933 105.335467v257.501867zM1928.533333 39.185067l-27.306666-2.048a27.306667 27.306667 0 0 0-29.218134 27.306666v238.523734c0 22.528-25.1904 34.679467-43.690666 21.845333-45.943467-31.744-108.407467-49.7664-137.762134-49.7664h-93.5936c-87.790933 0-169.710933 70.2464-169.710933 193.1264v304.264533c0 128.750933 93.5936 204.8 187.255467 204.8h81.92c47.172267 0 99.669333-21.0944 137.898666-49.152a27.306667 27.306667 0 0 1 43.485867 21.845334c0 15.1552 12.288 27.306667 27.306667 27.306666h21.435733a27.306667 27.306667 0 0 0 27.306667-27.306666V66.423467a27.306667 27.306667 0 0 0-25.258667-27.306667zM1022.3616 762.6752c0 47.445333-38.434133 85.879467-85.8112 85.879467h-62.395733a85.8112 85.8112 0 0 1-85.8112-85.879467V466.261333c0-47.377067 38.434133-85.8112 85.8112-85.8112h62.395733c47.377067 0 85.8112 38.434133 85.8112 85.879467v296.413867z m-58.504533-499.370667h-89.7024A202.888533 202.888533 0 0 0 671.266133 466.261333v296.413867a202.888533 202.888533 0 0 0 202.888534 202.888533h62.395733a202.888533 202.888533 0 0 0 202.888533-202.888533V438.954667c0-93.661867-76.117333-175.581867-175.581866-175.581867zM2476.509867 569.5488a27.306667 27.306667 0 0 1-27.374934 27.306667h-267.195733a27.306667 27.306667 0 0 1-27.306667-27.306667V466.261333c0-47.240533 38.638933-85.879467 85.8112-85.879466h150.186667c47.240533 0 85.879467 38.638933 85.879467 85.879466v103.287467z m-85.879467-306.176h-150.186667a202.888533 202.888533 0 0 0-202.820266 202.888533v296.413867a202.820267 202.820267 0 0 0 202.820266 202.888533h232.106667a27.306667 27.306667 0 0 0 27.306667-27.306666v-62.395734a27.306667 27.306667 0 0 0-27.306667-27.306666h-259.413333a58.641067 58.641067 0 0 1-58.504534-58.504534V712.021333a27.306667 27.306667 0 0 1 27.306667-27.306666h384.273067a27.306667 27.306667 0 0 0 27.306666-27.306667v-191.146667a203.502933 203.502933 0 0 0-202.888533-202.888533z" fill="#308ED3" /><path d="M3567.4112 953.890133c-47.035733 0-90.3168 0-126.702933-3.072a27.306667 27.306667 0 0 1-25.258667-27.511466l5.461333-779.127467a27.374933 27.374933 0 0 1 21.640534-26.624c37.6832-8.192 84.855467-12.288 148.2752-12.288 304.264533 0 433.015467 163.908267 433.015466 403.8656 0 275.0464-152.1664 444.757333-456.430933 444.757333m397.994667-766.634666C3889.152 105.335467 3754.666667 58.504533 3584.887467 58.504533c-87.790933 0-169.710933 5.870933-239.957334 17.544534l-5.666133 910.5408a27.511467 27.511467 0 0 0 25.6 27.716266c61.6448 3.959467 123.2896 3.959467 184.866133 3.959467 181.4528 0 327.748267-52.701867 409.668267-146.295467 87.790933-93.661867 122.88-216.541867 122.88-357.034666 0-140.424533-40.96-251.630933-117.009067-327.68M4353.979733 953.890133c-52.701867 0-87.790933 0-117.077333-5.870933h5.870933V553.984a27.306667 27.306667 0 0 1 27.306667-27.306667h89.7024c146.363733 5.870933 275.114667 64.375467 275.114667 216.541867 0 157.969067-134.621867 210.670933-280.917334 210.670933zM4236.9024 139.264c0-13.312 9.4208-24.712533 22.528-26.965333 22.596267-3.8912 53.8624-6.9632 100.352-6.9632 140.4928 0 239.957333 46.830933 239.957333 181.384533 0 105.335467-87.790933 187.255467-222.344533 187.255467h-140.4928V139.264z m263.3728 369.8688v-5.870933c93.5936-35.089067 163.84-111.2064 163.84-210.670934 0-70.178133-17.544533-117.077333-58.504533-158.037333-52.701867-52.6336-128.750933-76.049067-245.76-76.049067-65.877333 0-122.88 4.369067-171.2128 13.175467a27.101867 27.101867 0 0 0-21.9136 26.897067V985.770667c0 14.609067 11.332267 26.624 25.941333 27.306666 35.089067 1.501867 82.875733 5.12 137.898667 5.12 133.666133 0 232.6528-23.074133 297.096533-86.4256a41.1648 41.1648 0 0 0 2.6624-2.8672c40.277333-46.557867 68.949333-104.6528 68.949333-179.882666 0-152.234667-117.077333-222.4128-198.997333-239.957334z" fill="#FF9700" /></svg>