<?xml version="1.0" standalone="no"?><!DOCTYPE svg PUBLIC "-//W3C//DTD SVG 1.1//EN" "http://www.w3.org/Graphics/SVG/1.1/DTD/svg11.dtd"><svg class="icon" width="256px" height="256.00px" viewBox="0 0 1024 1024" version="1.1" xmlns="http://www.w3.org/2000/svg"><path d="M251.79542 702.443C309.09042 622.551 373.58542 550.893 444.00042 489.055q7.543-6.63 15.176-13.1 22.9-19.418 46.602-37.463 7.893-6.019 15.878-11.866 23.942-17.554 48.617-33.663 8.225-5.366 16.53-10.572 16.611-10.401 33.522-20.14 8.456-4.866 16.992-9.56t17.142-9.218q8.606-4.524 17.283-8.877 13.04-6.53 26.19-12.658 8.786-4.083 17.633-8.025 13.28-5.867 26.7-11.324 8.948-3.641 17.965-7.092 13.521-5.185 27.193-9.96t27.473-9.117q4.604-1.455 9.218-2.85 9.228-2.808 18.527-5.416 4.644-1.304 9.308-2.567 9.318-2.518 18.697-4.845t18.807-4.454q11.033-2.497 22.177-4.724 18.546-3.711 37.283-6.66C858.91042 98.018 696.90742 0 512.00542 0 229.23742 0 0.00042 229.226 0.00042 511.995a510.35 510.35 0 0 0 147.72 359.763 1430.976 1430.976 0 0 1 91.898-152.062q6.018-8.687 12.177-17.253z" fill="#109CF1" /><path d="M948.90242 244.924q-18.737 2.959-37.283 6.66-11.124 2.227-22.177 4.724-9.429 2.137-18.807 4.454t-18.697 4.845q-4.664 1.264-9.308 2.567-9.289 2.618-18.527 5.417-4.614 1.404-9.218 2.849-13.802 4.353-27.473 9.117t-27.213 9.97q-9.027 3.461-17.964 7.092-13.391 5.467-26.671 11.335-8.847 3.911-17.634 8.024-13.17 6.128-26.19 12.658-8.676 4.354-17.282 8.877t-17.142 9.218q-8.536 4.695-16.992 9.56-16.91 9.729-33.521 20.14-8.306 5.206-16.53 10.573-24.676 16.098-48.618 33.662-8.025 5.848-15.878 11.866-23.692 18.055-46.602 37.464-7.633 6.47-15.176 13.1c-70.414 61.837-134.9 133.495-192.204 213.388q-6.159 8.525-12.177 17.212A1430.976 1430.976 0 0 0 147.70042 871.758C240.52142 965.743 369.45242 1024 511.98542 1024c282.77 0 511.995-229.226 511.995-511.995a509.548 509.548 0 0 0-75.078-267.081z m-173.256 500.4h-40.523v-98.58h-79.451v98.58h-40.503V519.889h40.503v88.65h79.451v-88.65h40.523z m28.276 0a116.353 116.353 0 0 1 13.04-42.79c6.88-13.04 21.395-31.335 43.562-54.255q26.36-27.514 32.097-36.682c5.347-9.167 7.644-17.573 7.644-26.74 0-9.93-2.297-16.812-6.881-22.158s-10.703-7.643-19.058-7.643-14.524 3.009-19.058 8.405-7.643 14.524-8.406 26.742l-38.206-4.584c2.297-23.692 9.168-40.503 21.395-51.156s27.514-15.286 45.087-15.286c19.87 0 35.107 6.108 46.612 18.335s16.81 26.742 16.81 45.087a92.38 92.38 0 0 1-4.583 29.089c-3.01 9.168-8.406 19.058-15.286 29.088-4.584 6.881-13.04 16.049-25.217 29.088s-19.87 20.633-22.93 25.217a53.613 53.613 0 0 0-7.783 12.067h76.422v38.206z" fill="#1E8BE8" /><path d="M735.13342 608.538h-79.471V519.89h-40.503v225.435h40.503v-98.58h79.471v98.58h40.503V519.889h-40.503v88.65z m127.628 98.61a53.613 53.613 0 0 1 7.643-12.227c3.01-4.584 10.702-12.228 22.93-25.217s20.632-22.157 25.216-29.088c6.881-9.93 12.227-19.87 15.287-29.089a92.38 92.38 0 0 0 4.584-29.088c0-18.336-5.347-32.86-16.812-45.087s-26.74-18.336-46.611-18.336c-17.573 0-32.86 4.584-45.087 15.287s-19.058 27.513-21.395 51.155l38.206 4.584c0.762-12.227 3.822-21.395 8.406-26.741s10.702-8.406 19.057-8.406 14.525 2.297 19.058 7.643 6.881 12.228 6.881 22.158c0 9.168-2.297 17.573-7.643 26.741q-5.727 9.168-32.098 36.681c-22.157 22.93-36.68 41.266-43.562 54.255a116.353 116.353 0 0 0-13.04 42.79h135.392v-38.015z" fill="#FFFFFF" /></svg>