<?xml version="1.0" standalone="no"?><!DOCTYPE svg PUBLIC "-//W3C//DTD SVG 1.1//EN" "http://www.w3.org/Graphics/SVG/1.1/DTD/svg11.dtd"><svg class="icon" width="256px" height="256.00px" viewBox="0 0 1024 1024" version="1.1" xmlns="http://www.w3.org/2000/svg"><path d="M691.0976 102.4c22.698667 0 41.5744 16.9984 43.758933 39.355733l0.2048 4.1984V160.426667h73.284267c22.664533 0 41.540267 16.9984 43.690667 39.355733l0.238933 4.1984v667.716267c0 22.4256-17.169067 41.1648-39.697067 43.3152l-4.232533 0.2048H251.562667a43.7248 43.7248 0 0 1-43.7248-39.3216l-0.238934-4.1984V204.014933c0-22.459733 17.169067-41.1648 39.7312-43.349333l4.232534-0.2048h73.250133v-14.506667c0-22.459733 17.169067-41.1648 39.7312-43.349333L368.776533 102.4h322.321067zM324.846933 218.5216H266.171733v638.6688h527.4624V218.555733h-58.606933v14.472534c0 22.459733-17.169067 41.1648-39.697067 43.349333l-4.266666 0.2048h-322.321067A43.7248 43.7248 0 0 1 325.051733 237.226667l-0.238933-4.1984v-14.506667z m-4.369066 233.608533v60.552534h54.033066v-60.552534h33.757867v144.4864h-33.792v-58.197333H320.512v58.197333h-33.8944v-144.4864h33.8944z m212.445866 0V477.866667h-38.570666v118.749866h-33.8944V477.866667h-37.888v-25.736534h110.353066z m115.165867 0V477.866667h-38.570667v118.749866h-33.8944V477.866667h-37.888v-25.736534h110.353067z m69.461333 0l6.314667 0.238934c14.301867 0.887467 25.941333 5.188267 34.9184 12.9024 10.171733 8.738133 15.189333 20.206933 15.189333 34.474666 0 14.199467-5.0176 25.634133-15.189333 34.372267-8.942933 7.611733-20.48 11.912533-34.816 12.8l-6.280533 0.238933h-21.879467v49.4592h-33.8944v-144.4864h55.637333z m0 25.736534h-21.845333v43.349333h21.845333c7.338667 0 12.970667-2.048 16.827734-6.0416a21.538133 21.538133 0 0 0 5.8368-15.428267 22.254933 22.254933 0 0 0-5.7344-15.735466 20.821333 20.821333 0 0 0-13.277867-6.007467L717.585067 477.866667z m-41.096533-317.405867h-293.034667v58.0608h293.034667V160.4608z" fill="#FFFFFF" /><path d="M244.565333 213.230933h554.222934v665.088H244.565333z" fill="#C9DBF8" /><path d="M691.0976 102.4c22.698667 0 41.5744 16.9984 43.758933 39.355733l0.2048 4.1984V160.426667h73.284267c22.664533 0 41.540267 16.9984 43.690667 39.355733l0.238933 4.1984v667.716267c0 22.4256-17.169067 41.1648-39.697067 43.3152l-4.232533 0.2048H251.562667a43.7248 43.7248 0 0 1-43.7248-39.3216l-0.238934-4.1984V204.014933c0-22.459733 17.169067-41.1648 39.7312-43.349333l4.232534-0.2048h73.250133v-14.506667c0-22.459733 17.169067-41.1648 39.7312-43.349333L368.776533 102.4h322.321067zM324.846933 218.5216H266.171733v638.6688h527.4624V218.555733h-58.606933v14.472534c0 22.459733-17.169067 41.1648-39.697067 43.349333l-4.266666 0.2048h-322.321067A43.7248 43.7248 0 0 1 325.051733 237.226667l-0.238933-4.1984v-14.506667z m351.607467-58.0608h-293.034667v58.0608h293.034667V160.4608z" fill="#C9DBF8" /><path d="M170.666667 397.994667h36.932266v-36.9664L170.666667 397.994667z m716.049066 0H887.466667v295.594666H170.666667v-295.594666h679.1168v-36.9664l36.932266 36.9664z" fill="#4487F8" /><path d="M329.966933 457.352533v173.943467h27.2384v-69.051733c0-10.513067 2.389333-18.875733 7.406934-25.6a23.2448 23.2448 0 0 1 20.0704-10.001067c9.3184 0 16.247467 2.8672 21.026133 8.840533 4.096 5.461333 6.212267 13.6192 6.212267 24.132267v71.68h27.2384v-76.458667c0-16.4864-3.584-28.910933-10.513067-37.2736-7.406933-8.874667-18.6368-13.141333-33.6896-13.141333a44.373333 44.373333 0 0 0-20.7872 4.539733 43.144533 43.144533 0 0 0-16.964267 15.291734v-66.901334h-27.2384z m176.605867 10.513067l-27.2384 11.229867v28.672h-22.186667v22.459733h22.186667v69.768533c0 10.0352 2.389333 17.408 7.168 22.698667 5.0176 5.7344 12.9024 8.6016 23.6544 8.6016h20.821333v-22.459733h-16.2816c-2.8672 0-4.778667-0.7168-6.212266-2.1504-1.4336-1.706667-1.911467-3.822933-1.911467-6.690134v-69.768533h27.477333v-22.459733h-27.477333v-39.936z m86.562133 0l-27.2384 11.229867v28.672h-22.186666v22.459733h22.186666v69.768533c0 10.0352 2.389333 17.408 7.168 22.698667 5.0176 5.7344 12.9024 8.6016 23.6544 8.6016h20.821334v-22.459733h-16.2816c-2.8672 0-4.778667-0.7168-6.212267-2.1504-1.4336-1.706667-1.911467-3.822933-1.911467-6.690134v-69.768533h27.477334v-22.459733h-27.477334v-39.936z m110.455467 36.522667c-16.247467 0-28.672 5.5296-37.2736 16.520533v-13.141333h-25.326933v170.837333h27.2384v-64.273067c10.0352 13.380267 22.459733 20.309333 36.795733 20.309334 17.681067 0 31.778133-6.485333 41.813333-19.3536 9.3184-11.946667 14.097067-26.999467 14.097067-45.1584 0-19.114667-4.778667-34.4064-14.336-46.353067-10.513067-12.9024-24.849067-19.3536-43.008-19.3536z m-4.061867 22.016c11.946667 0 20.821333 4.3008 26.5216 12.9024 4.539733 7.168 6.929067 17.408 6.929067 30.8224 0 13.380267-2.628267 23.6544-7.645867 30.8224-5.7344 7.645867-14.813867 11.707733-26.760533 11.707733a26.624 26.624 0 0 1-21.742933-10.752c-6.4512-7.8848-9.557333-18.432-9.557334-31.300267v-1.911466c0-12.424533 2.389333-22.2208 7.645867-29.627734 5.7344-8.6016 13.858133-12.663467 24.610133-12.663466z" fill="#FFFFFF" /><path d="M318.464 767.488m18.466133 0l406.459734 0q18.466133 0 18.466133 18.466133l0 0q0 18.466133-18.466133 18.466134l-406.459734 0q-18.466133 0-18.466133-18.466134l0 0q0-18.466133 18.466133-18.466133Z" fill="#FFFFFF" /></svg>