<?xml version="1.0" standalone="no"?><!DOCTYPE svg PUBLIC "-//W3C//DTD SVG 1.1//EN" "http://www.w3.org/Graphics/SVG/1.1/DTD/svg11.dtd"><svg class="icon" width="256px" height="256.00px" viewBox="0 0 1024 1024" version="1.1" xmlns="http://www.w3.org/2000/svg"><path d="M788.48 377.344a298.816 298.816 0 0 0-552.896 0A222.72 222.72 0 0 0 64 595.2c0 123.52 100.48 224 224 224h85.376a29.888 29.888 0 0 0 0-59.776H288A164.48 164.48 0 0 1 123.712 595.2 163.392 163.392 0 0 1 262.4 432.896l17.728-2.752 5.824-17.024a239.04 239.04 0 0 1 452.16 0l5.888 17.024 17.728 2.752A163.392 163.392 0 0 1 900.288 595.2a164.48 164.48 0 0 1-164.288 164.224h-90.816a29.888 29.888 0 0 0 0 59.776H736c123.52 0 224-100.48 224-224a222.72 222.72 0 0 0-171.52-217.856z" fill="#3057E3" /><path d="M220.416 678.4V535.808h1.536l36.096 107.776H294.4l36.352-107.776h1.536V678.4h35.584V500.736H311.04l-33.536 102.656h-1.536l-32.256-102.656h-58.368V678.4h35.072z m327.424 37.12l-30.464-38.656a55.488 55.488 0 0 0 34.688-27.136c7.616-13.632 11.392-33.728 11.392-60.16 0-23.552-3.008-41.984-9.088-55.296a54.144 54.144 0 0 0-26.368-28.032c-11.52-5.376-26.304-8.064-44.416-8.064s-32.896 2.688-44.416 8.064a54.144 54.144 0 0 0-26.368 28.032c-6.08 13.312-9.088 31.744-9.088 55.296 0 23.36 3.008 41.728 8.96 55.04 5.952 13.312 14.72 22.656 26.112 28.032 11.456 5.376 26.112 8.128 44.032 8.32l22.528 34.56h42.496z m-64.256-64.768c-11.456 0-20.16-1.92-26.24-5.888a30.72 30.72 0 0 1-12.544-18.816 148.736 148.736 0 0 1-3.456-36.48c0-15.552 1.152-27.648 3.456-36.352a31.936 31.936 0 0 1 12.544-19.2c6.08-4.096 14.784-6.144 26.24-6.144 11.456 0 20.16 2.048 26.112 6.144a32.128 32.128 0 0 1 12.416 19.2c2.304 8.704 3.456 20.8 3.456 36.352 0 15.68-1.088 27.84-3.328 36.48a30.272 30.272 0 0 1-12.416 18.816c-6.08 3.904-14.784 5.888-26.24 5.888z m183.552 27.648V532.224h47.36v-31.488H583.68v31.488h47.36V678.4h36.096z m140.032 0V532.224h47.36v-31.488h-130.816v31.488h47.36V678.4h36.096z" fill="#3057E3" /></svg>