<?xml version="1.0" standalone="no"?><!DOCTYPE svg PUBLIC "-//W3C//DTD SVG 1.1//EN" "http://www.w3.org/Graphics/SVG/1.1/DTD/svg11.dtd"><svg class="icon" width="256px" height="256.00px" viewBox="0 0 1024 1024" version="1.1" xmlns="http://www.w3.org/2000/svg"><path d="M196.864 301.7728c-5.2736 21.9136 8.2944 31.488 20.992 42.24C291.6864 407.552 365.056 471.1936 439.4496 534.7328c22.8352 19.968 26.2656 34.2016 10.1888 60.0576-36.4032 59.0336-73.3696 117.504-110.2848 176.0256-17.6128 27.4944-28.7232 29.0304-55.9616 13.2608-20.8384-12.6976-42.24-24.8832-63.1808-37.5808-30.5664-17.92-46.1312-43.8272-46.1312-82.0224 0.9216-103.7312 0.512-207.5136 0.512-310.784 0-13.7728 1.4848-26.4192 7.7824-38.1952 2.816-5.632 5.7856-10.7008 14.4896-13.7216z m657.664 211.1488v158.72c0 15.2576-3.8912 28.9792-11.1104 42.24-1.9968 3.072-3.4304 7.1168-7.3728 6.6048-4.864-0.512-2.9184-5.6832-2.9184-8.6528-0.1024-4.5568-1.1776-8.8576-3.2256-12.9536-2.048-4.096-4.864-7.5776-8.3968-10.3936l-146.3296-125.7984c-30.1568-25.856-60.2624-51.3536-89.3952-77.824-17.5616-15.7696-19.5072-34.048-7.3728-54.4256 37.0688-59.5456 74.3936-119.0912 111.8208-178.5344 14.592-23.3984 31.5904-27.5456 54.8864-13.312 24.3712 14.7968 49.152 29.5424 72.96 44.3392 23.8592 14.6432 36.4032 37.1712 36.9664 66.6624-0.5632 54.4256-0.512 108.8512-0.512 163.328z m-342.2208 398.3872c-10.0864 0.1024-19.5072-2.4576-28.16-7.6288-44.7488-23.3984-87.0912-51.8656-130.304-77.9264-15.0528-9.1136-14.1312-26.9312 1.4336-36.5568 50.4832-30.3616 101.0176-60.6208 151.6544-90.5728 44.7488-26.9824 89.4976-53.9648 133.6832-80.896 3.1232-1.6896 5.9392-3.84 8.3968-6.4 2.5088-2.56 4.5568-5.4272 6.144-8.6016 1.5872-3.1744 2.7136-6.5024 3.328-10.0352 0.5632-3.5328 0.6144-7.0656 0.1536-10.5984-0.512-3.5328-3.8912-8.6016 1.4336-10.6496 3.84-1.4848 7.2704 1.9968 10.24 4.5568 20.3776 17.2544 40.2432 35.072 60.7232 52.3776 25.8048 22.4768 51.968 44.288 76.8 67.7888 22.3232 20.736 19.456 38.0928-6.912 53.8112-80.128 48.3328-160.3072 97.2288-240.5376 145.5104-14.08 9.1136-29.6448 16.2304-48.0768 15.8208z" fill="#307885" /><path d="M686.08 211.8144c0 9.0112-4.9152 14.6432-11.264 18.6368-52.8384 31.2832-105.6256 62.464-158.464 94.208-42.1888 25.2416-84.8896 50.432-127.0272 76.1344a33.792 33.792 0 0 0-7.936 6.0928c-2.304 2.4064-4.2496 5.1712-5.7856 8.1408-1.4848 3.0208-2.56 6.1952-3.1232 9.5232-0.512 3.2768-0.6144 6.6048-0.1536 9.984 0.5632 3.4816 3.4304 8.5504-0.9728 10.5472-3.84 1.4848-7.2192-2.5088-10.1888-5.0176-21.8624-18.3808-43.6736-36.8128-65.3312-55.4496-20.3776-17.1008-40.192-34.7136-60.5696-51.8656l-7.7824-6.5024c-24.7296-23.7056-23.7568-39.7824 5.3248-57.3952 77.6192-46.848 156.1088-93.2352 233.6768-140.544 33.9456-20.736 66.4064-21.248 99.84 0.4096 33.4336 21.1456 67.84 40.8064 101.7856 61.4912 8.2432 5.0688 17.4592 10.1376 17.9712 21.7088v-0.1024z" fill="#F2BC18" /></svg>