<?xml version="1.0" standalone="no"?><!DOCTYPE svg PUBLIC "-//W3C//DTD SVG 1.1//EN" "http://www.w3.org/Graphics/SVG/1.1/DTD/svg11.dtd"><svg t="1634975166702" class="icon" viewBox="0 0 1024 1024" version="1.1" xmlns="http://www.w3.org/2000/svg" p-id="2460" xmlns:xlink="http://www.w3.org/1999/xlink" width="200" height="200"><defs><style type="text/css"></style></defs><path d="M153.856 154.112H153.6a51.2 51.2 0 0 0-51.2 51.2V819.2a51.2 51.2 0 0 0 51.2 51.2h716.8a51.2 51.2 0 0 0 51.2-51.2V307.4048a51.2 51.2 0 0 0-51.4048-50.9952l-336.6912 1.3312a102.4 102.4 0 0 1-72.8064-30.0032L403.1488 170.1888a51.2 51.2 0 0 0-35.9424-15.0016l-213.3504-1.024z m0.256-51.2l213.4016 1.0752a102.4 102.4 0 0 1 71.8848 30.0032l57.4976 57.5488a51.2 51.2 0 0 0 36.4544 15.0016l336.64-1.3312A102.4 102.4 0 0 1 972.8 307.2v512a102.4 102.4 0 0 1-102.4 102.4H153.6a102.4 102.4 0 0 1-102.4-102.4V205.312a102.4 102.4 0 0 1 102.4-102.4h0.512z" fill="#999999" p-id="2461"></path></svg>