<?xml version="1.0" standalone="no"?><!DOCTYPE svg PUBLIC "-//W3C//DTD SVG 1.1//EN" "http://www.w3.org/Graphics/SVG/1.1/DTD/svg11.dtd"><svg t="1668825369959" class="icon" viewBox="0 0 1024 1024" version="1.1" xmlns="http://www.w3.org/2000/svg" p-id="4208" xmlns:xlink="http://www.w3.org/1999/xlink" width="48" height="48"><path d="M314.092 920.145l36.877-65.537c48.098 27.064 102.405 41.48 158.895 41.48 55.117 0 108.162-13.722 155.41-39.547l36.067 65.986c-58.24 31.833-123.676 48.761-191.477 48.761-69.493 0-136.487-17.784-195.772-51.143z m568.94-205.15l-70.2-26.962c14.104-36.72 21.426-75.894 21.426-116.137 0-179.042-145.232-324.193-324.394-324.193-179.163 0-324.394 145.151-324.394 324.193 0 42.375 8.119 83.56 23.711 121.922l-69.665 28.316C120.284 674.816 110.27 624.02 110.27 571.896c0-220.583 178.909-399.393 399.594-399.393s399.594 178.81 399.594 399.393c0 49.498-9.03 97.808-26.425 143.1z m-97.617 256.293c-87.402 0-158.264-70.822-158.264-158.197s70.862-158.198 158.264-158.198c87.403 0 158.265 70.823 158.265 158.198 0 87.375-70.862 158.197-158.265 158.197z m0-75.2c45.88 0 83.065-37.164 83.065-82.997 0-45.834-37.185-82.998-83.065-82.998-45.88 0-83.064 37.164-83.064 82.998 0 45.833 37.184 82.997 83.064 82.997z m-547.047 75.2C150.966 971.288 80.104 900.466 80.104 813.091s70.862-158.198 158.264-158.198c87.403 0 158.265 70.823 158.265 158.198 0 87.375-70.862 158.197-158.265 158.197z m0-75.2c45.88 0 83.065-37.164 83.065-82.997 0-45.834-37.185-82.998-83.065-82.998-45.88 0-83.064 37.164-83.064 82.998 0 45.833 37.184 82.997 83.064 82.997z" fill="#4CA7FF" p-id="4209"></path><path d="M510.5 209.5m-158.5 0a158.5 158.5 0 1 0 317 0 158.5 158.5 0 1 0-317 0Z" fill="#A5E8D0" p-id="4210"></path></svg>