<?xml version="1.0" standalone="no"?><!DOCTYPE svg PUBLIC "-//W3C//DTD SVG 1.1//EN" "http://www.w3.org/Graphics/SVG/1.1/DTD/svg11.dtd"><svg t="1668825434270" class="icon" viewBox="0 0 1024 1024" version="1.1" xmlns="http://www.w3.org/2000/svg" p-id="5601" xmlns:xlink="http://www.w3.org/1999/xlink" width="48" height="48"><path d="M920.6 564.1v235.4c-12.1 75.6-190 143.9-407 143.9s-395-60-407-135.7V564.1" fill="#FFFFFF" p-id="5602"></path><path d="M513.6 959.3c-106.4 0-207.8-14.3-285.4-40.3-38.6-12.9-69.9-28.2-93-45.4-25.8-19.3-40.8-40.6-44.4-63.4-0.1-0.8-0.2-1.7-0.2-2.5V564.1c0-8.8 7.2-16 16-16s16 7.2 16 16v242.2c2.6 13.7 13.6 28.1 31.7 41.7 20.3 15.2 48.6 28.9 84 40.7 74.5 24.9 172.3 38.6 275.3 38.6 101.5 0 199.1-15.1 274.9-42.6 67.1-24.3 110.4-56.7 116.1-86.6v-234c0-8.8 7.2-16 16-16s16 7.2 16 16v235.4c0 0.8-0.1 1.7-0.2 2.5-6.9 43.2-55.5 83.3-137 112.8-79.2 28.7-180.7 44.5-285.8 44.5z" fill="#00365B" p-id="5603"></path><path d="M106.6 564.1c0 79.5 182.2 143.9 407 143.9s407-64.4 407-143.9-182.2-143.9-407-143.9-407 64.4-407 143.9z m0 0" fill="#FFFFFF" p-id="5604"></path><path d="M513.6 724c-110.5 0-214.6-15.3-293.1-43.1-39.2-13.9-70.2-30.2-92.2-48.5-25-20.9-37.7-43.9-37.7-68.3s12.7-47.4 37.7-68.3c22-18.4 53-34.7 92.2-48.5 78.5-27.8 182.6-43 293.1-43 110.5 0 214.6 15.3 293.1 43.1 39.2 13.9 70.2 30.2 92.2 48.5 25 20.9 37.7 43.9 37.7 68.3s-12.7 47.4-37.7 68.3c-22 18.4-53 34.7-92.2 48.5-78.5 27.7-182.6 43-293.1 43z m0-287.8c-107 0-207.3 14.6-282.5 41.2-35.1 12.4-63.5 27.2-82.3 42.9-17.4 14.6-26.2 29.3-26.2 43.7 0 14.5 8.8 29.2 26.2 43.7 18.8 15.7 47.2 30.5 82.3 42.9 75.2 26.6 175.5 41.2 282.5 41.2s207.3-14.6 282.5-41.2c35.1-12.4 63.5-27.2 82.3-42.9 17.4-14.6 26.2-29.3 26.2-43.7s-8.8-29.2-26.2-43.7c-18.8-15.7-47.2-30.5-82.3-42.9-75.2-26.5-175.6-41.2-282.5-41.2z" fill="#00365B" p-id="5605"></path><path d="M920.6 224.8v235.4c-12.1 75.6-190 143.9-407 143.9s-395-60-407-135.7V224.8" fill="#FFFFFF" p-id="5606"></path><path d="M513.6 620.1c-106.4 0-207.8-14.3-285.4-40.3-38.6-12.9-69.9-28.2-93-45.4-25.8-19.3-40.8-40.6-44.4-63.4-0.1-0.8-0.2-1.7-0.2-2.5V224.8c0-8.8 7.2-16 16-16s16 7.2 16 16V467c2.6 13.7 13.6 28.1 31.7 41.7 20.3 15.2 48.6 28.9 84 40.7 74.5 24.9 172.3 38.6 275.3 38.6 101.5 0 199.1-15.1 274.9-42.6 67.1-24.3 110.4-56.7 116.1-86.6v-234c0-8.8 7.2-16 16-16s16 7.2 16 16v235.4c0 0.8-0.1 1.7-0.2 2.5-6.9 43.2-55.5 83.3-137 112.8-79.2 28.8-180.7 44.6-285.8 44.6z" fill="#00365B" p-id="5607"></path><path d="M106.6 224.8c0 79.5 182.2 143.9 407 143.9s407-64.4 407-143.9-182.2-143.9-407-143.9-407 64.4-407 143.9z m0 0" fill="#FFFFFF" p-id="5608"></path><path d="M513.6 384.7c-110.5 0-214.6-15.3-293.1-43.1-39.2-13.9-70.2-30.2-92.2-48.5-25-20.9-37.7-43.9-37.7-68.3s12.7-47.4 37.7-68.3c22-18.4 53-34.7 92.2-48.5C299 80.2 403.1 65 513.6 65c110.5 0 214.6 15.3 293.1 43.1 39.2 13.9 70.2 30.2 92.2 48.5 25 20.9 37.7 43.9 37.7 68.3s-12.7 47.4-37.7 68.3c-22 18.4-53 34.7-92.2 48.5-78.5 27.7-182.6 43-293.1 43z m0-287.8c-107 0-207.3 14.6-282.5 41.2-35.1 12.4-63.5 27.2-82.3 42.9-17.4 14.6-26.2 29.3-26.2 43.7 0 14.5 8.8 29.2 26.2 43.7 18.8 15.7 47.2 30.5 82.3 42.9 75.2 26.6 175.5 41.2 282.5 41.2s207.3-14.6 282.5-41.2c35.1-12.4 63.5-27.2 82.3-42.9 17.4-14.6 26.2-29.3 26.2-43.7s-8.8-29.2-26.2-43.7c-18.8-15.7-47.2-30.5-82.3-42.9-75.2-26.5-175.6-41.2-282.5-41.2z" fill="#00365B" p-id="5609"></path><path d="M783.2 792.7m-40 0a40 40 0 1 0 80 0 40 40 0 1 0-80 0Z" fill="#53B28F" p-id="5610"></path><path d="M783.2 446m-40 0a40 40 0 1 0 80 0 40 40 0 1 0-80 0Z" fill="#53B28F" p-id="5611"></path><path d="M237.4 223.8c0 36.7 122.6 66.5 273.9 66.5 151.3 0 273.9-29.8 273.9-66.5s-122.6-66.5-273.9-66.5c-151.3 0.1-273.9 29.8-273.9 66.5z m0 0" fill="#53B28F" p-id="5612"></path></svg>