<?xml version="1.0" standalone="no"?><!DOCTYPE svg PUBLIC "-//W3C//DTD SVG 1.1//EN" "http://www.w3.org/Graphics/SVG/1.1/DTD/svg11.dtd"><svg class="icon" width="256px" height="53.89px" viewBox="0 0 4864 1024" version="1.1" xmlns="http://www.w3.org/2000/svg"><path d="M1819.36 726.144c-9.728-22.56-16.224-38.656-25.92-57.952-32.448 19.296-74.592 38.624-116.736 38.624-55.136 0-97.28-19.328-126.464-54.72-29.184-35.456-42.144-74.08-42.144-135.264 0-74.08 16.192-103.04 45.376-138.464 32.448-35.424 71.36-51.52 123.2-51.52 42.176 0 84.32 12.864 126.464 38.624 6.496-25.76 9.728-45.056 12.992-64.384-35.68-25.76-84.32-35.424-139.424-35.424-74.56 0-136.192 22.528-178.336 74.048C1459.456 388.032 1440 429.888 1440 503.936c0 99.84 25.92 161.024 81.056 209.312C1560 748.672 1608.64 768 1670.208 768c55.136 0 97.28-9.664 149.152-41.856zM1971.744 256h-61.6v508.8h61.6V256z m165.376 64.416V313.92c0-16.096-12.96-32.192-32.416-32.192-19.456 0-32.416 12.896-32.416 32.192v6.464c0 16.096 12.96 32.192 32.416 32.192 19.456 0 32.416-12.896 32.416-32.192z m0 444.352V394.464h-64.832v370.304h64.832z m243.2-6.4c42.144 0 71.328-6.464 106.976-25.792-3.232-22.528-6.464-28.992-9.728-51.52-16.192 9.664-71.328 25.76-97.28 25.76-32.416 0-55.104-6.432-74.56-28.992-19.456-22.528-35.68-48.288-35.68-83.712 0-35.424 3.264-61.184 16.224-86.944 16.224-38.624 58.368-54.72 100.512-54.72 29.184 0 74.56 9.632 90.784 25.728 9.728-19.296 12.992-28.96 25.92-51.52-25.92-19.296-71.296-32.192-113.472-32.192-48.64 0-94.016 19.328-126.432 57.952-32.448 35.424-42.144 74.08-42.144 141.696 0 51.52 9.696 86.944 42.144 119.136 25.92 28.992 68.096 45.12 116.704 45.12z m262.624-157.824h29.184l132.928 164.224h74.56l-158.848-189.984 139.424-170.656h-64.864l-119.968 144.896h-32.416V268.896h-55.136v495.872h55.136v-164.224zM3015.808 764.8v-225.408h249.664V764.8h71.36V256h-71.36v222.176h-249.664V256h-71.328v508.8h71.36z m690.656-61.184c29.184-38.624 45.376-80.48 45.376-138.464 0-61.184-16.192-93.376-48.64-125.568-32.416-32.192-68.064-48.32-116.704-48.32-55.136 0-90.784 19.328-123.2 54.752-32.448 35.424-48.64 70.848-48.64 132.032 0 57.952 16.192 93.376 45.376 128.8 29.184 38.656 64.832 54.72 116.736 54.72 61.6 0 100.48-19.296 129.696-57.92z m-120 3.232c-38.88 0-71.328-12.864-87.52-35.424-16.224-22.528-25.92-54.72-25.92-90.144 0-35.424 9.696-67.648 25.92-93.408 16.192-25.76 51.872-38.624 90.784-38.624 42.144 0 68.096 16.096 84.288 45.088 9.728 19.296 16.224 45.056 16.224 77.28 0 35.424-6.496 64.384-22.72 93.376-16.192 28.992-38.88 41.856-81.024 41.856z m450.72 28.992a100.8 100.8 0 0 0 29.184-35.424v61.184h58.368V394.464h-61.6v183.552c0 35.424-3.264 54.72-12.992 74.048-16.192 38.656-42.144 57.984-87.552 57.984-29.152 0-51.84-9.664-61.6-32.224-6.464-12.864-9.728-28.96-9.728-45.056v-235.072h-64.832v241.504c0 32.192 6.464 57.952 16.192 77.28 19.456 32.192 58.368 48.32 110.24 48.32 35.68 0 61.632-9.696 84.32-28.992z m415.04-12.896c25.92-22.528 32.416-38.624 32.416-74.048s-12.96-51.52-35.68-67.616c-16.192-9.664-32.416-19.328-77.824-32.224l-29.152-9.664a104.192 104.192 0 0 1-42.176-16.096c-16.192-9.664-22.688-16.096-22.688-32.192s3.232-25.76 16.224-32.192c12.96-9.664 29.184-9.664 51.84-9.664 35.68 0 94.08 16.096 100.544 28.96 6.496-16.096 6.496-22.528 16.224-51.52-32.448-25.76-68.096-32.192-123.2-32.192-42.176 0-68.128 6.432-94.08 28.992-25.92 22.528-32.384 41.856-32.384 77.28 0 28.96 9.728 54.72 35.648 70.848 16.224 9.664 38.912 19.296 71.36 25.76l42.144 12.864c25.92 6.432 29.152 9.664 38.88 12.896 12.992 9.664 19.456 19.296 19.456 35.424 0 22.528-12.96 48.32-71.328 48.32-45.376 0-100.48-16.128-129.696-32.224-3.232 16.096-6.464 32.192-6.464 54.72 22.688 25.76 77.792 32.224 132.928 32.224 51.872 0 84.288-16.096 107.008-38.656z m402.048 0c-6.496-19.328-9.728-35.424-19.456-57.952-19.456 22.528-87.552 35.424-119.968 35.424-35.68 0-64.832-9.664-81.056-32.192-16.224-22.56-25.92-38.656-25.92-74.08H4864c0-77.28-12.96-125.568-32.416-148.128-19.456-19.328-42.144-54.72-126.464-54.72-51.872 0-84.288 12.864-116.736 51.52-32.416 38.624-48.64 80.48-48.64 138.464 0 61.152 16.224 99.808 48.64 135.232 32.448 32.192 74.56 45.088 120 45.088 74.56 0 116.704-19.328 145.888-38.656z m-71.36-235.072c9.76 16.096 16.224 35.424 19.488 64.416h-191.296c0-32.192 6.464-48.32 25.92-70.848 19.456-22.528 38.912-32.192 68.096-32.192 38.912 0 61.6 6.432 77.824 38.624z" fill="#231F20" /><path d="M0 0h125.312v901.184H0V0z m264.416 0h125.312v1024H264.416V0z m264.96 0h125.28v1024h-125.312V0z m264.384 0h125.312v1024h-125.312V0z m264.96 409.504H1184v204.992h-125.312v-204.992z" fill="#FFCB14" /><path d="M0 901.184h125.312V1024H0z" fill="#FF0000" /></svg>