<?xml version="1.0" standalone="no"?><!DOCTYPE svg PUBLIC "-//W3C//DTD SVG 1.1//EN" "http://www.w3.org/Graphics/SVG/1.1/DTD/svg11.dtd"><svg class="icon" width="256px" height="256.00px" viewBox="0 0 1024 1024" version="1.1" xmlns="http://www.w3.org/2000/svg"><path d="M914.432 515.072l7.168 219.136c53.248-62.464 84.992-137.216 84.992-218.112 0-215.04-222.208-389.12-495.616-389.12-65.536 0-89.088 3.072-180.224 61.44-93.184 59.392-135.168 171.008-151.552 224.256-23.552 76.8-26.624 207.872 95.232 243.712s291.84-156.672 291.84-156.672L563.2 782.336s-22.528 12.288-111.616 14.336-159.744-21.504-236.544-72.704c-76.8-52.224-115.712-128-111.616-257.024 6.144-167.936 90.112-214.016 121.856-270.336-117.76 50.176-211.968 194.56-211.968 318.464 0 215.04 222.208 389.12 495.616 389.12 22.528 0 44.032-1.024 65.536-3.072l4.096-415.744 210.944-27.648v378.88c4.096-2.048 9.216-5.12 13.312-7.168V463.872l111.616 51.2z m-124.928-65.536L578.56 471.04v-71.68l83.968-7.168v29.696l63.488-5.12v-32.768l63.488-6.144v71.68z m11.264-64.512l33.792 15.36v26.624l38.912 14.336v-22.528l34.816 15.36v63.488l-107.52-49.152v-63.488z" fill="#C8000B" /></svg>