<?xml version="1.0" standalone="no"?><!DOCTYPE svg PUBLIC "-//W3C//DTD SVG 1.1//EN" "http://www.w3.org/Graphics/SVG/1.1/DTD/svg11.dtd"><svg class="icon" width="256px" height="256.00px" viewBox="0 0 1024 1024" version="1.1" xmlns="http://www.w3.org/2000/svg"><path d="M471.04 185.856c-190.464 0-344.576 154.112-344.576 344.576 0 124.928 60.928 242.688 160.768 303.104l-29.696 42.496c-8.704 11.776-5.632 28.672 6.656 37.376l3.584 2.56c11.776 8.704 28.672 5.632 37.376-6.656l40.96-57.856c38.912 15.36 81.408 24.064 125.952 24.064 190.464 0 344.576-154.112 344.576-344.576S660.992 185.856 471.04 185.856z" fill="#C9E6FF" /><path d="M282.112 927.744c-7.168 0-13.824-2.048-19.968-6.144l-3.584-2.56c-7.68-5.12-12.288-13.312-13.824-22.528-1.536-9.216 0.512-18.432 5.632-25.6l25.088-35.84c-97.28-62.464-157.184-178.688-157.184-305.152C118.272 335.872 276.48 178.176 471.04 178.176c194.56 0 352.256 158.208 352.256 352.256 0 194.56-158.208 352.256-352.256 352.256-42.496 0-83.968-7.68-123.392-22.016l-37.376 52.736c-5.12 7.68-13.312 12.288-22.528 13.824-2.048 0.512-3.584 0.512-5.632 0.512zM471.04 193.536c-185.856 0-336.896 151.04-336.896 336.896 0 124.416 59.904 237.568 156.672 296.448l7.168 4.096-34.816 49.152c-3.072 4.096-4.096 9.216-3.072 14.336 1.024 5.12 3.584 9.216 7.68 12.288l3.584 2.56c4.096 3.072 9.216 4.096 14.336 3.072s9.216-3.584 12.288-7.68l44.544-62.976 5.632 2.048c39.424 15.36 80.896 23.552 123.392 23.552 185.856 0 336.896-151.04 336.896-336.896-0.512-185.856-151.552-336.896-337.408-336.896z" fill="#2E66FF" /><path d="M114.688 347.136c-11.264 12.8-32.768 11.264-40.96-3.584-27.648-47.616-17.92-116.224 27.136-167.424s112.128-69.632 162.816-48.64c15.872 6.656 20.48 27.136 9.216 40.448l-158.208 179.2z" fill="#FFF152" /><path d="M95.232 363.52H92.16c-10.752-1.024-19.968-7.168-25.088-16.384-29.696-51.2-17.92-123.904 28.16-176.64S211.456 97.28 266.24 119.808c9.728 4.096 16.896 12.288 19.456 23.04s-0.512 21.504-7.68 29.696L120.32 352.256c-6.144 7.168-15.36 11.264-25.088 11.264z m123.904-237.056c-39.424 0-81.92 19.456-112.64 54.784-41.984 47.616-52.736 113.152-26.624 158.72 2.56 4.608 7.68 8.192 13.312 8.704 6.144 0.512 11.776-1.536 15.36-6.144L266.24 162.816c4.096-4.608 5.12-10.24 4.096-15.872-1.536-5.632-5.12-10.24-10.24-12.288-12.8-5.632-26.624-8.192-40.96-8.192z" fill="#2E66FF" /><path d="M889.344 303.104c13.312 10.752 33.792 5.632 39.936-10.24 19.456-51.2-1.536-117.248-54.272-160.768S752.64 81.92 706.56 111.104c-14.848 9.216-15.872 30.208-2.048 41.472l184.832 150.528z" fill="#FFF152" /><path d="M905.728 316.928c-7.68 0-15.36-2.56-20.992-7.68l-185.344-151.04c-8.192-6.656-12.8-17.408-12.288-28.16 0.512-10.752 6.144-19.968 15.36-25.6 50.176-31.232 123.392-22.528 177.152 21.504 54.272 44.032 77.824 113.664 56.832 169.472-3.584 9.728-11.776 17.408-22.016 19.968-3.072 1.024-5.632 1.536-8.704 1.536z m-135.168-216.064c-22.016 0-42.496 5.632-60.416 16.384-4.608 3.072-7.68 8.192-8.192 13.824-0.512 6.144 2.048 11.264 6.656 15.36l185.344 151.04c4.608 3.584 10.24 5.12 16.384 3.584 5.632-1.536 9.728-5.12 11.776-10.752 18.432-49.664-3.072-112.128-52.224-152.064-29.696-24.576-65.536-37.376-99.328-37.376z" fill="#2E66FF" /><path d="M906.752 541.184c0-196.608-159.232-355.84-355.84-355.84s-355.84 159.232-355.84 355.84c0 123.392 62.976 232.448 158.72 295.936l-40.448 57.344c-8.704 11.776-5.632 28.672 6.656 37.376l3.584 2.56c11.776 8.704 28.672 5.632 37.376-6.656l44.032-62.464c44.544 19.968 94.208 31.232 145.92 31.232 51.2 0 99.84-10.752 143.36-30.208l40.448 57.344c8.704 11.776 25.088 14.848 37.376 6.656l3.584-2.56c11.776-8.704 14.848-25.088 6.656-37.376l-36.352-51.712c96.768-63.488 160.768-173.056 160.768-297.472z" fill="#FFFFFF" /><path d="M338.944 947.2c-6.656 0-13.824-2.048-19.968-6.144l-3.584-2.56c-15.36-10.752-19.456-32.256-8.192-48.128l35.84-51.2c-97.792-68.096-155.648-178.688-155.648-297.984 0-200.192 162.816-363.52 363.52-363.52s363.52 162.816 363.52 363.52c0 120.32-58.88 231.424-157.696 299.52l32.256 45.568c5.12 7.68 7.168 16.384 5.632 25.6-1.536 9.216-6.656 16.896-13.824 22.528l-3.584 2.56c-7.68 5.12-16.384 7.168-25.6 5.632-9.216-1.536-16.896-6.656-22.528-13.824l-36.864-52.224c-44.544 18.944-92.16 28.16-140.8 28.16-49.664 0-97.792-9.728-143.36-29.696l-40.448 57.344c-7.168 9.728-17.92 14.848-28.672 14.848z m212.48-753.664c-192 0-348.16 156.16-348.16 348.16 0 116.736 57.856 224.768 155.136 289.792l6.656 4.608-45.056 64c-6.144 8.704-4.096 20.48 4.608 26.624l3.584 2.56c8.704 6.144 20.48 4.096 26.624-4.608l48.128-68.096 5.632 2.56c45.056 20.48 93.184 30.72 142.848 30.72 48.64 0 95.744-9.728 140.288-29.696l5.632-2.56 44.032 62.464c3.072 4.096 7.168 6.656 12.288 7.68 5.12 1.024 10.24-0.512 14.336-3.072l3.584-2.56c4.096-3.072 6.656-7.168 7.68-12.288 1.024-5.12-0.512-10.24-3.072-14.336l-40.96-58.368 6.656-4.608c98.816-64.512 157.696-173.568 157.696-291.328-0.512-192-156.672-347.648-348.16-347.648z" fill="#2E66FF" /><path d="M557.056 544.768m-281.6 0a281.6 281.6 0 1 0 563.2 0 281.6 281.6 0 1 0-563.2 0Z" fill="#C9E6FF" /><path d="M557.056 831.488c-158.208 0-286.72-128.512-286.72-286.72s128.512-286.72 286.72-286.72 286.72 128.512 286.72 286.72-128.512 286.72-286.72 286.72z m0-563.2c-152.576 0-276.48 123.904-276.48 276.48s123.904 276.48 276.48 276.48 276.48-123.904 276.48-276.48-123.904-276.48-276.48-276.48z" fill="#FFB5EC" /><path d="M566.784 521.216c-4.096 0-7.68-3.584-7.68-7.68V367.104c0-10.752 8.192-18.944 17.92-18.944h29.184c4.096 0 7.68 3.584 7.68 7.68s-3.584 7.68-7.68 7.68h-29.184c-1.024 0-2.56 1.536-2.56 3.584v146.432c0 4.096-3.072 7.68-7.68 7.68z" fill="#2E66FF" /><path d="M606.208 418.816h-39.424c-4.096 0-7.68-3.584-7.68-7.68s3.584-7.68 7.68-7.68h39.424c4.096 0 7.68 3.584 7.68 7.68s-3.072 7.68-7.68 7.68z" fill="#2E66FF" /><path d="M666.112 680.448c-1.536 0-3.072-0.512-4.096-1.024-3.584-2.048-4.608-7.168-2.56-10.752l15.872-24.576c0.512-1.024 1.024-2.048 1.024-2.56l-80.896-51.712c-3.584-2.048-4.608-7.168-2.56-10.752 2.048-3.584 7.168-4.608 10.752-2.56l81.92 52.224c3.584 2.56 6.144 6.656 6.656 11.264 0.512 4.096-1.024 8.192-3.072 11.776l-15.872 24.576c-2.048 3.072-4.608 4.096-7.168 4.096z m10.752-38.4z" fill="#FFF152" /><path d="M620.544 655.872c-1.536 0-3.072-0.512-4.096-1.024-3.584-2.048-4.608-7.168-2.56-10.752l20.992-33.28c2.048-3.584 7.168-4.608 10.752-2.56 3.584 2.048 4.608 7.168 2.56 10.752l-20.992 33.28c-2.048 2.048-4.096 3.584-6.656 3.584z" fill="#FFF152" /><path d="M566.784 552.96m-39.424 0a39.424 39.424 0 1 0 78.848 0 39.424 39.424 0 1 0-78.848 0Z" fill="#FFB5EC" /><path d="M566.784 600.064c-26.112 0-47.104-20.992-47.104-47.104s20.992-47.104 47.104-47.104 47.104 20.992 47.104 47.104-20.992 47.104-47.104 47.104z m0-78.848c-17.408 0-31.744 14.336-31.744 31.744s14.336 31.744 31.744 31.744 31.744-14.336 31.744-31.744-14.336-31.744-31.744-31.744z" fill="#2E66FF" /></svg>