<?xml version="1.0" standalone="no"?><!DOCTYPE svg PUBLIC "-//W3C//DTD SVG 1.1//EN" "http://www.w3.org/Graphics/SVG/1.1/DTD/svg11.dtd"><svg class="icon" width="200px" height="200.00px" viewBox="0 0 1024 1024" version="1.1" xmlns="http://www.w3.org/2000/svg"><path d="M627.2 775.68c1.28 16.64-8.96 30.72-23.04 32l-222.72-32c-15.36 1.28-28.16-10.24-30.72-25.6l23.04-149.76c-1.28-15.36 8.96-30.72 23.04-32L545.28 550.4c15.36-1.28 28.16 10.24 30.72 25.6l51.2 199.68z" fill="#FAC546" /><path d="M604.16 820.48h-1.28l-221.44-32c-21.76 1.28-39.68-15.36-42.24-37.12v-3.84l23.04-148.48c-1.28-10.24 2.56-21.76 8.96-29.44 6.4-7.68 15.36-14.08 25.6-15.36L544 537.6c21.76-2.56 40.96 14.08 44.8 35.84l51.2 198.4v1.28c2.56 23.04-12.8 43.52-34.56 46.08l-1.28 1.28z m-224-57.6h1.28l221.44 32c6.4-1.28 11.52-8.96 11.52-16.64l-51.2-198.4v-1.28c-1.28-8.96-8.96-15.36-16.64-14.08l-148.48 17.92c-3.84 0-6.4 2.56-8.96 5.12-2.56 3.84-3.84 7.68-3.84 12.8v3.84l-23.04 147.2c1.28 7.68 8.96 14.08 16.64 12.8 0-1.28 1.28-1.28 1.28-1.28z" fill="#231C1C" /><path d="M823.04 195.84L769.28 217.6l58.88 518.4 56.32 7.68c15.36-1.28 28.16-10.24 26.88-25.6l-58.88-496.64c0-16.64-14.08-28.16-29.44-25.6z" fill="#6FB0BE" /><path d="M885.76 755.2h-1.28l-56.32-7.68c-6.4-1.28-10.24-5.12-11.52-11.52L757.76 217.6c-1.28-5.12 2.56-11.52 7.68-12.8l53.76-21.76c1.28 0 2.56-1.28 3.84-1.28 10.24-1.28 21.76 1.28 29.44 8.96 8.96 6.4 14.08 16.64 15.36 26.88l58.88 496.64c1.28 8.96-1.28 16.64-6.4 24.32-6.4 8.96-17.92 14.08-32 15.36-1.28 1.28-1.28 1.28-2.56 1.28z m-44.8-32l44.8 5.12c6.4-1.28 10.24-2.56 12.8-6.4 1.28-1.28 1.28-2.56 1.28-5.12l-58.88-496.64c0-3.84-2.56-7.68-5.12-10.24-2.56-2.56-6.4-3.84-8.96-3.84l-42.24 16.64 56.32 500.48z" fill="#231C1C" /><path d="M170.24 455.68c-10.24 3.84-25.6 15.36-24.32 30.72l16.64 138.24c1.28 15.36 11.52 30.72 26.88 29.44l56.32 7.68L224 435.2l-53.76 20.48z" fill="#6FB0BE" /><path d="M245.76 673.28h-1.28l-55.04-6.4c-21.76 1.28-37.12-19.2-39.68-39.68l-16.64-138.24c-2.56-23.04 17.92-39.68 32-44.8L217.6 422.4c3.84-1.28 7.68-1.28 11.52 1.28 3.84 2.56 5.12 5.12 6.4 10.24l23.04 226.56c0 3.84-1.28 7.68-3.84 10.24-2.56 1.28-5.12 2.56-8.96 2.56z m-56.32-32h1.28l40.96 5.12-19.2-193.28-37.12 15.36c-6.4 2.56-16.64 10.24-15.36 17.92l16.64 138.24c1.28 7.68 5.12 19.2 12.8 17.92-1.28-1.28 0-1.28 0-1.28z" fill="#231C1C" /><path d="M224 433.92l21.76 226.56 583.68 74.24-58.88-518.4z" fill="#E1E0A6" /><path d="M829.44 747.52h-1.28l-583.68-74.24c-6.4-1.28-10.24-5.12-11.52-11.52L211.2 435.2c0-5.12 2.56-11.52 7.68-12.8l546.56-217.6c3.84-1.28 7.68-1.28 11.52 1.28 3.84 2.56 5.12 5.12 6.4 8.96l58.88 518.4c0 3.84-1.28 7.68-3.84 10.24-2.56 2.56-5.12 3.84-8.96 3.84z m-570.88-98.56l556.8 70.4-56.32-485.12-522.24 207.36 21.76 207.36z" fill="#231C1C" /></svg>