<?xml version="1.0" standalone="no"?><!DOCTYPE svg PUBLIC "-//W3C//DTD SVG 1.1//EN" "http://www.w3.org/Graphics/SVG/1.1/DTD/svg11.dtd"><svg class="icon" width="200px" height="199.80px" viewBox="0 0 1025 1024" version="1.1" xmlns="http://www.w3.org/2000/svg"><path fill="" d="M1021.2 556.5L742.6 74c-10.5-18.2-35.3-21.5-50.2-6.8L189.3 563.7c-5.2 5.1-6.3 13.1-2.6 19.4l115.6 200.3c3.6 6.3 11.1 9.4 18.1 7.4l103.4-28.4c3.6-1 7.4 0.6 9.2 3.9 14.8 27.6 40.2 60.4 82 79 20.3 9 42.4 13.5 65.1 13.5 21.9 0 44.5-4.2 66.5-12.6 39.1-14.9 75.3-42.3 99.2-75.4 10.5-14.5 18.9-30.5 25.2-47.7 14.3-39.1 46.4-69 86.5-80l144.4-39.7c20.3-5.6 29.8-28.8 19.3-46.9zM694.5 732.7c-0.1 0.2-0.3 0.3-0.4 0.5-25.1 34.6-69.8 61.7-113.6 61.7-13.4 0-26.8-2.5-39.5-8.2-18.1-8-31.5-20.9-41.2-34.1-3.3-4.5-1.1-11 4.3-12.4l164-45.1c22.1-6 39.7 19 26.4 37.6zM129.4 675.8l62 107.4c1.1 1.9 0.4 4.4-1.5 5.5l-34.6 20c-1.9 1.1-4.4 0.4-5.5-1.5l-60-103.9c-1.1-1.9-0.4-4.4 1.5-5.5l38.1-22z m-115.1-7.4c-7.7 4.4-10.3 14.2-5.9 21.9l112 194c4.4 7.7 14.2 10.3 21.9 5.9l124.7-72c7.7-4.4 10.3-14.2 5.9-21.9l-112-194c-4.4-7.7-14.2-10.3-21.9-5.9l-124.7 72z" /></svg>