<?xml version="1.0" standalone="no"?><!DOCTYPE svg PUBLIC "-//W3C//DTD SVG 1.1//EN" "http://www.w3.org/Graphics/SVG/1.1/DTD/svg11.dtd"><svg class="icon" width="200px" height="200.00px" viewBox="0 0 1024 1024" version="1.1" xmlns="http://www.w3.org/2000/svg"><path fill="" d="M800 0c-65.696 0-117.312 45.12-154.368 114.752l-0.672-0.384C591.136 219.744 511.008 288 423.232 288H128c-71.776 0-128 70.304-128 160 0 89.76 56.224 160 128 160a64 64 0 0 1 63.84 64v288a64 64 0 0 0 64 64h128a64 64 0 0 0 64-64v-32c0-32-32-46.304-32-64v-224c0-0.736 0.512-1.248 0.576-1.984a31.744 31.744 0 0 1 3.584-12.64 21.6 21.6 0 0 1 1.888-2.816 31.648 31.648 0 0 1 9.728-9.376c0.192-0.128 0.256-0.32 0.448-0.448 0.128 0 0.224-0.128 0.352-0.128 2.56-1.44 5.632-1.76 8.512-2.56 80.768 8.576 153.888 73.76 204.064 171.936l0.8-0.384C682.88 851.008 734.368 896 800 896c147.072 0 224-225.376 224-448S947.072 0 800 0z m-160 448c0-33.184 1.952-65.248 5.248-96H736c35.328 0 64 43.008 64 96 0 53.056-28.672 96-64 96h-90.752A899.36 899.36 0 0 1 640 448zM64 448c0-52.992 28.672-96 64-96H352.448c-19.84 23.328-32.448 57.184-32.448 96 0 38.88 12.608 72.736 32.448 96H128c-35.328 0-64-42.944-64-96z m319.84 512h-128v-288a127.04 127.04 0 0 0-17.184-64h22.336v0.384h96.256a96.736 96.736 0 0 0-5.408 31.616v224c0 30.816 17.216 51.328 27.488 63.552 1.408 1.696 3.072 3.424 4.512 5.312V960z m39.392-415.616H416V544c-35.328 0-64-42.944-64-96 0-52.992 28.672-96 64-96h7.232c60.352 0 116.864-23.744 166.592-64.576A925.376 925.376 0 0 0 576 448c0 54.688 4.672 109.44 13.888 160.992-49.76-40.864-106.304-64.608-166.656-64.608zM800 832c-64.576 0-120-91.872-145.312-224H736c71.744 0 128-70.24 128-160 0-89.696-56.256-160-128-160h-81.312C680 155.936 735.424 64 800 64c88.384 0 160 171.936 160 384s-71.616 384-160 384z"  /></svg>