<?xml version="1.0" standalone="no"?><!DOCTYPE svg PUBLIC "-//W3C//DTD SVG 1.1//EN" "http://www.w3.org/Graphics/SVG/1.1/DTD/svg11.dtd"><svg class="icon" width="200px" height="200.00px" viewBox="0 0 1024 1024" version="1.1" xmlns="http://www.w3.org/2000/svg"><path fill="" d="M884.736 0c59.392 0 112.64 37.888 132.096 95.232 19.456 57.344 0 119.808-48.128 155.648-46.08-81.92-113.664-149.504-194.56-195.584C799.744 20.48 840.704 0 884.736 0zM109.568 3.072c54.272-11.264 110.592 10.24 142.336 55.296-80.896 47.104-146.432 114.688-192.512 196.608C14.336 222.208-8.192 166.912 3.072 112.64 13.312 57.344 55.296 15.36 109.568 3.072z m377.856 248.832c-12.288-1.024-25.6 2.048-34.816 11.264-9.216 8.192-15.36 20.48-15.36 33.792v268.288c0 15.36 12.288 27.648 27.648 27.648h202.752c13.312 0 25.6-5.12 33.792-15.36 8.192-9.216 12.288-22.528 11.264-34.816-3.072-22.528-22.528-39.936-46.08-39.936H526.336v-204.8c0-23.552-16.384-43.008-38.912-46.08zM516.096 51.2c191.488 0 363.52 120.832 429.056 302.08 65.536 181.248 12.288 384-134.144 508.928l73.728 73.728c20.48 20.48 20.48 52.224 0 72.704-9.216 9.216-22.528 15.36-35.84 15.36-13.312 0-26.624-5.12-35.84-15.36l-88.064-88.064c-132.096 68.608-288.768 67.584-420.864-1.024L215.04 1008.64c-9.216 9.216-22.528 15.36-35.84 15.36s-26.624-5.12-35.84-15.36c-20.48-20.48-20.48-52.224 0-72.704l74.752-74.752C70.656 735.232 18.432 532.48 84.992 351.232 151.552 171.008 323.584 51.2 516.096 51.2z"  /></svg>