<?xml version="1.0" standalone="no"?><!DOCTYPE svg PUBLIC "-//W3C//DTD SVG 1.1//EN" "http://www.w3.org/Graphics/SVG/1.1/DTD/svg11.dtd"><svg class="icon" width="200px" height="200.00px" viewBox="0 0 1024 1024" version="1.1" xmlns="http://www.w3.org/2000/svg"><path fill="" d="M916.736 760.928L864 716.032V480c0-161.44-108.672-297.504-256.864-339.008a96 96 0 1 0-190.272 0C268.672 182.496 160 318.56 160 480v237.856l-52.224 42.656a31.968 31.968 0 0 0-11.776 24.8v63.584a32 32 0 0 0 32 32h188.096c2.56 4.48 5.088 8.96 7.968 13.248a223.776 223.776 0 0 0 186.464 99.808 223.872 223.872 0 0 0 190.72-106.464c1.312-2.144 2.336-4.416 3.584-6.592H896a32 32 0 0 0 32-32v-63.584a32 32 0 0 0-11.264-24.384zM510.496 929.92a159.424 159.424 0 0 1-114.912-49.056h229.824a159.264 159.264 0 0 1-114.912 49.056zM864 816.864H160v-16.384l64-52.256V480a288.128 288.128 0 0 1 210.144-277.376l53.632-15.008-7.488-55.2a32 32 0 1 1 63.424 0l-7.488 55.2 53.632 15.008A288.128 288.128 0 0 1 800 480v265.6l64 54.496v16.768z" /></svg>