<?xml version="1.0" standalone="no"?><!DOCTYPE svg PUBLIC "-//W3C//DTD SVG 1.1//EN" "http://www.w3.org/Graphics/SVG/1.1/DTD/svg11.dtd"><svg class="icon" width="200px" height="200.00px" viewBox="0 0 1024 1024" version="1.1" xmlns="http://www.w3.org/2000/svg"><path fill="" d="M773.51255 624.357997c51.065026-12.69309 88.902796-58.8442 88.902796-113.832582s-37.83777-101.139491-88.902796-113.834628L773.51255 114.634854c0.267083-2.090615 0.419556-4.228301 0.419556-6.395664 0-26.134217-21.189601-47.323818-47.323818-47.323818-10.766205 0-20.712741 3.598968-28.674063 9.658987L349.424786 297.555953 197.753411 297.555953c-21.667485 0-39.078017 17.428951-39.078017 38.924521l0 348.08886c0 21.437242 17.486256 38.923498 39.078017 38.923498l150.448524 0 0 0.171915 347.688747 225.148853c8.265244 7.062859 18.99461 11.319813 30.716582 11.319813 26.134217 0 47.323818-21.189601 47.323818-47.323818 0-2.166339-0.152473-4.305049-0.419556-6.395664L773.511527 624.357997z"  /></svg>