<?xml version="1.0" standalone="no"?><!DOCTYPE svg PUBLIC "-//W3C//DTD SVG 1.1//EN" "http://www.w3.org/Graphics/SVG/1.1/DTD/svg11.dtd"><svg class="icon" width="200px" height="200.00px" viewBox="0 0 1024 1024" version="1.1" xmlns="http://www.w3.org/2000/svg"><path d="M277.389658 691.52577V314.145793l-2.14485-5.89629 390.424061-142.768611v686.146249l-367.909278-134.549416-26.266224-9.469675z" fill="#F7D11E" /><path d="M271.493367 707.60805l26.266224 9.470699-3.216251 8.755407-17.153682 154.383137h-80.94352L173.574221 674.372088l2.680039-5.360078c6.432503 3.573385 13.222139 6.611581 20.190854 9.29162v1.786693l75.048253 27.517727z" fill="#FF713C" /><path d="M196.446138 338.625324v339.678306c-6.968715-2.680039-13.758352-5.718235-20.190855-9.29162-55.391565-29.482475-93.094258-90.414219-93.094258-160.458505-0.001023-78.441537 47.350424-145.269571 113.285113-169.928181z" fill="#F7D11E" /><path d="M665.660682 869.49816c-2.058892 0-4.152577-0.358157-6.141884-1.090844l-469.237057-171.537842a17.875113 17.875113 0 0 1-11.70867-16.778128V338.629417c0-7.502881 4.693906-15.826454 11.743462-18.401092l469.202265-171.529655c5.531993-2.0241 11.586896-1.204431 16.385179 2.128477a17.880229 17.880229 0 0 1 7.625678 14.648628v231.58238c0 9.867742-7.992021 17.86795-17.86795 17.867949s-17.86795-8.000208-17.867949-17.867949V191.040011l-433.482739 158.477384v318.096779l433.482739 158.450778V620.056018c0-9.867742 7.992021-17.86795 17.867949-17.86795s17.86795 8.000208 17.86795 17.86795V851.629187a17.877159 17.877159 0 0 1-7.625678 14.648629 17.956977 17.956977 0 0 1-10.243295 3.220344z" fill="#885F44" /><path d="M665.660682 637.923968c-3.28072 0-6.561439-0.907673-9.44-2.696412a17.893532 17.893532 0 0 1-8.427949-15.172561V397.059178a17.895579 17.895579 0 0 1 8.427949-15.172561c5.235235-3.254114 11.795651-3.568269 17.327644-0.863671l113.300463 55.742559a17.887392 17.887392 0 0 1 9.981328 16.036231v111.502514c0 6.804986-3.874237 13.025665-9.981328 16.036231l-113.300463 55.751768a17.949814 17.949814 0 0 1-7.887644 1.831719z m17.868973-212.160028V591.351256l77.56354-38.171368v-89.254813l-77.56354-38.161135zM196.441021 696.179766c-2.128477 0-4.310166-0.39295-6.421246-1.204431-8.358365-3.211135-15.70468-6.596232-22.440082-10.347673-62.992683-33.520441-102.289688-101.050464-102.289688-176.075181 0-83.705424 50.184983-158.720931 124.886335-186.658213 9.248641-3.498684 19.543102 1.230014 22.998807 10.478655 3.454682 9.239432-1.239224 19.534915-10.469445 22.989597-60.812017 22.74605-101.678774 84.308151-101.678774 153.189961 0 61.789275 32.03767 117.225865 83.618442 144.683217 5.54939 3.080152 11.411911 5.77554 18.216897 8.393158 9.213849 3.542686 13.802354 13.881149 10.260692 23.085787-2.739391 7.102768-9.509585 11.465123-16.681938 11.465123z" fill="#885F44" /><path d="M277.389658 898.080126h-80.948637c-9.108448 0-16.751522-6.848988-17.763572-15.896039l-22.858614-205.834972c-1.081635-9.806343 5.985318-18.644639 15.791661-19.727297 9.963932-1.168616 18.653849 5.993504 19.735483 15.783475L212.44246 862.343203h48.945759l15.390525-138.479934c1.081635-9.806343 10.172687-16.891715 19.735483-15.783475 9.806343 1.081635 16.873296 9.91993 15.791662 19.726273l-17.152659 154.376997c-1.011027 9.048073-8.654101 15.897062-17.763572 15.897062z" fill="#885F44" /><path d="M277.389658 709.397812c-9.876951 0-17.86795-8.000208-17.86795-17.867949V314.14784c0-9.867742 7.992021-17.86795 17.86795-17.86795s17.86795 8.000208 17.867949 17.86795v377.382023c0.001023 9.867742-7.990998 17.86795-17.867949 17.867949zM827.575352 383.474788c-6.40385 0-12.598946-3.446495-15.809058-9.492188-4.624321-8.724709-1.291412-19.534915 7.4159-24.159236l97.019661-51.458999c8.707312-4.641717 19.543102-1.316995 24.167423 7.407714 4.624321 8.724709 1.291412 19.534915-7.4159 24.159236l-97.019661 51.458998a17.822924 17.822924 0 0 1-8.358365 2.084475zM924.56022 692.245154c-2.826372 0-5.688559-0.671289-8.358365-2.085498l-97.019661-51.467185c-8.707312-4.624321-12.040221-15.442714-7.4159-24.159237 4.624321-8.716522 15.442714-12.022825 24.167423-7.407713l97.019661 51.467185c8.707312 4.624321 12.040221 15.442714 7.4159 24.159236-3.210112 6.046716-9.405207 9.493212-15.809058 9.493212zM940.841022 503.553631H827.557956c-9.876951 0-17.86795-8.000208-17.86795-17.86795 0-9.867742 7.992021-17.86795 17.86795-17.867949h113.283066c9.875928 0 17.86795 8.000208 17.867949 17.867949 0 9.867742-7.992021 17.86795-17.867949 17.86795z" fill="#885F44" /></svg>