<?xml version="1.0" standalone="no"?><!DOCTYPE svg PUBLIC "-//W3C//DTD SVG 1.1//EN" "http://www.w3.org/Graphics/SVG/1.1/DTD/svg11.dtd"><svg t="1634976604478" class="icon" viewBox="0 0 1024 1024" version="1.1" xmlns="http://www.w3.org/2000/svg" p-id="2732" xmlns:xlink="http://www.w3.org/1999/xlink" width="200" height="200"><defs><style type="text/css"></style></defs><path d="M1003.153333 404.96a52.933333 52.933333 0 0 0-42.38-20.96H896V266.666667a53.393333 53.393333 0 0 0-53.333333-53.333334H461.253333a10.573333 10.573333 0 0 1-7.54-3.126666L344.46 100.953333A52.986667 52.986667 0 0 0 306.746667 85.333333H53.333333a53.393333 53.393333 0 0 0-53.333333 53.333334v704a53.393333 53.393333 0 0 0 53.333333 53.333333h796.893334a53.453333 53.453333 0 0 0 51.453333-39.333333l110.546667-405.333334a52.953333 52.953333 0 0 0-9.073334-46.373333zM53.333333 128h253.413334a10.573333 10.573333 0 0 1 7.54 3.126667l109.253333 109.253333A52.986667 52.986667 0 0 0 461.253333 256H842.666667a10.666667 10.666667 0 0 1 10.666666 10.666667v117.333333H173.773333a53.453333 53.453333 0 0 0-51.453333 39.333333L42.666667 715.366667V138.666667a10.666667 10.666667 0 0 1 10.666666-10.666667z m917.726667 312.14l-110.546667 405.333333a10.666667 10.666667 0 0 1-10.286666 7.86H63.226667a10.666667 10.666667 0 0 1-10.286667-13.473333l110.546667-405.333333A10.666667 10.666667 0 0 1 173.773333 426.666667h787a10.666667 10.666667 0 0 1 10.286667 13.473333z" fill="#999999" p-id="2733"></path></svg>